<?xml version="1.0" encoding="UTF-8"?>
<svg width="21px" height="20px" viewBox="0 0 21 20" version="1.1" xmlns="http://www.w3.org/2000/svg" xmlns:xlink="http://www.w3.org/1999/xlink">
    <!-- Generator: sketchtool 50.2 (55047) - http://www.bohemiancoding.com/sketch -->
    <title>0FFD821B-BB89-4039-8CDA-861524631B82</title>
    <desc>Created with sketchtool.</desc>
    <defs></defs>
    <g id="Symbols" stroke="none" stroke-width="1" fill="none" fill-rule="evenodd" fill-opacity="0.5">
        <g id="div-footer" transform="translate(-1047.000000, -220.000000)" fill="#7689A2" fill-rule="nonzero">
            <g id="icon_linkedin">
                <g transform="translate(1047.000000, 220.000000)">
                    <path d="M20.5513429,12.6290483 L20.5513429,19.9975478 L16.2792826,19.9975478 L16.2792826,13.1228728 C16.2792826,11.396717 15.6624798,10.21791 14.1156938,10.21791 C12.9352939,10.21791 12.234063,11.0115339 11.9243872,11.7799886 C11.8119226,12.0546188 11.7829304,12.4359788 11.7829304,12.8211619 L11.7829304,19.9972292 L7.51055145,19.9972292 C7.51055145,19.9972292 7.56789882,8.35380198 7.51055145,7.14855146 L11.783249,7.14855146 L11.783249,8.96933039 C11.7746469,8.98366723 11.7625402,8.99768548 11.7548939,9.01138513 L11.783249,9.01138513 L11.783249,8.96933039 C12.3509879,8.09573882 13.3634875,6.84684059 15.6334875,6.84684059 C18.4441457,6.84684059 20.5513429,8.68323075 20.5513429,12.6290483 Z M3.04127991,0.955035723 C1.57987781,0.955035723 0.623769752,1.91432975 0.623769752,3.17469746 C0.623769752,4.40830306 1.55215992,5.39531498 2.98520693,5.39531498 L3.01292482,5.39531498 C4.5030006,5.39531498 5.42947919,4.40830306 5.42947919,3.17469746 C5.4011241,1.91432975 4.5030006,0.955035723 3.04127991,0.955035723 Z M0.877691153,19.9975478 L5.14847708,19.9975478 L5.14847708,7.14855146 L0.877691153,7.14855146 L0.877691153,19.9975478 Z" id="Shape"></path>
                </g>
            </g>
        </g>
    </g>
</svg>