<?xml version="1.0" encoding="UTF-8"?>
<svg width="19px" height="15px" viewBox="0 0 19 15" version="1.1" xmlns="http://www.w3.org/2000/svg" xmlns:xlink="http://www.w3.org/1999/xlink">
    <!-- Generator: sketchtool 50.2 (55047) - http://www.bohemiancoding.com/sketch -->
    <title>ED9B55C0-9956-4D68-8509-A1DCCBE0D06F</title>
    <desc>Created with sketchtool.</desc>
    <defs></defs>
    <g id="Symbols" stroke="none" stroke-width="1" fill="none" fill-rule="evenodd" fill-opacity="0.5">
        <g id="div-footer" transform="translate(-1085.000000, -225.000000)" fill="#7689A2" fill-rule="nonzero">
            <g id="icon_medium">
                <g transform="translate(1085.000000, 225.000000)">
                    <path d="M18.1737805,2.19934334 L17.4666979,2.19934334 C17.2049719,2.19934334 16.8334897,2.57926829 16.8334897,2.81988743 L16.8334897,11.6109287 C16.8334897,11.8536585 17.2049719,12.1850375 17.4666979,12.1850375 L18.1737805,12.1850375 L18.1737805,14.2725141 L11.7636023,14.2725141 L11.7636023,12.1850375 L13.1060038,12.1850375 L13.1060038,2.94441839 L13.0405722,2.94441839 L9.90830206,14.2725141 L7.48311445,14.2725141 L4.39094747,2.94441839 L4.31285178,2.94441839 L4.31285178,12.1850375 L5.65525328,12.1850375 L5.65525328,14.2725141 L0.289868668,14.2725141 L0.289868668,12.1850375 L0.977954972,12.1850375 C1.26078799,12.1850375 1.63227017,11.8536585 1.63227017,11.6109287 L1.63227017,2.81988743 C1.63227017,2.5771576 1.26078799,2.19934334 0.977954972,2.19934334 L0.289868668,2.19934334 L0.289868668,0.111866792 L6.99976548,0.111866792 L9.20333021,8.309803 L9.26454034,8.309803 L11.4871013,0.111866792 L18.1758912,0.111866792 L18.1758912,2.19934334" id="Shape"></path>
                </g>
            </g>
        </g>
    </g>
</svg>