<?xml version="1.0" encoding="UTF-8"?>
<svg width="21px" height="18px" viewBox="0 0 21 18" version="1.1" xmlns="http://www.w3.org/2000/svg" xmlns:xlink="http://www.w3.org/1999/xlink">
    <!-- Generator: sketchtool 50.2 (55047) - http://www.bohemiancoding.com/sketch -->
    <title>E2063A77-41BE-44EB-A259-A00272BC79A3</title>
    <desc>Created with sketchtool.</desc>
    <defs></defs>
    <g id="Symbols" stroke="none" stroke-width="1" fill="none" fill-rule="evenodd" fill-opacity="0.5">
        <g id="div-footer" transform="translate(-1008.000000, -222.000000)" fill="#7689A2" fill-rule="nonzero">
            <g id="icon_twitter">
                <g transform="translate(1007.000000, 222.000000)">
                    <path d="M21.8194336,2.8440354 C21.0397421,3.18949579 20.2126185,3.41598289 19.3656991,3.5159292 C20.2579288,2.98236627 20.9256588,2.14252338 21.2443894,1.15299115 C20.4058364,1.65056911 19.4883636,2.00107284 18.531646,2.18934513 C17.7234909,1.32747434 16.5942042,0.839193385 15.412708,0.840778761 C13.0539115,0.840778761 11.1408142,2.75387611 11.1408142,5.11267257 C11.1408142,5.44750442 11.1787257,5.77341593 11.252,6.08626549 C7.70169912,5.90817699 4.55376991,4.20757522 2.44665487,1.62226549 C2.06668778,2.27423308 1.86700948,3.01554978 1.86810619,3.77015929 C1.86810619,5.25189381 2.62283186,6.56 3.76846018,7.32587611 C3.09003121,7.30494514 2.42653215,7.12150781 1.83369912,6.79097345 L1.83338053,6.84513274 C1.83338053,8.91497345 3.30651327,10.6413805 5.26038938,11.0335575 C4.89369086,11.1335867 4.51524708,11.1840531 4.13515044,11.1836106 C3.85925664,11.1836106 3.5919646,11.1571681 3.33136283,11.107469 C3.87486726,12.8042478 5.45217699,14.0393982 7.3219469,14.0741239 C5.80861279,15.2618684 3.93970335,15.9059716 2.0159292,15.9027965 C1.67185841,15.9027965 1.33097345,15.8827257 0.997415929,15.8429027 C2.95031197,17.0984812 5.22357793,17.7648767 7.54527434,17.7623717 C15.4028319,17.7623717 19.6998938,11.2530619 19.6998938,5.60743363 C19.6998938,5.42233628 19.6957522,5.23787611 19.687469,5.05500885 C20.5241435,4.45088704 21.2461439,3.70212989 21.8194336,2.8440354 Z" id="Shape"></path>
                </g>
            </g>
        </g>
    </g>
</svg>