<?xml version="1.0" encoding="UTF-8"?>
<svg width="1034px" height="270px" viewBox="0 0 1034 270" version="1.1" xmlns="http://www.w3.org/2000/svg" xmlns:xlink="http://www.w3.org/1999/xlink">
    <!-- Generator: Sketch 52.6 (67491) - http://www.bohemiancoding.com/sketch -->
    <title>barter-logo</title>
    <desc>Created with Sketch.</desc>
    <g id="Page-1" stroke="none" stroke-width="1" fill="none" fill-rule="evenodd">
        <g id="Macbook-02" transform="translate(-206.000000, -1921.000000)">
            <g id="barter-logo" transform="translate(205.000000, 1921.000000)">
                <path d="M289.194375,231.99 L314.581875,0.76125 L356.986875,0.76125 L346.246875,96.991125 C352.663125,88.3411875 359.660625,81.5705625 367.239375,76.67925 C374.818125,71.7879375 382.839375,69.342375 391.30125,69.342375 C397.254375,69.342375 402.69375,70.50075 407.623125,72.817875 C412.550625,75.1348125 416.805,78.764625 420.38625,83.7073125 C423.965625,88.6501875 426.755625,94.9573125 428.754375,102.628875 C430.755,110.300625 431.754375,119.439563 431.754375,130.045875 C431.754375,144.050625 429.825,157.359937 425.964375,169.974375 C422.105625,182.588812 416.92125,193.68375 410.41125,203.26125 C403.903125,212.836875 396.39375,220.4325 387.885,226.044375 C379.37625,231.65625 370.471875,234.463125 361.171875,234.463125 C354.01125,234.463125 347.71125,232.9425 342.271875,229.905 C336.830625,226.8675 332.205,222.8775 328.39125,217.935 L327.973125,219.48 C325.723125,226.951875 319.42125,231.99 312.3225,231.99 L289.194375,231.99 Z M374.004375,105.640875 C370.936875,105.640875 367.75125,106.928063 364.449375,109.502438 C361.149375,112.076813 357.96375,115.603688 354.894375,120.083063 C351.826875,124.562625 348.9675,129.814312 346.31625,135.838313 C343.665,141.862313 341.458125,148.272375 339.69,155.068875 L335.505,192.448125 C338.203125,194.919375 341.225625,196.670625 344.5725,197.7 C347.92125,198.729375 351.129375,199.245 354.196875,199.245 C359.22,199.245 363.845625,197.390625 368.0775,193.68375 C372.3075,189.976875 375.958125,185.111625 379.0275,179.087625 C382.095,173.063625 384.489375,166.190063 386.210625,158.466938 C387.93,150.743813 388.790625,142.866375 388.790625,134.83425 C388.790625,124.639688 387.4425,117.225563 384.74625,112.591688 C382.048125,107.957813 378.46875,105.640875 374.004375,105.640875 Z M561.759375,231.99 L545.518125,231.99 C533.8875,231.99 524.458125,221.525625 524.458125,208.61625 C524.458125,207.5475 524.52375,206.480625 524.655,205.423125 C518.70375,214.485 512.1,221.59125 504.8475,226.74 C497.593125,231.88875 489.59625,234.463125 480.855,234.463125 C475.64625,234.463125 470.625,233.304375 465.789375,230.986875 C460.95375,228.669375 456.676875,225.16875 452.956875,220.483125 C449.236875,215.7975 446.26125,209.825625 444.03,202.565625 C441.796875,195.305625 440.68125,186.7335 440.68125,176.847938 C440.68125,162.3285 443.075625,148.555688 447.864375,135.529312 C452.655,122.502938 459.350625,111.098625 467.95125,101.316 C476.55375,91.533375 486.759375,83.758875 498.57,77.9923125 C510.380625,72.2255625 523.351875,69.342375 537.4875,69.342375 C544.36875,69.342375 551.34375,69.85725 558.410625,70.887 C565.479375,71.91675 572.4525,73.770375 579.335625,76.4476875 L561.759375,231.99 Z M498.151875,196.62 C501.313125,196.62 504.3825,195.305625 507.358125,192.680625 C510.33375,190.05375 513.14625,186.476062 515.7975,181.945125 C518.446875,177.414187 520.888125,172.111125 523.119375,166.035562 C525.3525,159.96 527.259375,153.472687 528.84,146.573437 L533.86125,102.242812 L531.350625,102.242812 C524.281875,102.242812 517.843125,103.993313 512.030625,107.4945 C506.218125,110.995688 501.22125,115.758187 497.03625,121.782187 C492.85125,127.806375 489.61875,134.808562 487.340625,142.789125 C485.0625,150.769687 483.924375,159.290625 483.924375,168.3525 C483.924375,173.50125 484.295625,177.877687 485.04,181.481812 C485.7825,185.085938 486.78375,187.995 488.038125,190.209375 C489.294375,192.42375 490.78125,194.045625 492.5025,195.075 C494.221875,196.104375 496.10625,196.62 498.151875,196.62 Z M589.09875,231.99 L606.675,71.8138125 L616.12125,71.8138125 C631.155,71.8138125 643.3425,85.3408125 643.3425,102.027188 C643.3425,102.975938 643.30125,103.924125 643.220625,104.868563 C648.800625,93.95325 654.845625,85.5609375 661.355625,79.69125 C667.865625,73.82175 674.60625,70.887 681.58125,70.887 C685.486875,70.887 689.345625,71.8651875 693.159375,73.82175 L685.348125,118.152375 C680.604375,115.887 676.095,114.754125 671.81625,114.754125 C664.655625,114.754125 658.310625,118.332563 652.7775,125.48925 C647.244375,132.646125 642.7575,144.153375 639.315,160.011562 L631.50375,231.99 L589.09875,231.99 Z M707.66625,197.390625 L707.66625,194.765625 C707.66625,193.73625 707.735625,192.268125 707.874375,190.363125 C708.015,188.458125 708.2475,185.9355 708.571875,182.794687 C708.898125,179.654062 709.340625,175.509375 709.8975,170.360625 L717.290625,104.868562 L705.7125,104.868562 C703.94625,104.868562 702.459375,104.225062 701.25,102.937875 C700.040625,101.650687 699.436875,99.72 699.436875,97.145625 C699.436875,97.0425 699.52875,96.1415625 699.714375,94.4424375 C699.901875,92.7433125 700.0875,90.94125 700.273125,89.03625 C700.45875,87.13125 700.644375,85.354875 700.831875,83.7073125 C701.0175,82.05975 701.109375,81.1329375 701.109375,80.9270625 L702.136875,72.122625 L723.429375,71.8138125 L727.23375,43.6258125 C728.655,33.1048125 736.79625,25.32075 746.383125,25.32075 L768.48375,25.32075 L763.183125,72.122625 L795.545625,72.122625 L795.2625,74.680125 C793.351875,91.9175625 780.16125,104.868562 764.514375,104.868562 L759.556875,104.868562 L752.581875,167.734687 C752.116875,171.956625 751.768125,175.277625 751.535625,177.6975 C751.303125,180.117375 751.1175,181.971 750.97875,183.258187 C750.882437,184.133095 750.789311,185.008351 750.699375,185.883937 C750.6525,186.347437 750.63,186.630562 750.63,186.7335 C750.63,189.72 751.25625,192.2175 752.5125,194.225625 C753.766875,196.23375 755.743125,197.236875 758.44125,197.236875 C759.928125,197.236875 761.16,197.056875 762.136875,196.696875 C762.7875,196.456875 765.09,195.451875 769.0425,193.68375 L783.27,220.56 C777.504375,225.195 771.320625,228.669375 764.716875,230.986875 C758.115,233.304375 751.46625,234.463125 744.770625,234.463125 C739.190625,234.463125 734.169375,233.611875 729.705,231.913125 C725.2425,230.214375 721.40625,227.743125 718.198125,224.499375 C714.99,221.255625 712.479375,217.36875 710.664375,212.836875 C708.85125,208.306875 707.851875,203.158125 707.66625,197.390625 Z M923.3175,111.201562 C923.3175,118.51275 922.01625,125.206125 919.411875,131.281687 C916.809375,137.35725 912.275625,142.737562 905.8125,147.423 C899.349375,152.10825 890.655,156.098437 879.7275,159.39375 C868.8,162.688875 855.061875,165.26325 838.5075,167.116875 C838.693125,178.032187 840.856875,186.012562 844.995,191.05875 C849.133125,196.104375 855.2475,198.62625 863.338125,198.62625 C867.15,198.62625 870.451875,198.26625 873.241875,197.54625 C876.031875,196.824375 878.47125,195.898125 880.56375,194.765625 C893.10375,187.978125 908.09625,190.2825 918.500625,200.600625 L920.25,202.335 C915.135,207.894375 910.13625,212.709375 905.25375,216.77625 C900.37125,220.843125 895.35,224.19 890.19,226.816875 C885.028125,229.441875 879.541875,231.373125 873.729375,232.60875 C867.916875,233.844375 861.57,234.463125 854.68875,234.463125 C846.133125,234.463125 838.275,232.84125 831.114375,229.5975 C823.95375,226.35375 817.794375,221.77125 812.6325,215.85 C807.470625,209.92875 803.473125,202.798125 800.63625,194.45625 C797.799375,186.115687 796.381875,176.847938 796.381875,166.653375 C796.381875,158.106562 797.2425,149.765625 798.961875,141.630562 C800.683125,133.4955 803.146875,125.849812 806.355,118.692938 C809.563125,111.53625 813.493125,104.946 818.143125,98.9218125 C822.79125,92.8978125 828.0225,87.723375 833.835,83.3985 C839.6475,79.0734375 846.016875,75.7010625 852.945,73.2811875 C859.873125,70.8613125 867.24375,69.651375 875.055,69.651375 C882.7725,69.651375 889.63125,70.887 895.629375,73.3584375 C901.6275,75.829875 906.673125,79.04775 910.764375,83.01225 C914.855625,86.97675 917.971875,91.4304375 920.109375,96.3733125 C922.24875,101.316 923.3175,106.258875 923.3175,111.201563 Z M872.544375,101.933813 C865.38375,101.933813 859.10625,105.100313 853.711875,111.433313 C848.319375,117.766313 844.273125,126.44175 841.576875,137.460187 C850.5975,135.915562 857.896875,134.293687 863.476875,132.594562 C869.056875,130.895437 873.380625,129.042 876.45,127.033875 C879.5175,125.025938 881.5875,122.8635 882.65625,120.546563 C883.726875,118.229625 884.26125,115.7325 884.26125,113.055187 C884.26125,110.377687 883.33125,107.854875 881.47125,105.486562 C879.61125,103.118062 876.635625,101.933813 872.544375,101.933813 Z M930.571875,231.99 L948.148125,71.8138125 L954.91125,71.8138125 C971.360625,71.8138125 984.69375,86.613 984.69375,104.868562 C990.27375,93.95325 996.31875,85.5609375 1002.82688,79.69125 C1009.33688,73.82175 1016.07938,70.887 1023.05438,70.887 C1026.96,70.887 1030.81875,71.8651875 1034.63063,73.82175 L1026.81938,118.152375 C1022.0775,115.887 1017.56813,114.754125 1013.28938,114.754125 C1006.12875,114.754125 999.781875,118.332562 994.24875,125.48925 C988.715625,132.646125 984.22875,144.153375 980.788125,160.011562 L972.976875,231.99 L930.571875,231.99 Z" id="Shape" fill="#000000"></path>
                <path d="M179.42175,115.053938 C213.245625,86.6109375 282.825,-15.046125 174.1065,2.862375 C126.753375,10.236375 68.0518125,53.332125 54.0391875,107.057813 C46.7285625,92.691375 38.66175,78.7978125 29.87925,65.4466875 C16.833,47.0115 -9.0249375,65.0154375 5.470875,83.9773125 C46.54275,138.229688 75.0511875,203.5425 75.0511875,269.383125 C78.4336875,236.72625 83.997375,192.913125 71.4343125,153.935812 C76.0314375,157.385437 76.3644375,157.644188 79.5645,161.85075 C101.7915,198.721875 135.933938,229.351875 174.1065,244.100625 C208.8975,258.3225 255.283125,249.894375 236.439375,193.00875 C226.291875,161.932125 202.614375,134.542688 179.42175,115.053938 Z" id="Path" fill="#F5A623"></path>
            </g>
        </g>
    </g>
</svg>