<?xml version="1.0" encoding="UTF-8"?>
<svg width="720px" height="271px" viewBox="0 0 720 271" version="1.1" xmlns="http://www.w3.org/2000/svg" xmlns:xlink="http://www.w3.org/1999/xlink">
    <!-- Generator: Sketch 52.6 (67491) - http://www.bohemiancoding.com/sketch -->
    <title>Bet9ja Logo</title>
    <desc>Created with Sketch.</desc>
    <g id="Page-1" stroke="none" stroke-width="1" fill="none" fill-rule="evenodd">
        <g id="Macbook-02" transform="translate(-96.000000, -1881.000000)">
            <g id="Bet9ja-Logo" transform="translate(96.000000, 1882.000000)">
                <path d="M200.408671,165.191618 C198.520231,165.675434 197.583815,166.931792 197.240462,168.820231 C195.625145,177.81763 193.721098,186.768208 193.338728,195.92948 C193.041887,200.197351 193.423798,204.485295 194.470231,208.633526 C196.444509,215.656647 200.908092,220.494798 208.024855,221.899422 C221.033237,224.474566 232.995954,222.18815 241.82948,211.481792 C248.470231,203.420809 251.193642,194.142486 246.987572,183.826301 C246.542775,182.733815 246.300867,181.610116 247.767919,181.313584 C252.520231,180.353757 257.295954,178.972543 262.118497,180.978035 C267.651156,183.319075 270.374566,187.67341 270.436994,193.463584 C270.538439,204.169942 265.754913,212.71474 257.584682,219.26185 C247.697688,227.197977 236.25,231.825434 223.780058,234.018208 C214.915318,235.578902 205.995954,235.344798 197.12341,234.423988 C184.505202,233.113006 172.628324,229.546821 162.491618,221.485838 C151.566763,212.831792 146.424277,201.196821 145.456647,187.634393 C145.113295,182.897688 145.402023,178.121965 144.863584,173.268208 C143.240462,177.169942 141.664162,181.071676 139.986416,184.97341 C134.219653,198.27052 126.556647,210.19422 114.960694,219.277457 C107.40013,225.232064 98.5433913,229.322258 89.1078035,231.216763 C88.518157,231.297715 87.9237861,231.339425 87.3286127,231.341618 C86.1112717,230.748555 84.8939306,231.380636 83.6687861,231.380636 C59.0098266,231.318208 34.3534682,231.318208 9.69971098,231.380636 C6.73439306,231.380636 3.77687861,231.443064 0.460404624,231.216763 C1.01445087,230.397399 1.53728324,229.710694 1.30317919,228.875723 C8.39653179,217.092486 10.8546243,203.857803 13.4375723,190.638728 C17.3393064,170.45896 21.4361272,150.302601 25.4236994,130.130636 C26.7580925,123.388439 28.0066474,116.630636 29.3254335,109.880636 C29.4645265,109.523432 29.5741412,109.15544 29.6531792,108.780347 C31.9786127,97.4028902 34.2988439,86.0254335 36.6138728,74.6479769 C37.804646,70.8775642 37.8264092,66.8350381 36.6763006,63.0520231 C36.3017341,61.1635838 35.8959538,59.2751445 35.5447977,57.3867052 C35.1936416,55.2485549 36.2315029,54.8271676 38.1979769,54.8427746 C52.3846821,54.9130058 66.5791908,54.8427746 80.765896,54.8427746 C84.1135838,54.8427746 84.1135838,54.8427746 84.2228324,58.1514451 C84.2115558,58.7467802 84.1646511,59.3409064 84.0823699,59.9306358 C81.5384393,72.9364162 78.9867052,85.9421965 76.4271676,98.9479769 C75.6468208,102.77948 74.9679191,106.618786 74.1641618,110.856069 C76.817341,109.248555 79.0413295,107.875145 81.2887283,106.540751 C91.2225434,100.625723 101.577746,96.3260116 113.532659,97.1375723 C127.836416,98.1208092 138.394509,104.644509 144.528035,117.785549 C148.952601,127.274566 149.87341,137.356647 149.210116,147.657225 C149.100867,149.452023 149.007225,151.246821 148.90578,153.033815 C150.157456,150.553682 151.282599,148.011692 152.276879,145.41763 C155.546532,137.715607 160.127168,130.801734 165.160405,124.160983 C165.434614,123.931914 165.695175,123.686986 165.940751,123.427457 C174.16425,113.798492 184.744119,106.466522 196.647399,102.147399 C209.874791,97.153821 224.077196,95.2843808 238.146243,96.6849711 C245.458092,97.4653179 252.293931,99.767341 258.911272,102.857514 L258.950289,102.904335 C264.147399,105.900867 269.165029,109.14711 273.277457,113.60289 C279.785549,120.672832 282.547977,129.209827 283.047399,138.573988 C283.408091,146.59637 282.686281,154.630777 280.901445,162.460405 C280.667341,163.52948 280.565896,164.754624 279.114451,164.996532 C278.691904,164.67555 278.15342,164.548014 277.631792,164.645376 L201.399711,164.645376 C201.041503,164.665091 200.684623,164.704165 200.330636,164.762428 L200.408671,165.191618 Z M201.805491,153.369364 L201.665029,153.736127 C201.856323,153.808302 202.055339,153.858056 202.258092,153.884393 L231.474277,153.884393 C231.926879,153.884393 232.37948,153.884393 232.644798,153.400578 C235.10289,152.620231 234.626879,150.333815 235.032659,148.546821 C237.421863,138.27921 238.752801,127.793827 239.004624,117.254913 C239.106069,111.230636 235.10289,107.305491 229.125434,107.110405 C220.697688,106.806069 214.868497,110.778035 211.083815,118.03526 C205.730636,128.289017 202.968208,139.362139 200.861272,150.645954 C200.658382,151.730636 200.713006,152.721676 201.805491,153.369364 Z M57.7456647,219.511561 C59.1736994,219.511561 60.5939306,219.511561 62.0219653,219.511561 C62.5509518,219.480696 63.0746285,219.389052 63.582659,219.238439 C77.0358382,215.648844 86.4390173,207.595665 90.4812139,194.080058 C95.0462428,178.863295 98.2144509,163.310983 101.187572,147.71185 C102.601984,140.175695 102.031875,132.40123 99.533237,125.152023 C98.5732784,121.712045 95.5836481,119.225866 92.0263006,118.909249 C86.8604046,118.206936 82.4280347,119.876879 78.6511561,123.396243 C71.799711,129.771676 68.1242775,137.871676 66.2904624,146.853468 C63.3953757,161.016763 60.6641618,175.203468 57.8939306,189.390173 C56.0679191,198.754335 54.3199422,208.071676 52.4315029,217.396821 C52.1115607,219.019942 52.4315029,219.652023 54.1482659,219.550578 C55.3421965,219.449133 56.5439306,219.511561 57.7456647,219.511561 Z" id="Shape" fill="#D42127" fill-rule="nonzero"></path>
                <path d="M438.77341,234.884393 C430.969942,235.415029 423.236705,235.961272 415.425434,235.430636 C401.316763,234.470809 387.684104,231.763006 375.151734,224.895954 C370.329191,222.258382 365.959249,218.957514 363.306069,213.924277 C359.263873,206.253468 361.300578,196.89711 367.129769,190.037861 C377.898555,177.388439 401.465029,175.164451 416.080925,186.378035 C417.823704,187.6743 419.396716,189.184391 420.763006,190.872832 C422.284682,192.784682 422.198844,193.877168 420.318208,195.437861 C418.437572,196.998555 416.416474,198.442197 414.85578,200.424277 C407.996532,209.140751 411.671965,221.064451 422.315896,224.115607 C431.609827,226.77659 439.358671,224.497977 445.976012,217.178324 C458.172832,203.67052 465.578324,187.790462 470.166763,170.419942 C471.196821,166.518208 471.992775,162.546243 472.780925,158.589884 C473.038439,157.310116 473.506647,155.562139 472.351734,154.820809 C471.407514,154.212139 470.213584,155.499711 469.230347,156.178613 C459.717919,162.889595 449.432948,167.977457 438.016474,170.443353 C424.157514,173.432081 410.384393,173.56474 396.87659,168.430058 C381.215029,162.507225 369.806358,146.416474 369.377168,129.709249 C369.299847,121.155444 370.688125,112.651582 373.481792,104.566474 C373.684682,103.934393 373.817341,103.271098 373.981214,102.62341 C374.269942,102.030347 374.597688,101.445087 374.839595,100.828613 C377.740875,93.4376677 381.896089,86.6029484 387.122254,80.6254335 C397.571098,68.717341 410.891618,61.2572254 425.530925,55.8416185 C434.422647,52.669838 443.711546,50.7474534 453.131792,50.1294798 C464.797977,49.2086705 476.308092,49.8251445 487.654335,52.9153179 C493.164173,54.5587421 498.494755,56.7521498 503.565607,59.4624277 C503.801319,59.7316647 504.062665,59.9773305 504.345954,60.1959538 C510.381372,63.9732066 515.782798,68.6793734 520.350867,74.1407514 C524.666185,79.1817919 527.795376,84.9485549 530.55,90.949422 C531.158671,92.9236994 531.736127,94.9135838 532.399422,96.8800578 C533.83526,101.125145 534.077168,105.604335 535.021387,109.950867 C535.068208,111.563584 535.120231,113.176301 535.177457,114.789017 L535.177457,121.52341 C535.177457,123.021676 535.091618,124.519942 535.044798,126.018208 C534.678035,128.905491 534.404913,131.808382 533.913295,134.672254 C533.179769,139.010983 532.297977,143.326301 531.478613,147.649422 C531.371602,147.730175 531.344448,147.879522 531.416185,147.992775 C531.000298,148.708718 530.749681,149.508561 530.682659,150.333815 L530.542197,151.192197 C528.757803,156.300867 526.968208,161.41474 525.17341,166.533815 C523.902508,168.818895 522.796793,171.19201 521.86474,173.634971 L521.919364,173.580347 L521.607225,174.157803 C521.553848,174.183025 521.512948,174.228774 521.493839,174.284632 C521.47473,174.34049 521.479037,174.401704 521.50578,174.454335 C520.154871,176.505047 518.980149,178.666536 517.99422,180.915607 C516.913007,182.283364 516.001184,183.776867 515.278613,185.363584 L508.934393,194.337572 C507.557087,195.694828 506.33006,197.196562 505.274566,198.816763 L501.091908,203.334971 C501.032647,203.328456 500.973298,203.346438 500.92762,203.384749 C500.881942,203.42306 500.853901,203.478372 500.85,203.537861 C499.943554,204.233224 499.153355,205.0682 498.50896,206.011561 L489.090173,214.173988 C483.556811,218.063895 477.82667,221.66607 471.922543,224.966185 L463.822543,228.586994 C460.904046,229.515607 457.993353,230.459827 455.074855,231.372832 C449.823121,232.980347 444.259249,233.713873 438.77341,234.884393 Z M486.499422,94.7887283 C486.529504,88.849508 485.890799,82.9257821 484.595376,77.1294798 C483.089306,70.3638728 479.741618,64.8 472.890173,62.3028902 C467.497977,60.3754335 461.965318,60.7421965 456.549711,62.4589595 C448.504335,64.9638728 443.18237,70.683815 438.718786,77.449422 C432.390173,87.0320809 428.847399,97.6447977 426.646821,108.842775 C424.578902,119.377457 424.30578,129.795087 427.146243,140.204913 C429.003468,147.064162 433.52948,152.620231 441.192486,153.470809 C450.821965,154.508671 459.241908,151.590173 465.999711,144.886994 C479.913295,131.15289 486.280925,114.180347 486.499422,94.7575145 L486.499422,94.7887283 Z" id="Shape" fill="#14B151" fill-rule="nonzero"></path>
                <path d="M296.071387,127.789595 L296.266474,126.931214 C297.046821,122.904624 297.913006,118.885838 298.607514,114.835838 C299.013295,112.557225 298.209538,111.714451 295.915318,111.971965 C294.205526,112.163057 292.482694,112.210044 290.765029,112.112428 C289.352601,112.018786 289.141908,111.402312 289.68815,110.200578 C290.106805,109.326328 290.717698,108.558043 291.475145,107.953179 C294.776012,105.104913 298.568497,102.951156 302.04104,100.344798 C309.73526,94.5858382 315.587861,87.0789017 321.65896,79.7514451 C329.158092,70.7306358 337.187861,62.2950867 347.527457,56.4346821 C353.419075,53.0947977 359.536994,50.316763 366.404046,49.7080925 C367.519481,49.5910365 368.644103,49.5910365 369.759538,49.7080925 C370.734971,49.8251445 372.311272,49.6612717 372.404913,50.7927746 C372.584498,52.1737758 371.952635,53.5347115 370.781792,54.2887283 C369.689306,54.933815 368.622832,55.6257225 367.58237,56.3644509 C358.69422,62.6072254 353.856069,71.5734104 350.656647,81.616474 C349.147537,86.4897617 347.894665,91.438735 346.903179,96.4430636 C346.372543,99.0182081 346.395954,99.0260116 349.119364,99.0260116 C353.801445,99.0260116 358.413295,99.0260116 363.056358,99.0260116 C365.334971,99.0260116 365.725145,99.5410405 365.272543,101.702601 C364.617052,104.823988 364.000578,108.007803 363.345087,111.152601 C363.220231,111.722254 363.15,112.369942 362.400867,112.541618 C357.024277,112.541618 351.647688,112.541618 346.271098,112.541618 C345.615607,112.541618 344.710405,112.096821 344.359249,113.158092 C342.884393,114.398844 342.915607,116.232659 342.587861,117.840173 C339.591329,133.197399 336.626012,148.54422 333.691908,163.880636 C331.881503,173.291618 330.250578,182.733815 328.096821,192.074566 C327.628613,194.111272 326.973121,196.10896 326.536127,198.153468 C325.420231,203.327168 328.143642,206.823121 333.42659,207.13526 C336.875723,207.33815 340.090751,206.284682 343.30578,205.293642 C344.796243,204.84104 345.514162,204.84104 345.061561,206.807514 C341.214451,223.467919 326.169364,235.446243 309.290462,234.806358 C298.950867,234.408382 290.156358,230.701734 284.693931,221.251734 C281.041908,214.938728 280.987283,208.243353 282.35289,201.235838 C287.034971,177.130925 291.459538,152.994798 295.977746,128.866474 C296.030913,128.509763 296.062186,128.15013 296.071387,127.789595 Z" id="Path" fill="#D42128"></path>
                <path d="M513.468208,269.157225 L512.165029,269.071387 C510.851529,268.580396 509.469094,268.298642 508.068208,268.236416 L507.880925,268.134971 L507.678035,268.134971 C506.897688,267.354624 505.173121,268.056936 504.970231,266.379191 L505.46185,265.910983 L506.078324,265.442775 C506.134508,265.462121 506.196446,265.454807 506.246578,265.422905 C506.296709,265.391003 506.329568,265.337992 506.335838,265.278902 C506.94358,264.734221 507.552251,264.190579 508.16185,263.647977 C509.30471,263.009357 510.253766,262.073781 510.908671,260.940173 C511.896049,260.258073 512.684979,259.326436 513.195087,258.240173 L513.156069,258.240173 C513.412323,258.200089 513.593354,257.967823 513.569653,257.709538 C515.55174,255.472984 517.07615,252.869556 518.056647,250.046532 C518.32019,249.689992 518.552551,249.311427 518.751156,248.915029 C522.24711,240.331214 523.433237,231.169942 525.181214,222.149133 L525.282659,221.314162 C526.277617,217.753028 527.018211,214.125681 527.498844,210.459538 C527.951445,210.108382 527.85,209.616763 527.818786,209.140751 L527.959249,207.814162 C529.070539,203.657044 529.9382,199.438596 530.557803,195.180347 L530.604624,194.719942 C531.190036,193.136865 531.509096,191.467729 531.548844,189.780347 C532.188807,188.373044 532.500984,186.838837 532.46185,185.293353 C533.928902,179.339306 535.16185,173.338439 536.051445,167.267341 L536.15289,167.173699 L536.098266,167.04104 C537.510694,161.165029 538.767052,155.257803 539.61763,149.26474 C539.729166,149.173055 539.755829,149.013076 539.680058,148.890173 C541.155882,143.078214 542.333146,137.1945 543.207225,131.262139 C543.322045,131.172379 543.349155,131.009719 543.269653,130.887572 C543.834462,129.433092 544.13825,127.890376 544.167052,126.330347 C544.362139,125.698266 544.604046,125.073988 544.760116,124.426301 C546.234971,118.245954 546.664162,112.104624 544.151445,106.056936 C543.854913,103.786127 542.223988,101.999133 541.810405,99.7595376 L542.325434,99.166474 L546.835838,98.8465318 L583.285838,98.8465318 L590.035838,98.8465318 C591.854046,98.8465318 592.907514,99.5878613 592.696821,101.562139 C591.916474,103.208671 591.916474,105.026879 591.534104,106.767052 C590.394798,112.533815 589.349133,118.316185 588.264451,124.098555 C588.151959,124.200318 588.128913,124.368223 588.209827,124.496532 C587.631778,125.941695 587.327473,127.48174 587.312428,129.03815 C585.564451,136.334393 584.292486,143.724277 582.926879,151.098555 L582.809827,152.432948 C581.950991,155.23097 581.365591,158.105703 581.06185,161.016763 L581.022832,161.461561 C580.500209,162.752175 580.217259,164.127259 580.187861,165.519364 L580.09422,166.299711 C578.95023,170.656978 578.069448,175.07913 577.456647,179.542197 C577.456647,179.706069 577.456647,179.862139 577.402023,180.026012 C576.539563,182.954515 575.946634,185.955733 575.630636,188.992197 C575.516746,189.089227 575.490279,189.254648 575.568208,189.38237 C575.025778,190.685766 574.744732,192.083041 574.74104,193.494798 L574.69422,193.939595 C572.899422,201.228035 571.63526,208.617919 570.28526,216 L570.191618,216.889595 C569.443132,219.55001 568.879933,222.259103 568.506069,224.997399 C568.459249,225.434393 568.420231,225.863584 568.37341,226.300578 C566.812717,232.090751 566.03237,238.00578 564.838439,243.897399 C564.722175,243.973835 564.68471,244.127103 564.752601,244.248555 C564.29255,244.947385 564.023511,245.754501 563.972254,246.589595 C563.91504,246.615124 563.870445,246.662521 563.848446,246.721184 C563.826448,246.779847 563.828881,246.844879 563.855202,246.901734 C558.018208,259.278035 546.789017,263.960116 534.654624,267.27659 C531.533237,268.119364 528.41185,268.509538 525.220231,269.110405 L519.757803,269.328902 L517.174855,269.328902 L513.468208,269.157225 Z" id="Path" fill="#14B151"></path>
                <path d="M719.120809,126.026012 C719.120809,128.996532 719.133815,131.974855 719.159827,134.960983 C717.006069,151.051734 713.533526,166.908382 710.576012,182.850867 C709.257225,189.873988 707.993064,196.967341 706.674277,204.013873 C705.113584,212.30896 706.112428,220.572832 706.799133,228.844509 C707.025434,231.630347 706.799133,231.965896 703.93526,231.965896 C691.725434,231.965896 679.518208,231.981503 667.313584,232.012717 C665.596821,232.012717 663.872254,232.106358 662.155491,232.153179 C659.174566,231.427457 658.760983,230.920231 658.456647,227.79104 C658.379254,226.901816 658.246336,226.0183 658.058671,225.145665 C657.512428,222.718786 656.802312,222.297399 654.710983,223.584971 C650.184971,226.284971 645.651156,228.977168 640.922254,231.318208 L640.477457,231.43526 L638.698266,232.215607 L630.114451,234.868786 L629.911561,234.868786 L629.732081,234.970231 C628.033672,235.036788 626.350443,235.317327 624.722254,235.805202 L622.084682,235.937861 L617.121676,235.937861 L613.157514,235.781792 C611.522216,235.290072 609.830754,235.009472 608.124277,234.946821 L607.944798,234.845376 L607.741908,234.884393 C604.230347,233.682659 600.640751,232.683815 597.378902,230.810983 C590.573847,226.955026 585.428623,220.726305 582.926879,213.315607 C582.857773,211.926287 582.559839,210.557898 582.045087,209.265607 L581.982659,208.368208 C581.748555,204.279191 582.333815,200.244798 582.903468,196.218208 C582.956372,196.186097 582.993818,196.133721 583.007087,196.073274 C583.020355,196.012827 583.00829,195.949583 582.973699,195.898266 C584.230058,192.394509 585.228902,188.804913 586.945665,185.465029 C589.996821,179.52659 594.390173,174.696243 599.142486,170.131214 L599.696532,169.71763 L600.086705,169.327457 L609.123121,162.998844 L614.733815,160.236416 C620.648844,157.317919 626.954046,155.421676 633.087572,153.057225 C633.132746,153.086518 633.189046,153.092922 633.239645,153.074522 C633.290244,153.056123 633.32928,153.015051 633.345087,152.963584 C633.642694,152.960721 633.938831,152.92141 634.226879,152.846532 C644.667919,149.202312 655.116763,145.581503 665.34711,141.359827 C669.243972,139.795007 672.410705,136.823236 674.219653,133.033526 C676.724566,127.86763 676.70896,122.452023 675.234104,117.036416 C674.609827,114.75 672.893064,113.290751 670.653468,112.447977 C667.592662,111.36442 664.29829,111.116602 661.109827,111.730058 C655.140173,112.697688 651.995376,116.646243 652.151445,122.717341 C652.206069,124.504335 652.580636,126.275723 652.728902,128.062717 C652.970809,130.895376 651.886127,133.002312 649.225145,134.219653 C643.497399,136.849422 637.699422,139.307514 631.323988,139.775723 C623.458092,140.353179 616.74711,138.051156 612.423988,131.059249 C606.360694,121.250289 605.221387,110.614162 607.632659,99.4708092 C607.976012,97.8710983 608.771965,97.4731214 610.160983,98.3471098 C615.053757,101.421676 620.516185,102.170809 626.119075,101.983526 C636.896088,101.532983 647.636904,100.443788 658.284971,98.7216763 C668.484104,97.1609827 678.69104,96.7473988 688.936994,98.3861272 C694.451081,99.3885934 699.880047,100.813012 705.176012,102.646821 C711.04422,105.768208 715.367341,110.270809 717.365029,116.794509 C718.278035,119.822254 718.535549,122.951445 719.120809,126.026012 Z M669.732659,153.564451 C665.440751,155.257803 661.390751,156.57659 657.785549,158.91763 C649.327542,164.476059 642.05506,171.655712 636.388439,180.041618 C631.167919,187.634393 628.062139,195.710983 629.568208,205.145376 C630.489017,210.904335 635.147688,215.843931 640.563295,216.319942 C644.277746,216.647688 647.383526,214.845087 650.465896,213.198555 C655.967341,210.19422 659.986127,205.902312 661.000578,199.495665 C662.709538,188.695665 665.113006,178.028324 667.149711,167.290751 C667.976879,162.803757 668.83526,158.340173 669.732659,153.564451 Z" id="Shape" fill="#14B151" fill-rule="nonzero"></path>
                <circle id="Oval" stroke="#000000" stroke-width="0.669304785" fill="#FFFFFF" cx="576.668497" cy="41.6627168" r="41.3739884"></circle>
                <path d="M561.326879,3.24624277 L562.793931,6.81242775 M538.509538,41.3973988 C540.733526,46.633526 545.922832,48.0537572 550.534682,50.0436416 M555.365029,13.6872832 C545.150289,16.1531792 538.579769,26.8907514 538.899711,26.9531792 M565.103757,18.6034682 C561.849711,24.2921965 561.358092,31.7913295 563.028035,40.6716763 M576.215896,3.01213873 C579.774277,1.50606936 585.486416,1.74017341 592.462717,3.39450867 M557.16763,66.3294798 C555.497688,68.1398844 554.514451,71.1754335 553.710694,74.5153179 M580.023988,12.2202312 C584.362717,14.5612717 592.330058,18.5722543 597.355491,24.9086705 M573.554913,64.9716763 C577.546504,70.0200485 583.192617,73.4967053 589.497399,74.7884393 M597.097977,40.1488439 C590.760726,44.066889 583.988457,47.2330428 576.918208,49.583237 M608.67052,22.6300578 C608.225723,18.5644509 606.32948,14.6471098 604.089884,10.7531792 M614.234393,38.9080925 C616.003931,39.7260911 617.362601,41.2313393 617.995665,43.0751445 M607.695087,48.2176301 C608.311561,54.0390173 605.939306,60.984104 603.559249,67.9526012" id="Shape" stroke="#000000" stroke-width="0.669304785"></path>
                <path d="M561.529769,3.62861272 C566.98147,2.5065127 572.55257,2.07393316 578.112139,2.34104046 C579.626012,5.15028902 580.195665,8.94277457 580.913584,12.7118497 C574.467919,15.2713873 568.295376,17.8309249 564.292197,20.1953757 C560.031503,18.0104046 557.690462,17.4953757 552.73526,14.4052023 C554.373988,10.5112717 557.34711,6.9216763 561.529769,3.62861272 Z M608.67052,21.9121387 C611.432948,27.6789017 614.132948,33.4534682 615.225434,39.3528902 C612.626879,43.2546243 609.926879,47.6011561 607.734104,49.5442197 C604.183526,47.4528902 599.930636,44.0349711 595.794798,40.9604046 C595.888439,34.2962428 596.13815,29.3566474 596.325434,23.7927746 C600.742197,22.6846821 604.995087,21.7794798 608.67052,21.9121387 Z M536.098266,49.5520231 C534.473377,41.1214974 535.512465,32.394253 539.071387,24.5809249 L540.070231,24.8540462 C538.712428,30.7300578 537.68237,36.5592486 539.040173,41.8656069 C537.551687,44.1614188 536.797715,46.8561181 536.878613,49.5910405 L536.098266,49.5520231 Z M562.762717,39.1890173 C568.225145,42.5367052 573.554913,45.7985549 578.705202,49.0057803 C578.244798,55.0690751 576.293931,60.5549133 574.702023,66.1734104 C569.036705,67.983815 562.74711,66.7352601 556.754046,66.8054913 C552.313873,60.5080925 551.619364,55.1939306 549.879191,49.6378613 C553.709345,45.634138 558.024191,42.1240659 562.723699,39.1890173 L562.762717,39.1890173 Z M606.992775,69.7708092 C601.034545,76.2030178 593.186318,80.5752891 584.581214,82.2563584 L582.739595,81.4213873 C584.924566,79.9153179 586.516474,77.3635838 587.827457,74.3124277 C592.298844,74.0315029 598.338728,69.8566474 604.097688,66.3763006 C605.195038,67.3770968 606.155368,68.5184734 606.953757,69.7708092 L606.992775,69.7708092 Z M560.117341,79.5251445 C554.608169,77.1038436 549.6925,73.5116235 545.712139,68.9982659 C548.443353,71.4875723 550.706358,73.6803468 553.929191,73.8754335 C554.256936,75.4283237 555.856647,77.184104 560.078324,79.5251445 L560.117341,79.5251445 Z" id="Shape" fill="#000000" fill-rule="nonzero"></path>
            </g>
        </g>
    </g>
</svg>