<?xml version="1.0" encoding="UTF-8"?>
<svg width="1302px" height="270px" viewBox="0 0 1302 270" version="1.1" xmlns="http://www.w3.org/2000/svg" xmlns:xlink="http://www.w3.org/1999/xlink">
    <!-- Generator: Sketch 52.6 (67491) - http://www.bohemiancoding.com/sketch -->
    <title>Farmcrowdy Logo</title>
    <desc>Created with Sketch.</desc>
    <g id="Page-1" stroke="none" stroke-width="1" fill="none" fill-rule="evenodd">
        <g id="Macbook-02" transform="translate(-56.000000, -1512.000000)">
            <g id="Farmcrowdy-Logo" transform="translate(56.000000, 1512.000000)">
                <path d="M749.888683,1.00185529 C696.23769,6.73004201 651.176343,43.9095234 635.362327,95.4959369 C619.54831,147.08235 636.031005,203.128399 677.254174,237.940631 C724.134278,277.530043 791.8409,280.448339 841.953583,245.039517 C892.066266,209.630696 911.928921,144.837346 890.270385,87.4267766 C868.61185,30.0162072 810.902044,-5.51239361 749.888683,1.00185529 Z M750.38961,4.00742115 C822.461093,-3.25025532 886.872825,49.0379005 894.584794,121.062188 C902.296764,193.086475 850.415787,257.826623 778.441558,265.992579 C731.477366,271.32098 685.257618,251.082405 657.32101,212.956651 C629.384402,174.830897 624.012494,124.661109 643.243727,81.4848789 C662.47496,38.3086486 703.361959,8.74315667 750.38961,4.00742115 Z" id="Shape" fill="#ACBB16"></path>
                <path d="M758.90538,9.51762523 C708.163876,11.8712454 663.870345,44.6425597 646.77836,92.4766884 C629.686374,140.310817 643.182062,193.731247 680.942067,227.708031 C718.702072,261.684815 773.245686,269.486745 819.016698,247.458256 C852.232054,230.971137 876.475626,200.662574 885.264691,164.637064 C894.053756,128.611555 886.491883,90.5434861 864.601113,60.6122449 C862.597403,57.1057514 860.092764,55.6029685 857.588126,52.096475 C833.079924,23.3638281 796.623662,7.63396888 758.90538,9.51762523 Z M761.910946,120.222635 C762.411874,121.22449 762.411874,119.721707 762.411874,121.725417 L759.907236,131.243043 L757.402597,143.265306 C753.395176,137.254174 750.38961,124.230056 748.886827,116.215213 C746.883117,102.690167 748.886827,95.67718 749.387755,83.1539889 C747.384045,88.1632653 746.382189,95.1762523 745.881262,101.187384 C740.871985,96.6790353 740.371058,92.6716141 733.358071,90.1669759 C740.371058,95.67718 743.376623,102.189239 744.378479,113.710575 C744.879406,127.736549 746.883117,131.74397 749.387755,143.766234 C744.879406,140.760668 742.374768,137.755102 738.868275,133.747681 C721.335807,113.710575 715.825603,127.235622 708.812616,100.686456 C708.311688,110.705009 710.315399,111.706865 712.820037,118.719852 C707.309833,118.719852 701.799629,117.717996 697.29128,120.723562 C708.812616,121.725417 716.827458,123.2282 724.341373,128.738404 C740.371058,140.25974 760.408163,172.820037 761.410019,195.361781 C756.400742,192.857143 751.391466,181.836735 728.849722,173.320965 C721.335807,170.816327 715.324675,169.814471 708.812616,166.307978 C705.306122,163.80334 697.792208,156.790353 697.792208,151.280148 C697.792208,157.792208 703.80334,165.80705 706.307978,167.810761 L682.764378,168.812616 C698.794063,170.315399 706.307978,168.812616 720.333952,174.32282 C729.851577,178.330241 740.871985,185.343228 746.382189,190.853432 C749.888683,194.860853 760.909091,203.877551 758.90538,209.387755 L749.387755,232.931354 C746.382189,240.946197 746.883117,241.447124 745.881262,250.463822 C685.710518,241.197618 643.010711,186.892223 648.200371,126.233766 C652.130596,81.6745762 681.182272,43.281349 722.995764,27.3879553 C764.809257,11.4945616 812.028224,20.8971612 844.564007,51.5955473 L847.569573,55.1020408 C878.035217,86.7701162 888.033452,132.913772 873.408204,174.351973 C858.782957,215.790175 822.035697,245.435421 778.441558,250.96475 C774.935065,235.93692 776.437848,229.925788 780.445269,215.398887 C784.953618,199.87013 787.458256,198.868275 797.476809,190.853432 C821.020408,172.820037 831.038961,172.820037 853.580705,164.805195 C845.064935,164.304267 838.552876,165.80705 830.538033,167.309833 C834.545455,160.296846 836.549165,159.294991 837.55102,149.276438 C835.54731,167.810761 814.007421,170.816327 794.471243,182.83859 L779.944341,192.857143 C770.927644,174.823748 783.951763,168.812616 797.476809,149.276438 C800.983302,144.267161 805.992579,134.248609 807.495362,126.233766 C809.499072,113.710575 812.504638,112.207792 820.018553,105.194805 C814.007421,107.198516 812.003711,110.705009 808.497217,113.710575 L806.994434,104.693878 C806.493506,119.220779 805.992579,132.745826 791.966605,145.269017 C794.972171,126.734694 793.970315,125.231911 787.959184,110.204082 C793.970315,128.738404 788.961039,146.270872 776.938776,160.296846 L766.419295,171.818182 C764.916512,163.302412 763.914657,153.283859 763.914657,144.267161 C763.914657,139.758813 765.41744,124.730983 768.423006,120.222635 C769.424861,113.710575 776.437848,102.189239 779.443414,97.6808905 L790.96475,83.6549165 L794.972171,79.6474954 C792.467532,81.1502783 785.955473,85.6586271 784.45269,87.6623377 L784.45269,77.1428571 L781.948052,69.1280148 C782.949907,74.6382189 784.45269,77.6437848 782.44898,84.6567718 C778.441558,97.6808905 762.912801,110.705009 762.411874,118.719852 L762.411874,105.695733 C756.90167,107.699443 751.391466,113.710575 754.397032,121.725417 L757.402597,114.71243 L755.899814,122.226345 C760.408163,121.22449 759.907236,121.725417 761.910946,120.222635 Z" id="Shape" fill="#293737"></path>
                <path d="M805.491651,82.1521336 C811.001855,79.6474954 817.012987,73.6363636 828.033395,73.135436 C820.519481,76.1410019 811.502783,79.1465677 806.994434,84.6567718 C819.016698,97.1799629 830.538033,79.6474954 835.046382,76.1410019 C838.051948,73.6363636 841.057514,73.135436 844.06308,70.6307978 C836.549165,68.1261596 828.534323,65.1205937 819.517625,67.1243043 C811.502783,68.6270872 804.489796,73.135436 805.491651,82.1521336 Z M811.502783,185.844156 C825.027829,184.341373 826.530612,186.345083 837.55102,188.348794 C826.530612,187.847866 824.025974,185.844156 811.502783,188.849722 C821.020408,207.384045 832.541744,192.356215 850.074212,192.857143 C839.554731,177.328386 814.007421,172.319109 811.502783,185.844156 Z M687.773655,81.1502783 L689.276438,81.6512059 L689.777365,82.1521336 L692.782931,83.1539889 C694.786642,83.1539889 695.788497,84.1558442 697.29128,84.6567718 C705.80705,88.1632653 714.32282,97.6808905 721.836735,83.1539889 C717.328386,80.148423 707.309833,78.6456401 701.298701,78.6456401 C710.816327,78.1447124 713.821892,78.6456401 721.836735,80.6493506 C719.833024,74.1372913 713.320965,71.6326531 704.805195,73.135436 C696.289425,74.1372913 693.283859,78.6456401 687.773655,81.1502783 Z M841.558442,156.790353 C846.06679,152.782931 846.567718,149.276438 853.079777,145.769944 C850.575139,149.777365 845.064935,153.283859 843.562152,159.294991 C859.591837,164.805195 856.085343,154.786642 868.608534,137.254174 C855.083488,135.751391 838.552876,142.764378 841.558442,156.790353 Z M777.940631,62.1150278 C778.441558,58.1076067 772.931354,50.593692 771.428571,48.0890538 C776.437848,52.096475 776.938776,55.1020408 779.443414,58.6085343 L780.946197,60.6122449 C782.949907,52.5974026 779.944341,48.5899814 775.435993,44.0816327 C771.428571,40.5751391 765.41744,37.0686456 758.404453,37.5695733 C766.920223,50.593692 760.909091,65.6215213 777.940631,62.1150278 Z M813.005566,132.745826 C818.014842,137.254174 816.011132,133.246753 827.532468,145.269017 C826.530612,142.263451 816.011132,136.252319 811.001855,134.248609 C805.992579,148.274583 821.020408,149.276438 826.530612,151.280148 C830.037106,152.282004 832.040816,154.285714 834.545455,155.28757 C833.543599,131.74397 813.506494,128.738404 813.005566,132.745826 Z M760.408163,100.686456 C761.410019,95.67718 760.408163,91.1688312 760.408163,86.6604824 L760.909091,87.6623377 C761.910946,90.1669759 762.411874,92.6716141 762.411874,99.6846011 C771.428571,94.174397 765.41744,76.6419295 753.395176,70.1298701 C754.897959,83.6549165 744.879406,97.6808905 760.408163,100.686456 Z M674.248609,103.692022 C681.762523,107.699443 682.263451,108.200371 687.773655,112.70872 C693.283859,117.717996 700.296846,116.215213 703.302412,109.703154 L689.276438,103.692022 C695.28757,104.19295 698.794063,106.19666 703.80334,107.699443 C701.799629,98.1818182 690.278293,97.1799629 681.762523,99.6846011 L674.248609,103.692022 Z M667.235622,146.270872 C672.745826,150.779221 673.246753,150.779221 678.25603,157.792208 C681.261596,162.801484 686.7718,165.306122 693.283859,159.795918 C691.781076,156.289425 684.768089,151.280148 680.760668,149.777365 C687.272727,151.280148 690.278293,155.788497 694.786642,157.792208 C693.784787,145.269017 679.257885,142.764378 667.235622,146.270872 Z M730.352505,213.896104 C735.361781,199.369202 747.384045,204.879406 745.881262,191.35436 C740.871985,192.857143 735.361781,197.866419 733.858998,201.87384 C736.363636,194.860853 741.87384,191.855288 744.378479,189.350649 C730.853432,177.328386 723.840445,205.380334 730.352505,213.896104 Z M739.369202,175.324675 C740.871985,169.814471 740.871985,168.311688 740.871985,161.799629 C742.374768,165.80705 741.87384,171.317254 740.871985,175.825603 C750.38961,174.823748 751.391466,168.311688 747.384045,160.296846 C744.879406,154.285714 739.369202,150.779221 734.860853,147.773655 C735.361781,153.784787 736.864564,155.28757 735.361781,162.300557 C733.858998,169.313544 733.858998,173.320965 739.369202,175.324675 Z M736.363636,127.235622 L735.361781,109.703154 L738.367347,126.734694 C746.382189,121.725417 741.87384,105.695733 729.851577,99.1836735 C730.853432,111.706865 721.335807,125.732839 736.363636,127.235622 Z M827.532468,107.699443 L843.061224,106.697588 C837.55102,107.699443 831.539889,107.198516 827.532468,110.204082 C832.040816,123.2282 843.061224,110.705009 853.079777,110.204082 C852.077922,107.699443 853.079777,109.202226 850.575139,107.699443 L848.070501,105.695733 C841.057514,101.187384 830.538033,100.185529 827.532468,107.699443 Z M742.374768,84.1558442 C742.374768,80.6493506 740.371058,78.1447124 739.369202,74.6382189 L741.87384,77.6437848 L743.877551,82.1521336 C743.877551,82.1521336 745.380334,81.6512059 745.881262,78.6456401 C746.382189,72.1335807 737.365492,64.1187384 727.847866,63.1168831 L731.855288,77.1428571 C732.857143,83.1539889 735.361781,84.6567718 742.374768,84.1558442 Z M693.784787,195.361781 C697.29128,191.35436 697.792208,189.350649 701.799629,186.846011 C705.80705,183.840445 708.812616,183.339518 708.311688,176.827458 C704.805195,176.326531 703.80334,178.330241 700.797774,179.833024 C702.801484,176.827458 704.304267,176.326531 706.307978,174.32282 C694.786642,164.805195 690.278293,184.341373 693.784787,195.361781 Z M696.289425,143.265306 C700.797774,141.261596 701.799629,139.257885 707.309833,138.25603 C712.820037,136.753247 715.825603,136.753247 715.825603,130.241187 C710.315399,130.742115 709.814471,131.74397 705.306122,133.246753 C709.814471,130.241187 710.315399,130.742115 715.324675,128.738404 C712.820037,119.220779 698.794063,123.729128 696.289425,143.265306 Z M788.961039,178.831169 L794.972171,167.810761 C793.469388,171.818182 791.966605,174.32282 790.96475,179.833024 C802.987013,179.833024 798.979592,173.320965 803.487941,158.293135 C795.473098,160.296846 785.454545,168.311688 788.961039,178.831169 Z M772.931354,151.781076 L776.938776,139.758813 L774.434137,152.282004 C786.456401,153.784787 781.948052,140.25974 783.951763,130.241187 C777.940631,132.244898 764.916512,145.269017 772.931354,151.781076 Z M794.972171,197.365492 L795.974026,197.866419 L797.476809,198.367347 L804.489796,201.87384 C800.482375,200.871985 798.979592,199.87013 793.469388,199.369202 C794.471243,211.892393 803.487941,207.384045 814.508349,210.38961 C813.506494,205.380334 810.500928,201.87384 807.996289,199.369202 C805.491651,196.864564 798.979592,192.857143 794.972171,197.365492 Z M670.742115,127.235622 C676.252319,126.734694 678.25603,126.233766 683.265306,128.237477 C688.274583,129.74026 691.280148,129.74026 692.782931,125.732839 C689.276438,123.2282 686.7718,124.230056 682.764378,123.2282 L693.283859,124.230056 C693.283859,109.202226 674.749536,119.220779 670.742115,127.235622 Z M760.408163,68.6270872 C761.410019,66.122449 758.90538,63.1168831 757.402597,59.6103896 C758.90538,61.6141002 760.909091,65.1205937 762.912801,66.6233766 C765.41744,62.6159555 761.410019,57.606679 758.90538,56.1038961 C755.899814,53.5992579 752.393321,52.5974026 747.884972,52.096475 C752.894249,63.6178108 752.393321,70.1298701 760.408163,68.6270872 Z M825.528757,92.6716141 C829.536178,91.6697588 831.038961,90.1669759 835.046382,90.1669759 C832.040816,91.1688312 828.033395,92.1706865 826.029685,94.174397 C828.534323,97.6808905 832.040816,99.6846011 836.549165,95.67718 L846.567718,89.6660482 C841.057514,86.1595547 828.033395,83.1539889 825.528757,92.6716141 Z M722.337662,196.864564 C722.83859,192.857143 722.83859,190.853432 724.341373,187.346939 C729.350649,178.330241 725.343228,174.823748 722.337662,181.335807 L720.834879,186.345083 C720.834879,181.836735 722.337662,180.834879 723.339518,177.328386 C711.317254,177.328386 714.823748,190.853432 722.337662,196.864564 Z M769.925788,119.220779 L776.938776,119.220779 L770.426716,122.226345 C773.93321,130.241187 779.443414,124.730983 787.458256,120.723562 L789.461967,119.220779 C786.456401,117.717996 780.946197,113.710575 773.93321,116.215213 L771.428571,117.717996 L771.428571,118.218924 L770.927644,118.719852 L769.925788,119.220779 Z M815.510204,124.230056 C818.51577,123.2282 821.020408,122.226345 824.526902,122.226345 C821.020408,122.727273 818.014842,123.2282 815.510204,125.732839 C820.018553,133.246753 825.528757,126.233766 828.534323,124.230056 L833.042672,122.226345 C828.033395,119.220779 818.014842,115.714286 815.510204,124.230056 Z M761.910946,120.222635 L763.914657,118.218924 L763.914657,105.194805 C758.404453,107.198516 752.894249,113.209647 755.899814,120.723562 L758.90538,113.710575 L757.402597,121.725417 C760.408163,121.22449 759.907236,121.725417 761.910946,120.222635 Z M804.489796,97.6808905 L802.486085,90.1669759 L803.487941,91.6697588 L805.491651,95.1762523 L806.994434,96.6790353 C813.005566,89.1651206 803.487941,84.1558442 794.471243,83.6549165 L795.473098,85.6586271 C801.985158,95.67718 797.977737,97.6808905 804.489796,97.6808905 Z M798.478664,70.6307978 L799.480519,70.1298701 C804.489796,68.6270872 803.487941,59.109462 797.476809,54.1001855 C793.970315,63.1168831 791.966605,68.6270872 798.478664,70.6307978 Z M722.83859,152.282004 C725.343228,149.777365 724.341373,148.77551 728.348794,144.267161 C729.350649,142.764378 730.853432,142.263451 730.853432,139.758813 C729.851577,136.252319 729.350649,138.25603 726.846011,139.758813 C728.348794,137.254174 729.851577,136.252319 726.345083,135.751391 C724.341373,135.751391 722.83859,137.254174 721.836735,138.756957 C719.833024,143.766234 721.836735,148.274583 722.83859,152.282004 Z M769.925788,91.6697588 L772.430427,90.1669759 L773.93321,87.6623377 L772.430427,92.6716141 C781.948052,94.6753247 778.441558,80.148423 774.434137,77.6437848 C770.927644,87.6623377 768.423006,85.6586271 769.925788,91.6697588 Z M798.478664,126.734694 L801.48423,123.2282 L799.981447,127.235622 C805.992579,125.732839 807.495362,117.717996 803.988868,112.70872 L803.487941,113.209647 C802.987013,115.714286 803.487941,113.209647 802.987013,114.211503 C798.979592,118.719852 792.96846,122.226345 798.478664,126.734694 Z M798.478664,152.282004 L804.489796,150.779221 C801.48423,151.781076 801.48423,151.280148 798.979592,153.784787 C800.983302,156.289425 802.987013,157.29128 806.994434,154.786642 L813.005566,150.779221 L812.504638,149.276438 L810,148.274583 L805.491651,147.773655 C801.48423,147.773655 799.981447,149.276438 798.478664,152.282004 Z M841.558442,172.820037 L846.567718,171.818182 C844.564007,172.820037 843.562152,172.319109 842.059369,174.823748 C845.565863,178.831169 847.068646,177.328386 854.58256,172.319109 L856.085343,170.816327 C851.076067,169.313544 844.564007,165.80705 841.558442,172.820037 Z M721.335807,169.313544 L723.840445,164.805195 L722.83859,170.315399 C730.853432,169.313544 727.847866,164.304267 729.350649,156.790353 C724.842301,157.792208 717.328386,163.80334 721.335807,169.313544 Z M712.820037,164.304267 C714.32282,162.300557 713.821892,162.300557 713.821892,159.795918 L714.32282,161.298701 L714.823748,162.300557 L715.825603,163.80334 C717.328386,157.29128 715.324675,152.282004 709.814471,149.276438 C710.315399,156.790353 705.80705,162.801484 712.820037,164.304267 Z M815.009276,167.309833 L816.011132,165.80705 L817.012987,168.311688 C826.530612,167.810761 819.517625,156.790353 816.512059,154.786642 C816.011132,160.296846 812.504638,164.304267 815.009276,167.309833 Z M712.820037,104.693878 L714.823748,105.194805 L716.827458,105.194805 C713.320965,105.695733 713.821892,105.695733 712.820037,107.699443 C715.324675,109.202226 716.827458,110.204082 719.833024,108.200371 L726.345083,104.693878 C722.337662,102.189239 715.825603,99.6846011 712.820037,104.693878 Z M800.983302,108.200371 C802.987013,105.194805 800.482375,107.699443 801.48423,106.19666 L802.987013,105.194805 C801.48423,101.187384 798.478664,100.185529 793.970315,99.6846011 C797.476809,107.699443 796.474954,108.200371 800.983302,108.200371 Z M786.456401,108.200371 L784.953618,103.191095 L787.959184,106.697588 C788.460111,101.688312 785.454545,99.6846011 780.445269,99.1836735 C781.948052,104.693878 780.946197,107.699443 786.456401,108.200371 Z M0,124.730983 L0,99.6846011 L19.5361781,99.6846011 L19.5361781,95.1762523 C19.5361781,68.6270872 32.0593692,55.6029685 57.606679,55.6029685 C67.1243043,55.6029685 74.1372913,56.6048237 78.6456401,59.6103896 C83.6549165,62.1150278 86.1595547,66.122449 86.1595547,71.1317254 C86.1595547,75.6400742 84.6567718,80.148423 81.6512059,85.1576994 C76.6419295,82.6530612 70.6307978,81.1502783 64.1187384,81.1502783 C58.6085343,81.1502783 54.6011132,82.1521336 52.096475,84.6567718 C49.5918367,87.16141 48.0890538,91.1688312 48.0890538,96.1781076 L48.0890538,100.185529 L78.6456401,99.6846011 L78.6456401,124.730983 L50.593692,124.230056 L50.593692,203.877551 L19.5361781,203.877551 L19.5361781,124.230056 L0,124.730983 Z M175.825603,203.877551 L157.29128,203.877551 C147.272727,203.877551 141.261596,198.367347 140.25974,187.346939 C133.747681,199.87013 122.727273,205.881262 107.198516,205.881262 C97.6808905,205.881262 90.1669759,203.376623 83.6549165,197.866419 C76.8842734,192.401164 73.1560191,184.012592 73.6363636,175.324675 C73.6363636,151.781076 90.6679035,139.758813 125.231911,139.758813 L139.758813,139.758813 C139.758813,133.246753 138.25603,128.738404 135.250464,125.732839 C132.244898,123.2282 126.734694,121.725417 120.222635,121.725417 C107.198516,121.725417 96.1781076,124.730983 86.6604824,130.742115 C83.6549165,126.233766 81.6512059,121.22449 81.6512059,115.714286 C81.6512059,110.204082 83.6549165,106.697588 87.16141,104.693878 C95.67718,99.6846011 107.699443,97.1799629 122.727273,97.1799629 C137.755102,97.1799629 149.276438,100.686456 157.792208,107.699443 C166.307978,115.213358 170.315399,125.231911 170.315399,138.756957 L170.315399,179.332096 C170.816327,190.853432 172.319109,198.367347 175.825603,203.877551 Z M114.211503,182.337662 C124.230056,182.337662 133.246753,178.330241 140.25974,168.812616 L140.25974,157.792208 L125.732839,157.792208 C110.204082,157.792208 102.189239,162.300557 102.189239,171.818182 C102.189239,174.823748 103.191095,177.328386 105.695733,179.332096 C108.200371,181.335807 110.705009,182.337662 114.211503,182.337662 Z M217.903525,117.217069 C220.408163,112.207792 224.916512,107.699443 230.426716,103.692022 C235.93692,99.6846011 242.44898,97.6808905 248.961039,97.6808905 C254.471243,97.6808905 258.979592,99.1836735 262.987013,102.189239 C266.994434,105.695733 268.497217,110.204082 268.497217,116.215213 C268.497217,122.727273 266.994434,128.738404 264.489796,135.250464 C258.730009,130.08964 251.176803,127.392067 243.450835,127.736549 C232.931354,127.736549 224.415584,131.74397 217.402597,139.758813 L217.402597,203.877551 L186.345083,203.877551 L186.345083,99.6846011 L198.868275,99.6846011 C205.380334,99.6846011 209.888683,101.187384 212.894249,104.19295 C215.899814,106.697588 217.402597,111.706865 217.903525,117.217069 Z M404.749536,185.844156 L404.749536,137.755102 C404.749536,128.237477 400.241187,123.2282 392.226345,123.2282 C387.717996,123.2282 383.209647,124.730983 378.701299,127.736549 C374.693878,130.742115 371.688312,134.248609 369.684601,138.25603 L369.684601,203.877551 L339.128015,203.877551 L339.128015,137.755102 C339.128015,128.237477 334.619666,123.2282 326.604824,123.2282 C321.595547,123.2282 317.588126,124.730983 313.079777,127.736549 C309.072356,130.742115 306.06679,134.248609 303.562152,138.25603 L303.562152,203.877551 L273.005566,203.877551 L273.005566,99.6846011 L285.027829,99.6846011 C291.539889,99.6846011 296.048237,101.187384 299.053803,103.692022 C301.558442,106.697588 303.061224,110.705009 303.562152,116.215213 C312.077922,104.19295 323.599258,97.6808905 339.128015,97.6808905 C353.654917,97.6808905 362.671614,104.693878 367.179963,118.218924 C374.845689,105.353152 388.772063,97.5314899 403.747681,97.6808905 C413.766234,97.6808905 421.781076,100.686456 427.29128,107.198516 C432.801484,113.710575 435.306122,123.2282 435.306122,134.749536 L435.306122,203.877551 L423.784787,203.877551 C410.760668,203.877551 404.749536,197.866419 404.749536,185.844156 Z" id="Shape" fill="#ACBB16"></path>
                <path d="M459.851577,191.35436 C450.333952,181.836735 445.324675,168.812616 445.324675,151.280148 C445.324675,134.749536 450.333952,121.22449 459.851577,111.706865 C469.369202,101.688312 482.894249,96.6790353 499.925788,96.6790353 C511.447124,96.6790353 520.96475,98.1818182 528.478664,102.189239 C531.985158,103.692022 533.988868,105.194805 534.990724,106.697588 C535.992579,108.701299 536.493506,111.706865 536.493506,115.213358 C536.493506,120.723562 534.990724,125.732839 532.486085,131.243043 C523.469388,125.732839 513.951763,122.727273 502.931354,122.727273 C485.398887,122.727273 476.883117,131.74397 476.883117,151.280148 C476.883117,160.296846 478.886827,167.309833 483.395176,172.319109 C487.903525,177.328386 494.916512,179.833024 503.93321,179.833024 C513.951763,179.833024 524.471243,176.827458 533.988868,170.315399 C536.994434,175.825603 538.497217,181.335807 538.497217,186.846011 C538.497217,190.352505 537.996289,192.857143 536.493506,194.860853 C535.491651,196.363636 533.487941,198.367347 530.482375,199.87013 C522.96846,203.877551 513.450835,205.881262 500.927644,205.881262 C483.395176,206.382189 469.369202,201.372913 459.851577,191.35436 Z M578.070501,117.217069 C581.076067,112.207792 585.083488,107.699443 590.593692,103.692022 C596.103896,99.6846011 602.615955,97.6808905 609.128015,97.6808905 C614.638219,97.6808905 619.647495,99.1836735 623.654917,102.189239 C627.16141,105.695733 629.165121,110.204082 629.165121,116.215213 C629.165121,122.727273 627.16141,128.738404 624.656772,135.250464 C618.896985,130.08964 611.343779,127.392067 603.617811,127.736549 C593.09833,127.736549 584.58256,131.74397 578.070501,139.758813 L578.070501,203.877551 L546.512059,203.877551 L546.512059,99.6846011 L559.03525,99.6846011 C565.54731,99.6846011 570.055659,101.187384 573.061224,104.19295 C576.06679,106.697588 577.569573,111.706865 578.070501,117.217069 Z M987.829314,156.790353 L974.805195,200.871985 L932.226345,200.871985 L904.174397,96.6790353 L938.738404,96.6790353 L948.756957,138.25603 C952.764378,152.282004 954.267161,165.80705 954.768089,178.330241 L955.769944,178.330241 C956.7718,165.80705 959.777365,151.781076 964.285714,136.753247 L976.808905,96.6790353 L1010.37106,96.6790353 L1022.89425,136.753247 C1026.90167,151.781076 1029.40631,166.307978 1030.40816,178.330241 L1030.90909,178.330241 C1030.90909,165.80705 1032.9128,152.282004 1035.91837,137.755102 L1048.44156,96.6790353 L1083.00557,96.6790353 L1051.94805,200.871985 L1012.8757,200.871985 L1000.3525,156.790353 L994.341373,122.226345 L993.840445,122.226345 C991.836735,136.753247 990.333952,148.274583 987.829314,156.790353 Z M1154.13729,159.294991 L1154.13729,134.248609 C1148.12616,124.730983 1140.61224,120.222635 1133.09833,120.222635 C1126.58627,120.222635 1122.07792,122.727273 1118.0705,127.736549 C1114.06308,132.745826 1112.05937,139.758813 1112.05937,148.77551 C1112.05937,157.792208 1114.06308,164.805195 1117.56957,169.814471 C1121.07607,174.823748 1126.58627,177.328386 1133.09833,177.328386 C1137.60668,177.328386 1141.6141,175.825603 1145.62152,171.818182 C1149.12801,168.311688 1152.13358,164.304267 1154.13729,159.294991 Z M1184.69388,73.135436 L1184.69388,176.827458 C1184.69388,187.346939 1186.19666,195.862709 1189.20223,200.871985 L1170.16698,200.871985 C1160.14842,200.871985 1154.13729,195.361781 1153.13544,184.341373 C1147.70283,196.25238 1135.66491,203.751412 1122.57885,203.376623 C1110.05566,203.376623 1099.53618,198.367347 1092.02226,188.849722 C1084.50835,179.332096 1080.50093,165.80705 1080.50093,148.77551 C1080.50093,131.74397 1084.50835,117.717996 1092.02226,108.200371 C1100.03711,99.1836735 1110.55659,94.174397 1123.58071,94.174397 C1135.56664,93.9446151 1146.79098,100.03239 1153.13544,110.204082 L1153.13544,55.1020408 L1165.1577,55.1020408 C1178.18182,55.1020408 1184.69388,61.1131725 1184.69388,73.135436 Z M1301.91095,96.6790353 L1301.91095,188.849722 C1301.91095,206.382189 1297.4026,220.408163 1287.88497,229.925788 C1277.86642,239.443414 1264.8423,243.951763 1247.30983,243.951763 C1231.78108,243.951763 1221.2616,242.44898 1215.25046,238.441558 C1210.24119,234.434137 1207.23562,229.925788 1207.23562,223.914657 C1207.23562,216.400742 1208.7384,210.890538 1212.2449,206.883117 C1220.25974,214.397032 1230.77922,217.402597 1243.30241,217.402597 C1252.82004,217.402597 1259.3321,215.899814 1264.34137,211.892393 C1268.84972,208.3859 1270.85343,201.87384 1270.85343,192.857143 L1270.85343,182.83859 C1263.42174,194.123551 1250.80347,200.903517 1237.29128,200.871985 C1225.26902,200.871985 1216.25232,197.365492 1209.74026,189.851577 C1203.2282,182.337662 1200.22263,171.317254 1200.22263,156.790353 L1200.22263,96.6790353 L1212.74583,96.6790353 C1225.26902,96.6790353 1231.78108,102.690167 1231.78108,114.71243 L1231.78108,153.784787 C1231.78108,167.309833 1236.79035,174.32282 1247.30983,174.32282 C1258.33024,174.32282 1265.84416,169.814471 1271.35436,160.296846 L1271.35436,96.6790353 L1301.91095,96.6790353 Z" id="Shape" fill="#293737"></path>
            </g>
        </g>
    </g>
</svg>