<?xml version="1.0" encoding="UTF-8"?>
<svg width="935px" height="270px" viewBox="0 0 935 270" version="1.1" xmlns="http://www.w3.org/2000/svg" xmlns:xlink="http://www.w3.org/1999/xlink">
    <!-- Generator: Sketch 52.6 (67491) - http://www.bohemiancoding.com/sketch -->
    <title>Fliqpay-Logo</title>
    <desc>Created with Sketch.</desc>
    <defs>
        <linearGradient x1="-88.3239517%" y1="-55.356943%" x2="-91.5192888%" y2="224.887202%" id="linearGradient-1">
            <stop stop-color="#1400FF" offset="0%"></stop>
            <stop stop-color="#FC199B" offset="100%"></stop>
        </linearGradient>
    </defs>
    <g id="Page-1" stroke="none" stroke-width="1" fill="none" fill-rule="evenodd">
        <g id="Macbook-02" transform="translate(-300.000000, -1598.000000)">
            <g id="Fliqpay-Logo" transform="translate(300.000000, 1598.000000)">
                <path d="M335.25792,50.306346 C321.50088,50.306346 310.28346,54.32778 302.02902,62.58222 C293.77458,70.83666 289.7532,81.63072 289.7532,95.38776 L289.7532,106.60572 L269.85798,106.60572 L269.85798,133.27362 L289.7532,133.27362 L289.7532,216.02916 L320.44248,216.02916 L320.44248,133.27362 L345.84084,133.27362 L345.84084,106.60572 L320.44248,106.60572 L320.44248,94.54158 C320.44248,84.17034 328.06188,77.18598 338.85594,77.18598 C341.18442,77.18598 343.51236,77.39766 346.05252,77.60934 L346.05252,50.941332 C342.87732,50.518026 339.2793,50.306346 335.25792,50.306346 Z" id="Path" fill="#000000"></path>
                <polygon id="Path" fill="#000000" points="386.64918 51.576264 355.74822 51.576264 355.74822 216.02916 386.64918 216.02916"></polygon>
                <path d="M424.0998,52.21125 C408.64932,51.364638 399.1248,73.37628 410.97726,83.95866 C417.96162,90.94356 430.23744,90.94356 437.2218,83.95866 C440.82036,80.36064 442.72494,75.9159 442.72494,70.83666 C442.72494,60.46542 434.4705,52.21125 424.0998,52.21125 Z M439.55028,106.60572 L408.64932,106.60572 L408.64932,216.02916 L439.55028,216.02916 L439.55028,106.60572 Z" id="Shape" fill="#000000" fill-rule="nonzero"></path>
                <path d="M508.32468,104.48892 C492.8742,104.48892 480.17556,109.78038 470.22768,120.15108 C460.49202,130.52232 455.62392,144.27936 455.62392,161.42328 C455.62392,178.56666 460.49202,192.32424 470.22768,202.69494 C480.17556,213.06564 492.8742,218.3571 508.32468,218.3571 C522.08226,218.3571 532.24128,214.5474 539.22618,206.71632 L539.22618,270 L569.916,270 L569.916,106.60572 L540.918,106.60572 L540.918,118.03482 C534.1464,108.93366 523.35234,104.48892 508.32468,104.48892 Z M513.40446,130.94514 C528.85494,130.94514 539.22618,141.73974 539.22618,158.88312 L539.22618,163.9629 C539.22618,181.10682 528.85494,191.90088 513.40446,191.90088 C497.53062,191.90088 486.94824,180.68346 486.94824,161.42328 C486.94824,142.1631 497.53062,130.94514 513.40446,130.94514 Z" id="Shape" fill="#000000" fill-rule="nonzero"></path>
                <path d="M653.5512,104.48892 C638.7336,104.48892 627.939,108.93366 621.1674,118.03482 L621.1674,106.60572 L591.9588,106.60572 L591.9588,270 L622.863,270 L622.863,206.71632 C629.8452,214.5474 640.2186,218.3571 653.5512,218.3571 C669.2112,218.3571 681.912,213.06564 691.6482,202.69494 C701.595,192.32424 706.4604,178.56666 706.4604,161.42328 C706.4604,144.27936 701.595,130.52232 691.6482,120.15108 C681.912,109.78038 669.2112,104.48892 653.5512,104.48892 Z M648.6804,130.94514 C664.5564,130.94514 675.1404,142.1631 675.1404,161.42328 C675.1404,180.68346 664.5564,191.90088 648.6804,191.90088 C633.231,191.90088 622.863,181.10682 622.863,163.9629 L622.863,158.88312 C622.863,141.73974 633.231,130.94514 648.6804,130.94514 Z" id="Shape" fill="#000000" fill-rule="nonzero"></path>
                <path d="M765.1206,104.48892 C751.788,104.48892 740.7828,108.5103 732.105,116.55306 C723.6378,124.38414 719.4042,133.4853 719.4042,143.64432 L750.3084,144.9144 C750.3084,137.08332 755.6004,130.52232 765.5472,130.52232 C775.0728,130.52232 779.7276,136.2366 779.7276,147.45402 L779.7276,151.68708 L760.2552,152.74548 C731.0466,154.01556 716.445,165.0213 716.445,185.97438 C716.445,206.928 730.1988,218.3571 752.8464,218.3571 C764.2782,218.3571 773.5878,214.5474 780.786,207.13968 L780.786,216.02916 L810.6264,216.02916 L810.6264,148.51242 C810.6264,119.72772 794.7558,104.48892 765.1206,104.48892 Z M779.7276,176.66208 C779.7276,187.8795 771.6816,194.4405 760.0446,194.4405 C751.5774,194.4405 747.3438,191.05416 747.3438,184.49316 C747.3438,177.29712 752.6358,173.48742 763.2198,173.06406 L779.7276,172.00566 L779.7276,176.66208 Z" id="Shape" fill="#000000" fill-rule="nonzero"></path>
                <polygon id="Path" fill="#000000" points="934.605 106.60572 900.315 106.60572 875.34 171.79398 850.1544 106.60572 816.0804 106.60572 858.8322 206.29296 830.8926 270 864.5454 270"></polygon>
                <path d="M0,21.418938 C0,6.71652 11.19312,-2.5870914 25.002324,0.6391494 L175.20732,35.731476 C189.01566,38.957544 200.20986,49.454658 200.20986,59.2029 L200.20986,207.37566 C200.20986,217.1124 189.01674,227.6208 175.20732,230.8473 L25.002324,265.9392 C11.19393,269.1657 0,259.87932 0,245.15946 L0,21.418938 Z M42.544602,75.77712 C42.544602,63.90576 52.295436,55.68426 64.29996,57.4101 L129.58704,66.79638 C141.60258,68.52384 151.34256,77.57586 151.34256,87.01992 C151.34256,96.46128 141.59178,103.5018 129.58704,102.74634 L64.29996,98.64018 C52.284852,97.88418 42.544602,87.65064 42.544602,75.77712 Z M41.386734,133.28928 C41.386734,121.00158 51.479928,111.4479 63.90576,111.95064 L131.48514,114.68304 C143.92242,115.18632 154.00476,123.5142 154.00476,133.28928 C154.00476,143.0622 143.91162,151.39278 131.48514,151.89552 L63.90576,154.62792 C51.468912,155.1312 41.386734,145.58022 41.386734,133.28928 Z M67.57074,213.51924 C81.39258,211.40784 92.59704,199.6353 92.59704,187.22394 C92.59704,174.81258 81.39258,165.456 67.57074,166.3254 C53.749224,167.1948 42.544602,178.96734 42.544602,192.6207 C42.544602,206.27406 53.749224,215.63064 67.57074,213.51924 Z" id="Shape" fill="url(#linearGradient-1)"></path>
            </g>
        </g>
    </g>
</svg>