<?xml version="1.0" encoding="UTF-8"?>
<svg width="1239px" height="270px" viewBox="0 0 1239 270" version="1.1" xmlns="http://www.w3.org/2000/svg" xmlns:xlink="http://www.w3.org/1999/xlink">
    <!-- Generator: Sketch 52.6 (67491) - http://www.bohemiancoding.com/sketch -->
    <title>Iroko TV Logo</title>
    <desc>Created with Sketch.</desc>
    <g id="Page-1" stroke="none" stroke-width="1" fill="none" fill-rule="evenodd">
        <g id="Macbook-02" transform="translate(-1038.000000, -2093.000000)" fill="#BE194B">
            <g id="Iroko-TV-Logo" transform="translate(1038.000000, 2093.000000)">
                <polygon id="Path" points="635.478661 269.03622 635.478661 0.727653543 685.387559 0.727653543 685.387559 122.310709 788.208661 0.352417323 841.868504 0.352417323 730.792913 128.690079 847.495276 269.03622 788.584252 269.03622 685.387559 143.700236 685.387559 269.03622"></polygon>
                <path d="M979.965354,0.357944882 C979.518898,0.354259843 979.072441,0.352417323 978.633071,0.352417323 C899.794488,0.352417323 842.428346,56.5504724 842.428346,134.994331 C842.428346,213.43748 899.794488,269.636457 978.633071,269.636457 C1049.18031,269.636457 1102.68425,224.176535 1112.74016,157.959921 L1054.99843,157.959921 C1046.79921,194.636693 1018.6937,220.462441 978.633071,220.462441 C930.238583,220.462441 899.404724,183.387402 899.404724,134.994331 C899.404724,86.2107874 930.238583,49.5262205 978.633071,49.5262205 C979.079528,49.5262205 979.518898,49.5290551 979.965354,49.5354331 L979.965354,0.357944882 Z" id="Path"></path>
                <path d="M466.00937,269.636457 C544.453228,269.636457 601.822205,213.43748 601.822205,134.994331 C601.822205,56.5504724 544.453228,0.352417323 466.00937,0.352417323 C387.175748,0.352417323 329.806772,56.5504724 329.806772,134.994331 C329.806772,213.43748 387.175748,269.636457 466.00937,269.636457 Z M466.00937,220.462441 C417.616299,220.462441 386.785276,183.387402 386.785276,134.994331 C386.785276,86.2107874 417.616299,49.5262205 466.00937,49.5262205 C514.012677,49.5262205 544.843701,86.2107874 544.843701,134.994331 C544.843701,183.387402 514.012677,220.462441 466.00937,220.462441 Z" id="Shape"></path>
                <polygon id="Path" points="55.4524724 4.64548819 55.4524724 264.952913 0.0346025906 264.952913 0.0346025906 4.64548819"></polygon>
                <path d="M251.528031,165.825354 L310.458189,264.952913 L246.454016,264.952913 L195.329764,172.459843 L154.74189,172.459843 L154.74189,264.952913 L99.3238583,264.952913 L99.3238583,4.64548819 L221.086772,4.64548819 C275.334094,4.64548819 308.897008,40.1598425 308.897008,88.5529134 C308.897008,134.214094 279.627165,159.190866 251.528031,165.825354 Z M154.74189,123.677008 L213.281575,123.677008 C235.136693,123.677008 251.917795,110.407323 251.917795,88.1624409 C251.917795,66.6977953 235.136693,53.4288189 213.281575,53.4288189 L154.74189,53.4288189 L154.74189,123.677008 Z" id="Shape"></path>
                <polygon id="Path" points="1066.3937 141.285827 1066.3937 26.7640157 1107.38268 26.7640157 1107.38268 0.352417323 994.974803 0.352417323 994.974803 26.7640157 1036.17638 26.7640157 1036.17638 141.285827"></polygon>
                <polygon id="Path" points="1184.72598 141.285827 1239.02362 0.352417323 1205.00787 0.352417323 1165.91811 108.535039 1126.82835 0.352417323 1092.8126 0.352417323 1147.11024 141.285827"></polygon>
            </g>
        </g>
    </g>
</svg>