<?xml version="1.0" encoding="UTF-8"?>
<svg width="990px" height="269px" viewBox="0 0 990 269" version="1.1" xmlns="http://www.w3.org/2000/svg" xmlns:xlink="http://www.w3.org/1999/xlink">
    <!-- Generator: Sketch 52.6 (67491) - http://www.bohemiancoding.com/sketch -->
    <title>Konga-Logo</title>
    <desc>Created with Sketch.</desc>
    <g id="Page-1" stroke="none" stroke-width="1" fill="none" fill-rule="evenodd">
        <g id="Macbook-02" transform="translate(-1338.000000, -1651.000000)">
            <g id="Konga-Logo" transform="translate(1338.000000, 1651.000000)">
                <polygon id="Path" fill="#ED017F" points="250.52 156.05 250.52 213 203.08 213 203.08 24.11 250.52 24.11 250.52 119.9 271.76 119.9 302 69.29 351.7 69.29 311.04 138.42 351.73 213 302 213 270.83 156.07"></polygon>
                <path d="M497.68,172.31 L497.22,110.41 L497.22,103.18 C495.42,81.49 475.99,65.68 453.85,67.49 L392,67.49 C389.472835,67.2399973 386.927165,67.2399973 384.4,67.49 C374.010921,68.4794914 364.441695,73.5595248 357.801347,81.6104774 C351.161,89.6614299 347.994595,100.022449 349,110.41 L349,179.54 C350.81,201.23 370.24,217.04 391.93,215.24 L461.93,215.24 C483.67,213.43 499.48,194 497.68,172.31 Z M450.68,170.05 C450.528324,172.659347 449.234781,175.06935 447.144012,176.637909 C445.053242,178.206468 442.377614,178.774257 439.83,178.19 L404.6,178.19 C399.18,177.73 396.01,173.19 396.47,167.79 L396.47,111.79 C396.981459,106.556462 401.623619,102.718527 406.86,103.2 L442.1,103.2 C447.1,103.65 450.69,108.62 450.23,114.05 L450.69,114.05 L450.68,170.05 Z" id="Shape" fill="#ED017F" fill-rule="nonzero"></path>
                <path d="M590.75,105.89 C579.679034,105.854575 568.681407,107.686949 558.22,111.31 L558.22,212.07 L510.78,212.07 L510.78,69.29 L552.35,69.29 L555.06,82.85 C563.64,77.85 572.23,73.36 581.27,71.1 C588.638686,68.4051127 596.423986,67.0274532 604.27,67.03 L616.02,67.03 C626.158169,66.3203909 636.159207,69.69386 643.79621,76.3992464 C651.433213,83.1046328 656.072121,92.5852228 656.68,102.73 L656.68,213 L610.18,213 L610.18,115.4 C609.992307,112.819397 608.86017,110.398474 607,108.6 C605.162358,106.87439 602.740791,105.906477 600.22,105.89 L590.75,105.89 Z" id="Path" fill="#ED017F"></path>
                <path d="M809.44,220.66 L809.44,69.29 L702.36,69.29 C680.659235,71.6652528 664.81523,90.9177165 666.66,112.67 L666.66,171.41 C668.077324,192.475443 686.258908,208.430711 707.33,207.1 L716.82,207.1 C732.63,207.1 747.99,204.84 762.9,201.68 L762,215.24 C761.981009,217.75733 761.013272,220.174886 759.29,222.01 C757.411385,223.670193 755.015385,224.627887 752.51,224.72 C734.89,224.72 708.68,223.82 674.34,221.11 L674.34,255.9 C705.97,259.06 737.15,261.32 768.78,261.32 L773.78,261.32 C795,259.52 810.8,241.44 809.44,220.66 Z M762.9,168.25 C752.153011,170.077598 741.271279,170.997511 730.37,171 L730.37,170.54 L723.59,170.54 C721.132019,170.498573 718.79385,169.470887 717.101269,167.688035 C715.408689,165.905184 714.50377,163.516817 714.59,161.06 L714.59,114 C715.04,108.57 720.01,105.41 725.43,105.86 L762.93,105.86 L762.9,168.25 Z" id="Shape" fill="#ED017F" fill-rule="nonzero"></path>
                <path d="M922.4,67 C892.58,67.46 863.21,68.81 833.84,72.43 L832,104.54 L865.89,101.83 L904.75,100.47 C907.287059,100.399449 909.740559,101.380126 911.53,103.18 C913.33,105.44 914.69,107.7 914.69,109.96 L914.69,120.8 L854.59,120.8 C833.81,122.16 817.59,140.68 819.35,161.47 L819.35,179.54 C820.05658,189.611498 824.742115,198.987785 832.372424,205.599343 C840.002733,212.210902 849.950475,215.51415 860.02,214.78 L869.5,214.78 C877.215605,214.790139 884.870361,213.414993 892.1,210.72 C901.58,208.46 910.17,203.94 918.3,198.52 L921.47,212.07 L963.03,212.07 L963.03,102.28 C961.71,81.49 943.18,65.68 922.4,67 Z M916.07,172.28 C905.526741,175.51636 894.568511,177.200686 883.54,177.28 L883.54,178.19 L876.76,178.19 C874.244014,178.190001 871.831222,177.189846 870.05309,175.409838 C868.274957,173.629829 867.277346,171.215984 867.28,168.7 L867.28,166 C867.209449,163.462941 868.190126,161.009441 869.99,159.22 C871.656494,157.201998 874.142904,156.041429 876.76,156.06 L916.07,156.05978 L916.07,172.28 Z" id="Shape" fill="#ED017F" fill-rule="nonzero"></path>
                <rect id="Rectangle" fill="#ED017F" x="804.47" y="249.12" width="17.62" height="18.53"></rect>
                <path d="M855.53,268.55 C852.17134,268.544546 848.828453,268.090532 845.59,267.2 L837.91,263.13 C836.009597,261.330903 834.474789,259.181494 833.39,256.8 C829.258738,248.045251 831.282577,237.62248 838.39,231.05 L845.62,227.44 C848.558065,226.690853 851.591441,226.384145 854.62,226.53 L861.85,227.44 L868.18,229.69 L868.18,240.54 L865.92,240.54 L864.11,238.73 C862.391576,237.381045 860.381308,236.452966 858.24,236.02 L854.62,235.57 C851.46,235.57 848.75,236.47 846.94,238.73 C844.784347,241.221233 843.654913,244.437974 843.78,247.73 C843.78,250.44 844.68,254.05 846.94,256.31 C849.038151,258.19803 851.801589,259.17315 854.62,259.02 L858.69,258.57 L862.31,257.22 L864.11,255.86 L865.92,254.51 L868.18,254.51 L868.18,265.35 L861.85,268.06 L855.53,268.55 Z" id="Path" fill="#ED017F"></path>
                <path d="M917,247.77 C917,241.89 915.19,236.02 911.12,231.95 C906.6,228.34 901.18,225.63 895.31,226.53 C889.412264,226.463288 883.664924,228.390815 879,232 C875.39,236.07 872.68,241.94 873.58,247.82 C873.524518,253.402839 875.444265,258.825593 879,263.13 C888.259706,270.960775 901.820294,270.960775 911.08,263.13 C915.17,258.61 917.43,253.64 917,247.77 Z M903,253.64 L901.19,257.26 L898.48,259.52 C897.586823,260.225478 896.450849,260.549015 895.32,260.42 C893.96,260.42 892.16,260.42 891.25,259.52 C889.9,259.06 888.99,258.61 888.54,257.71 L886.28,254.09 L885.83,248.22 C885.493504,246.103371 885.647459,243.937741 886.28,241.89 L888.54,237.83 L891.25,236.02 L894.87,235.57 L898,236 C899.293692,236.022736 900.48587,236.705598 901.16,237.81 L902.97,241.87 L903.42,247.75 L903,253.64 Z" id="Shape" fill="#ED017F" fill-rule="nonzero"></path>
                <path d="M963.52,238.73 L963.52,267.2 L950.41,267.2 L950.41,242.35 L949.51,238.73 L947.7,236.92 L943.64,236.47 L939.57,237.38 L936.41,238.73 L936.41,267.2 L923.75,267.2 L923.75,227.44 L936.86,227.44 L936.86,231.5 L943.18,227.89 C945.317837,226.960527 947.629083,226.496914 949.96,226.53 C954.9494,226.449938 959.532604,229.270071 961.71,233.76 C963.804052,231.566352 966.247145,229.734877 968.94,228.34 C971.206871,227.265263 973.664139,226.650096 976.17,226.53 C979.78,225.63 983.4,227.44 985.66,230.15 C988.37,233.76 989.72,237.38 989.27,241.44 L989.27,267.65 L976.62,267.65 L976.62,242.8 L975.72,239.18 C975.294525,238.255724 974.456038,237.587902 973.46,237.38 L969.84,236.92 L966.68,237.38 L963.52,238.73 Z" id="Path" fill="#ED017F"></path>
                <path d="M183.65,33.6 C163.849402,13.7161703 136.698032,2.92078581 108.65,3.78 C81.3229423,3.29039636 54.9217295,13.682088 35.2599017,32.6668272 C15.598074,51.6515664 4.28794417,77.6725628 3.82,105 C3.82,106.21 3.82,107.43 3.82,108.64 C2,165.53 47.2,213 104.13,214.33 L108.65,214.33 C165.58,215.69 213,170.5 213.93,113.57 L213.93,108.15 C214.739334,80.1529742 203.752536,53.1032443 183.65,33.6 Z" id="Path" fill="#F9A024"></path>
                <path d="M108.65,216.59 C50.3450022,217.608311 2.12943591,171.41512 0.65,113.12 L0.65,108.6 C-0.373799031,50.2928531 45.822498,2.07404492 104.12,0.6 L108.64,0.6 C136.621811,-0.0682819724 163.722525,10.4092374 183.977608,29.7265857 C204.232692,49.0439339 215.982124,75.6179423 216.64,103.6 L216.64,108.6 C217.388869,136.604356 206.938146,163.750975 187.603836,184.023843 C168.269526,204.296712 141.648394,216.021552 113.64,216.6 L108.65,216.59 Z M108.65,6.04 C53.4178863,4.76987397 7.5581058,48.4030609 6.08,103.63 L6.08,108.63 C5.18,164.21 48.55,210.3 104.58,211.2 L108.65,211.2 C135.243183,212.039109 161.0635,202.186205 180.337365,183.844461 C199.611231,165.502717 210.73092,140.202104 211.21,113.6 L211.21,108.6 C212.57,53.48 168.29,7.39 113.21,6.49 L108.65,6.04 Z" id="Shape" fill="#ED017F" fill-rule="nonzero"></path>
                <path d="M54.43,72.91 C58.1342464,69.5605844 62.9879767,67.76954 67.98,67.91 C73.5641102,67.8200092 79.105553,68.896282 84.25,71.07 C89.8383691,73.3039759 95.1447769,76.1870906 100.06,79.66 L102.32,77.85 C99.16,71.52 94.19,66.55 88.32,62.49 C81.9780693,58.9079191 74.8136011,57.0366799 67.53,57.06 C63.6647076,57.158512 59.8453758,57.9230549 56.24,59.32 C52.5825067,60.7723544 49.4465895,63.2915413 47.24,66.55 C44.98,69.26 43.62,72.88 42.24,76.04 C41.2676285,79.4119335 40.9619269,82.9410886 41.34,86.43 L44.5,86.43 C46.8671842,81.3014503 50.2445359,76.7030822 54.43,72.91 Z M122.66,63 C127.17,59.84 132.6,58 138.02,56.22 C142.54,54.87 147.96,55.77 152.48,58.48 C157.313025,61.4939709 161.591996,65.3162929 165.13,69.78 L167.84,68.87 C167.39,65.71 166.48,61.64 164.22,58.93 C162.582896,55.4990916 160.093682,52.5450859 156.99,50.35 C154.28,47.64 150.22,46.28 146.6,45.35 C142.73618,44.440094 138.71382,44.440094 134.85,45.35 C120.850225,48.7527654 109.788629,59.466176 105.94,73.35 L108.65,74.71 L122.2,62.51 L122.66,63 Z M171,133.91 C168.87748,139.220667 165.830336,144.113025 162,148.36 C160.2,150.17 158.39,152.43 155.68,154.24 L148.9,159.24 C138.908018,164.579728 128.045205,168.097952 116.82,169.63 C105.560486,171.360278 94.0818085,171.055445 82.93,168.73 C77.4560588,167.369451 72.1526682,165.397033 67.12,162.85 C61.7,160.59 57.18,156.98 52.21,153.36 L50.85,154.72 C58.0864048,165.176938 68.5667576,172.958125 80.67,176.86 C92.8273775,181.287051 105.948378,182.378166 118.67,180.02 C131.397155,178.352759 143.508489,173.541219 153.91,166.02 C164.279723,158.097201 171.106874,146.404807 172.91,133.48 L171,133.48 L171,133.91 Z M106.84,100 L110.91,137.5 L113.17,137.05 L108.65,100 L106.84,100 Z" id="Shape" fill="#ED017F" fill-rule="nonzero"></path>
            </g>
        </g>
    </g>
</svg>