<?xml version="1.0" encoding="UTF-8"?>
<svg width="123px" height="111px" viewBox="0 0 123 111" version="1.1" xmlns="http://www.w3.org/2000/svg" xmlns:xlink="http://www.w3.org/1999/xlink">
    <!-- Generator: sketchtool 54.1 (76490) - https://sketchapp.com -->
    <title>44E8A917-777B-4DE4-878D-1F33581CE625</title>
    <desc>Created with sketchtool.</desc>
    <defs>
        <polygon id="path-1" points="1.01201655 0.42182105 98.3744681 0.42182105 98.3744681 19.1489362 1.01201655 19.1489362"></polygon>
        <path d="M0.920425532,1.10425532 C0.705957447,3.10212766 0.559148936,6.08425532 1.03021277,9.18893617 L1.03021277,9.18893617 C6.25787234,7.14 13.5485106,0.486382979 13.5485106,0.486382979 L13.5485106,0.486382979 C13.5485106,0.486382979 6.19148936,2.08595745 0.920425532,1.10425532" id="path-3"></path>
        <linearGradient x1="-0.00180509194%" y1="49.9992343%" x2="100.006954%" y2="49.9992343%" id="linearGradient-5">
            <stop stop-color="#F2CA4B" offset="0%"></stop>
            <stop stop-color="#FF8E02" offset="100%"></stop>
        </linearGradient>
        <path d="M0.992765957,4.5293617 C-0.302978723,7.40170213 -0.857021277,11.5634043 3.02765957,15.9217021 L3.02765957,15.9217021 C11.2195745,16.2229787 21.0940426,17.2110638 22.3425532,16.1578723 L22.3425532,16.1578723 C23.7965957,14.9310638 27.727234,7.37361702 27.727234,7.37361702 L27.727234,7.37361702 C27.727234,7.37361702 24.3876596,1.43489362 17.2961702,0.930638298 L17.2961702,0.930638298 C17.113617,0.91787234 16.9234043,0.911489362 16.7268085,0.911489362 L16.7268085,0.911489362 C12.9965957,0.911489362 7.09744681,3.19659574 0.992765957,4.5293617" id="path-6"></path>
        <linearGradient x1="0.000931994782%" y1="50.0012546%" x2="99.9981465%" y2="50.0012546%" id="linearGradient-8">
            <stop stop-color="#44C8D2" offset="0%"></stop>
            <stop stop-color="#0A8DD6" offset="100%"></stop>
        </linearGradient>
        <path d="M13.9889362,0.214468085 C12.4314894,0.218297872 11.0208511,0.271914894 9.84,0.339574468 L9.84,0.339574468 C-6.4506383,1.27914894 2.53148936,23.0106383 3.32553191,25.4757447 L3.32553191,25.4757447 C6.21829787,34.4489362 17.2519149,33.5987234 24.7314894,32.7485106 L24.7314894,32.7485106 C27.6242553,32.4204255 29.9846809,32.0910638 31.1374468,32.3310638 L31.1374468,32.3310638 C34.1144681,32.9502128 36.4365957,34.8242553 39.5106383,39.5323404 L39.5106383,39.5323404 C37.1655319,29.567234 41.8685106,24.0382979 41.4357447,18.18 L41.4357447,18.18 C40.9953191,12.2004255 37.8944681,7.01489362 34.6008511,4.75021277 L34.6008511,4.75021277 C29.232766,1.05957447 20.7395745,0.233617021 14.4370213,0.214468085 L14.4370213,0.214468085 L13.9889362,0.214468085 Z" id="path-9"></path>
        <linearGradient x1="-0.000506048008%" y1="49.9993097%" x2="100.001532%" y2="49.9993097%" id="linearGradient-11">
            <stop stop-color="#3CC0D2" offset="0%"></stop>
            <stop stop-color="#0F92D5" offset="100%"></stop>
        </linearGradient>
        <linearGradient x1="0%" y1="50%" x2="97.4613165%" y2="50%" id="linearGradient-12">
            <stop stop-color="#62DF97" offset="0%"></stop>
            <stop stop-color="#24819D" offset="100%"></stop>
        </linearGradient>
        <linearGradient x1="0%" y1="50%" x2="97.4613165%" y2="50%" id="linearGradient-13">
            <stop stop-color="#D4F038" offset="0%"></stop>
            <stop stop-color="#C3B51F" offset="100%"></stop>
        </linearGradient>
    </defs>
    <g id="LANDING" stroke="none" stroke-width="1" fill="none" fill-rule="evenodd">
        <g id="homepage" transform="translate(-949.000000, -1669.000000)">
            <g id="choose-pss" transform="translate(949.000000, 1669.000000)">
                <g id="Group-82" transform="translate(0.000000, 36.000000)">
                    <g id="Group-8" transform="translate(20.425532, 19.211064)">
                        <g id="Group-3" transform="translate(0.000000, 35.744681)">
                            <mask id="mask-2" fill="white">
                                <use xlink:href="#path-1"></use>
                            </mask>
                            <g id="Clip-2"></g>
                            <path d="M75.8567234,2.2193617 C60.1775745,1.87468085 44.4920426,1.68957447 28.8077872,1.47638298 C28.5460851,0.876382979 27.9945957,0.414255319 27.1367234,0.421914894 C18.6677872,0.495957447 10.4771489,1.73808511 2.37076596,4.19680851 C0.692042553,4.70617021 0.603957447,6.75 1.91246809,7.69723404 C7.38140426,11.6521277 13.6762979,12.3312766 20.2405532,12.7091489 C24.4814043,12.9529787 28.7567234,13.0602128 32.885234,14.1746809 C37.2703404,15.3593617 41.2533191,17.7121277 45.7303404,18.6095745 C53.2341702,20.1159574 61.3597021,18.0951064 68.8201277,17.0840426 C73.8614043,16.3997872 78.9014043,15.7168085 83.9414043,15.0338298 C87.4775745,14.5538298 92.5609787,14.7351064 95.7933191,12.9351064 C98.8150213,11.2525532 99.2541702,7.92702128 96.738,5.55 C92.3273617,1.3806383 81.324383,2.3393617 75.8567234,2.2193617" id="Fill-1" fill="#ECECEC" mask="url(#mask-2)"></path>
                        </g>
                        <path d="M71.166766,22.4191915 C71.166766,22.4191915 71.4246383,19.7370638 69.2429362,19.692383 C67.061234,19.6464255 65.5293191,23.4200426 67.6714468,24.0557872 C69.8110213,24.6915319 70.8629362,23.5094043 71.166766,22.4191915" id="Fill-4" fill="#33213D"></path>
                        <path d="M41.0508511,31.0568936 C41.0508511,31.0568936 22.4980851,28.0671064 20.8921277,26.9960426 C19.5287234,26.0858298 31.3512766,1.4526383 31.3512766,1.4526383 L25.5619149,0.751787234 C25.5619149,0.751787234 8.40446809,24.7824255 11.0406383,30.4198723 C14.0546809,36.8615745 18.4678723,36.875617 24.1946809,38.2377447 C29.922766,39.6024255 41.0508511,31.0568936 41.0508511,31.0568936" id="Fill-6" fill="#884B00"></path>
                    </g>
                    <g id="Group-11" transform="translate(49.787234, 47.296170)">
                        <mask id="mask-4" fill="white">
                            <use xlink:href="#path-3"></use>
                        </mask>
                        <g id="Clip-10"></g>
                        <path d="M0.920425532,1.10425532 C0.705957447,3.10212766 0.559148936,6.08425532 1.03021277,9.18893617 L1.03021277,9.18893617 C6.25787234,7.14 13.5485106,0.486382979 13.5485106,0.486382979 L13.5485106,0.486382979 C13.5485106,0.486382979 6.19148936,2.08595745 0.920425532,1.10425532" id="Fill-9" fill="url(#linearGradient-5)" mask="url(#mask-4)"></path>
                    </g>
                    <g id="Group-32" transform="translate(3.829787, 12.828085)">
                        <path d="M90.3531064,35.4880851 C90.3531064,35.4880851 92.5041702,34.5574468 92.6803404,32.052766 C92.8386383,29.8021277 90.1182128,27.6804255 86.7620426,28.6812766 C83.4084255,29.6808511 77.7224681,34.2931915 84.5165106,37.7910638 L90.3531064,35.4880851 Z" id="Fill-12" fill="#33213D"></path>
                        <path d="M85.6568936,38.5493617 C85.6568936,38.5493617 112.825404,39.3651064 113.189234,45.5004255 C113.55434,51.6574468 97.8879574,50.0987234 87.0215745,48.9510638 C76.1564681,47.8034043 85.6568936,38.5493617 85.6568936,38.5493617" id="Fill-14" fill="#884B00"></path>
                        <path d="M43.1128085,5.59097872 C42.1668511,5.49523404 41.5745106,5.61651064 41.2106809,5.83991489 L41.6217447,9.23693617 L46.1894043,9.81523404 L47.9472766,7.83523404 C47.9472766,7.83523404 46.5825957,5.94076596 43.1128085,5.59097872" id="Fill-16" fill="#996D38"></path>
                        <path d="M36.5453617,0.614297872 C36.5377021,0.717702128 36.5402553,0.821106383 36.5466383,0.923234043 C36.5491915,0.957702128 36.5504681,0.990893617 36.5542979,1.0253617 C36.5619574,1.10195745 36.5734468,1.1772766 36.5874894,1.25259574 C36.7304681,1.99685106 41.2100426,5.84068085 41.2100426,5.84068085 C41.5738723,5.616 42.1662128,5.4947234 43.1134468,5.59046809 C46.5819574,5.94153191 47.9479149,7.836 47.9479149,7.836 L49.2321702,6.12280851 L49.7351489,5.45387234 L36.5491915,0.550468085 L36.5453617,0.614297872 Z" id="Fill-18" fill="#444971"></path>
                        <path d="M44.2235745,5.5086383 L44.1878298,7.76948936 C44.1814468,8.20353191 43.7959149,8.53417021 43.3669787,8.47417021 L41.5120851,8.21885106 C41.1125106,8.16395745 40.8354894,7.79246809 40.896766,7.39417021 L41.2516596,5.07459574 L44.2235745,5.5086383 Z" id="Fill-20" fill="#884B00"></path>
                        <path d="M40.8451915,5.26812766 C40.8094468,5.26812766 40.7724255,5.25408511 40.745617,5.2272766 L37.979234,2.57195745 C37.9217872,2.51578723 37.919234,2.42387234 37.9754043,2.36770213 C38.0302979,2.30897872 38.1222128,2.30770213 38.1796596,2.36259574 L40.9460426,5.01919149 C41.0034894,5.07408511 41.004766,5.166 40.9498723,5.22344681 C40.9217872,5.25280851 40.8822128,5.26812766 40.8451915,5.26812766" id="Fill-22" fill="#33213D"></path>
                        <path d="M39.9474894,5.22382979 C39.9028085,5.22382979 39.8594043,5.20340426 39.8300426,5.16510638 C39.7828085,5.1012766 39.7968511,5.0106383 39.8606809,4.96212766 L40.9406809,4.16042553 C41.0057872,4.11319149 41.0964255,4.12723404 41.1436596,4.19106383 C41.1921702,4.25489362 41.1781277,4.34553191 41.1142979,4.39276596 L40.0330213,5.19574468 C40.0074894,5.21489362 39.9768511,5.22382979 39.9474894,5.22382979" id="Fill-24" fill="#33213D"></path>
                        <path d="M38.9214894,4.34055319 C38.8780851,4.34055319 38.8346809,4.32012766 38.8053191,4.28182979 C38.7580851,4.218 38.7721277,4.1273617 38.8359574,4.07885106 L39.9159574,3.27714894 C39.9810638,3.22991489 40.0717021,3.24395745 40.1176596,3.30778723 C40.1674468,3.37161702 40.1534043,3.46353191 40.0895745,3.51076596 L39.0082979,4.31246809 C38.982766,4.33161702 38.9508511,4.34055319 38.9214894,4.34055319" id="Fill-26" fill="#33213D"></path>
                        <path d="M37.896766,3.45791489 C37.8533617,3.45791489 37.8086809,3.43748936 37.7805957,3.39919149 C37.7320851,3.3353617 37.7461277,3.2447234 37.811234,3.19621277 L38.891234,2.39451064 C38.9563404,2.3472766 39.0457021,2.36131915 39.0929362,2.42514894 C39.1427234,2.48897872 39.1286809,2.57961702 39.0635745,2.62812766 L37.9822979,3.42982979 C37.956766,3.44897872 37.9261277,3.45791489 37.896766,3.45791489" id="Fill-28" fill="#33213D"></path>
                        <path d="M72.1304681,40.565234 C72.1304681,40.565234 68.7921702,34.6265106 61.7006809,34.1235319 C56.843234,33.7775745 47.6083404,38.1665106 39.2453617,38.6209787 C36.2491915,38.784383 0.915574468,29.064383 0.915574468,29.064383 L0.424085106,34.9622553 C0.424085106,34.9622553 15.3194043,45.8784255 34.236,48.4099149 C37.1772766,48.804383 40.2921702,49.0303404 43.5640851,49.0303404 C52.1338723,49.0303404 65.2930213,50.5762979 66.7470638,49.3494894 C68.2011064,48.1214043 72.1304681,40.565234 72.1304681,40.565234" id="Fill-30" fill="#884B00"></path>
                    </g>
                    <g id="Group-35" transform="translate(48.234043, 46.019574)">
                        <mask id="mask-7" fill="white">
                            <use xlink:href="#path-6"></use>
                        </mask>
                        <g id="Clip-34"></g>
                        <path d="M0.992765957,4.5293617 C-0.302978723,7.40170213 -0.857021277,11.5634043 3.02765957,15.9217021 L3.02765957,15.9217021 C11.2195745,16.2229787 21.0940426,17.2110638 22.3425532,16.1578723 L22.3425532,16.1578723 C23.7965957,14.9310638 27.727234,7.37361702 27.727234,7.37361702 L27.727234,7.37361702 C27.727234,7.37361702 24.3876596,1.43489362 17.2961702,0.930638298 L17.2961702,0.930638298 C17.113617,0.91787234 16.9234043,0.911489362 16.7268085,0.911489362 L16.7268085,0.911489362 C12.9965957,0.911489362 7.09744681,3.19659574 0.992765957,4.5293617" id="Fill-33" fill="url(#linearGradient-8)" mask="url(#mask-7)"></path>
                    </g>
                    <g id="Group-78" transform="translate(0.000000, 38.360000)">
                        <path d="M88.0717021,4.67910638 C86.7185106,3.69485106 88.0078723,0.751021277 89.8831915,0.560808511 C89.8129787,0.553148936 89.7453191,0.544212766 89.6687234,0.54293617 C87.6734043,0.502085106 86.2231915,3.654 87.6287234,4.67910638 C85.0665957,6.58378723 83.4057447,9.7152766 88.3461702,12.2582553 L88.6014894,12.1574043 C83.8959574,9.63357447 85.542766,6.55825532 88.0717021,4.67910638" id="Fill-36" fill="#785EB7"></path>
                        <path d="M93.9871915,17.2710638 C92.8331489,13.8548936 89.2369787,12.0280851 84.2595319,12.6344681 C78.4854894,13.3378723 78.6680426,13.2012766 75.0769787,13.7731915 C72.7293191,14.1485106 71.8037872,11.3221277 67.086766,13.2395745 C63.3680426,14.7510638 62.0582553,20.4638298 65.166766,22.9991489 C69.3488936,26.4089362 83.9365532,25.7719149 88.6216596,24.3625532 C93.3054894,22.9531915 94.7582553,19.5510638 93.9871915,17.2710638" id="Fill-38" fill="#E0E0E0"></path>
                        <path d="M87.5780426,13.1264681 C87.5780426,13.1264681 86.4329362,13.0754043 85.6414468,13.8324255 C84.8499574,14.5894468 84.8946383,18.8839149 87.2601702,19.2375319 C89.6244255,19.5898723 91.0159149,15.0502979 89.3346383,13.8324255 C87.6533617,12.6158298 87.5780426,13.1264681 87.5780426,13.1264681" id="Fill-40" fill="#884B00"></path>
                        <path d="M90.0788936,13.1171489 L88.9810213,14.8239574 C88.5316596,15.5197021 87.5525106,15.6167234 86.9754894,15.0231064 C86.4699574,14.5009787 86.496766,13.6648085 87.0342128,13.1758723 L89.6078298,10.8384255 L90.0788936,13.1171489 Z" id="Fill-42" fill="#724002"></path>
                        <path d="M89.7647234,13.5130213 L89.7915319,13.5653617 L89.1238723,14.6006809 C88.9362128,14.3351489 88.7230213,13.9611064 88.6847234,13.5908936 C88.6157872,12.9053617 89.1608936,11.8789787 89.1608936,11.8789787 L89.7647234,13.5130213 Z" id="Fill-44" fill="#33213D"></path>
                        <path d="M89.202383,9.08297872 C89.3504681,9.12893617 89.4781277,9.20808511 89.5802553,9.30893617 L89.9019574,8.27234043 C90.3155745,7.48723404 91.3394043,7.04553191 93.1611064,7.60978723 C94.3751489,7.98510638 94.6266383,8.83787234 94.3866383,10.1821277 C94.0789787,11.9029787 93.389617,13.7361702 92.6019574,14.0923404 C92.0134468,14.3578723 91.2640851,14.1638298 90.1330213,13.752766 C89.1615319,13.3991489 88.6419574,12.3395745 88.9483404,11.3514894 C88.4542979,11.1982979 88.0840851,10.9187234 88.0968511,10.4029787 C88.1108936,9.79021277 88.709617,8.92978723 89.202383,9.08297872" id="Fill-46" fill="#884B00"></path>
                        <path d="M91.5905106,8.6993617 C90.9751915,8.6993617 90.4351915,9.15510638 90.3471064,9.78191489 C90.3011489,10.1151064 90.3866809,10.4457447 90.588383,10.7138298 C90.7913617,10.9819149 91.0849787,11.1555319 91.4181702,11.2014894 C92.1062553,11.2985106 92.742,10.817234 92.8364681,10.1304255 C92.9322128,9.44489362 92.4522128,8.80787234 91.7666809,8.71212766 C91.7066809,8.70319149 91.649234,8.6993617 91.5905106,8.6993617 L91.5905106,8.6993617 Z M91.5930638,11.43 C91.5254043,11.43 91.4577447,11.4261702 91.3875319,11.417234 C90.9981702,11.3623404 90.6522128,11.1580851 90.4160426,10.8440426 C90.1785957,10.53 90.0777447,10.1419149 90.1326383,9.75255319 C90.2449787,8.94702128 90.989234,8.38531915 91.7973191,8.49638298 C92.6002979,8.6087234 93.1645532,9.35553191 93.0522128,10.1610638 C92.9488085,10.896383 92.315617,11.43 91.5930638,11.43 L91.5930638,11.43 Z" id="Fill-48" fill="#F49F4A"></path>
                        <path d="M94.6229362,9.31174468 C94.4608085,9.31174468 94.2935745,9.40876596 94.1454894,9.59131915 C93.9680426,9.81089362 93.8454894,10.1198298 93.7982553,10.4606809 C93.7484681,10.8028085 93.7842128,11.1347234 93.894,11.3925957 C93.9961277,11.6338723 94.1505957,11.7794043 94.3293191,11.8049362 C94.5054894,11.8291915 94.6957021,11.7321702 94.860383,11.5279149 C95.0365532,11.309617 95.1616596,11.0006809 95.2088936,10.6585532 C95.2561277,10.3164255 95.2229362,9.98578723 95.1118723,9.7266383 C95.0097447,9.4866383 94.8552766,9.33982979 94.6778298,9.31557447 C94.6586809,9.31302128 94.6408085,9.31174468 94.6229362,9.31174468 M94.3842128,12.0257872 C94.3561277,12.0257872 94.3280426,12.0245106 94.2986809,12.0206809 C94.0420851,11.9836596 93.827617,11.7908936 93.6935745,11.4781277 C93.5684681,11.183234 93.5288936,10.8117447 93.5825106,10.4313191 C93.6361277,10.0508936 93.7752766,9.70365957 93.9769787,9.4547234 C94.1914468,9.19046809 94.4518723,9.06408511 94.7071915,9.09982979 C94.9637872,9.13557447 95.1795319,9.32834043 95.3122979,9.64238298 C95.4374043,9.936 95.4769787,10.308766 95.4233617,10.6891915 C95.3710213,11.069617 95.2305957,11.4155745 95.027617,11.6645106 C94.8386809,11.8994043 94.6127234,12.0257872 94.3842128,12.0257872" id="Fill-50" fill="#F49F4A"></path>
                        <path d="M93.689234,10.5546383 C93.6585957,10.5546383 93.6254043,10.5405957 93.6049787,10.5137872 C93.3075319,10.1397447 93.0024255,10.3427234 92.9896596,10.3516596 C92.9411489,10.3848511 92.8722128,10.3720851 92.8390213,10.3235745 C92.8045532,10.2737872 92.8173191,10.2061277 92.8658298,10.1716596 C93.0330638,10.0580426 93.4377447,9.9546383 93.774766,10.3784681 C93.8130638,10.4257021 93.8041277,10.4933617 93.7581702,10.530383 C93.7377447,10.5469787 93.7134894,10.5546383 93.689234,10.5546383" id="Fill-52" fill="#F49F4A"></path>
                        <path d="M91.4539149,23.7431489 L101.096043,23.7431489 L102.52583,14.430383 C102.534766,14.3742128 102.544979,14.3154894 102.556468,14.256766 C102.615191,13.9554894 102.848809,13.8265532 103.079872,13.8329362 L103.079872,13.8329362 L112.903277,13.8329362 L112.902,13.8393191 C113.172638,13.877617 113.420298,14.0971915 113.366681,14.4520851 L111.776043,24.8180426 L91.595617,24.8180426 C91.5394468,24.8180426 91.4807234,24.816766 91.4207234,24.8129362 C90.7288085,24.7835745 90.762,23.7431489 91.4539149,23.7431489" id="Fill-54" fill="#33213D"></path>
                        <path d="M107.193191,18.5714043 C107.09617,19.1867234 107.345106,19.7382128 107.751064,19.8020426 C108.154468,19.8645957 108.559149,19.4165106 108.65617,18.7999149 C108.753191,18.1833191 108.502979,17.6331064 108.099574,17.5692766 C107.69617,17.5067234 107.288936,17.9548085 107.193191,18.5714043" id="Fill-56" fill="#F4BF3F"></path>
                        <path d="M97.4554468,21.2779149 C95.8609787,20.8094043 94.1758723,20.7608936 92.5418298,21.0634468 C88.0992766,21.8817447 76.1528936,24.0162128 75.9869362,23.3013191 C75.6218298,21.7464255 81.3792766,21.186 83.6222553,18.6851489 C85.3354468,16.7753617 83.4409787,13.1191915 80.5928936,13.5366383 C78.3384255,13.866 76.2218298,14.418766 71.6835319,17.8464255 C67.4286383,21.059617 65.0886383,25.9528085 69.3192766,28.938766 C73.4694894,31.8685532 87.9231064,26.706 93.3869362,24.5881277 C94.830766,24.0289787 96.3639574,23.7430213 97.9111915,23.7430213 L100.533319,23.7430213 C100.251191,22.4281277 98.8635319,21.6902553 97.4554468,21.2779149" id="Fill-58" fill="#884B00"></path>
                        <path d="M70.1195745,29.3470213 C65.8889362,26.3610638 68.2302128,21.4678723 72.4838298,18.2559574 C77.0221277,14.8270213 79.1387234,14.2729787 81.3931915,13.9448936 C81.8859574,13.8721277 82.3493617,13.9244681 82.7719149,14.0661702 C82.1693617,13.6397872 81.4225532,13.4151064 80.592766,13.536383 C78.3382979,13.8657447 76.2217021,14.4197872 71.6834043,17.8474468 C67.4297872,21.0593617 65.0885106,25.9525532 69.3191489,28.9385106 C69.5655319,29.1134043 69.852766,29.2576596 70.1693617,29.376383 C70.152766,29.3661702 70.1348936,29.3585106 70.1195745,29.3470213" id="Fill-60" fill="#F49F4A"></path>
                        <path d="M3.55953191,8.72885106 C3.66293617,9.67480851 3.90548936,10.2275745 4.20038298,10.5365106 L7.4352766,9.42587234 L7.04719149,4.83778723 L4.74548936,3.53182979 C4.74548936,3.53182979 3.17782979,5.26289362 3.55953191,8.72885106" id="Fill-62" fill="#996D38"></path>
                        <path d="M0.0626808511,16.1908085 C0.166085106,16.1754894 0.265659574,16.1525106 0.363957447,16.1244255 C0.398425532,16.1154894 0.431617021,16.1065532 0.463531915,16.0963404 C0.537574468,16.0733617 0.60906383,16.0452766 0.678,16.0146383 C1.37502128,15.7222979 4.20012766,10.536766 4.20012766,10.536766 C3.90523404,10.2278298 3.66268085,9.67506383 3.5592766,8.72910638 C3.17757447,5.26187234 4.74523404,3.53208511 4.74523404,3.53208511 L2.80225532,2.6333617 L2.04268085,2.28102128 L0.000127659574,16.1997447 L0.0626808511,16.1908085 Z" id="Fill-64" fill="#3C4043"></path>
                        <path d="M3.2466383,7.65919149 L5.4653617,7.22259574 C5.89174468,7.13834043 6.29514894,7.446 6.32578723,7.87748936 L6.46365957,9.74514894 C6.49302128,10.1472766 6.18791489,10.4957872 5.78451064,10.5200426 L3.44195745,10.6566383 L3.2466383,7.65919149 Z" id="Fill-66" fill="#884B00"></path>
                        <path d="M1.55489362,14.4486383 C1.52808511,14.4486383 1.50255319,14.4409787 1.47829787,14.4269362 C1.4106383,14.3848085 1.38893617,14.2954468 1.43106383,14.2277872 L3.45191489,10.9673617 C3.49531915,10.8997021 3.58468085,10.8792766 3.65234043,10.9214043 C3.7187234,10.9635319 3.74042553,11.0528936 3.69829787,11.1205532 L1.6787234,14.3797021 C1.6506383,14.4231064 1.60340426,14.4486383 1.55489362,14.4486383" id="Fill-68" fill="#33213D"></path>
                        <path d="M3.71910638,12.0768511 C3.68591489,12.0768511 3.65017021,12.0653617 3.6233617,12.0398298 L2.61357447,11.1500426 C2.55357447,11.0977021 2.54846809,11.0070638 2.60080851,10.9457872 C2.65314894,10.8857872 2.74378723,10.8806809 2.80506383,10.9330213 L3.81485106,11.8228085 C3.87485106,11.8764255 3.88123404,11.9683404 3.82761702,12.0270638 C3.79825532,12.0602553 3.75868085,12.0768511 3.71910638,12.0768511" id="Fill-70" fill="#33213D"></path>
                        <path d="M3.06957447,13.2637021 C3.03638298,13.2637021 3.0006383,13.2522128 2.97382979,13.2279574 L1.96531915,12.3368936 C1.90404255,12.2845532 1.89893617,12.1939149 1.9512766,12.1339149 C2.00361702,12.0726383 2.09553191,12.0675319 2.15553191,12.1198723 L3.16531915,13.0096596 C3.22531915,13.0632766 3.23170213,13.1551915 3.17808511,13.2139149 C3.1487234,13.2471064 3.10914894,13.2637021 3.06957447,13.2637021" id="Fill-72" fill="#33213D"></path>
                        <path d="M2.42017021,14.4504255 C2.38697872,14.4504255 2.35251064,14.4389362 2.32570213,14.4146809 L1.31591489,13.5248936 C1.2546383,13.4712766 1.24953191,13.3806383 1.30187234,13.3206383 C1.35421277,13.2606383 1.44612766,13.2542553 1.50612766,13.3065957 L2.51591489,14.196383 C2.57591489,14.25 2.58229787,14.3419149 2.52868085,14.4006383 C2.49931915,14.4338298 2.46102128,14.4504255 2.42017021,14.4504255" id="Fill-74" fill="#33213D"></path>
                        <path d="M42.7114468,13.3222979 C40.020383,13.3222979 33.480383,11.3384681 33.1893191,11.2491064 C33.0744255,11.2146383 33.0093191,11.0933617 33.0450638,10.9784681 C33.0795319,10.8635745 33.2008085,10.7984681 33.3157021,10.8342128 C33.3897447,10.8571915 40.7493191,13.0899574 43.0548511,12.8729362 C45.3871915,12.6520851 47.2025106,12.3099574 47.220383,12.3061277 C47.3365532,12.2844255 47.4527234,12.3610213 47.4731489,12.4784681 C47.4961277,12.5971915 47.4195319,12.7108085 47.3020851,12.7337872 C47.2829362,12.7363404 45.4484681,13.0835745 43.0957021,13.3057021 C42.9782553,13.3171915 42.8493191,13.3222979 42.7114468,13.3222979" id="Fill-76" fill="#33213D"></path>
                    </g>
                    <g id="Group-81" transform="translate(68.936170, 0.062128)">
                        <mask id="mask-10" fill="white">
                            <use xlink:href="#path-9"></use>
                        </mask>
                        <g id="Clip-80"></g>
                        <path d="M13.9889362,0.214468085 C12.4314894,0.218297872 11.0208511,0.271914894 9.84,0.339574468 L9.84,0.339574468 C-6.4506383,1.27914894 2.53148936,23.0106383 3.32553191,25.4757447 L3.32553191,25.4757447 C6.21829787,34.4489362 17.2519149,33.5987234 24.7314894,32.7485106 L24.7314894,32.7485106 C27.6242553,32.4204255 29.9846809,32.0910638 31.1374468,32.3310638 L31.1374468,32.3310638 C34.1144681,32.9502128 36.4365957,34.8242553 39.5106383,39.5323404 L39.5106383,39.5323404 C37.1655319,29.567234 41.8685106,24.0382979 41.4357447,18.18 L41.4357447,18.18 C40.9953191,12.2004255 37.8944681,7.01489362 34.6008511,4.75021277 L34.6008511,4.75021277 C29.232766,1.05957447 20.7395745,0.233617021 14.4370213,0.214468085 L14.4370213,0.214468085 L13.9889362,0.214468085 Z" id="Fill-79" fill="url(#linearGradient-11)" mask="url(#mask-10)"></path>
                    </g>
                </g>
                <path d="M97,21.5 L98.5,0.5" id="Line" stroke="#FFFFFF" stroke-linecap="round"></path>
                <path d="M90.5,21.5 L84.5,9.5" id="Line-2" stroke="#FFFFFF" stroke-linecap="round"></path>
                <path d="M84.5,24.5 L79.5,20.5" id="Line-3" stroke="#FFFFFF" stroke-linecap="round"></path>
                <polygon id="Star" fill="#F56E96" points="70.5 50.25 67.2671811 51.9495935 67.8845946 48.3497967 65.2691892 45.8004065 68.8835906 45.2752033 70.5 42 72.1164094 45.2752033 75.7308108 45.8004065 73.1154054 48.3497967 73.7328189 51.9495935"></polygon>
                <polygon id="Triangle" fill="#697788" points="15.5 53 25 67 6 67"></polygon>
                <rect id="Rectangle" fill="url(#linearGradient-12)" x="105" y="22" width="15" height="15"></rect>
                <rect id="Rectangle" fill="url(#linearGradient-13)" opacity="0.597214472" x="108" y="19" width="15" height="15"></rect>
                <circle id="Oval" fill="#0744DD" cx="19" cy="33" r="6"></circle>
                <circle id="Oval-Copy-3" stroke="#14314D" cx="44" cy="29" r="4"></circle>
                <path d="M100,60.4545455 L101.5,37.5454545" id="Line" stroke="#1B314B" stroke-linecap="round"></path>
                <path d="M92.4285714,60.4615385 L85.5714286,47.5384615" id="Line-2" stroke="#1B314B" stroke-linecap="round"></path>
                <path d="M86.4166667,63.5 L80.5833333,59.5" id="Line-3" stroke="#1B314B" stroke-linecap="round"></path>
            </g>
        </g>
    </g>
</svg>