<svg height="305" viewBox="0 0 883 305" width="883" xmlns="http://www.w3.org/2000/svg" xmlns:xlink="http://www.w3.org/1999/xlink"><linearGradient id="a"><stop offset=".15" stop-color="#fe8926"/><stop offset=".9" stop-color="#ff625f"/></linearGradient><linearGradient id="b" x1="9.592018%" x2="81.945294%" xlink:href="#a" y1="19.414819%" y2="76.215308%"/><linearGradient id="c" x1="-.000778%" x2="100.10205%" xlink:href="#a" y1="50.08279%" y2="49.834097%"/><linearGradient id="d" x1="50%" x2="50%" y1="118.8%" y2="18.7%"><stop offset="0" stop-color="#f1f3f4"/><stop offset=".15" stop-color="#e3e6e8"/><stop offset=".44" stop-color="#ced1d5"/><stop offset=".73" stop-color="#c1c5ca"/><stop offset="1" stop-color="#bdc1c6"/></linearGradient><linearGradient id="e"><stop offset="0" stop-color="#f1f3f4"/><stop offset=".12" stop-color="#e3e6e8"/><stop offset=".36" stop-color="#ced1d5"/><stop offset=".59" stop-color="#c1c5ca"/><stop offset=".81" stop-color="#bdc1c6"/><stop offset="1" stop-color="#dadce0"/></linearGradient><linearGradient id="f" x1="50%" x2="50%" xlink:href="#e" y1="115.4%" y2="15.3%"/><linearGradient id="g" x1="64393%" x2="64393%" xlink:href="#e" y1="18694%" y2="5819%"/><linearGradient id="h"><stop offset="0" stop-color="#bdc1c6"/><stop offset="1" stop-color="#8c9499"/></linearGradient><linearGradient id="i" x1="50%" x2="50%" xlink:href="#h" y1="83%" y2="-17%"/><linearGradient id="j" x1="72620%" x2="72620%" xlink:href="#h" y1="17921%" y2="11715%"/><linearGradient id="k" x1="17335%" x2="17335%" xlink:href="#h" y1="16373%" y2="11434%"/><linearGradient id="l"><stop offset="0" stop-color="#bdc1c6"/><stop offset=".05" stop-color="#c1c5c9"/><stop offset=".41" stop-color="#dbdee1"/><stop offset=".74" stop-color="#ebeeef"/><stop offset="1" stop-color="#f1f3f4"/></linearGradient><linearGradient id="m" x1="32.2%" x2="103.6%" xlink:href="#l" y1="76.5%" y2="-35.5%"/><linearGradient id="n"><stop offset="0" stop-color="#f8f9fa" stop-opacity="0"/><stop offset=".15" stop-color="#f8f9fa" stop-opacity=".2"/><stop offset=".32" stop-color="#f8f9fa" stop-opacity=".5"/><stop offset=".48" stop-color="#f8f9fa" stop-opacity=".7"/><stop offset=".64" stop-color="#f8f9fa" stop-opacity=".8"/><stop offset=".78" stop-color="#f8f9fa" stop-opacity=".9"/><stop offset=".9" stop-color="#f8f9fa"/><stop offset="1" stop-color="#f8f9fa"/></linearGradient><linearGradient id="o" x1="50%" x2="50%" xlink:href="#n" y1="100%" y2="0%"/><linearGradient id="p" x1="7696%" x2="9456%" xlink:href="#n" y1="14818%" y2="14818%"/><linearGradient id="q" x1="12889%" x2="12889%" xlink:href="#n" y1="14665%" y2="14506%"/><linearGradient id="r" x1="14494%" x2="14494%" xlink:href="#n" y1="14665%" y2="14506%"/><linearGradient id="s" x1="66.1%" x2="37.5%" y1="86.6%" y2="29.4%"><stop offset="0" stop-color="#fff" stop-opacity="0"/><stop offset=".09" stop-color="#fff" stop-opacity=".1"/><stop offset=".26" stop-color="#fff" stop-opacity=".2"/><stop offset=".5" stop-color="#fff" stop-opacity=".4"/><stop offset=".78" stop-color="#fff" stop-opacity=".7"/><stop offset="1" stop-color="#fff"/></linearGradient><linearGradient id="t" x1="0%" x2="100%" y1="32%" y2="32%"><stop offset="0" stop-color="#f1f3f4" stop-opacity="0"/><stop offset=".22" stop-color="#f1f3f4" stop-opacity=".3"/><stop offset=".5" stop-color="#f1f3f4" stop-opacity=".6"/><stop offset=".73" stop-color="#f1f3f4" stop-opacity=".8"/><stop offset=".91" stop-color="#f1f3f4" stop-opacity=".9"/><stop offset="1" stop-color="#f1f3f4"/></linearGradient><radialGradient id="u" cx="54.548234%" cy="0%" gradientTransform="matrix(.091355 0 0 1 .495649 0)" r="331.411003%"><stop offset="0" stop-color="#bdc1c6"/><stop offset="1" stop-color="#9da5ab"/></radialGradient><linearGradient id="v" x1="75681%" x2="73409%" xlink:href="#l" y1="2946.9%" y2="2136.7%"/><linearGradient id="w" x1="74708%" x2="72747%" xlink:href="#l" y1="6186.4%" y2="5117.1%"/><linearGradient id="x" x1="50.002658%" x2="50.002658%" xlink:href="#a" y1="-11.982728%" y2="118.891743%"/><linearGradient id="y" x1="25.038338%" x2="78.038338%" y1="55%" y2="55%"><stop offset=".07" stop-color="#eef7ff"/><stop offset=".95" stop-color="#9ecdfd"/></linearGradient><linearGradient id="z" x1="9.776791%" x2="82.076727%" xlink:href="#a" y1="20.32806%" y2="76.773415%"/><linearGradient id="A" x1=".106991%" x2="100.166629%" xlink:href="#a" y1="50.116157%" y2="49.867594%"/><g fill="none"><g transform="translate(451 203)"><g fill="#003ca6"><path d="m28.1733486 37.5528694s4.2598153-3.9284064 4.6020016-2.1096997-4.6020016 2.1096997-4.6020016 2.1096997z"/><path d="m23.7491762 34.5028309c.8083141-2.408776 4.4187837 3.0500385 4.4187837 3.0500385s-5.3483449-.290993-4.4187837-3.0500385z"/><path d="m27.0470977 42.1413991c.0161663-.1562741 1.6166282-15.8833719 7.3314088-27.8895304l.460739.3287143c-5.6581986 11.8876059-7.247883 27.482679-7.2748268 27.6389531z"/></g><path d="m34.6075288 14.4162259c.8271747.4688221 3.6832178-1.6570439 3.004234-2.6943803-.6789838-1.0373365-1.551963.347575-1.9965358-1.0023095-.4445727-1.34988454-1.508853-1.34719016-1.7055427-.269438-.1966898 1.0777521-1.1127791-.91608934-1.5519631.3448806-.439184 1.26097 1.4118553 3.1497306 2.2498076 3.6212472z" fill="url(#b)"/><path d="m17.6113779 41.5701904s1.6166282-9.8587375 3.5296382-8.1936104c1.91301 1.665127-3.5296382 8.1936104-3.5296382 8.1936104z" fill="#003ca6"/><path d="m9.97819853 43.5963644c-1.07775212-3.7882987 7.63317937-2.026174 7.63317937-2.026174s-6.3964588 6.3641263-7.63317937 2.026174z" fill="#003ca6"/><path d="m20.162956 48.2522536c-.1158583-.2020786-11.42147803-20.3075443-14.89722861-41.27521174l.80831409-.19938414c3.44072363 20.76020018 14.65204002 40.70130868 14.76520402 40.90069288z" fill="#003ca6"/><path d="m5.66988444 6.87734979c1.34719014-.49846035 2.85065435-6.52040031 1.21247113-6.8491147-1.63818322-.3287144-1.49538106 2.34141647-3.13356428 1.34719014-1.63818322-.99422632-2.86412625.34488068-2.17975366 1.84295612.6843726 1.49807545-2.04503464.3421863-1.49538106 2.34411086s4.23287144 1.8187067 5.59622787 1.31485758z" fill="url(#c)"/></g><path d="m725.031948 36h-24.928407c-5.927636 0-10.777521 5.3510393-10.777521 11.8929946v14.2802156c0 6.5392609 4.849885 11.8929946 10.777521 11.8929946h23.748268l8.083141 9.2632794c1.34719 1.6732102 3.852964.6197075 3.852964-1.6166282v-33.8198614c.008083-6.5419553-4.841802-11.8929946-10.755966-11.8929946z" fill="#b9ddff" opacity=".75"/><path d="m680.140878 58.5357968h20.49615c4.866051 0 8.848345 4.399923 8.848345 9.777906v11.7340262c0 5.3887606-3.982294 9.7779061-8.848345 9.7779061h-19.536951l-6.644342 7.6062356c-1.10739 1.3768283-3.165897.5119322-3.165897-1.3310239v-27.787144c0-5.3698999 3.982294-9.777906 8.85104-9.777906z" fill="#72c2f7" opacity=".75"/><g transform="translate(671 154)"><path d="m36.1912529 93.9083682-5.3954965 2.3724019v.6789838h9.9099307v-1.1134527l-2.823037-1.7176674z" fill="#34355d"/><path d="m25.3618649 94.3590033-6.3775982 2.022806v.6789839h9.9099308v-1.0790994l-2.7806005-1.5479214z" fill="#34355d"/><path d="m41.4008372 49.8047308s2.0894919 1.64694 1.5701501 6.0623557c-.9457275 8.0306004-4.7023672 21.6547344-4.158776 25.9226328.8426675 6.61403 1.8934758 14.0646651 1.8934758 14.0646651l-4.5144342-1.9722864s-2.7139146-12.2803118-2.7139146-13.3189954 2.5421478-23.7987875.0747691-23.5744803c-1.1457852.1050808-4.0981524 19.3773094-4.0981524 19.3773094s-.8891455 18.9650693-.5597575 19.6238453l-3.510104-1.6045035c-1.2609699-2.3602771-1.6388568-15.9965358-1.6388568-15.9965358s.4041571-18.3790415 1.9157044-24.2756928c.4465935-1.7398961 2.9564088-6.5433026 2.9564088-6.5433026z" fill="#007ee3"/><path d="m41.6251443 50.2513243c-2.766359-.9731872-5.6469703-1.5844936-8.5701501-1.8187067-3.9465935-.272806-3.528291-.7173787-4.4457275-.6466512-.1616628.0121247-4.3487297-22.8086028-2.9766166-24.067552.8386259-.3596998 4.0415705-1.1720554 4.1527136-1.1882217.9012702-.1192263 5.5167437-.2020785 6.7211317.4688222 1.1094111.6163395 3.2756928 1.5762124 3.6859122 1.8409353.0747691.0484988-.2566397.1454965-.2485566.2344111.0080832-.0020208 1.8773095 25.2577944 1.6812933 25.176963z" fill="#7ab0f6"/><path d="m41.7948903 49.4793844c-.0515029-.0111276-.101169-.0294972-.1475173-.0545612-2.277425-.630485-8.0225173-6.6382795-8.0225173-6.6382795l.6688799-1.6348152 6.9656466 1.1033487z" fill="#34355d"/><path d="m12.3540704 29.2311165c1.7479793 1.1983256 2.5401271 2.4734411 4.7933026 4.3305427 2.0894919 1.721709 2.2228637 3.2150693 5.1226905-3.556582.297432-.7067287.5241914-1.4411585.6769631-2.1925519.2849307-1.3519054 1.0103926-3.6838915 2.6937067-4.0941109 2.3946304-.5819861 3.3241916 2.352194 3.1443418 3.6212471-.1798499 1.2690531-2.2046767 4.8054273-2.2046767 4.8054273-1.1174942 2.4027136-2.5381063 5.2661662-3.7061201 7.0202078-1.8954965 2.8452656-5.4924942.6062356-6.7170901-.2889723-.3091801-.2243071-.6264434-.4304272-.9517898-.6284642-1.1417437-.6991917-3.8718245-2.5866051-5.65819863-5.6096997-2.30773672-3.9102194 1.06091223-4.6033488 2.80687063-3.4070439z" fill="#7ab0f6"/><path d="m32.5497979 36.4069248c2.568418-.2020785 2.9948037 2.8290993 6.238164 4.4073326 3.2433603 1.5782332 4.6174942 2.7704965 4.8034065.818418.1859122-1.9520785-1.7459585-6.2341224-3.1180716-7.6789839-1.1235566-1.1841801-3.942552-4.0840069-3.6374134-6.2482679.0161663-1.4145496.7719399-3.4515011 2.8048499-3.1908198 1.8894341.2404734 5.6784064 8.1963048 6.1775404 9.3340069 2.2754041 5.1974596 3.0311778 12.2601039.5900693 13.2058314-2.4411086.9457275-10.7930139-1.448903-13.8504619-5.4177252-3.0574481-3.9688221-1.6206698-5.0984411-.0080832-5.2297921z" fill="#7ab0f6"/><path d="m32.2971998 36.4069248c1.6570438-.1353926 2.4249422 1.0831409 3.6374134 2.3865473-.2150866 1.6351052-1.6042986 2.8603729-3.2534642 2.8695151-.1287075-.0053593-.2569468-.0188582-.3839492-.0404158-3.0534065-3.9587182-1.6166282-5.0842956 0-5.2156466z" fill="#b3242d"/><path d="m12.3540704 29.2048463c.6955082.4973059 1.3345112 1.0692237 1.9056005 1.7055427-.7883043 1.507776-2.1985252 2.5936978-3.857679 2.9705543-.3075636-.4094216-.59290562-.8350737-.85479213-1.2751155-2.30773672-3.8960739 1.06091223-4.5972864 2.80687063-3.4009815z" fill="#b3242d"/><path d="m31.8081697 24.569165c1.0467668 0 2.061201-1.2690531 2.2026559-2.9180139l.0868938-4.676097-4.7629908-1.0306004.4041571 5.6581986c.1071016 1.6913972 1.0043302 2.9665127 2.069284 2.9665127z" fill="#b3242d"/><path d="m34.7059758 15.9080795-5.2984989 4.0213626.3698037 1.477194s1.1841801.5819862 3.3646074-1.7297921c1.7237298-1.8187067 1.5640878-2.7361432 1.5640878-2.7361432z" fill="#34355d"/><path d="m26.9825346 8.22101256s-.9598729 2.62702074-.6446304 3.82736724l.3152425 1.2124711s.808314-3.60710162.808314-3.65964204-.4789261-1.3801963-.4789261-1.3801963z" fill="#34355d"/><circle cx="32.076266" cy="11.694782" fill="#b3242d" r="5.6097" transform="matrix(.38268343 -.92387953 .92387953 .38268343 8.996641 36.853988)"/><path d="m26.4672344 11.801844c0 2.2592378 1.1983256 7.8810623 3.2150693 8.0730369 3.0837182.2909931 8.1700346-4.7528868 7.0727483-7.3132217-.8871247-2.0773672-4.1648384-.8648961-6.1916859-.8648961-2.0268476 0-4.0961317-2.15415701-4.0961317.1050809z" fill="#b3242d"/><g fill="#34355d"><path d="m26.8976617 8.6393151c0 1.24480369.9255196 1.7560624 3.0998845 1.7560624.1394342 0 .2829099 0 .4284065-.0141455 2.1440531-.1252887 4.9590069-1.14174369 4.9590069-2.30773677 0-1.24480369-1.7641455-2.2551963-3.9385104-2.2551963s-4.5487875 1.57419169-4.5487875 2.82101617z"/><path d="m33.141888 6.18810262c2.4298189.47164929 4.2643237 2.47852367 4.516455 4.94081988-.254619 1.5600462-1.4933603 3.3767321-3.0311779 3.3848152-.5193418 0 .5031755-3.0089492-2.2814665-4.5002887-1.4246536-.75173206-.7800231-3.51212467.7961894-3.82534638z"/><path d="m34.2250289 12.3413936c.6830254-1.0689954 2.6270208-1.9520785 3.3080254-1.9520785 0 0 .3334295 2.0450346.1414549 3.1867783-.0715527.4744641-.2189302.9343366-.4364896 1.3620092s-.7375866 1.5580254-1.2124711 1.8490185-.97806-.8083141-.97806-.8083141l-.0767899-.6446305c-.4289048-.4844295-.6584973-1.1132818-.6426097-1.7601039.0040416-.301097-.10306-1.232679-.10306-1.232679z"/></g><ellipse cx="36.100318" cy="12.735447" fill="#b3242d" rx="1" ry="1.57015"/><path d="m35.5607679 15.132098.1495381-.1798499.5557159-.676963-.8891455-1.0993072s0 1.2124711-.5375288 1.4145497c-.3789761.1683873-.7256828.4015766-1.0245381.6890877l.9901847 1.0326213.7759816.7881062z" fill="#b3242d"/><path d="m29.3145208 10.9713012s-2.6714781 1.1154735-1.9823903 10.2534642c0 0-3.1887991-7.9457274-1.3418014-10.9001154 0 0-1.1073903-4.52655892 4.243649-4.8034065 5.3510392-.27684757 6.557448.92349885 6.557448.92349885s4.0112587 7.21420325-.7658776 10.34844115c0 0-.988164 3.1362586-1.7277714 4.4295612.0040416.0101039-.0868937-8.590358-4.9832563-10.2514435z" fill="#34355d"/><path d="m33.7481236 6.90750216s-5.4561201-3.4171478-1.8469977-6.00375288c3.6091224-2.58660509 7.0727482 1.09728637 7.8507505 2.12384526 1.2003465 1.57015012 2.4006929 4.98729792-2.8634526 6.4665127z" fill="#34355d"/><path d="m14.9608834 19.2767285v2.4067552c3.6761302-.002472 7.1678617 1.6096648 9.5502309 4.4093533 4.0020976 3.4123543 5.4527179 8.9577622 3.6341919 13.8927303-1.818526 4.934968-6.5206096 8.2131167-11.7799771 8.2126393-.4726052-.0003034-.9448357-.0266134-1.4145497-.0788107v1.0790993c8.2626678 0 14.9608834-6.6982156 14.9608834-14.9608833 0-8.2626678-6.6982156-14.9608834-14.9608834-14.9608834z" fill="#2a9bff"/><path d="m15.2640012 22.5140264v.6244226c.3637413-.0323325.7295034-.0484988 1.1013279-.0484988 1.4912487-.0014026 2.9707717.2634334 4.3689376.7820439.0554271-.0756677.1585387-.0981963.2404735-.0525404.0637927.0361399.0996465.1070507.0909353.1798498 1.2501979.508654 2.4101977 1.2155715 3.4353349 2.0935335-2.3823692-2.7996885-5.8741008-4.4118253-9.550231-4.4093562v.5274278c.0821279-.0027391.1618486.0279831.2208986.0851283.0590501.0571452.0923688.135816.0923232.2179895z" fill="#b9ddff"/><path d="m14.9608834 46.79174v1.3276559c.4697139.0521973.9419444.0785073 1.4145496.0788107 5.2593675.0004774 9.9614511-3.2776713 11.7799771-8.2126393 1.8185261-4.9349681.3679058-10.480376-3.6341919-13.8927303 3.17739 3.725625 3.8984764 8.9587485 1.8470925 13.4048606-2.0513839 4.446112-6.500785 7.2936333-11.3973234 7.2940424z" fill="#2a9bff"/><path d="m21.0434469 24.0720518-.4910508.8487298c-.0328491.0570346-.0936304.092212-.1594484.0922812-.0658179.0000692-.1266731-.0349803-.159642-.0919457s-.0330427-.1271923-.0001937-.1842269l.4910508-.8487298c-.000988-.0053435-.000988-.0108228 0-.0161663-1.3981659-.5186105-2.8776889-.7834465-4.3689376-.7820439-.3718245 0-.7375866.0161663-1.101328.0484988v.9861432c0 .1674074-.1357104.3031178-.3031178.3031178v7.9800808l1.7722287-4.8660508-1.0649538 6.0441686c.0413089.0453231.0778733.0947528.1091224.1475173.1126761.1950549.1431892.4269016.0848178.6444679-.0583714.2175662-.2008388.4030035-.3960187.5154629-.0428398.0241649-.0874204.0451043-.1333719.0626443l-.3718245.1717668v8.9197459c.1669488.001102.3020158.1361691.3031178.3031178v1.6166282c-.001102.1669487-.136169.3020157-.3031178.3031178v.5254041c4.8965384-.0004092 9.3459395-2.8479304 11.3973235-7.2940425 2.0513839-4.446112 1.3302975-9.6792355-1.8470925-13.4048605-1.0251372-.877962-2.185137-1.5848795-3.4353349-2.0935335-.0026882.0241695-.0102502.0475429-.0222286.0687067zm5.9451501 10.1665705c-.001102.1669487-.1361691.3020157-.3031178.3031177h-1.6166282c-.1674073 0-.3031177-.1357104-.3031177-.3031177 0-.1674074.1357104-.3031178.3031177-.3031178h1.6166282c.1674073 0 .3031178.1357104.3031178.3031178zm-2.7118938-5.5935335.8507506-.4890301c.087652-.0504623.1996026-.020669.2505774.066686.0506477.0882602.020927.2008387-.0666859.2525981l-.8507506.4910508c-.0881803.0501235-.2002942.0193826-.2505774-.0687067-.0494991-.088409-.0200015-.2001424.0666859-.2525981zm-.0666859 10.932448c.0509748-.0873549.1629254-.1171482.2505774-.0666859l.8507506.48903c.0866874.0524557.116185.1641892.0666859.2525982-.0502832.0880893-.1623971.1188302-.2505774.0687067l-.8507506-.4910508c-.0861587-.05311-.1140027-.165384-.0626443-.2525982zm-3.2332563 5.0782333c-.087652.0504623-.1996026.020669-.2505774-.066686l-.4910508-.8507505c-.0494992-.088409-.0200015-.2001424.0666859-.2525982.0887862-.0503042.2015248-.0196393.2525982.0687067l.4910508.8487298c.0509991.0877363.0222187.2001599-.0646652.2525982z" fill="#fff"/><path d="m6.81509815 43.7888532c-4.00209761-3.4123542-5.45271793-8.9577622-3.63419189-13.8927302 1.81852603-4.9349681 6.52060962-8.2131168 11.77997714-8.2126393v-2.4067552c-8.26266776 0-14.9608834 6.6982156-14.9608834 14.9608834 0 8.2626677 6.69821564 14.9608833 14.9608834 14.9608833v-1.0790993c-3.1672262-.3549247-6.0801478-1.9035209-8.14578525-4.3305427z" fill="#4baafc"/><path d="m2.4057448 34.2386223c-.00247194 3.6761301 1.60966479 7.1678617 4.40935335 9.5502309-.87898152-1.0277631-1.58533497-2.1913695-2.0915127-3.4454388-.07320303.0079338-.14429589-.0276126-.18187067-.0909353-.04565588-.0819348-.02312729-.1850464.05254042-.2404735-.51861049-1.3981659-.78344648-2.8776889-.78204388-4.3689376 0-.3698037.01616628-.7375866.04849884-1.0993072h-.60623556c-.15503726.0020279-.28822683-.1096794-.31322171-.2627021-.01167477-.0867772.01474515-.1743638.07245804-.2402107s.14108008-.1035208.22863895-.1033227h.69110855c.76856876-5.5758692 5.15247954-9.95978 10.72834877-10.7283488v-.6911085c0-.1674073.1357104-.3031178.3031177-.3031178v-.5274256c-3.3298298-.0010714-6.52370432 1.3206703-8.87900752 3.6744576-2.35530319 2.3537873-3.67910086 5.5468102-3.68017258 8.8766401zm3.30600462-5.3409354c-.05107333.088346-.16381195.1190109-.25259815.0687067l-.84872979-.4910508c-.05703462-.032849-.09221202-.0936304-.09228121-.1594483-.0000692-.065818.03498032-.1266732.09194573-.1596421.05696542-.0329689.12719233-.0330427.18422693-.0001937l.85075058.4890301c.08668745.0524557.11618507.1641891.06668591.2525981zm3.23325635-5.0782332c.0887862-.0503043.20152482-.0196394.25259816.0687067l.4910508.8487298c.05030423.0887862.01963932.2015248-.06870669.2525981-.08818025.0501235-.20029419.0193826-.25057737-.0687067l-.49105081-.8487298c-.05064772-.0882602-.02092701-.2008387.06668591-.2525981z" fill="#b9ddff"/><path d="m6.81509815 43.7888532c2.06563745 2.4270218 4.97855905 3.975618 8.14578525 4.3305427v-1.3276559c-2.9867496.0039776-5.87628096-1.0612279-8.14578525-3.0028868z" fill="#4baafc"/><path d="m14.9608834 46.2663359c-.1674074 0-.3031178-.1357105-.3031178-.3031178v-1.6166282c0-.1674073.1357104-.3031178.3031178-.3031178v-8.9157043l-8.30340649 3.8698036 7.83862589-5.4904734c.0272334-.0237886.0562867-.0454097.0868937-.0646651l.3778869-1.0346421v-7.9800808c-.1674074 0-.3031178-.1357104-.3031178-.3031178v-.9194572c-5.57522794.7683506-9.95894785 5.1512448-10.72834874 10.7263279h.90531178c.1556625-.0037978.28986082.1087556.31322171.2627021.01095187.0862973-.01544911.1731665-.07256798.238776-.05711888.0656095-.13952489.1037214-.22650824.1047575h-.99018475c-.03233257.3617205-.04849885.7295034-.04849885 1.0993071-.0014026 1.4912488.26343339 2.9707718.78204388 4.3689377l.01616628-.0121247.84064665-.4849885c.08399847-.0457681.18858025-.0263698.25057737.0464781.03051655.0424219.04176993.0957285.03100427.1468654s-.04255617.0953816-.08758625.121899l-.85075058.4910508c-.02177621.0122411-.04586374.0198115-.07072748.0222286.50617772 1.2540693 1.21253118 2.4176757 2.0915127 3.4454388 2.26950429 1.9416589 5.15903563 3.0068645 8.14578523 3.0028869zm-5.27222867-2.5280023-.4910508.8507505c-.05175945.087613-.16433791.1173337-.25259816.066686-.08761292-.0517595-.11733363-.1643379-.06668591-.2525982l.49105081-.8487298c.05028318-.0880893.16239712-.1188302.25057737-.0687067.08834601.0510734.11901092.163812.06870669.2525982z" fill="#fff"/><path d="m15.2640012 23.138449v-.6244226c0-.1674073-.1357105-.3031178-.3031178-.3031178v.9578522z" fill="#2a9bff"/><path d="m14.9608834 24.42771c.1674073 0 .3031178-.1357104.3031178-.3031178v-.9861432l-.3031178.0303118z" fill="#2a9bff"/><path d="m14.9608834 22.2109086c-.1674074 0-.3031178.1357105-.3031178.3031178v.6911086l.3031178-.0363742z" fill="#4baafc"/><path d="m14.9608834 24.42771v-1.2589492l-.3031178.0363742v.9194572c0 .1674074.1357104.3031178.3031178.3031178z" fill="#4baafc"/><path d="m9.36937067 24.9207816c.05028318.0880893.16239712.1188302.25057737.0687067.08834601-.0510733.11901092-.1638119.06870669-.2525981l-.4910508-.8487298c-.03284905-.0570346-.09363042-.092212-.15944836-.0922812-.06581793-.0000692-.12667313.0349803-.15964203.0919457-.03296889.0569654-.03304272.1271923-.00019368.1842269z" fill="#4baafc"/><path d="m20.5523961 43.5544421c-.0510734-.088346-.163812-.1190109-.2525982-.0687067-.0866874.0524558-.1161851.1641892-.0666859.2525982l.4910508.8507505c.0513383.0881679.1644303.1180241.2525981.0666859.0881679-.0513382.1180242-.1644302.066686-.2525981z" fill="#2a9bff"/><path d="m4.54171478 40.2524791c.03757478.0633227.10866764.0988691.18187067.0909353-.04445727-.1091224-.08891455-.2202656-.12933025-.3314088-.07566771.0554271-.0981963.1585387-.05254042.2404735z" fill="#4baafc"/><path d="m5.64506351 39.8240726c.08816784-.0513383.11802412-.1644303.06668588-.2525981-.05133824-.0881679-.16443026-.1180242-.25259812-.066686l-.84872979.4890301-.01616628.0121247c.0404157.1111432.08487298.2222863.12933025.3314087.02486374-.0024171.04895127-.0099875.07072748-.0222286z" fill="#4baafc"/><path d="m24.2140589 28.8976869c.0502832.0880893.1623971.1188302.2505774.0687067l.8507505-.4910508c.087613-.0517594.1173337-.1643379.0666859-.2525981-.0509748-.087355-.1629253-.1171483-.2505773-.066686l-.8507506.4890301c-.0866874.0524557-.1161851.1641891-.0666859.2525981z" fill="#2a9bff"/><path d="m14.6577656 44.3506315v1.6166282c0 .1674073.1357104.3031178.3031178.3031178v-2.2228638c-.1674074 0-.3031178.1357105-.3031178.3031178z" fill="#4baafc"/><path d="m15.2640012 45.9632181v-1.6166282c-.0011021-.1669487-.1361691-.3020158-.3031178-.3031178v2.2228638c.1669487-.001102.3020157-.1361691.3031178-.3031178z" fill="#2a9bff"/><path d="m24.7697748 34.2386223c.001102.1669487.1361691.3020157.3031178.3031177h1.6166282c.1674073 0 .3031178-.1357104.3031178-.3031177 0-.1674074-.1357105-.3031178-.3031178-.3031178h-1.6166282c-.1674073 0-.3031178.1357104-.3031178.3031178z" fill="#2a9bff"/><path d="m3.23830831 33.9355045c-.08755887-.0001981-.17092606.0374758-.22863895.1033227-.05771289.065847-.08413281.1534335-.07245804.2402108.02499488.1530226.15818444.2647299.31322171.262702h.60623556c.01818707-.2020785.04041571-.404157.06668591-.6062363l-.68908776.0000008z" fill="#4baafc"/><path d="m5.14997113 34.1982066c-.02336088-.1539465-.15755921-.2664999-.31322171-.2627021h-.90935335c-.02559661.1980369-.04782525.4001154-.06668591.6062358l.98614319-.0000003c.08768986.0001163.17119135-.0374988.22920891-.103252s.08494278-.1532885.07390887-.2402814z" fill="#4baafc"/><path d="m5.64506351 28.6450888-.85075058-.4890301c-.0570346-.032849-.12726152-.0327752-.18422694.0001937-.05696543.0329689-.09201495.0938241-.09194574.159642.0000692.065818.03524661.1265994.09228123.1594484l.84872979.4910508c.0887862.0503042.20152482.0196393.25259815-.0687067.04949916-.088409.02000154-.2001424-.06668591-.2525981z" fill="#4baafc"/><path d="m24.2767032 39.8240726.8507506.4910508c.0881803.0501235.2002942.0193826.2505774-.0687067.0494991-.088409.0200015-.2001424-.0666859-.2525981l-.8507506-.4890301c-.087652-.0504623-.1996026-.020669-.2505774.0666859-.0506477.0882603-.020927.2008388.0666859.2525982z" fill="#2a9bff"/><path d="m9.61994804 43.4857354c-.08818025-.0501235-.20029419-.0193826-.25057737.0687067l-.49105081.8487298c-.05064772.0882603-.02092701.2008387.06668591.2525982.08826025.0506477.20083871.020927.25259816-.066686l.4910508-.8507505c.05030423-.0887862.01963932-.2015248-.06870669-.2525982z" fill="#4baafc"/><path d="m20.9808025 23.8194537c-.0819347-.0456559-.1850463-.0231273-.2404734.0525404.1111432.0404157.2222864.0828522.3314088.1273094.0087111-.0727991-.0271426-.1437099-.0909354-.1798498z" fill="#2a9bff"/><path d="m20.233112 24.7368902c-.032849.0570346-.0327752.1272615.0001937.1842269s.0938241.0920149.159642.0919457c.065818-.0000692.1265993-.0352466.1594484-.0922812l.4910508-.8487298c.0125117-.0223872.0200907-.0471913.0222286-.0727483-.1091224-.0444572-.2202656-.0868937-.3314088-.1273094-.000988.0053435-.000988.0108228 0 .0161663z" fill="#2a9bff"/><path d="m14.7689088 34.871128c-.1576224-.0406928-.292256-.143068-.3735951-.284081-.081339-.141013-.102548-.3088137-.058853-.4656303.009674-.0345123.0218304-.0682801.0363742-.1010392l.2020785-.5779446c-.030607.0192554-.0596603.0408765-.0868938.0646651l-7.83862584 5.4904734 8.30340644-3.8698036v-.2384527c-.0618591.0030614-.1238304-.0030676-.1838914-.0181871z" fill="#fe920d"/><path d="m15.5246824 34.4366592c-.0668855.2566397-.2928259.4400116-.5577367.4526559v.2384527l.3718245-.1717668c.0459514-.01754.0905321-.0384794.1333718-.0626443.19518-.1124594.3376473-.2978967.3960188-.5154629.0583714-.2175663.0278583-.449413-.0848178-.6444679-.0312491-.0527645-.0678135-.1021942-.1091224-.1475173l-.1313511.7476906c-.0021285.0349326-.0082302.0695089-.0181871.10306z" fill="#2a9bff"/><path d="m14.6153291 33.422225c.1057757-.0613041.2237546-.0985607.3455543-.1091224v-.9053118l-.3778869 1.0346421z" fill="#4baafc"/><path d="m15.6681582 33.5859086 1.0649538-6.0441686-1.7722286 4.8660508v.9053118c.265572-.0255757.5276648.0755172.7072748.272806z" fill="#fe920d"/><path d="m14.3364607 34.1214167c-.043695.1568166-.022486.3246173.058853.4656303.0813391.141013.2159727.2433882.3735951.284081.0659237.0170029.1341782.0231458.2020785.0181871v-.2525982c-.1933597-.0338731-.334418-.2017903-.334418-.3980946s.1410583-.3642216.334418-.3980947v-.527425c-.1217996.0105617-.2397786.0478183-.3455543.1091224l-.0323325.0202079-.2020786.5779446c-.020764.0322231-.0390055.0660035-.0545612.1010392z" fill="#4baafc"/><path d="m14.9608834 33.3131026v.527425c.1588019-.0278193.3189474.0414014.4074895.1761318.0885421.1347303.0885421.3091954 0 .4439258-.0885421.1347303-.2486876.203951-.4074895.1761317v.2525982c.2649108-.0126443.4908511-.1960162.5577367-.4526559.0099569-.0335511.0160586-.0681274.0181871-.10306l.131351-.7476906c-.17961-.1972888-.4417028-.2983817-.7072748-.272806z" fill="#2a9bff"/><path d="m15.3589781 34.2386223c0-.2232098-.1809473-.4041571-.4041571-.4041571v.7961894c.2185593.0000984.3976003-.1735714.4041571-.3920323z" fill="#e9eaee"/><path d="m14.5627887 34.2386223c0 .2232097.1809473.404157.404157.404157v-.7961894c-.2185592-.0000984-.3976003.1735715-.404157.3920324z" fill="#e9eaee"/></g><g transform="translate(186 211)"><path d="m16.7329484 40.2939372s4.7555812-14.5981524 15.3229408-19.1301c10.5673595-4.5319477 14.2802155-17.61855278 25.364896-8.5573519 11.0846805 9.061201 15.3229407 20.1377983 26.943803 15.1020016 11.6208622-5.0357968 12.6797536 12.5854503 12.6797536 12.5854503z" fill="#0087ff"/><g fill="#003ca6"><path d="m21.9950731 36.7373552s12.7040031-15.3983833 14.7625097-6.1593533c2.0585065 9.23903-14.7625097 6.1593533-14.7625097 6.1593533z"/><path d="m17.1856043 38.0549072c-.6843726-1.7594303-11.67205541-21.9942263-16.47882985-11.4376443s16.47882985 11.4376443 16.47882985 11.4376443z"/><path d="m81.7375674 32.3374322s16.8237105-23.31716703 19.2270976-10.9984603c2.403387 12.3187067-19.2270976 10.9984603-19.2270976 10.9984603z"/><path d="m76.9227098 31.8982482s-14.4203233 1.7594304-10.9876829-9.23903c3.4326405-10.9984603 10.9876829 9.23903 10.9876829 9.23903z"/><path d="m81.7375674 32.3374322s-1.5061586-35.46343339 3.4326405-32.11431868c13.9407236 9.44919168-3.4326405 32.11431868-3.4326405 32.11431868z"/></g></g><g opacity=".2"><path d="m419 171h-55v-65h55z" fill="#80868b" opacity=".5"/><g fill="#e8eaed" opacity=".6" transform="translate(130 76)"><path d="m601.7 6.7c-9.6 0-17.3 5.6-17.3 12.6v1.5h-44.3c0-8-13.1-14.5-29.1-14.5h-20v7.7l-49.7 7.5v-9.1c0-3.6-4-6.5-8.9-6.5h-8l-22.4 11.1h-164.2v-10.8c0-3.1-5.6-5.7-12.3-5.7h-28.3c-6.8 0-12.3 2.6-12.3 5.7v9.8h-60.8c-1.5 0-2.8 1-2.8 2.1v5.4h-28.3v-5.9h-40c-2.8 0-5.1 1.7-5.1 3.7v21l-10.8.7c-20.6.8-36.4 8.7-36.4 18.3v29.5h636.7v-84.2l-35.6.1z"/><path d="m664 60.6-42.8-4.2v48h52.5v-38.1c0-2.8-4-5.2-9.7-5.7z"/></g><path d="m720 142h-133v-35c0-2.8 3-5 6.5-5h78.5l15.7 5.3h32.3zm-405.3-38.8v-2.2c0-1.6-1.7-2.9-3.8-2.9h-43v4.8h-38.9v55.5l129 .7v-55.8h-43.3zm-119.1 1.8h-21.1c-8.7 1.3-15 7-15 13.8v11.8l-6.5 2.8v20.6h61v-49z" fill="#e8eaed"/><path d="m254 100.6h-6.2c0-5.9-8.2-10.6-18.3-10.6s-18.3 4.7-18.3 10.6h-6.2v9h4.2v28.4h40.6v-28.3h4.2z" fill="#bdc1c6"/><path d="m293.4 145.5v-9.5l-106-26-53.4 26h17.4v11.3h-6.9v4.4h-10.5v5.9h101.2l8.5 8.4h41.2l4.8-8.4h23.3v-5zm-125.2 1.8h-8.4v-9.6c.048752-.551294.323768-1.05774.759609-1.398833s.993538-.486335 1.540391-.401167h3.8c.546853-.085168 1.10455.060074 1.540391.401167s.710857.847539.759609 1.398833zm17.6 0h-8.4v-9.6c.050468-.531508.311354-1.020775.724569-1.35886s.944454-.496921 1.475431-.44114h3.9c.546853-.085168 1.10455.060074 1.540391.401167s.710857.847539.759609 1.398833z" fill="url(#d)"/><path d="m617.8 127v-9.6h-8v-18.4l-47.3-9.8v-16.7l-16.5-3.1-16.5 3.1v18.5l-18.9-.3v-47.5l-37-5.4v-33.2l-24.2-4.6-24 4.4v33.7l-23.4 3.3v26h-9.5v-26.2c0-1.8-2.2-3.1-4.2-2.4l-23.3 8.2v20.6c-3.2.7-5.6 3-5.6 5.8v6.8l-36.6 8.3v34l-16.8 5v29.5h329v-26.7l-17.2-3.4z" fill="url(#f)"/><path d="m776 117.3c0-3-5.7-5.5-12.6-5.5h-1.8v-13.2c0-3.1-5.7-5.6-12.6-5.6h-5.2v-24.5l-25-4.5-23.8 3v24.8l-14.7 4.3-2.8 11-26.6 1.2v-9.7l-11.4-2-11.5 2v63.4h148z" fill="url(#g)"/><path d="m841.7 192.6c-.1-10.7-6.2-21-16.7-28.2-7.796945-4.501296-16.702655-6.71906-25.7-6.4h-133.3l-1.9-6.8h-15l-1-.4c-2.810171-1.140585-5.940912-1.211739-8.8-.2l-8.2 3h-5.6c-2.103252-.121423-3.940158 1.409332-4.2 3.5v.8h-12.3v-4c-.1-1.2-1-2.2-2.3-2.4l-11.8-2.5-11.6 1.3.6 7.6h-476.6c-8.9671011-.332836-17.8444805 1.886509-25.6 6.4l-.5.3c-9.8705372 6.091098-16.1430486 16.619957-16.8 28.2l-.4 21.2h778z" fill="#bdc1c6"/><path d="m746 186-39.8-21.1c1.1-2.2.8-5-.8-6.9 0 0 3.8-6.8-3.8-11-7.6-4.4-15 .3-15 .3s-8.5-7.4-18-2.8-5 14.3-5 14.3c-12.8 8.3-10.4 27.2-10.4 27.2z" fill="url(#i)"/><path d="m851 194.7-65.8-28v-10.9h3.4v-9.5h-5.5v-4.3l-8.7-.2-7.4-13.8h-12.4l-7.4 13.8-8.7.2v4.3h-5.5v9.5h3.4v15.8l31.3 24.4z" fill="url(#j)"/><path d="m747 156h26v5h-26zm0 8h26v5h-26z" fill="#bdc1c6"/><path d="m186.8 160v-1.7c0-1.5 2.5-2.7 5.5-2.7h8v-6.8l24-10.8 22.5 10.8v4.3h15.7c2 0 3.5.8 3.5 1.7v37.2h-155z" fill="url(#k)"/><path d="m119 135.3c-1.5-3-6.1-5.3-11.5-5.3-2.8 0-5.5.6-8 2l-1.6-.2c-3.6 0-6.6 1.9-6.6 4.2 0 .5.2 1 .4 1.4-4 1.2-6.7 3.7-6.7 6.6 0 4 5.2 7.3 11.6 7.3 1.875954-.027554 3.734408-.365455 5.5-1v8.7h7.3v-5.1l2.6.1c9.4 0 17-4.4 17-9.8 0-4-4.1-7.4-10-9z" fill="url(#m)"/><path d="m403 67.3-132.3 123.7h-126.7l249.5-132v8.3zm108 22.8 141.1 123.9h116.9l-239-132v8.4z" fill="#fff" opacity=".3"/><path d="m166.4 148.6 1.6-.6h-8.4l-1.6.6zm-10.1 5.1 1.7-.7h-8.3l-1.7.7z" fill="#f8f9fa"/><path d="m125.1 159 2.9-1h-18.1l-2.9 1z" fill="url(#o)"/><path d="m98.1 159h-.1z" fill="#c5221f"/><path d="m103 158c-2.4 0-4.8.2-7.2.6-4.3.7-8.2 2.5-11.4 5l-.4.4c1.9-.2 3.7-.6 5.4-1.4 3.8504452-2.521313 8.3032045-3.971049 12.9-4.2z" fill="url(#p)"/><path d="m136.5 158c-2 1.1-2 2 .1 2 2.9-.2 5.7-.9 8.4-2z" fill="url(#q)"/><path d="m149.6 148.6 1.4-.6h-6v.6zm-11.1 5.1 1.5-.7h-6v.7zm45.9-5.1 1.6-.6h-8.4l-1.6.6zm136.6 11.4 5-2h-21l-5 2zm-146.7-6.3 1.7-.7h-8.3l-1.7.7z" fill="#f8f9fa"/><path d="m155.5 158c-2 1.1-2 2 .1 2 2.9-.2 5.7-.9 8.4-2z" fill="url(#r)"/><path d="m160 148v-9.2c0-.5.2-1 .6-1.1l-160.6 77.3h29.5l138.5-67z" fill="url(#s)" opacity=".3"/><path d="m253 101.6v-.6h-30z" fill="url(#t)"/><path d="m786 255h-2l3.6 6.8c.9 1.6-4.6 2.9-12.2 2.9h-5.6l6.6 13-26.7 2.3-27.3-1.6-5.6-13.1-16.8-2.3-5.2-5.7-29-.7 1.8 5-12.1 1-12.8-1-5.6-18.5-9.8.8 1.2 4.2h-8.6l2.3 8.2-50 4.5 1.4 7.8-17.8 1.5-18.3-1.5-1.2-8.6-20.5.2 2.2 22.6-41.4 2.7.5 17-27.9 2.4-27.9-2.4.9-17.2-26-1.6 1-12.6h-10.4l-1.3 12.7c-.1 1-2.7 1.6-4.9 1.2l-25.7-4.1 1.6-10c-3.5-.3-6-1.4-5.7-2.7l.5-3.2-39.1-3.8 3.5-15.3-17.1-2.2 2-7.5-14.9 2.3-1.3 4.5-48.6 5.3-3 8.3h4.4l-1.6 4.6h-6.6c-1.1 2.9-10.9 5.3-21.8 5.3-11 0-18.9-2.4-17.6-5.4h-6.6l2-4.5h4.4l1.5-3.4-23.9 2.8-50-12.8h18.2l2.9-5.4h-7.1l1.1-2h-10.9l1.6-2.8h104.5l10.1-3.9h42.2l3.9 3.9h17.8l.4-1.7h331.5v-.3h152.5l12.2 21.4c.8 1.5-4.5 2.8-12 2.8z" fill="#e8eaed" opacity=".8"/><path d="m31 214h848.4c1.5 0 3.3.8 3.4 1.6.5 2 .3 5.5-6.1 8.5-9.8 4.6-23.8 7.7-53.4 7.7-10 0-20-.5-29.5-1.5l.6 3.2c.3 1.7-4 1.7-5.7 0l-4-4.2-3.3-.5c-17.8 9-46.4 14.6-81.3 14.6-4.8 0-9.7-.1-14.5-.3-4 4.4-15 8.4-29.5 8.4-8.551195.061037-17.068309-1.083556-25.3-3.4-3 3.5-9.7 4.9-17.6 4.9-2.5 0-5-.3-7.3-.7-12 7.3-23.4 9.2-42.8 8.2-9.005117-.295929-17.910328-1.982522-26.4-5l-2.4 6.2c-.5 1.1-3.1 1.1-3.8 0l-3.3-5.1-4.2 10.1c-.4 1.1-3 1.1-3.8 0l-5-8c-6.7 4.8-20.9 9.3-49.7 9.3-37.1 0-51.6-11.5-51.6-11.5-4.658714 3.556789-10.059207 6.017773-15.8 7.2-12.083246 2.496459-24.5593 2.394196-36.6-.3-5.182839-1.015961-10.132875-2.982414-14.6-5.8-5.3-3.7-4.5-5.3-4.5-5.3s-5.2 2-16.6 3.2c-9.9.9-19.8 1-29.7.3-20-1.3-25-4.8-26-7.1-7.131514 1.76305-14.453878 2.636359-21.8 2.6-6.764752.114973-13.507897-.795352-20-2.7-4 1.2-8.2 1.9-12.3 1.9-10.7 0-17.8-4.3-17.8-10-7.253943-1.308403-14.43124-3.010925-21.5-5.1-21 4.6-37 2.2-45.4-3.9-13.4 2.5-27 3.8-40.7 3.8-17 0-31.6-2-42.1-5.6l-9 9.3c-1.8 1.9-6.6 1.9-5.8 0l5.7-13.2h-.2l-7.4 6.7c-2 1.8-6.3 1.8-5.7 0l3.9-11.5c.3-.7 1-1.2 1.6-1.4l-3-3.5c-.7-.8 1.3-2.1 3.3-2.1z" fill="#dadce0"/><path d="m30.3 215h849.4c.680369.091021 1.359882-.173234 1.8-.7.4-.5.6-1.2.5-1.8-1-3.1-3.9-8.6-12.4-13.2-12.7-7-28.5-11.7-57.2-11.7-9.3 0-18.5.8-27.7 2.2l-1.2-4.6c-.6-2.6-4.9-2.6-5.5 0l-1.6 6.2-3 .7c-25.963478-14.552225-55.342604-21.905637-85.1-21.3-4.6 0-9.2.1-13.7.4-8.253296-7.865179-19.303497-12.112488-30.7-11.8-7.921299-.168879-15.779992 1.437028-23 4.7-3.8-5-10.3-6.8-17.7-6.8-2.3 0-4.6.3-6.8 1-12.7-10-23.7-12.7-41.4-11.3-8.339015.398074-16.477985 2.689297-23.8 6.7l-3-8.3c-.352238-.636632-1.022421-1.031754-1.75-1.031754s-1.397762.395122-1.75 1.031754l-2.5 7-5-13.7c-.352238-.636632-1.022421-1.031754-1.75-1.031754s-1.397762.395122-1.75 1.031754l-3.8 10.6c-6.7-6.3-20-12.3-46.4-12.3-34 0-47.9 15.4-47.9 15.4-1.2-2-7-7.4-14-9.8-11.123366-3.315833-23.000553-3.106236-34 .6-6.8 2.2-11.3 5-14.2 7.7-5.6 5-5.2 7.3-5.2 7.3s-4.5-2.8-14.9-4.4c-9.2-1.3-18.5-1.4-27.7-.4-19 1.8-24.7 6.5-26.3 9.9-12.7-5-26.8-5-39.5 0-3.375948-1.718222-7.111963-2.609382-10.9-2.6-10 0-18.4 6-20.7 14-7.8 2-15.5 4.6-23 7.6-15.184238-6.450364-32.660021-4.275431-45.8 5.7-11.968315-3.774062-24.450893-5.663317-37-5.6-15.3-.1-30.4 2.7-44.5 8.4l-2.5-13.6c-.5-2.8-5-2.8-5.6 0l-3.5 19.5h-.3l-2.5-10.1c-.7-2.5-5-2.5-5.6 0l-4.3 17.3c-.2335969.757052.001711 1.58063.6 2.1l-5.6 5.6c-1.3 1.4-.3 3.4 1.7 3.4z" fill="url(#u)"/><path d="m818.8 132.2-5.8 32.2c0 .6 0 1.3.5 1.8.4.5 1 .8 1.7.8h11.6c.6 0 1.3-.3 1.7-.8s.6-1.2.5-1.8l-5.8-32.2c0-1.2-1-2.2-2.2-2.2s-2.2 1-2.2 2.2z" fill="url(#v)"/><path d="m808.5 148-3.4 13.7c-.182671.789228-.0384 1.618785.4 2.3.5.6 1.3 1 2 1h7c.7 0 1.5-.4 2-1s.6-1.5.4-2.3l-3.4-13.7c-.318865-1.11625-1.3391-1.885857-2.5-1.885857s-2.181135.769607-2.5 1.885857z" fill="url(#w)"/></g><g transform="translate(742 111)"><g fill="#9b9fa3"><circle cx="74.56428" cy="70.635874" opacity="0" r="49.121247"/><circle cx="74.371653" cy="70.598938" opacity=".04" r="49.121247" transform="matrix(.70710678 -.70710678 .70710678 .70710678 -28.138035 73.26665)"/><circle cx="74.180072" cy="70.563155" opacity=".08" r="49.121247" transform="matrix(.70710678 -.70710678 .70710678 .70710678 -28.168845 73.120702)"/><circle cx="73.985796" cy="70.526256" opacity=".12" r="49.121247" transform="matrix(.70710678 -.70710678 .70710678 .70710678 -28.199656 72.97252)"/><circle cx="73.796382" cy="70.490377" opacity=".15" r="49.121247"/><circle cx="73.602387" cy="70.452656" opacity=".19" r="49.121247"/><circle cx="73.410263" cy="70.415885" opacity=".23" r="49.121247" transform="matrix(.70710678 -.70710678 .70710678 .70710678 -28.290182 72.53323)"/><circle cx="73.21709" cy="70.379908" opacity=".27" r="49.121247"/><circle cx="73.0271" cy="70.343202" opacity=".31" r="49.121247" transform="matrix(.70710678 -.70710678 .70710678 .70710678 -28.351013 72.241004)"/><circle cx="72.834488" cy="70.307159" opacity=".35" r="49.121247"/><circle cx="72.640493" cy="70.269438" opacity=".38" r="49.121247"/><circle cx="72.449661" cy="70.23362" opacity=".42" r="49.121247" transform="matrix(.70710678 -.70710678 .70710678 .70710678 -28.442655 71.800598)"/><circle cx="72.255196" cy="70.19669" opacity=".46" r="49.121247"/><circle cx="72.063804" cy="70.160938" opacity=".5" r="49.121247" transform="matrix(.70710678 -.70710678 .70710678 .70710678 -28.504276 71.506467)"/><circle cx="71.872594" cy="70.123942" opacity=".54" r="49.121247"/><circle cx="71.678599" cy="70.088915" opacity=".58" r="49.121247"/><circle cx="71.486365" cy="70.051356" opacity=".62" r="49.121247" transform="matrix(.70710678 -.70710678 .70710678 .70710678 -28.595917 71.066061)"/><circle cx="71.294784" cy="70.015572" opacity=".65" r="49.121247" transform="matrix(.70710678 -.70710678 .70710678 .70710678 -28.626727 70.920111)"/><circle cx="71.103202" cy="69.978673" opacity=".69" r="49.121247" transform="matrix(.70710678 -.70710678 .70710678 .70710678 -28.656749 70.773835)"/><circle cx="70.910701" cy="69.940724" opacity=".73" r="49.121247"/><circle cx="70.716705" cy="69.905697" opacity=".77" r="49.121247"/><circle cx="70.525764" cy="69.869091" opacity=".81" r="49.121247" transform="matrix(.70710678 -.70710678 .70710678 .70710678 -28.74839 70.333429)"/><circle cx="70.331409" cy="69.832948" opacity=".85" r="49.121247"/><circle cx="70.139906" cy="69.796409" opacity=".88" r="49.121247" transform="matrix(.70710678 -.70710678 .70710678 .70710678 -28.810011 70.039298)"/><circle cx="69.948807" cy="69.7602" opacity=".92" r="49.121247"/><circle cx="69.754811" cy="69.722479" opacity=".96" r="49.121247"/><circle cx="69.564373" cy="69.686038" r="49.121247" transform="matrix(.70710678 -.70710678 .70710678 .70710678 -28.900537 69.600008)"/></g><circle cx="69.564373" cy="69.686038" fill="#b9ddff" r="49.121247" transform="matrix(.70710678 -.70710678 .70710678 .70710678 -28.900537 69.600008)"/><circle cx="69.564373" cy="69.686038" fill="#7ab0f6" r="40.025019" transform="matrix(.70710678 -.70710678 .70710678 .70710678 -28.900537 69.600008)"/><circle cx="69.56351" cy="69.687452" fill="#007ee3" r="30.928791"/><g transform="matrix(.70710678 -.70710678 .70710678 .70710678 -28.900537 69.600008)"><circle cx="69.564373" cy="69.686038" fill="#fff" r="21.832564"/><circle cx="69.564373" cy="69.686038" fill="#007ee3" r="12.736336"/><circle cx="69.564373" cy="69.686038" fill="#7ab0f6" r="3.637413"/></g><g fill="#000" opacity=".33" stroke="#000" transform="translate(69.515012 65.473441)"><path d="m45.1578137.22902233-3.5943033 3.95804464 3.5996921 3.95265589-12.8548884.00808314-3.5996921-3.95265588 3.5943033-3.95804465z"/><path d="m.04849885 4.21401078 42.71670515-.02694381z" stroke-linecap="round" stroke-width="2"/></g><path d="m98.6439569 34.9730562.2559661 5.3375674 5.340262.2505773-9.0827562 9.0962279-5.3402617-.2505774-.2586606-5.3402617z" fill="#fe920d"/><path d="m69.5635104 70.517321c-.3360044.0004612-.6391286-.2017352-.7677743-.5121373-.1286458-.3104021-.0574225-.6677463.1803994-.9051067l30.1770593-30.2255581c.3243982-.3243982.8503512-.3243982 1.1747502 0 .324398.3243982.324398.8503516 0 1.1747498l-30.1770597 30.2255581c-.1556949.1558138-.3671058.2430936-.5873749.2424942z" fill="#fff"/><path d="m85.4118553 125.073133s.538876-7.199384 4.7986913-12.531563c4.2598152-5.332178 8.530408-4.798691 8.9291763-2.799461.3987682 1.99923-6.5311779 4.13318-8.1289454 8.797152s3.5969977-1.864511 8.395689-3.066205c4.7986915-1.201693 1.0777525 3.467668-2.1312548 4.13318-3.2090069.665511-6.3991532 3.332948-3.7317167 2.93418 2.6674365-.398769 7.598152-3.599692 7.598152-.93495s-10.5323321 3.99846-10.5323321 3.99846z" fill="#003ca6"/><path d="m46.4214781 127.983064s1.1963048-7.951116 5.704003-8.118168c4.5076983-.167052 8.3660508-2.84796 10.8098538-4.849884 2.4438029-2.001925 5.3214011-4.437645 7.4957659-1.255582 2.1743649 3.182063 4.2894535 11.467283 10.1578137 10.462279 5.8683603-1.005004 7.2748268-5.860277 11.2975366-5.943803s5.2136259 9.699769 5.2136259 9.699769z" fill="url(#x)"/><path d="m30.1959199 131.143572s2.8560431-9.201309 9.2013087-12.054657c6.3452656-2.853349 8.565435-11.106236 15.2286375-5.388761 6.6632024 5.717475 9.2013086 12.690531 16.1797536 9.516551s7.6143187 7.932256 7.6143187 7.932256z" fill="#0087ff"/></g><g transform="translate(5 144)"><path d="m.36666667.88c-.06666667 0-.18 0-.12666667 0h.08c.07660034.03173525.15747722.05195447.24.06v-.09333333z" fill="url(#y)" opacity=".65" transform="translate(39.672598)"/><path d="m16.1103793 58.5559165c-2.7124907.2099799-5.3919023.730711-7.98559514 1.5519631.33099777 2.3937057 2.98336404 21.8699652 2.09558854 28.7748855-.94696052 7.3652484-2.13066115 15.6621129-2.13066115 15.6621129l4.94962225-2.141621.1249462-.054801s3.0535092-13.6761266 3.0535092-14.8313307.631307-19.2526715 1.3678318-18.1939171c.7365249 1.0587545 3.1565351 13.5270678 3.1565351 13.5270678s.9995694 21.120288.6291149 21.854621l3.9456688-1.788703v-.019729c1.4072885-2.683054 1.8303519-17.7927738 1.8303519-17.7927738l-2.1087408-26.5981915c-.0444805.0180495-.092336.0262747-.1402904.0241124-2.9263528-.1952369-5.8627496-.1864475-8.7878812.0263044z" fill="#007ee3"/><g fill="#914800"><path d="m16.7921032 27.4487024c1.9226656-.0006598 3.5372386-1.447166 3.7483853-3.3582025l.1249462-1.1201316.4384077-3.9566289h-.0635691v-.2586605c.1044835-.0472395.2049224-.1029574.3003092-.1665949.8351665-.5502016.9666888-2.8167691.5589697-2.9658277s-.3726465.4384076-.4164872 1.3678318c-.0219204.4537519-.2345481.6334991-.4384077.7014522v-5.508592l1.5694994-.4384076c-.0811054-.804478-.3923749-1.0960191-.8768153-1.1201315-1.0618223-1.83260579-3.0219895-2.9581171-5.1399755-2.95133013-2.1179859.00678696-4.0708997 1.14483752-5.1209553 2.98421063-.3551102.0942577-.5874663.401143-.6576115 1.0521784l.8768153-.9513446.576506 6.885192c-.2226102-.141684-.3490246-.3945129-.3288057-.6576115-.0438408-.9250401 0-1.5190824-.4186793-1.3678318s-.2740048 2.411242.5611618 2.9658277c.0880638.0593219.1803794.1120736.2761968.1578267l.0219204.2674287h-.0241124l.5896582 4.3380436.113986.8307825c.2508917 1.8688087 1.8430892 3.2653746 3.728657 3.270521zm-3.90402-6.1201707v-3.1170783c.4384076.1380984.4142952.690492.4142952.690492 0 1.5914198.5896583 1.5234666.5896583 1.5234666.4579746-.0735146.7939449-.4699782.7913258-.9338083.005303-.4733529.3110107-.890948.7606372-1.0390261h2.7707363c1.0390261 0 .9688809 1.834736 1.488394 1.834736.519513 0 .6225388-.8307825.6225388-1.3853682-.0008625-.3210497.1960715-.6094796.4954006-.7255646v3.3603946c0 .690492-.519513 2.5931812-4.2196735 2.5931812s-3.7133127-2.8014249-3.7133127-2.8014249z"/><path d="m22.6360771 12.1943085c0-.059185 0-.1096019 0-.1622108v.5502016c-.0043841-.1359064 0-.2674287 0-.3879908z"/><path d="m10.7881106 12.0320977v.1622108.2783889c-.1577962.8047423-.1451015 1.6336298.0372646 2.4331624z"/></g><path d="m12.3532259 18.7485028c-.0958174-.0457532-.188133-.0985049-.2761969-.1578268-.8351665-.5502016-.9688808-2.8167691-.5611617-2.9658277s.3748385.4384077.4186793 1.3678319c-.020219.2630985.1061955.5159274.3288057.6576114l-.5677379-6.9093044-.8768153.9513446-.0241124.0284965v.3025012l.0328806 2.8825303.0350726 2.354249c-.0241124.9535366.6576114 1.7404784 1.4883939 1.7536306h.0241124z" fill="#343460"/><path d="m21.0402733 12.1833483v5.5107841c.2082436-.0679532.4208713-.2477003.4384076-.7014522.0438408-.9250402 0-1.5190825.4164873-1.3678319.4164872.1512507.2761968 2.411242-.5589698 2.9658277-.0953868.0636375-.1958257.1193554-.3003092.1665949v.2586605h.059185c.8242064-.0372646 1.4774338-.8132462 1.4555134-1.7536305l.0657611-4.6778096v-.5502016-.3025012h-.0241124z" fill="#343460"/><path d="m16.0490023 45.4562962c-2.3191765 2.0802443-5.8746624 3.6431675-8.9544761 4.4235331l-.21920382 3.0315889c.05832941-.0107296.1145699-.0307098.1665949-.0591851 2.54934044-.7036442 9.00708502-7.3959369 9.00708502-7.3959369z" fill="#343460"/><path d="m43.11629 34.1212667c-.293786.4899994-.6143079.9634645-.9601127 1.4182487-1.8614857-.4166739-3.4464517-1.6290367-4.3358516-3.3165538.346342-.3594943.6839159-.7058363 1.0521783-1.0390261-1.3042627 1.1091713-2.2819117 2.3454809-4.2985869 3.9917016-2.3498649 1.9180334-2.4967315 3.5795983-5.7584843-3.958821-.3334082-.7838962-.5882024-1.598944-.7606373-2.4331624-.3178455-1.5081223-1.1354758-4.1034956-3.0272048-4.5594395-.7913257-.3375739-3.448076-1.030258-4.3599639-1.2538459l-.1249462 1.1201316c-.2111468 1.9110365-1.8257197 3.3575427-3.7483853 3.3582025-1.8867188-.0003189-3.4830854-1.3944479-3.7374252-3.2639449l-.113986-.8307825c-.0472853.0200114-.0933928.0426991-.1380984.0679532-.918464.5041688-2.4748111 1.2165812-3.41957958 1.6747172h-.08548949c-2.12627705.2674287-6.38321525 9.1276471-6.94437703 10.3946452-2.56030062 5.7869808-3.39765921 13.6520139-.65761146 14.7041922 1.05437038.4055271 3.09515795.2586605 5.40337418-.3266137 3.07981368-.7803656 6.63529968-2.3432888 8.95447608-4.4235331s-6.46432068 6.7032529-9.02462131 7.4047051c-.05202501.0284753-.10826549.0484555-.1665949.059185l-.55896974 7.3455201c-.01091372.107861.03428864.2137761.11971977.2805192.08543113.066743.19913633.0849745.30115156.0482865.32003758-.1183701.79570987-.284965 1.39852038-.4756723 2.59369284-.8212521 5.27310444-1.3419832 7.98559514-1.5519631 2.9250807-.2134818 5.8614775-.2230037 8.7878812-.0284965.0479544.0021623.0958099-.0060628.1402904-.0241124.1159067-.0453176.1929685-.156148.1950914-.2805809.0482249-1.9004971.4734803-12.1592359.5480096-20.9251967.7082192 1.4191187 1.4934073 2.7985031 2.352057 4.1319921 2.1328532 3.1674952 6.1771636.6707636 7.5537636-.3222297.3463421-.2498923.7036443-.4778643 1.0697147-.6992601 1.2823423-.7781736 4.3511958-2.8803382 6.3569108-6.2473089.6576114-1.0960191.9009277-1.9552981.8768153-2.6172936.0175363.6488433-.2323561 1.5037382-.8746233 2.5778369zm-38.270795 10.0526872c-.20166751-2.0890124 1.79747133-6.5761146 3.32312992-8.3516656l-.67295573 8.8273379c-1.70759776.8505108-2.50330763 1.0412181-2.65017419-.4756723zm8.6169022-3.1631111c1.3546796-1.4511293 2.2183426-2.808001 4.0815751-2.6589424 1.8084315.1468666 3.4327318 1.4007124 0 5.8110933-.1452052.0227677-.2915693.0374041-.4384076.0438408-1.840524-.0102432-3.3933522-1.3724716-3.6431675-3.1959917z" fill="#7ab0f6"/><path d="m17.5505484 44.1629937c3.4261557-4.4103809 1.8018554-5.6642267 0-5.8110933-1.8632324-.1490586-2.7268955 1.2078131-4.0815751 2.6589424.2505161 1.8284508 1.8107908 3.192288 3.6563197 3.1959917.1424399-.0069179.2844001-.021553.4252554-.0438408z" fill="#914800"/><path d="m37.8203257 32.2229616c.8913554 1.6841676 2.4760215 2.8930964 4.3358516 3.3077857.3458048-.4547843.6663267-.9282493.9601127-1.4182488.6422672-1.0740987.8921596-1.9289936.8768153-2.5887971-.0438408-2.0122911-2.5559166-2.1920382-4.0333503-1.1990449-.3846127.2609531-.750817.5480573-1.0960191.859279-.3594943.341958-.6970682.6883-1.0434102 1.0390261z" fill="#914800"/><path d="m20.8210694 21.5367754v-3.3603946c-.295021.1195908-.4870748.407237-.4844404.7255646 0 .5545857-.1030258 1.3853682-.6225389 1.3853682-.519513 0-.4493678-1.834736-1.4883939-1.834736h-2.7773124c-.451358.1465584-.7590882.5645072-.7650213 1.0390261.0022845.4652505-.3359919.862236-.7957099.9338083 0 0-.5896583.0679532-.5896583-1.5234666 0 0 .0350726-.5523936-.4142952-.690492v3.1170783s0 2.8014249 3.7023525 2.8014249c3.7023526 0 4.2350178-1.9026892 4.2350178-2.5931812z" fill="#343460"/><path d="m10.180916 15.0943751 1.7711669-.1556347.4077191-2.5646847.2937331 2.5931812 7.4638901-.1337144c.0858416-1.3039526-.0467756-2.6130845-.3923749-3.8733315 0 0 1.2187733 1.2165812 1.4270169 3.726465l1.9399538-.0328806s.4077191-7.14604455-6.6857165-7.01452226c-7.09343564.13152229-6.2253885 7.45512196-6.2253885 7.45512196z" fill="#343460"/><g transform="translate(52.018783 13.758484)"><rect fill="#b9ddff" height="9.248209" rx="4.624105" transform="matrix(-1 0 0 -1 40.02975 10.09183)" width="28.9086" x="5.560575" y=".421811"/><path d="m19.1183309 28.0677966h19.6625827c2.5514293-.0072245 4.6179761-2.0737713 4.6252006-4.6252006-.0084274-2.5505732-2.0746237-4.6157902-4.6252006-4.6230086h-19.6625827c-2.5502187.0072245-4.6157841 2.0727899-4.6230086 4.6230086.0060207 2.5510747 2.0719371 4.6179706 4.6230086 4.6252006z" fill="#b9ddff"/><path d="m4.14232591 18.9028849-.04822484-1.030258c-.11837006-2.0298274.5567777-4.0969194 2.34767292-6.2056601 1.27138215-1.5519631 2.30602419-2.86280193 2.30602419-4.17583281 0-1.39194426-.91407994-2.34767292-2.90225859-2.38712961-1.40091372.02236088-2.76763748.43617447-3.94566876 1.19466083l-1.35029554-4.33585157c1.47085764-.83516656 3.81633852-1.63087643 6.64187576-1.63087643 5.24993145 0 7.67213375 2.90445062 7.67213375 6.20566016 0 3.02062864-1.9070733 5.01099933-3.4195796 6.68133243-1.431401 1.6308764-2.06709206 3.1806474-2.02763537 4.9715427v.7124124zm-1.03464203 5.5283203c0-2.1460054 1.47085763-3.619055 3.5401417-3.619055 2.1460054 0 3.53794962 1.4730496 3.57959842 3.619055 0 2.0692841-1.3919443 3.6212471-3.57959842 3.6212471-2.11531687.0021921-3.5401417-1.549771-3.5401417-3.619055z" fill="#2245c4"/></g><path d="m0 21.5696559c-.00022066-.9720863.06422138-1.9431107.19289936-2.9066426l23.89321644-18.63232477c3.9179156.43405202 7.6419203 1.9336614 10.7672916 4.33585157l-33.08662461 25.8068658c-1.1720716-2.7166123-1.77343468-5.6450864-1.76678279-8.60375z" fill="#0062c7" opacity=".08" transform="translate(38.576579 5.918503)"/><path d="m1.81500763 28.400047c0-.9864172-1.89172897-1.315223-1.76459075-2.2687596l33.08443262-25.95811638c4.0267742.43840764 7.7225506 1.99256273 3.213528 4.08595921l-33.08004854 25.80467377c6.4204799-2.3849376-1.45332133 1.3919442-1.45332133-1.663757z" fill="#0062c7" opacity=".08" transform="translate(41.864636 13.590637)"/><path d="m4.67655884 51.6653981h12.60860376v3.3647787h-12.60860376z" fill="#003ca6" transform="matrix(-.46993381 -.88270166 .88270166 -.46993381 -30.949041 88.11054)"/><path d="m36.8536369 35.2238619-2.0955886 1.1157474.7913258 1.4840099-15.6971856 8.3560496 2.0320195 3.8185306 15.6971855-8.3494735.7913258 1.4862019 2.0955886-1.1157475c7.4872058 9.8084564 21.2481449 12.2300444 31.6339659 5.5668028s13.9204373-20.1811565 8.1254578-31.0752962c-5.7949795-10.89413968-18.9800016-15.51828562-30.3100346-10.6300939-11.3300331 4.8881917-17.0129669 17.6526657-13.0640601 29.3432689zm12.9330254-25.48463616c7.2345434-3.85339707 16.0779762-2.96925776 22.4064504 2.24012826 6.3284742 5.209386 8.8956419 13.7180672 6.5043877 21.5582962-2.3912542 7.8402291-9.2699897 13.4679287-17.4285316 14.2588037-8.1585418.7908751-15.9901232-3.4108315-19.8427402-10.6457904-5.2608124-9.8770342-1.5199479-22.1486794 8.3560496-27.41143776z" fill="#007ee3"/><path d="m20.9215926 38.1594574h6.3043019v23.581947h-6.3043019z" fill="#007ee3" transform="matrix(-.46993381 -.88270166 .88270166 -.46993381 -8.704518 94.673761)"/><path d="m17.9573017 32.593197h6.3043018v23.581947h-6.3043018z" fill="#0062c7" transform="matrix(-.46993381 -.88270166 .88270166 -.46993381 -8.148482 83.875141)"/><path d="m8.08971155 105.785572h11.14213015v-.756253l-6.0675617-2.641407-.1249462.015345-4.94962225 2.141621z" fill="#343460"/><path d="m21.369079 104.698321v1.199045h11.1399381v-.754062l-7.1701569-2.255607h-.0131523v.019729z" fill="#343460"/></g><path d="m787.135104 255.788684s4.989992-8.767514 5.798306-3.502695-5.798306 3.502695-5.798306 3.502695z" fill="#003ca6"/><path d="m785.249038 256.537721c-.269438-.999615-4.580447-12.520785-6.466513-6.509622-1.886066 6.011162 6.466513 6.509622 6.466513 6.509622z" fill="#003ca6"/><g transform="translate(133 225)"><g fill="#003ca6"><path d="m15.2009445 20.2635726s2.2983064-2.1177829 2.4842186-1.1370284c.1859123.9807544-2.4842186 1.1370284-2.4842186 1.1370284z"/><path d="m12.816418 18.6200007c.4391839-1.3013857 2.3845265 1.6435719 2.3845265 1.6435719s-2.8856813-.156274-2.3845265-1.6435719z"/><path d="m14.6027921 22.7397081c0-.0835258.8756736-8.5708237 3.9553503-15.05080828l.2478829.1778291c-3.0500384 6.41531948-3.9095458 14.81909158-3.9176289 14.91608928z"/></g><path d="m18.6766951 7.77781437c.4472671.25327174 1.9884526-.89453426 1.6166282-1.44688222-.3718245-.55234796-.8379523.18860662-1.0777522-.53887606-.2397998-.72748268-.808314-.7247883-.921478-.13741339-.113164.5873749-.6008468-.4930716-.8379523.18591224-.2371055.67898383.7678984 1.6812933 1.2205543 1.93725943z" fill="url(#z)"/><path d="m9.50502457 22.4325488s.87297923-5.3187067 1.90492683-4.4214781c1.0319477.8972287-1.90492683 4.4214781-1.90492683 4.4214781z" fill="#003ca6"/><path d="m5.38531711 23.5264672c-.58198615-2.0450347 4.11970746-1.0939184 4.11970746-1.0939184s-3.45150115 3.4326405-4.11970746 1.0939184z" fill="#003ca6"/><path d="m10.8818529 26.0376296c-.0619707-.1077752-6.16204773-10.9580446-8.03733641-22.27444187l.43379523-.10508083c1.85642802 11.2005389 7.90531178 21.9618938 7.96728248 22.069669z" fill="#003ca6"/><path d="m3.06006691 3.7119945c.72748268-.26943802 1.53849115-3.51886066.65473441-3.69668976-.88375673-.1778291-.80831408 1.26366436-1.69207082.7247883s-1.54387991.18591224-1.17474981.99692071-1.10469592.18321786-.80831409 1.26366436c.29638184 1.08044649 2.28483449.9834488 3.02040031.71131639z" fill="url(#A)"/></g></g></svg>