<?xml version="1.0" encoding="UTF-8"?>
<svg width="88px" height="88px" viewBox="0 0 88 88" version="1.1" xmlns="http://www.w3.org/2000/svg" xmlns:xlink="http://www.w3.org/1999/xlink">
    <!-- Generator: sketchtool 54.1 (76490) - https://sketchapp.com -->
    <title>268DD741-85A5-400C-A720-8F485C71636A</title>
    <desc>Created with sketchtool.</desc>
    <g id="LANDING" stroke="none" stroke-width="1" fill="none" fill-rule="evenodd">
        <g id="homepage" transform="translate(-186.000000, -1004.000000)">
            <g id="easy-monthly-payments" transform="translate(186.000000, 1004.000000)">
                <circle id="Oval" fill="#E5EDFC" cx="44" cy="44" r="44"></circle>
                <g id="Group-18" transform="translate(16.000000, 20.000000)">
                    <path d="M23.6330338,6.54490092 C21.4533415,6.54490092 19.2171323,6.53180554 16.9812677,6.55265477 C16.2768738,6.55920246 15.6470892,6.99290092 15.6114215,7.63043938 C15.5082092,9.47671631 15.5748923,11.3324702 15.5748923,13.1616886 L53.3456,13.1616886 C53.3456,11.4706609 53.3540431,9.83804554 53.3430154,8.20577477 C53.3347446,6.99479631 52.8576246,6.54490092 51.6033969,6.54231631 C49.6799262,6.53800862 47.7564554,6.53904246 45.8329846,6.54386708 C45.5841723,6.54455631 45.33536,6.58074092 45.1087754,6.59866092 C44.8036185,7.55738092 45.5841723,9.05473477 43.8666092,9.113664 C42.0625477,9.17552246 42.6232369,7.58805169 42.3525415,6.54128246 L41.3853785,6.54128246 C36.8781538,6.54128246 32.3709292,6.54317785 27.8637046,6.54024862 C26.14752,6.53904246 26.4666338,6.50613169 26.37824,7.95041477 C26.3542892,8.33965785 26.0126031,8.88776862 25.6736738,9.03629785 C25.1960369,9.245824 24.4718277,9.34076554 24.1882092,8.66549169 C23.9237169,8.036224 23.83136,7.33475938 23.6330338,6.54490092 M53.2587569,15.826944 L15.5697231,15.826944 L15.5697231,20.403264 L13.0231877,20.403264 C13.0044062,20.0982794 12.9732185,19.8225871 12.9730462,19.5468948 C12.9697723,15.6987471 12.9656369,11.8507717 12.9730462,8.00279631 C12.9771815,5.74677169 14.6530462,4.05815631 16.9185477,4.04040862 C19.1823262,4.02266092 21.4461046,4.03661785 23.8261908,4.03661785 C23.8261908,3.21367631 23.8210215,2.45018092 23.8277415,1.68685785 C23.83584,0.763633231 24.3822277,0.156076308 25.1770831,0.172617846 C25.9826215,0.189331692 26.4090831,0.704187077 26.4106338,1.66394092 C26.4116677,2.40744862 26.4108062,3.15095631 26.4108062,3.966144 L42.4493785,3.966144 C42.4493785,3.16267323 42.4192246,2.39297477 42.4566154,1.62655015 C42.5095138,0.541873231 43.3159138,-0.0999729231 44.20192,0.304777846 C44.5568738,0.466919385 44.9300923,0.953688615 44.9833354,1.33621169 C45.1008492,2.17741785 45.0198646,3.04653785 45.0198646,3.981824 C45.3887754,4.00232862 45.696,4.03351631 46.0032246,4.03437785 C47.9847631,4.03920246 49.9681969,4.09347938 51.9469785,4.02128246 C53.8213415,3.95304862 55.9408985,5.62719015 55.9214277,7.99400862 C55.8295877,19.1352517 55.8809354,30.2775286 55.8738708,41.4194609 C55.8726646,43.3884209 54.0823877,45.0088025 52.1375508,44.9076578 C51.1085292,44.8540702 50.0727877,44.9441871 49.0401477,44.9450486 C42.8661908,44.9497009 36.6922338,44.9474609 30.5181046,44.9474609 L29.4389415,44.9474609 C29.7859692,44.1016025 30.0628677,43.3437932 30.4190277,42.6250978 C30.4951877,42.4713994 30.8585846,42.3935163 31.0898215,42.3929994 C36.8330092,42.3800763 42.5761969,42.3823163 48.3195569,42.3819717 C49.5195077,42.3819717 50.7198031,42.4028209 51.9192369,42.3768025 C52.9036308,42.3554363 53.32992,41.9718794 53.3311262,41.0479655 C53.3435323,32.7492825 53.3387077,24.4504271 53.3362954,16.151744 C53.3362954,16.0702425 53.29856,15.9889132 53.2587569,15.826944" id="Fill-1" fill="#0744DD"></path>
                    <path d="M2.59669415,37.3286523 C2.40250338,43.7193723 7.94443569,49.0829662 14.3098265,49.0395446 C20.8418388,48.9950892 26.0048665,43.7650338 26.032608,37.3064246 C26.0600049,30.9482708 20.6838326,25.4426954 13.9700357,25.5622769 C8.12398031,25.6663508 2.31083569,30.9884185 2.59669415,37.3286523 M14.3012111,51.5335262 C6.21584492,51.7592492 0.457321846,45.0175385 0.0349956923,38.4631262 C-0.575835077,28.9841354 6.95022031,23.3903385 13.3319803,23.0200492 C22.1787742,22.5067446 28.6204972,29.7614154 28.5962018,37.3319262 C28.5712172,45.0537231 22.0212849,51.8293785 14.3012111,51.5335262" id="Fill-4" fill="#0744DD"></path>
                    <path d="M43.355872,32.8627988 C42.7324628,32.7196111 41.8116505,33.2365342 41.2868012,32.3358818 C41.0948505,32.0064295 40.8796382,31.4774449 41.0159335,31.219328 C41.2242535,30.8247434 41.6989612,30.3822572 42.1123274,30.3231557 C43.0383089,30.1908234 43.9972012,30.2563003 44.9407582,30.2912788 C45.6494597,30.3176418 46.0445612,30.8499003 46.0588628,31.6173588 C46.0736812,32.4032542 45.6032812,32.7495926 44.9311089,32.8491865 C44.4546782,32.9196603 43.9596382,32.8627988 43.355872,32.8627988" id="Fill-6" fill="#0744DD"></path>
                    <path d="M43.5717563,22.3685194 C44.2663286,22.5363471 44.9927778,22.626464 45.6466855,22.8938855 C46.2978363,23.1601009 46.1536148,23.8746609 45.9844086,24.3242117 C45.856384,24.6646917 45.3410117,25.0286055 44.9622794,25.0720271 C44.0288886,25.1793748 43.0741317,25.1297502 42.1291963,25.1009748 C41.5209502,25.0825378 40.881344,24.3715963 40.8894425,23.7978117 C40.8973686,23.2298855 41.5588578,22.5558178 42.1609009,22.5303163 C42.6185502,22.5108455 43.0777502,22.5265255 43.5362609,22.5265255 C43.5481502,22.4737994 43.5600394,22.4212455 43.5717563,22.3685194" id="Fill-8" fill="#0744DD"></path>
                    <path d="M34.4280074,22.5264394 C34.9139151,22.526784 35.4030966,22.490944 35.8848689,22.5352271 C36.6161428,22.6025994 36.999872,23.0631778 37.0496689,23.7761871 C37.0970535,24.4583532 36.5618658,25.0771102 35.8740135,25.1010609 C34.9320074,25.1337994 33.9856935,25.147584 33.0454105,25.0950302 C32.2851889,25.0524702 32.0003643,24.4604209 31.944192,23.8047902 C31.8868135,23.1355471 32.4781735,22.5497009 33.1419028,22.5286794 C33.5702597,22.5150671 33.9994782,22.5260948 34.4280074,22.5264394" id="Fill-10" fill="#0744DD"></path>
                    <path d="M34.4704123,32.8639705 C34.0417108,32.8641428 33.6126646,32.8739643 33.18448,32.8617305 C32.4757785,32.8417428 31.9095754,32.2324628 31.9343877,31.5325489 C31.9590277,30.8479705 32.4909415,30.2972751 33.1803446,30.2841797 C34.0372308,30.2678105 34.8949785,30.2672935 35.7518646,30.2838351 C36.5207015,30.2988258 37.0620923,30.8472812 37.0589908,31.5685612 C37.0562338,32.2924258 36.5201846,32.8327828 35.7561723,32.8610412 C35.32816,32.8770658 34.8989415,32.8639705 34.4704123,32.8639705" id="Fill-12" fill="#0744DD"></path>
                    <path d="M23.2550942,22.8295631 C23.5244111,22.7142892 23.7397957,22.5473231 23.9601772,22.5406031 C24.9333711,22.5109662 25.9177649,22.4487631 26.8775188,22.5661046 C27.2624542,22.6131446 27.7569772,23.0228923 27.913088,23.3902523 C28.1548357,23.9581785 28.0013095,24.6611938 27.3653218,24.9096615 C26.9254203,25.0814523 26.2451495,25.1271138 25.8774449,24.8988062 C24.971968,24.3363938 24.1850388,23.5834092 23.2550942,22.8295631" id="Fill-14" fill="#0744DD"></path>
                    <path d="M18.0443028,34.0214991 C18.0601551,34.7750006 17.5403028,35.3963422 16.8515889,35.4476898 C16.0963643,35.5040345 15.6812751,35.1266806 15.5260258,34.2660037 C15.3983458,33.5586806 15.081472,32.9590498 14.2643889,33.0460652 C13.9042658,33.0844898 13.4181858,33.3684529 13.2810289,33.6727483 C13.1476628,33.9687729 13.2508751,34.6095852 13.4869366,34.7913698 C14.3093612,35.424256 15.2355151,35.9220529 16.1206597,36.4737822 C17.5077366,37.3384222 18.5841428,38.4260283 18.4619766,40.2078622 C18.3508382,41.8263483 17.5740751,43.0654129 16.0665551,43.7498191 C15.6082166,43.9577945 15.5413612,44.2512345 15.5465305,44.6882068 C15.5565243,45.5368222 15.0359828,46.1037145 14.3010905,46.1126745 C13.5758474,46.1216345 12.966912,45.5270006 12.9856935,44.7204283 C12.9987889,44.1457822 12.7749612,43.929536 12.2673428,43.6526375 C10.9204135,42.9175729 10.200512,41.6943606 10.1048812,40.1475545 C10.0597366,39.4183483 10.5416812,38.8202683 11.1914535,38.7187791 C11.8837858,38.6107422 12.4232812,39.0534006 12.6417674,39.8296468 C12.7682412,40.2791975 12.8859274,40.800256 13.1876382,41.1179914 C13.887552,41.8539175 14.908992,41.7708652 15.5287828,41.0387298 C16.1596012,40.2934991 16.033472,39.6216714 15.0557982,38.9470868 C14.1096566,38.2943852 13.0551335,37.7850437 12.1639582,37.0687606 C9.78714585,35.1585575 10.0428505,32.321856 12.6486597,30.7643668 C12.8292382,30.6563298 12.9396874,30.3134375 12.9577797,30.0704837 C13.029632,29.1140037 13.5265674,28.5090314 14.2981612,28.5173022 C15.0987028,28.5255729 15.4838105,29.0528345 15.5775458,30.1027052 C15.6001182,30.3570314 15.8422105,30.6823483 16.0743089,30.8117514 C17.1174597,31.3932898 18.0189735,32.8075914 18.0443028,34.0214991" id="Fill-16" fill="#FC758E"></path>
                </g>
            </g>
        </g>
    </g>
</svg>