<?xml version="1.0" encoding="UTF-8"?>
<svg width="88px" height="88px" viewBox="0 0 88 88" version="1.1" xmlns="http://www.w3.org/2000/svg" xmlns:xlink="http://www.w3.org/1999/xlink">
    <!-- Generator: sketchtool 54.1 (76490) - https://sketchapp.com -->
    <title>FB063FA1-219E-44ED-9757-03CB1A7820C4</title>
    <desc>Created with sketchtool.</desc>
    <g id="LANDING" stroke="none" stroke-width="1" fill="none" fill-rule="evenodd">
        <g id="homepage" transform="translate(-582.000000, -1004.000000)">
            <g id="fast-and-easy" transform="translate(582.000000, 1004.000000)">
                <circle id="Oval-Copy" fill="#E5EDFC" cx="44" cy="44" r="44"></circle>
                <g id="Group-12" transform="translate(12.000000, 17.000000)">
                    <path d="M31.6907237,6.95034391 L31.6907237,3.46119262 C31.5765196,3.45609545 31.4667926,3.4470032 31.3569968,3.44679656 C30.5993781,3.4455567 29.8415528,3.43591341 29.0841407,3.44865633 C28.0667041,3.46580763 27.4226696,2.72974859 27.3441456,1.81356654 C27.2841506,1.11311882 27.7755454,0.42720492 28.4797815,0.207888807 C28.712185,0.135426322 28.9606376,0.077497663 29.2019956,0.0767399754 C32.0604064,0.0678543665 34.9188172,0.0742602706 37.7771592,0.0688875769 C38.5836143,0.0673722017 39.2963916,0.726767036 39.4030189,1.37803395 C39.5405737,2.21824059 39.2878504,2.94748044 38.3451493,3.3089663 C38.1308615,3.39120984 37.8899169,3.43598229 37.6601998,3.44011513 C36.8134494,3.45526888 35.966217,3.44610775 35.079998,3.44610775 L35.079998,5.25209053 L35.079998,6.98857269 C35.9118012,7.09705978 36.7137791,7.16697368 37.5011542,7.31486052 C38.1901678,7.44428733 38.8665073,7.64851857 39.5416758,7.84331316 C40.2610657,8.05085068 40.9886524,8.24530086 41.6831075,8.52013481 C42.47434,8.83312866 43.2545515,9.18924182 43.9999095,9.5988064 C44.8287508,10.0542455 45.6383744,10.5551459 46.4090804,11.102954 C47.110768,11.6017191 47.7762932,12.1604103 48.4082736,12.7461028 C49.167752,13.4499257 49.9082194,14.1808187 50.5938578,14.9558642 C51.1244458,15.5555395 51.5517127,16.2457929 52.0360128,16.8874165 C52.8035503,17.9042332 53.4094248,19.0120413 53.8860792,20.1890745 C54.2477717,21.0821815 54.6180054,21.9755641 54.9078554,22.8930549 C55.1724261,23.7307129 55.3536512,24.5967498 55.5339808,25.4581717 C55.6416413,25.9722283 55.6251788,26.5149392 55.7563966,27.0208679 C55.9762637,27.8687892 55.9122047,28.7299355 55.9325245,29.5818519 C55.9510534,30.3512492 55.8139808,31.1243661 55.7472354,31.8959675 C55.7208541,32.2013845 55.7225761,32.511141 55.6706401,32.8119429 C55.5774445,33.3514854 55.4556635,33.8861373 55.3413215,34.4219601 C55.2548074,34.827874 55.1896462,35.2413648 55.0646967,35.6355001 C54.8356684,36.3579208 54.5974101,37.0799282 54.3112797,37.7809958 C53.993602,38.5594854 53.6407262,39.3256453 53.2631223,40.0770647 C52.5905712,41.4154165 51.7723375,42.666152 50.769848,43.778644 C49.8948566,44.7496551 49.0266155,45.7454632 48.0329427,46.5855321 C46.9450411,47.5054337 45.7384581,48.2926022 44.5406229,49.0714362 C43.9406032,49.4615764 43.2545515,49.7272492 42.5902662,50.0087646 C41.7560522,50.3622603 40.9172231,50.7143095 40.0563523,50.9927941 C39.2270288,51.2609466 38.374217,51.471446 37.5183055,51.6380684 C36.8423105,51.7696994 36.1474421,51.819018 35.4583597,51.8642037 C34.4440226,51.9308113 33.425415,52.020494 32.4121112,51.9892221 C31.5217594,51.9617387 30.6349894,51.7899503 29.7489082,51.6659651 C29.1920768,51.588061 28.6289771,51.5203513 28.0872994,51.3774239 C27.306399,51.1714706 26.5342465,50.92412 25.7735282,50.6519036 C25.0621973,50.3973205 24.3488,50.1305456 23.6758357,49.7910327 C22.8381776,49.3684497 22.0260054,48.8895223 21.2309156,48.3902062 C20.5417643,47.9573599 19.8408344,47.5195542 19.2357865,46.9818716 C18.2218627,46.0809122 17.2521604,45.125537 16.3156585,44.1436428 C15.3062121,43.0852221 14.5423252,41.8353132 13.8211444,40.5726613 C13.3015085,39.662954 12.8744482,38.6986244 12.4394667,37.743387 C12.2284162,37.2801643 12.6183498,36.3453156 13.0799193,36.027018 C13.9170952,35.4495911 15.0175331,35.6259257 15.5613461,36.4931336 C15.7553141,36.8024079 15.8481653,37.1732615 16.0121702,37.5036133 C16.3053264,38.0941963 16.5760276,38.7019995 16.9309697,39.2545604 C17.5145269,40.1630967 18.111447,41.0709442 18.7906106,41.9079134 C19.34634,42.5929319 19.9843818,43.2301471 20.6680226,43.7880118 C21.6597668,44.597291 22.6820251,45.3874903 23.7730952,46.0512935 C24.6751567,46.6000659 25.6835011,46.9846268 26.6684261,47.383446 C27.3226549,47.6483611 28.0107041,47.8427424 28.6980645,48.0092959 C29.4272354,48.1859749 30.1686672,48.3339306 30.9134052,48.4192049 C31.8744285,48.5291385 32.8444064,48.6221963 33.8097692,48.6146194 C34.668367,48.607938 35.5267582,48.4621865 36.3834273,48.3618962 C36.841415,48.3082381 37.2991961,48.2385998 37.7501579,48.1435444 C38.0975921,48.0703242 38.4358652,47.9510918 38.775447,47.8436379 C39.2410116,47.6964399 39.7099513,47.5568876 40.1669747,47.3861323 C41.2922785,46.9657535 42.3619956,46.4342701 43.387629,45.8039429 C44.7792945,44.9486514 46.0510386,43.9438888 47.1782022,42.7692664 C47.8000571,42.1210991 48.3602637,41.4083907 48.902217,40.6901028 C49.6921407,39.6430475 50.3463695,38.5091336 50.8509894,37.2964891 C51.1474519,36.5841938 51.4276585,35.8631508 51.6716339,35.131569 C51.8864728,34.4874657 52.0710042,33.8295862 52.2126918,33.1657141 C52.3302711,32.6145309 52.3972231,32.0477117 52.4306991,31.4845432 C52.4814642,30.6285629 52.49834,29.7698962 52.5018529,28.9121938 C52.5043326,28.3184423 52.49834,27.7198002 52.4262908,27.1319036 C52.3483867,26.4962726 52.1965048,25.8691139 52.0642539,25.240922 C51.7854248,23.9159331 51.354094,22.6324792 50.7635798,21.4229343 C50.2608886,20.3935124 49.6308369,19.4225014 49.0127705,18.45397 C48.2652772,17.2827916 47.3210608,16.2662504 46.2934986,15.3407006 C45.60972,14.7248384 44.8700792,14.1614632 44.1077766,13.6449958 C43.3539464,13.1342455 42.5545171,12.6850057 41.7479931,12.2603562 C41.2145122,11.9795296 40.6376364,11.777847 40.0719882,11.5623193 C39.5220448,11.3527843 38.9690017,11.1448335 38.403629,10.9844103 C37.9190534,10.8469934 37.4171198,10.7660585 36.9191813,10.6814042 C36.2166672,10.5620339 35.5129132,10.4439724 34.8055085,10.3612467 C34.4090312,10.31489 34.0029107,10.3179208 33.6032649,10.338585 C32.5101973,10.3952049 31.4039734,10.3865948 30.3299169,10.5656846 C29.156741,10.7613058 27.9779169,11.0098962 26.8747237,11.4975715 C25.8796733,11.9375124 24.8514224,12.3186982 23.9024531,12.8427424 C22.7615134,13.4727941 21.690832,14.2324792 20.7372477,15.1322677 C20.1173215,15.7171336 19.5195749,16.3269343 18.9345712,16.9469983 C18.468249,17.4412172 17.8982613,17.5768433 17.2637323,17.4897781 C16.7418234,17.4182111 16.2097889,16.7975272 16.0562539,16.3274165 C15.772121,15.4575911 16.2043474,14.8702455 16.7468517,14.3145161 C17.3377102,13.7092615 17.9161014,13.0843759 18.5619267,12.5418716 C19.3246426,11.9011434 20.1374347,11.3157953 20.9589058,10.7505604 C21.6612133,10.2674312 22.3896266,9.81591833 23.1378086,9.40793801 C23.746094,9.07627749 24.3884753,8.79655301 25.0382268,8.55402411 C25.8895232,8.23620861 26.7519095,7.93499336 27.6301383,7.70603395 C28.442586,7.49422583 29.2821038,7.38608315 30.1100497,7.23413235 C30.5998603,7.14424305 31.0903597,7.05793555 31.6907237,6.95034391" id="Fill-1" fill="#0744DD"></path>
                    <path d="M32.5647784,29.2140084 C33.8126209,28.0409014 35.0511646,26.8688276 36.2983872,25.7060526 C37.6654622,24.4314844 39.0447292,23.1698657 40.4104266,21.8938509 C41.1365668,21.2152384 41.8484487,20.5212654 42.5611572,19.8284635 C43.6026332,18.8159862 45.2041092,19.3329358 45.6364044,20.5694819 C45.9369309,21.4294573 45.6687095,22.0872679 45.0846012,22.6493343 C43.6531916,24.0267415 42.1903036,25.3713614 40.7431892,26.7325815 C39.470274,27.9300034 38.2076221,29.1385151 36.9293343,30.3302888 C35.6444339,31.528124 34.344862,32.7102544 33.0544512,33.9023036 C32.8947857,34.0499149 32.7393909,34.2059296 32.6050736,34.3762027 C32.4424462,34.5822248 32.3500084,34.5350416 32.183937,34.3579493 C31.1974278,33.3060034 30.1964536,32.2676271 29.195755,31.2291129 C28.4198829,30.4239665 27.6201781,29.6412064 26.8624216,28.8195975 C26.0212507,27.9075483 26.1808472,26.6684536 27.0805668,25.9660772 C27.7970637,25.4066972 28.9499198,25.4869432 29.6392089,26.2157009 C30.5487784,27.1772064 31.4694376,28.1283109 32.3869284,29.0823085 C32.432803,29.1300428 32.4944512,29.1626234 32.5647784,29.2140084" id="Fill-4" fill="#FC758E"></path>
                    <path d="M11.3885402,21.4928827 C8.15280098,21.4928827 4.91706175,21.4964645 1.68132251,21.4908851 C0.585086347,21.4890253 -0.198362608,20.4227523 0.044304059,19.4543587 C0.259693973,18.5950032 0.766104797,18.1752443 1.74496827,18.10843 C1.93914293,18.095136 2.13490185,18.1045727 2.32990308,18.1045727 C8.52599656,18.1036084 14.72209,18.1015419 20.9181835,18.103815 C21.6657456,18.1040905 22.2903557,18.395938 22.5968059,19.0930795 C22.8734308,19.7225801 22.8496669,20.4883956 22.1584492,21.0736748 C21.8299572,21.351815 21.4653717,21.4971533 21.0269461,21.4962578 C17.8141442,21.4899897 14.6014111,21.4928827 11.3885402,21.4928827" id="Fill-6" fill="#0744DD"></path>
                    <path d="M14.5138706,28.2431902 L8.10927528,28.2431902 C6.8918091,28.2431902 5.67392964,28.2230081 4.45715228,28.2500782 C3.59628143,28.2691582 2.85202558,27.6468212 2.67169594,26.8518002 C2.518092,26.174772 2.97242903,25.2843513 3.64036507,25.0231557 C3.91230603,24.9168039 4.22550652,24.8760954 4.52031587,24.8745112 C6.73434785,24.8626637 8.94844871,24.8681053 11.1625496,24.8681053 C14.4987169,24.8681053 17.8348841,24.8730647 21.1709825,24.8634903 C21.7847095,24.8617683 22.5985348,25.4730155 22.6983429,26.1767006 C22.805108,26.9295665 22.6453048,27.530275 21.9908694,27.9303341 C21.7343577,28.0871065 21.4164733,28.2264522 21.1249702,28.2297584 C18.921477,28.2543488 16.7175705,28.2431902 14.5138706,28.2431902" id="Fill-8" fill="#0744DD"></path>
                    <path d="M14.3268733,31.6183439 C16.5879508,31.6183439 18.8490283,31.6181373 21.1101747,31.6184817 C21.9133924,31.6186194 22.5362804,32.1624325 22.6865781,32.9586932 C22.8706962,33.9342504 22.4210431,34.503756 21.7874785,34.8286662 C21.4950111,34.9786194 21.1003936,34.9637412 20.7519262,34.96443 C16.6316212,34.9726268 12.5112472,34.9708359 8.39087331,34.9674608 C7.97924231,34.9671164 7.56726691,34.9436969 7.15591144,34.9232394 C6.70067897,34.9007154 5.93066175,34.19028 5.94264699,33.6617584 C5.95229028,33.2388999 5.84421648,32.8053648 6.13516851,32.4187375 C6.50064945,31.9332664 6.9323936,31.6112492 7.5780123,31.61428 C9.8276556,31.6248187 12.0772989,31.6183439 14.3268733,31.6183439" id="Fill-10" fill="#0744DD"></path>
                </g>
            </g>
        </g>
    </g>
</svg>