<?xml version="1.0" encoding="UTF-8"?>
<svg width="138px" height="138px" viewBox="0 0 138 138" version="1.1" xmlns="http://www.w3.org/2000/svg" xmlns:xlink="http://www.w3.org/1999/xlink">
    <!-- Generator: sketchtool 54.1 (76490) - https://sketchapp.com -->
    <title>F116D218-4C26-4C5A-8A77-F1F0C46854A0</title>
    <desc>Created with sketchtool.</desc>
    <defs>
        <polygon id="path-1" points="0.291907989 1.68640708 99.164 1.68640708 99.164 33.9999044 0.291907989 33.9999044"></polygon>
        <path d="M20.782,3.132 C14.712,4.244 8.57,6.364 4.708,11.462 L4.708,11.462 C-2,20.32 0.108,32.65 7.244,40.466 L7.244,40.466 C10.102,43.924 13.76,46.716 17.914,48.434 L17.914,48.434 C24.522,51.168 31.884,50.462 38.806,49.586 L38.806,49.586 C40.662,49.352 42.466,48.978 44.186,48.472 L44.186,48.472 C48.698,51.46 58.134,51.856 58.134,51.856 L58.134,51.856 C58.134,51.856 51.778,48.32 51.92,44.752 L51.92,44.752 C56.106,41.68 58.938,37.16 59.398,30.996 L59.398,30.996 C59.73,26.536 59.39,21.096 57.876,16.558 L57.876,16.558 C57.23,13.496 55.718,10.536 53.206,8.014 L53.206,8.014 C48.602,3.394 42.01,1.744 35.63,1.756 L35.63,1.756 C35.022,1.73 34.412,1.716 33.8,1.716 L33.8,1.716 C29.424,1.716 25.008,2.358 20.782,3.132 L20.782,3.132 Z" id="path-3"></path>
        <linearGradient x1="0%" y1="50%" x2="97.4613165%" y2="50%" id="linearGradient-5">
            <stop stop-color="#8CE6FF" offset="0%"></stop>
            <stop stop-color="#32B7DF" offset="100%"></stop>
        </linearGradient>
    </defs>
    <g id="LANDING" stroke="none" stroke-width="1" fill="none" fill-rule="evenodd">
        <g id="homepage" transform="translate(-583.000000, -1659.000000)">
            <g id="generate-equivalent-voucher" transform="translate(583.000000, 1659.000000)">
                <g id="Group-128" transform="translate(0.000000, 5.000000)">
                    <g id="Group-50" transform="translate(20.000000, 43.460800)">
                        <g id="Group-3" transform="translate(0.000000, 55.000000)">
                            <mask id="mask-2" fill="white">
                                <use xlink:href="#path-1"></use>
                            </mask>
                            <g id="Clip-2"></g>
                            <path d="M92.0156,14.6954 C80.8656,8.0334 65.8516,7.2994 53.3436,5.0294 C41.9956,2.9714 29.6356,0.3754 18.0596,2.4474 C7.6896,3.7334 -0.9864,8.6034 0.4476,19.9014 C1.4336,27.6674 9.2516,29.8074 15.9376,29.9954 C31.0796,30.4194 45.9316,30.7954 61.0636,32.0454 C70.3916,32.8154 87.2476,36.6794 95.6216,30.7834 C102.7736,25.7494 97.8176,18.1614 92.0156,14.6954" id="Fill-1" fill="#F4F4F4" mask="url(#mask-2)"></path>
                        </g>
                        <path d="M90.0488,74.5762 C88.7528,73.0642 84.4708,71.1702 84.4708,71.1702 C83.2648,70.9942 82.3948,70.8682 82.3948,70.8682 L82.3948,77.7302 C82.3948,77.7302 83.3888,77.9962 84.7908,78.2962 C90.1868,78.3102 91.3428,76.0882 90.0488,74.5762" id="Fill-4" fill="#F68E40"></path>
                        <path d="M91.2246,72.2128 C89.9406,71.9788 86.6526,71.4888 84.4706,71.1708 C84.4726,71.1708 88.7526,73.0648 90.0486,74.5768 C91.3446,76.0868 90.1866,78.3108 84.7926,78.2968 L84.7906,78.2968 C86.5906,78.6808 89.0666,79.1208 90.9846,79.1228 C95.1586,79.1268 95.6866,73.0288 91.2246,72.2128" id="Fill-6" fill="#637381"></path>
                        <path d="M57.833,0.2158 C54.329,-0.4842 52.069,0.7498 51.099,1.4698 C49.595,0.4558 45.985,-1.1542 42.125,2.7118 C37.645,7.1978 46.129,15.8778 44.103,17.4878 C42.079,19.0978 43.975,20.4898 46.703,20.0778 C48.609,19.7878 52.617,18.1798 54.995,16.2578 L55.539,18.0138 C55.539,18.0138 60.035,18.5198 62.399,15.2438 C64.763,11.9658 62.635,1.1738 57.833,0.2158" id="Fill-8" fill="#14314D"></path>
                        <path d="M45.2704,17.6944 C47.2964,16.0844 38.8124,7.4044 43.2904,2.9184 C45.3564,0.8504 47.3484,0.3564 48.9864,0.4924 C47.1824,-0.0076 44.7104,0.1204 42.1244,2.7104 C37.6444,7.1984 46.1284,15.8764 44.1044,17.4864 C42.3924,18.8484 43.4844,20.0484 45.5084,20.1404 C44.3124,19.7244 43.9324,18.7584 45.2704,17.6944" id="Fill-10" fill="#DD772B"></path>
                        <path d="M45.7832,50.3174 C45.7912,50.2914 45.7912,50.2614 45.8072,50.2394 C54.4152,37.8654 40.8192,30.1534 45.4932,24.7514 C54.1392,14.7574 67.7572,21.7534 71.7572,24.0614 C77.2592,27.2334 72.0412,30.8254 71.6732,39.5514 C71.5092,43.4134 70.6812,46.8894 69.5492,51.2554 C65.6092,52.5134 56.6292,54.3974 45.7832,50.3174" id="Fill-12" fill="#33213D"></path>
                        <path d="M55.621,17.5958 L55.177,20.5338 C54.995,21.7318 55.977,22.7878 57.185,22.6918 C58.245,22.6078 59.025,21.6638 58.907,20.6078 L58.343,15.5498 L55.621,17.5958 Z" id="Fill-14" fill="#F68E40"></path>
                        <path d="M55.5838,18.335 L55.5038,18.367 L55.2338,20.151 C55.6998,20.039 56.2938,19.835 56.6938,19.465 C57.4338,18.781 57.8278,17.125 57.8278,17.125 L55.5838,18.335 Z" id="Fill-16" fill="#33213D"></path>
                        <path d="M57.6044,11.6582 C57.3964,11.7462 57.2244,11.8822 57.0884,12.0442 L56.4664,10.5822 C55.7444,9.5022 54.1904,9.0122 51.6224,10.1062 C49.9104,10.8342 49.6724,12.1122 50.2224,14.0342 C50.9284,16.4962 52.2044,19.0602 53.4044,19.4602 C54.3024,19.7582 55.3624,19.3662 56.9484,18.5982 C58.3124,17.9382 58.9084,16.3162 58.3144,14.9222 C59.0104,14.6262 59.5084,14.1642 59.4124,13.4142 C59.3024,12.5242 58.3004,11.3622 57.6044,11.6582" id="Fill-18" fill="#F68E40"></path>
                        <path d="M58.7382,14.0898 C58.8062,14.2098 58.7662,14.3618 58.6462,14.4298 C58.5282,14.4998 58.3742,14.4578 58.3062,14.3378 C58.2382,14.2178 58.2802,14.0658 58.3982,13.9978 C58.5182,13.9298 58.6702,13.9698 58.7382,14.0898" id="Fill-20" fill="#FFFFFF"></path>
                        <path d="M51.0634,51.1074 C49.8954,50.2314 48.6634,49.4434 47.3734,48.7614 C41.5674,45.6914 25.0414,37.7634 13.8914,40.5574 C0.1674,43.9934 8.9254,63.1594 33.6154,68.3774 C58.3074,73.5954 82.3954,77.7314 82.3954,77.7314 L82.3954,70.9854 L51.0634,51.1074 Z" id="Fill-22" fill="#B5E5EF"></path>
                        <path d="M92.0184,52.0898 C82.9724,45.8578 63.8864,51.3418 57.5544,52.6518 C56.1444,52.9418 54.7724,53.3198 53.4424,53.7738 L19.4144,65.6638 L19.4144,72.2758 C19.4144,72.2758 44.5704,71.0498 69.8064,71.2478 C95.0404,71.4458 97.5684,55.9138 92.0184,52.0898" id="Fill-24" fill="#B5E5EF"></path>
                        <path d="M74.8114,26.7216 C67.2394,17.8916 59.7054,26.8976 64.5774,33.8576 C65.4754,35.2996 66.3934,36.8596 67.2514,38.4496 C69.3954,37.7116 74.3574,35.7416 78.2554,32.2316 C77.1234,30.2936 75.9514,28.4356 74.8114,26.7216" id="Fill-26" fill="#33213D"></path>
                        <path d="M78.2558,32.2314 C74.3578,35.7414 69.3938,37.7114 67.2518,38.4494 C70.1378,43.7994 73.5598,48.8674 71.8718,51.6154 C70.0698,54.5474 48.7418,49.0874 45.7838,50.3174 C42.8238,51.5474 43.6158,52.8214 45.8618,53.9174 C50.1298,55.9994 83.1278,69.6874 85.3938,55.3874 C86.4678,48.6174 82.6678,39.7854 78.2558,32.2314" id="Fill-28" fill="#F68E40"></path>
                        <path d="M37.3496,28.8204 C31.4796,32.6764 25.3096,37.1984 23.3996,40.2804 C19.4476,46.6584 29.1396,50.9904 36.0796,49.8004 C39.5896,49.1984 40.7276,43.5424 45.1596,40.7444 C41.3956,37.2704 38.5596,31.5444 37.3496,28.8204" id="Fill-30" fill="#F68E40"></path>
                        <path d="M49.578,21.33 C49.578,21.33 43.636,24.692 37.35,28.82 C38.56,31.544 41.396,37.27 45.16,40.744 C49.494,38.004 52.954,35.438 52.954,35.438 L49.578,21.33 Z" id="Fill-32" fill="#33213D"></path>
                        <path d="M12.038,69.2354 C13.286,67.7794 17.414,65.9534 17.414,65.9534 C18.578,65.7834 19.414,65.6634 19.414,65.6634 L19.414,72.2774 C19.414,72.2774 18.458,72.5334 17.106,72.8214 C11.906,72.8354 10.788,70.6934 12.038,69.2354" id="Fill-34" fill="#F68E40"></path>
                        <path d="M9.6474,71.6866 C9.7854,70.8886 9.3354,70.2646 8.9534,69.4666 C8.7194,68.9786 9.0314,68.1646 9.3114,67.6066 C6.9834,69.2506 7.6154,73.1126 10.5454,73.5686 C9.7834,73.0846 9.5454,72.2746 9.6474,71.6866" id="Fill-36" fill="#E0E0E0"></path>
                        <path d="M17.1054,72.8222 L17.1054,72.8222 C11.9054,72.8342 10.7894,70.6922 12.0374,69.2362 C13.2854,67.7802 17.4134,65.9522 17.4134,65.9522 C15.3114,66.2602 12.1414,66.7322 10.9054,66.9582 C10.2694,67.0742 9.7394,67.3042 9.3114,67.6082 C9.0314,68.1642 8.7194,68.9782 8.9534,69.4662 C9.3354,70.2642 9.7854,70.8882 9.6474,71.6862 C9.5454,72.2742 9.7834,73.0842 10.5454,73.5702 C10.7334,73.5982 10.9294,73.6182 11.1354,73.6182 C12.9834,73.6162 15.3694,73.1922 17.1054,72.8222" id="Fill-38" fill="#637381"></path>
                        <path d="M37.5654,71.997 C37.3594,71.997 37.1914,71.831 37.1894,71.623 C37.1854,71.415 37.3514,71.245 37.5614,71.241 C37.8094,71.237 62.7054,70.837 80.9374,69.699 C81.1554,69.701 81.3234,69.843 81.3374,70.051 C81.3514,70.259 81.1914,70.439 80.9834,70.453 C62.7354,71.591 37.8214,71.993 37.5714,71.997 L37.5654,71.997 Z" id="Fill-40" fill="#33213D"></path>
                        <path d="M21.0946,65.4542 C20.9146,65.4542 20.7566,65.3282 20.7226,65.1462 C20.6846,64.9402 20.8206,64.7442 21.0246,64.7042 L48.9166,59.5082 C49.1286,59.4782 49.3186,59.6062 49.3566,59.8102 C49.3946,60.0162 49.2606,60.2122 49.0546,60.2502 L21.1626,65.4482 C21.1406,65.4522 21.1166,65.4542 21.0946,65.4542" id="Fill-42" fill="#33213D"></path>
                        <path d="M46.1992,51.4814 L36.4152,51.4814 C35.9792,51.4814 35.5952,51.1974 35.4672,50.7814 L30.8112,35.6354 C30.6152,34.9974 31.0912,34.3534 31.7572,34.3534 L41.5412,34.3534 C41.9772,34.3534 42.3612,34.6374 42.4892,35.0534 L47.1472,50.1994 C47.3412,50.8374 46.8652,51.4814 46.1992,51.4814" id="Fill-44" fill="#D1C2FF"></path>
                        <path d="M38.6776,40.5332 C38.8056,41.1332 38.6116,41.6852 38.2416,41.7652 C37.8736,41.8452 37.4696,41.4212 37.3396,40.8212 C37.2116,40.2192 37.4056,39.6672 37.7736,39.5872 C38.1436,39.5092 38.5496,39.9312 38.6776,40.5332" id="Fill-46" fill="#FFFFFF"></path>
                        <path d="M43.2508,52.3018 C43.2508,52.3018 40.3528,49.7838 39.9628,47.7178 C39.5748,45.6538 39.9668,45.0338 40.9288,45.7218 C41.8888,46.4078 44.4308,49.2098 44.7348,48.5038 C45.0408,47.7958 43.9408,46.9678 44.6268,45.9958 C45.3128,45.0218 45.2208,46.7438 45.6708,47.0578 C46.1228,47.3718 47.9148,50.5618 47.0048,52.4758 C46.0968,54.3898 43.2508,52.3018 43.2508,52.3018" id="Fill-48" fill="#DD772B"></path>
                    </g>
                    <g id="Group-127" transform="translate(0.000000, 0.460800)">
                        <mask id="mask-4" fill="white">
                            <use xlink:href="#path-3"></use>
                        </mask>
                        <g id="Clip-52"></g>
                        <polygon id="Fill-51" fill="#F44A64" mask="url(#mask-4)" points="59.514 51.856 59.73 51.856 59.73 1.54 59.514 1.54"></polygon>
                        <polygon id="Fill-53" fill="#F44A64" mask="url(#mask-4)" points="58.706 51.856 59.512 51.856 59.512 1.54 58.706 1.54"></polygon>
                        <polygon id="Fill-54" fill="#F44B65" mask="url(#mask-4)" points="57.902 51.856 58.708 51.856 58.708 1.54 57.902 1.54"></polygon>
                        <polygon id="Fill-55" fill="#F44C67" mask="url(#mask-4)" points="57.094 51.856 57.9 51.856 57.9 1.54 57.094 1.54"></polygon>
                        <polygon id="Fill-56" fill="#F44D68" mask="url(#mask-4)" points="56.288 51.856 57.094 51.856 57.094 1.54 56.288 1.54"></polygon>
                        <polygon id="Fill-57" fill="#F44E6A" mask="url(#mask-4)" points="55.482 51.856 56.288 51.856 56.288 1.54 55.482 1.54"></polygon>
                        <polygon id="Fill-58" fill="#F44F6B" mask="url(#mask-4)" points="54.674 51.856 55.48 51.856 55.48 1.54 54.674 1.54"></polygon>
                        <polygon id="Fill-59" fill="#F4506D" mask="url(#mask-4)" points="53.868 51.856 54.674 51.856 54.674 1.54 53.868 1.54"></polygon>
                        <polygon id="Fill-60" fill="#F4516E" mask="url(#mask-4)" points="53.062 51.856 53.868 51.856 53.868 1.54 53.062 1.54"></polygon>
                        <polygon id="Fill-61" fill="#F4526F" mask="url(#mask-4)" points="52.256 51.856 53.062 51.856 53.062 1.54 52.256 1.54"></polygon>
                        <polygon id="Fill-62" fill="#F45371" mask="url(#mask-4)" points="51.45 51.856 52.256 51.856 52.256 1.54 51.45 1.54"></polygon>
                        <polygon id="Fill-63" fill="#F45472" mask="url(#mask-4)" points="50.642 51.856 51.448 51.856 51.448 1.54 50.642 1.54"></polygon>
                        <polygon id="Fill-64" fill="#F45574" mask="url(#mask-4)" points="49.836 51.856 50.642 51.856 50.642 1.54 49.836 1.54"></polygon>
                        <polygon id="Fill-65" fill="#F45675" mask="url(#mask-4)" points="49.03 51.856 49.836 51.856 49.836 1.54 49.03 1.54"></polygon>
                        <polygon id="Fill-66" fill="#F55776" mask="url(#mask-4)" points="48.222 51.856 49.028 51.856 49.028 1.54 48.222 1.54"></polygon>
                        <polygon id="Fill-67" fill="#F55878" mask="url(#mask-4)" points="47.416 51.856 48.222 51.856 48.222 1.54 47.416 1.54"></polygon>
                        <polygon id="Fill-68" fill="#F55979" mask="url(#mask-4)" points="46.61 51.856 47.416 51.856 47.416 1.54 46.61 1.54"></polygon>
                        <polygon id="Fill-69" fill="#F55A7A" mask="url(#mask-4)" points="45.804 51.856 46.61 51.856 46.61 1.54 45.804 1.54"></polygon>
                        <polygon id="Fill-70" fill="#F55B7C" mask="url(#mask-4)" points="44.996 51.856 45.802 51.856 45.802 1.54 44.996 1.54"></polygon>
                        <polygon id="Fill-71" fill="#F55C7D" mask="url(#mask-4)" points="44.19 51.856 44.996 51.856 44.996 1.54 44.19 1.54"></polygon>
                        <polygon id="Fill-72" fill="#F55D7E" mask="url(#mask-4)" points="43.384 51.856 44.19 51.856 44.19 1.54 43.384 1.54"></polygon>
                        <polygon id="Fill-73" fill="#F55E7F" mask="url(#mask-4)" points="42.578 51.856 43.384 51.856 43.384 1.54 42.578 1.54"></polygon>
                        <polygon id="Fill-74" fill="#F55F81" mask="url(#mask-4)" points="41.772 51.856 42.578 51.856 42.578 1.54 41.772 1.54"></polygon>
                        <polygon id="Fill-75" fill="#F56082" mask="url(#mask-4)" points="40.964 51.856 41.77 51.856 41.77 1.54 40.964 1.54"></polygon>
                        <polygon id="Fill-76" fill="#F56183" mask="url(#mask-4)" points="40.158 51.856 40.964 51.856 40.964 1.54 40.158 1.54"></polygon>
                        <polygon id="Fill-77" fill="#F56284" mask="url(#mask-4)" points="39.352 51.856 40.158 51.856 40.158 1.54 39.352 1.54"></polygon>
                        <polygon id="Fill-78" fill="#F56286" mask="url(#mask-4)" points="38.544 51.856 39.35 51.856 39.35 1.54 38.544 1.54"></polygon>
                        <polygon id="Fill-79" fill="#F56387" mask="url(#mask-4)" points="37.74 51.856 38.546 51.856 38.546 1.54 37.74 1.54"></polygon>
                        <polygon id="Fill-80" fill="#F56488" mask="url(#mask-4)" points="36.932 51.856 37.738 51.856 37.738 1.54 36.932 1.54"></polygon>
                        <polygon id="Fill-81" fill="#F56589" mask="url(#mask-4)" points="36.126 51.856 36.932 51.856 36.932 1.54 36.126 1.54"></polygon>
                        <polygon id="Fill-82" fill="#F5668A" mask="url(#mask-4)" points="35.32 51.856 36.126 51.856 36.126 1.54 35.32 1.54"></polygon>
                        <polygon id="Fill-83" fill="#F5678C" mask="url(#mask-4)" points="34.512 51.856 35.318 51.856 35.318 1.54 34.512 1.54"></polygon>
                        <polygon id="Fill-84" fill="#F5688D" mask="url(#mask-4)" points="33.706 51.856 34.512 51.856 34.512 1.54 33.706 1.54"></polygon>
                        <polygon id="Fill-85" fill="#F5688E" mask="url(#mask-4)" points="32.9 51.856 33.706 51.856 33.706 1.54 32.9 1.54"></polygon>
                        <polygon id="Fill-86" fill="#F5698F" mask="url(#mask-4)" points="32.094 51.856 32.9 51.856 32.9 1.54 32.094 1.54"></polygon>
                        <polygon id="Fill-87" fill="#F56A90" mask="url(#mask-4)" points="31.288 51.856 32.094 51.856 32.094 1.54 31.288 1.54"></polygon>
                        <polygon id="Fill-88" fill="#F56B91" mask="url(#mask-4)" points="30.48 51.856 31.286 51.856 31.286 1.54 30.48 1.54"></polygon>
                        <polygon id="Fill-89" fill="#F56C92" mask="url(#mask-4)" points="29.674 51.856 30.48 51.856 30.48 1.54 29.674 1.54"></polygon>
                        <polygon id="Fill-90" fill="#F56C93" mask="url(#mask-4)" points="28.868 51.856 29.674 51.856 29.674 1.54 28.868 1.54"></polygon>
                        <polygon id="Fill-91" fill="#F56D94" mask="url(#mask-4)" points="28.062 51.856 28.868 51.856 28.868 1.54 28.062 1.54"></polygon>
                        <polygon id="Fill-92" fill="#F56E95" mask="url(#mask-4)" points="27.254 51.856 28.06 51.856 28.06 1.54 27.254 1.54"></polygon>
                        <polygon id="Fill-93" fill="#F56F96" mask="url(#mask-4)" points="26.448 51.856 27.254 51.856 27.254 1.54 26.448 1.54"></polygon>
                        <polygon id="Fill-94" fill="#F56F97" mask="url(#mask-4)" points="25.642 51.856 26.448 51.856 26.448 1.54 25.642 1.54"></polygon>
                        <polygon id="Fill-95" fill="#F57098" mask="url(#mask-4)" points="24.834 51.856 25.64 51.856 25.64 1.54 24.834 1.54"></polygon>
                        <polygon id="Fill-96" fill="#F57199" mask="url(#mask-4)" points="24.028 51.856 24.834 51.856 24.834 1.54 24.028 1.54"></polygon>
                        <polygon id="Fill-97" fill="#F5729A" mask="url(#mask-4)" points="23.222 51.856 24.028 51.856 24.028 1.54 23.222 1.54"></polygon>
                        <polygon id="Fill-98" fill="#F6729B" mask="url(#mask-4)" points="22.416 51.856 23.222 51.856 23.222 1.54 22.416 1.54"></polygon>
                        <polygon id="Fill-99" fill="#F6739C" mask="url(#mask-4)" points="21.61 51.856 22.416 51.856 22.416 1.54 21.61 1.54"></polygon>
                        <polygon id="Fill-100" fill="#F6749D" mask="url(#mask-4)" points="20.802 51.856 21.608 51.856 21.608 1.54 20.802 1.54"></polygon>
                        <polygon id="Fill-101" fill="#F6749E" mask="url(#mask-4)" points="19.996 51.856 20.802 51.856 20.802 1.54 19.996 1.54"></polygon>
                        <polygon id="Fill-102" fill="#F6759F" mask="url(#mask-4)" points="19.19 51.856 19.996 51.856 19.996 1.54 19.19 1.54"></polygon>
                        <polygon id="Fill-103" fill="#F675A0" mask="url(#mask-4)" points="18.384 51.856 19.19 51.856 19.19 1.54 18.384 1.54"></polygon>
                        <polygon id="Fill-104" fill="#F676A1" mask="url(#mask-4)" points="17.578 51.856 18.384 51.856 18.384 1.54 17.578 1.54"></polygon>
                        <polygon id="Fill-105" fill="#F677A2" mask="url(#mask-4)" points="16.77 51.856 17.576 51.856 17.576 1.54 16.77 1.54"></polygon>
                        <polygon id="Fill-106" fill="#F677A2" mask="url(#mask-4)" points="15.964 51.856 16.77 51.856 16.77 1.54 15.964 1.54"></polygon>
                        <polygon id="Fill-107" fill="#F678A3" mask="url(#mask-4)" points="15.158 51.856 15.964 51.856 15.964 1.54 15.158 1.54"></polygon>
                        <polygon id="Fill-108" fill="#F678A4" mask="url(#mask-4)" points="14.352 51.856 15.158 51.856 15.158 1.54 14.352 1.54"></polygon>
                        <polygon id="Fill-109" fill="#F679A5" mask="url(#mask-4)" points="13.544 51.856 14.35 51.856 14.35 1.54 13.544 1.54"></polygon>
                        <polygon id="Fill-110" fill="#F67AA5" mask="url(#mask-4)" points="12.738 51.856 13.544 51.856 13.544 1.54 12.738 1.54"></polygon>
                        <polygon id="Fill-111" fill="#F67AA6" mask="url(#mask-4)" points="11.932 51.856 12.738 51.856 12.738 1.54 11.932 1.54"></polygon>
                        <polygon id="Fill-112" fill="#F67BA7" mask="url(#mask-4)" points="11.124 51.856 11.93 51.856 11.93 1.54 11.124 1.54"></polygon>
                        <polygon id="Fill-113" fill="#F67BA8" mask="url(#mask-4)" points="10.318 51.856 11.124 51.856 11.124 1.54 10.318 1.54"></polygon>
                        <polygon id="Fill-114" fill="#F67CA8" mask="url(#mask-4)" points="9.512 51.856 10.318 51.856 10.318 1.54 9.512 1.54"></polygon>
                        <polygon id="Fill-115" fill="#F67CA9" mask="url(#mask-4)" points="8.706 51.856 9.512 51.856 9.512 1.54 8.706 1.54"></polygon>
                        <polygon id="Fill-116" fill="#F67CA9" mask="url(#mask-4)" points="7.9 51.856 8.706 51.856 8.706 1.54 7.9 1.54"></polygon>
                        <polygon id="Fill-117" fill="#F67DAA" mask="url(#mask-4)" points="7.092 51.856 7.898 51.856 7.898 1.54 7.092 1.54"></polygon>
                        <polygon id="Fill-118" fill="#F67DAB" mask="url(#mask-4)" points="6.286 51.856 7.092 51.856 7.092 1.54 6.286 1.54"></polygon>
                        <polygon id="Fill-119" fill="#F67EAB" mask="url(#mask-4)" points="5.48 51.856 6.286 51.856 6.286 1.54 5.48 1.54"></polygon>
                        <polygon id="Fill-120" fill="#F67EAB" mask="url(#mask-4)" points="4.672 51.856 5.478 51.856 5.478 1.54 4.672 1.54"></polygon>
                        <polygon id="Fill-121" fill="#F67EAC" mask="url(#mask-4)" points="3.868 51.856 4.674 51.856 4.674 1.54 3.868 1.54"></polygon>
                        <polygon id="Fill-122" fill="#F67EAC" mask="url(#mask-4)" points="3.06 51.856 3.866 51.856 3.866 1.54 3.06 1.54"></polygon>
                        <polygon id="Fill-123" fill="#F67FAD" mask="url(#mask-4)" points="2.254 51.856 3.06 51.856 3.06 1.54 2.254 1.54"></polygon>
                        <polygon id="Fill-124" fill="#F67FAD" mask="url(#mask-4)" points="1.448 51.856 2.254 51.856 2.254 1.54 1.448 1.54"></polygon>
                        <polygon id="Fill-125" fill="#F67FAD" mask="url(#mask-4)" points="0.64 51.856 1.446 51.856 1.446 1.54 0.64 1.54"></polygon>
                        <polygon id="Fill-126" fill="#F67FAD" mask="url(#mask-4)" points="-2 51.856 0.64 51.856 0.64 1.54 -2 1.54"></polygon>
                    </g>
                </g>
                <path d="M135,35.1818182 L137.25,0.818181818" id="Line" stroke="#1B314B" stroke-linecap="round"></path>
                <path d="M124.142857,35.1923077 L113.857143,15.8076923" id="Line-2" stroke="#1B314B" stroke-linecap="round"></path>
                <path d="M114.166667,40.2 L105.833333,33.8" id="Line-3" stroke="#1B314B" stroke-linecap="round"></path>
                <polygon id="Star" fill="#F56E96" points="89.5 31.25 86.2671811 32.9495935 86.8845946 29.3497967 84.2691892 26.8004065 87.8835906 26.2752033 89.5 23 91.1164094 26.2752033 94.7308108 26.8004065 92.1154054 29.3497967 92.7328189 32.9495935"></polygon>
                <polygon id="Triangle" fill="#697788" points="19.5 63 29 77 10 77"></polygon>
                <rect id="Rectangle" fill="url(#linearGradient-5)" x="100" y="51" width="15" height="15"></rect>
                <rect id="Rectangle" fill="url(#linearGradient-5)" opacity="0.597214472" x="103" y="48" width="15" height="15"></rect>
                <circle id="Oval" fill="#D7293E" cx="26" cy="25" r="6"></circle>
                <circle id="Oval-Copy-3" stroke="#14314D" cx="75" cy="9" r="4"></circle>
            </g>
        </g>
    </g>
</svg>