<svg height="305" viewBox="0 0 937 305" width="937" xmlns="http://www.w3.org/2000/svg" xmlns:xlink="http://www.w3.org/1999/xlink"><linearGradient id="a" x1="50%" x2="50%" y1="118.8%" y2="18.7%"><stop offset="0" stop-color="#f1f3f4"/><stop offset=".15" stop-color="#e3e6e8"/><stop offset=".44" stop-color="#ced1d5"/><stop offset=".73" stop-color="#c1c5ca"/><stop offset="1" stop-color="#bdc1c6"/></linearGradient><linearGradient id="b"><stop offset="0" stop-color="#f1f3f4"/><stop offset=".12" stop-color="#e3e6e8"/><stop offset=".36" stop-color="#ced1d5"/><stop offset=".59" stop-color="#c1c5ca"/><stop offset=".81" stop-color="#bdc1c6"/><stop offset="1" stop-color="#dadce0"/></linearGradient><linearGradient id="c" x1="50%" x2="50%" xlink:href="#b" y1="115.4%" y2="15.3%"/><linearGradient id="d" x1="64393%" x2="64393%" xlink:href="#b" y1="18694%" y2="5819%"/><linearGradient id="e"><stop offset="0" stop-color="#bdc1c6"/><stop offset="1" stop-color="#8c9499"/></linearGradient><linearGradient id="f" x1="50%" x2="50%" xlink:href="#e" y1="83%" y2="-17%"/><linearGradient id="g" x1="72620%" x2="72620%" xlink:href="#e" y1="17921%" y2="11715%"/><linearGradient id="h" x1="17335%" x2="17335%" xlink:href="#e" y1="16373%" y2="11434%"/><linearGradient id="i"><stop offset="0" stop-color="#bdc1c6"/><stop offset=".05" stop-color="#c1c5c9"/><stop offset=".41" stop-color="#dbdee1"/><stop offset=".74" stop-color="#ebeeef"/><stop offset="1" stop-color="#f1f3f4"/></linearGradient><linearGradient id="j" x1="32.2%" x2="103.6%" xlink:href="#i" y1="76.5%" y2="-35.5%"/><linearGradient id="k"><stop offset="0" stop-color="#f8f9fa" stop-opacity="0"/><stop offset=".15" stop-color="#f8f9fa" stop-opacity=".2"/><stop offset=".32" stop-color="#f8f9fa" stop-opacity=".5"/><stop offset=".48" stop-color="#f8f9fa" stop-opacity=".7"/><stop offset=".64" stop-color="#f8f9fa" stop-opacity=".8"/><stop offset=".78" stop-color="#f8f9fa" stop-opacity=".9"/><stop offset=".9" stop-color="#f8f9fa"/><stop offset="1" stop-color="#f8f9fa"/></linearGradient><linearGradient id="l" x1="50%" x2="50%" xlink:href="#k" y1="100%" y2="0%"/><linearGradient id="m" x1="7696%" x2="9456%" xlink:href="#k" y1="14818%" y2="14818%"/><linearGradient id="n" x1="12889%" x2="12889%" xlink:href="#k" y1="14665%" y2="14506%"/><linearGradient id="o" x1="14494%" x2="14494%" xlink:href="#k" y1="14665%" y2="14506%"/><linearGradient id="p" x1="66.1%" x2="37.5%" y1="86.6%" y2="29.4%"><stop offset="0" stop-color="#fff" stop-opacity="0"/><stop offset=".09" stop-color="#fff" stop-opacity=".1"/><stop offset=".26" stop-color="#fff" stop-opacity=".2"/><stop offset=".5" stop-color="#fff" stop-opacity=".4"/><stop offset=".78" stop-color="#fff" stop-opacity=".7"/><stop offset="1" stop-color="#fff"/></linearGradient><linearGradient id="q" x1="0%" x2="100%" y1="32%" y2="32%"><stop offset="0" stop-color="#f1f3f4" stop-opacity="0"/><stop offset=".22" stop-color="#f1f3f4" stop-opacity=".3"/><stop offset=".5" stop-color="#f1f3f4" stop-opacity=".6"/><stop offset=".73" stop-color="#f1f3f4" stop-opacity=".8"/><stop offset=".91" stop-color="#f1f3f4" stop-opacity=".9"/><stop offset="1" stop-color="#f1f3f4"/></linearGradient><radialGradient id="r" cx="54.548234%" cy="0%" gradientTransform="matrix(.091355 0 0 1 .495649 0)" r="331.411003%"><stop offset="0" stop-color="#bdc1c6"/><stop offset="1" stop-color="#9da5ab"/></radialGradient><linearGradient id="s" x1="75681%" x2="73409%" xlink:href="#i" y1="2946.9%" y2="2136.7%"/><linearGradient id="t" x1="74708%" x2="72747%" xlink:href="#i" y1="6186.4%" y2="5117.1%"/><g fill="none"><g opacity=".2" transform="translate(17)"><path d="m419 171h-55v-65h55z" fill="#80868b" opacity=".5"/><g fill="#e8eaed" opacity=".6" transform="translate(130 76)"><path d="m601.7 6.7c-9.6 0-17.3 5.6-17.3 12.6v1.5h-44.3c0-8-13.1-14.5-29.1-14.5h-20v7.7l-49.7 7.5v-9.1c0-3.6-4-6.5-8.9-6.5h-8l-22.4 11.1h-164.2v-10.8c0-3.1-5.6-5.7-12.3-5.7h-28.3c-6.8 0-12.3 2.6-12.3 5.7v9.8h-60.8c-1.5 0-2.8 1-2.8 2.1v5.4h-28.3v-5.9h-40c-2.8 0-5.1 1.7-5.1 3.7v21l-10.8.7c-20.6.8-36.4 8.7-36.4 18.3v29.5h636.7v-84.2l-35.6.1z"/><path d="m664 60.6-42.8-4.2v48h52.5v-38.1c0-2.8-4-5.2-9.7-5.7z"/></g><path d="m720 142h-133v-35c0-2.8 3-5 6.5-5h78.5l15.7 5.3h32.3zm-405.3-38.8v-2.2c0-1.6-1.7-2.9-3.8-2.9h-43v4.8h-38.9v55.5l129 .7v-55.8h-43.3zm-119.1 1.8h-21.1c-8.7 1.3-15 7-15 13.8v11.8l-6.5 2.8v20.6h61v-49z" fill="#e8eaed"/><path d="m254 100.6h-6.2c0-5.9-8.2-10.6-18.3-10.6s-18.3 4.7-18.3 10.6h-6.2v9h4.2v28.4h40.6v-28.3h4.2z" fill="#bdc1c6"/><path d="m293.4 145.5v-9.5l-106-26-53.4 26h17.4v11.3h-6.9v4.4h-10.5v5.9h101.2l8.5 8.4h41.2l4.8-8.4h23.3v-5zm-125.2 1.8h-8.4v-9.6c.048752-.551294.323768-1.05774.759609-1.398833s.993538-.486335 1.540391-.401167h3.8c.546853-.085168 1.10455.060074 1.540391.401167s.710857.847539.759609 1.398833zm17.6 0h-8.4v-9.6c.050468-.531508.311354-1.020775.724569-1.35886s.944454-.496921 1.475431-.44114h3.9c.546853-.085168 1.10455.060074 1.540391.401167s.710857.847539.759609 1.398833z" fill="url(#a)"/><path d="m617.8 127v-9.6h-8v-18.4l-47.3-9.8v-16.7l-16.5-3.1-16.5 3.1v18.5l-18.9-.3v-47.5l-37-5.4v-33.2l-24.2-4.6-24 4.4v33.7l-23.4 3.3v26h-9.5v-26.2c0-1.8-2.2-3.1-4.2-2.4l-23.3 8.2v20.6c-3.2.7-5.6 3-5.6 5.8v6.8l-36.6 8.3v34l-16.8 5v29.5h329v-26.7l-17.2-3.4z" fill="url(#c)"/><path d="m776 117.3c0-3-5.7-5.5-12.6-5.5h-1.8v-13.2c0-3.1-5.7-5.6-12.6-5.6h-5.2v-24.5l-25-4.5-23.8 3v24.8l-14.7 4.3-2.8 11-26.6 1.2v-9.7l-11.4-2-11.5 2v63.4h148z" fill="url(#d)"/><path d="m841.7 192.6c-.1-10.7-6.2-21-16.7-28.2-7.796945-4.501296-16.702655-6.71906-25.7-6.4h-133.3l-1.9-6.8h-15l-1-.4c-2.810171-1.140585-5.940912-1.211739-8.8-.2l-8.2 3h-5.6c-2.103252-.121423-3.940158 1.409332-4.2 3.5v.8h-12.3v-4c-.1-1.2-1-2.2-2.3-2.4l-11.8-2.5-11.6 1.3.6 7.6h-476.6c-8.9671011-.332836-17.8444805 1.886509-25.6 6.4l-.5.3c-9.8705372 6.091098-16.1430486 16.619957-16.8 28.2l-.4 21.2h778z" fill="#bdc1c6"/><path d="m746 186-39.8-21.1c1.1-2.2.8-5-.8-6.9 0 0 3.8-6.8-3.8-11-7.6-4.4-15 .3-15 .3s-8.5-7.4-18-2.8-5 14.3-5 14.3c-12.8 8.3-10.4 27.2-10.4 27.2z" fill="url(#f)"/><path d="m851 194.7-65.8-28v-10.9h3.4v-9.5h-5.5v-4.3l-8.7-.2-7.4-13.8h-12.4l-7.4 13.8-8.7.2v4.3h-5.5v9.5h3.4v15.8l31.3 24.4z" fill="url(#g)"/><path d="m747 156h26v5h-26zm0 8h26v5h-26z" fill="#bdc1c6"/><path d="m186.8 160v-1.7c0-1.5 2.5-2.7 5.5-2.7h8v-6.8l24-10.8 22.5 10.8v4.3h15.7c2 0 3.5.8 3.5 1.7v37.2h-155z" fill="url(#h)"/><path d="m119 135.3c-1.5-3-6.1-5.3-11.5-5.3-2.8 0-5.5.6-8 2l-1.6-.2c-3.6 0-6.6 1.9-6.6 4.2 0 .5.2 1 .4 1.4-4 1.2-6.7 3.7-6.7 6.6 0 4 5.2 7.3 11.6 7.3 1.875954-.027554 3.734408-.365455 5.5-1v8.7h7.3v-5.1l2.6.1c9.4 0 17-4.4 17-9.8 0-4-4.1-7.4-10-9z" fill="url(#j)"/><path d="m403 67.3-132.3 123.7h-126.7l249.5-132v8.3zm108 22.8 141.1 123.9h116.9l-239-132v8.4z" fill="#fff" opacity=".3"/><path d="m166.4 148.6 1.6-.6h-8.4l-1.6.6zm-10.1 5.1 1.7-.7h-8.3l-1.7.7z" fill="#f8f9fa"/><path d="m125.1 159 2.9-1h-18.1l-2.9 1z" fill="url(#l)"/><path d="m98.1 159h-.1z" fill="#c5221f"/><path d="m103 158c-2.4 0-4.8.2-7.2.6-4.3.7-8.2 2.5-11.4 5l-.4.4c1.9-.2 3.7-.6 5.4-1.4 3.8504452-2.521313 8.3032045-3.971049 12.9-4.2z" fill="url(#m)"/><path d="m136.5 158c-2 1.1-2 2 .1 2 2.9-.2 5.7-.9 8.4-2z" fill="url(#n)"/><path d="m149.6 148.6 1.4-.6h-6v.6zm-11.1 5.1 1.5-.7h-6v.7zm45.9-5.1 1.6-.6h-8.4l-1.6.6zm136.6 11.4 5-2h-21l-5 2zm-146.7-6.3 1.7-.7h-8.3l-1.7.7z" fill="#f8f9fa"/><path d="m155.5 158c-2 1.1-2 2 .1 2 2.9-.2 5.7-.9 8.4-2z" fill="url(#o)"/><path d="m160 148v-9.2c0-.5.2-1 .6-1.1l-160.6 77.3h29.5l138.5-67z" fill="url(#p)" opacity=".3"/><path d="m253 101.6v-.6h-30z" fill="url(#q)"/><path d="m786 255h-2l3.6 6.8c.9 1.6-4.6 2.9-12.2 2.9h-5.6l6.6 13-26.7 2.3-27.3-1.6-5.6-13.1-16.8-2.3-5.2-5.7-29-.7 1.8 5-12.1 1-12.8-1-5.6-18.5-9.8.8 1.2 4.2h-8.6l2.3 8.2-50 4.5 1.4 7.8-17.8 1.5-18.3-1.5-1.2-8.6-20.5.2 2.2 22.6-41.4 2.7.5 17-27.9 2.4-27.9-2.4.9-17.2-26-1.6 1-12.6h-10.4l-1.3 12.7c-.1 1-2.7 1.6-4.9 1.2l-25.7-4.1 1.6-10c-3.5-.3-6-1.4-5.7-2.7l.5-3.2-39.1-3.8 3.5-15.3-17.1-2.2 2-7.5-14.9 2.3-1.3 4.5-48.6 5.3-3 8.3h4.4l-1.6 4.6h-6.6c-1.1 2.9-10.9 5.3-21.8 5.3-11 0-18.9-2.4-17.6-5.4h-6.6l2-4.5h4.4l1.5-3.4-23.9 2.8-50-12.8h18.2l2.9-5.4h-7.1l1.1-2h-10.9l1.6-2.8h104.5l10.1-3.9h42.2l3.9 3.9h17.8l.4-1.7h331.5v-.3h152.5l12.2 21.4c.8 1.5-4.5 2.8-12 2.8z" fill="#e8eaed" opacity=".8"/><path d="m31 214h848.4c1.5 0 3.3.8 3.4 1.6.5 2 .3 5.5-6.1 8.5-9.8 4.6-23.8 7.7-53.4 7.7-10 0-20-.5-29.5-1.5l.6 3.2c.3 1.7-4 1.7-5.7 0l-4-4.2-3.3-.5c-17.8 9-46.4 14.6-81.3 14.6-4.8 0-9.7-.1-14.5-.3-4 4.4-15 8.4-29.5 8.4-8.551195.061037-17.068309-1.083556-25.3-3.4-3 3.5-9.7 4.9-17.6 4.9-2.5 0-5-.3-7.3-.7-12 7.3-23.4 9.2-42.8 8.2-9.005117-.295929-17.910328-1.982522-26.4-5l-2.4 6.2c-.5 1.1-3.1 1.1-3.8 0l-3.3-5.1-4.2 10.1c-.4 1.1-3 1.1-3.8 0l-5-8c-6.7 4.8-20.9 9.3-49.7 9.3-37.1 0-51.6-11.5-51.6-11.5-4.658714 3.556789-10.059207 6.017773-15.8 7.2-12.083246 2.496459-24.5593 2.394196-36.6-.3-5.182839-1.015961-10.132875-2.982414-14.6-5.8-5.3-3.7-4.5-5.3-4.5-5.3s-5.2 2-16.6 3.2c-9.9.9-19.8 1-29.7.3-20-1.3-25-4.8-26-7.1-7.131514 1.76305-14.453878 2.636359-21.8 2.6-6.764752.114973-13.507897-.795352-20-2.7-4 1.2-8.2 1.9-12.3 1.9-10.7 0-17.8-4.3-17.8-10-7.253943-1.308403-14.43124-3.010925-21.5-5.1-21 4.6-37 2.2-45.4-3.9-13.4 2.5-27 3.8-40.7 3.8-17 0-31.6-2-42.1-5.6l-9 9.3c-1.8 1.9-6.6 1.9-5.8 0l5.7-13.2h-.2l-7.4 6.7c-2 1.8-6.3 1.8-5.7 0l3.9-11.5c.3-.7 1-1.2 1.6-1.4l-3-3.5c-.7-.8 1.3-2.1 3.3-2.1z" fill="#dadce0"/><path d="m30.3 215h849.4c.680369.091021 1.359882-.173234 1.8-.7.4-.5.6-1.2.5-1.8-1-3.1-3.9-8.6-12.4-13.2-12.7-7-28.5-11.7-57.2-11.7-9.3 0-18.5.8-27.7 2.2l-1.2-4.6c-.6-2.6-4.9-2.6-5.5 0l-1.6 6.2-3 .7c-25.963478-14.552225-55.342604-21.905637-85.1-21.3-4.6 0-9.2.1-13.7.4-8.253296-7.865179-19.303497-12.112488-30.7-11.8-7.921299-.168879-15.779992 1.437028-23 4.7-3.8-5-10.3-6.8-17.7-6.8-2.3 0-4.6.3-6.8 1-12.7-10-23.7-12.7-41.4-11.3-8.339015.398074-16.477985 2.689297-23.8 6.7l-3-8.3c-.352238-.636632-1.022421-1.031754-1.75-1.031754s-1.397762.395122-1.75 1.031754l-2.5 7-5-13.7c-.352238-.636632-1.022421-1.031754-1.75-1.031754s-1.397762.395122-1.75 1.031754l-3.8 10.6c-6.7-6.3-20-12.3-46.4-12.3-34 0-47.9 15.4-47.9 15.4-1.2-2-7-7.4-14-9.8-11.123366-3.315833-23.000553-3.106236-34 .6-6.8 2.2-11.3 5-14.2 7.7-5.6 5-5.2 7.3-5.2 7.3s-4.5-2.8-14.9-4.4c-9.2-1.3-18.5-1.4-27.7-.4-19 1.8-24.7 6.5-26.3 9.9-12.7-5-26.8-5-39.5 0-3.375948-1.718222-7.111963-2.609382-10.9-2.6-10 0-18.4 6-20.7 14-7.8 2-15.5 4.6-23 7.6-15.184238-6.450364-32.660021-4.275431-45.8 5.7-11.968315-3.774062-24.450893-5.663317-37-5.6-15.3-.1-30.4 2.7-44.5 8.4l-2.5-13.6c-.5-2.8-5-2.8-5.6 0l-3.5 19.5h-.3l-2.5-10.1c-.7-2.5-5-2.5-5.6 0l-4.3 17.3c-.2335969.757052.001711 1.58063.6 2.1l-5.6 5.6c-1.3 1.4-.3 3.4 1.7 3.4z" fill="url(#r)"/><path d="m818.8 132.2-5.8 32.2c0 .6 0 1.3.5 1.8.4.5 1 .8 1.7.8h11.6c.6 0 1.3-.3 1.7-.8s.6-1.2.5-1.8l-5.8-32.2c0-1.2-1-2.2-2.2-2.2s-2.2 1-2.2 2.2z" fill="url(#s)"/><path d="m808.5 148-3.4 13.7c-.182671.789228-.0384 1.618785.4 2.3.5.6 1.3 1 2 1h7c.7 0 1.5-.4 2-1s.6-1.5.4-2.3l-3.4-13.7c-.318865-1.11625-1.3391-1.885857-2.5-1.885857s-2.181135.769607-2.5 1.885857z" fill="url(#t)"/></g><path d="m50 240.9s-36.5 31.8-48.5 25.8c-4.3-2.2 2-6.1 3.7-9.2 1.6-3-1.4-5.2 5.7-9 6.7-3.5 13.6-6.6 20.6-9.3l5-1.2 2 .8 6.8-.3 4.7 2.5z" fill="#e8eaed"/><path d="m42.6 212.8s-1.6 0-1.8-.9c0-1 0-2 .2-2.9.2-1.4.1-2.8-.2-4.1-.7-1.6-1-3.4-.7-5.1.2-2.1-.2-5.3 0-5.3 1 .6 1.8 1.3 2.5 2zm7.7-27.4-.3-.7c.6-1 1-2 1-3 .2-2-4.7 0-4.7 0s1.5.9-1 4c-2.7 3.2 6 2.3 5-.3z" fill="#bc864b"/><path d="m51 182.5.3-.3c.6569208-.744673 1.0133655-1.707073 1-2.7-.1-1.3-.3-2.8-.7-3-.6-.3-3-1.4-7 1.2-.5.3-.6.9-.4 1.4l.1.4c-.2.3-.4.7-.4 1 0 .5.4.7.6.7.5 0 .3 1 .3 1s-1.3.9-.7 1.7c.1502657.209432.3922373.333631.65.333631s.4997343-.124199.65-.333631c0 0-1.1 1.3-.6 1.6.5.2 1.6-.7 2-2 .4-1.2 1.1-1.5 2-1.3.6.2 1.4.3 2.1.3z" fill="#202124"/><path d="m48.1 176.1c1.3-.2 2.6.2 3.6 1 .9.4.7.4 1.3.5 3.8.9 7.5 2.5 7.6 3.6.1 1-1.4 5-4.3 7.1-2.8 2.2-2.4-1.8-.8-3.5.7-.7 1.3-1.4 1.8-2.3-1.1-.7-1.8-1.7-3.2-2.3-2.7-1.1-3.2-.5-5.2-1.3-2-.9-2.8-1.6-.8-2.8zm3.5 53.1-.1 5.1c0 1.2 0 2.4.2 3.6 0 .7-.4 1.3-1 1.4l-.6.2c-.6.2-1.1 0-1.5-.3l-.3-.3.1-1 1-.5c-.9-2.3-1.2-4.7-.9-7 .6-3.8 3-1.2 3-1.2z" fill="#bc864b"/><path d="m50.9 232.2c-.6 4.9.2 6.2.6 6.5.2-.2.2-.5.2-.8l-.3-3.6.1-4.1c-.4.6-.6 1.3-.6 2z" fill="#e3a85e"/><path d="m50 239.5.7-.2c.6-.1 1-.7 1-1.4v-.9l-.5 1.5c-.2.4-1.7.7-1.7.7l-.2.3h.8z" fill="#3c4043"/><path d="m48.8 241.4c1.5.1 1.9-1.9.7-2.2-1.4-.4-2.8-.6-4.2-.7-.5.2-1.2 1-.8 1.4.3.5 1.5 1.2 4.3 1.5z" fill="#3c4043"/><path d="m48.7 240.7h.3c.3038091.006152.5939335-.12617.7884672-.359611.1945338-.23344.2723694-.54267.2115328-.840389-.3577963-1.438593-.5258888-2.917806-.5-4.4.4-2.5.5-5 .4-7.5-.2-1.8-4.6 1.7-3.4 5.2s1.5 4.4 1.3 5c-.1.6-1.3.8-2 .9-.3 0-.6.3-.6.6s.2.6.5.7z" fill="#bc864b"/><path d="m50 239.5c-.3577963-1.438593-.5258888-2.917806-.5-4.4l.4-4c-.3674838.110297-.6394597.421127-.7.8-.3 1.6-.4 3.2-.3 4.8.2142485 1.22994.549201 2.435769 1 3.6 0-.2.2-.5.1-.8z" fill="#e3a85e"/><path d="m57.8 212.5c-3.5-6.4-3.8-5.8-3.8-5.8s-1.2-10.4-1.2-11.7c0-2.7 2.7-4.8 3.8-6.2.2-.3.3-.8.3-1.2l-.6-3c-.0433419-.140033-.1459504-.253992-.2806848-.311735-.1347344-.057744-.2880213-.053454-.4193152.011735l-2.6 1.3c-.4.2-1 .2-1.4.1l-1.3-.3h-5.5l-2.5.9c-1.3504344.421874-2.3285631 1.595628-2.5 3l-.6 5.1c0 .5.3 1 .7 1.2l2.7.9 1.1 3.8s-2.5 6.5-1.1 12.4c1.4 6 2.2 11 2.2 11-.3925064 1.808595-.2179113 3.694222.5 5.4.6 1.7 1.1 3.4 1.4 5.1 0 0 6.3-2 7.6-3.8 1.3-1.7 1-2 3.2-2 1.3-.2 2.6-.5 3.8-1 0 0 0-8.5-3.5-14.9z" fill="#c5221f"/><path d="m52.9 194.2c.4-2.3 2.7-4.1 3.7-5.4.2-.3.3-.6.3-1-.7.7-1.7 1.6-2.5 2.1-1.2 1-2.3 3.3-1.5 4.3z" fill="#d93025"/><path d="m33.2 239.6c.5 1.3-.6 1.3-1.2 1.2l-2.7-.6s-.4-1 .4-1.2c.7122621.02552 1.4233739-.076068 2.1-.3 1-.4 1.4.9 1.4.9z" fill="#3c4043"/><path d="m31.8 239.7c-.1079157-.02342-.2013484-.090411-.2581631-.185102-.0568146-.094691-.0719559-.208657-.0418369-.314898v-3.5l-.4-5.2 2.6 1-.2 3.6v.3c.2.5.2 1 .1 1.6l-.4 2.6h-.2c-.3.2-.7.2-1.1 0z" fill="#e3a85e"/><path d="m37.4 237c.5 0 1.3-.2 1.3.6 0 .7 0 1.9-1 1.9s-1.3-.7-1.3-1.5c0-.9.5-1 1-1z" fill="#3c4043"/><path d="m36.8 238.1-.4-4.4.4-4.6h3.2l-1.5 4.4c.4.8.4 1.8 0 2.7l-.3 1.9c0 .414214-.3357864.75-.75.75s-.75-.335786-.75-.75z" fill="#e3a85e"/><path d="m33.7 232.5-2.8-1c-.1980788-.064003-.3573967-.212843-.4347063-.406117-.0773096-.193275-.0645899-.41093.0347063-.593883l1.5-5.2 9 .7v5.1c0 .4-.3.6-.6.6l-4 .1v-2.3c0-.2-.1-.4-.3-.4-.1184107-.070516-.2606765-.089029-.3931909-.051168s-.2435252.12874-.3068091.251168z" fill="#3c4043"/><path d="m42.1 211.4-.6-.5c-.0759332-.0861-.1851998-.135425-.3-.135425s-.2240668.049325-.3.135425l-.5.7c0 .1-.1.3 0 .4l1 4.3 1.2 1.2c.3-1 .4-2 .4-3-.2-1-.7-1-.6-2.1.1-.4 0-.8-.3-1zm-3.8.8-.7-1.1c-.1018576-.11388-.1018576-.28612 0-.4.8-.7 1.2-1.7 1.2-2.8-.3-1.6-5.4-.8-5.4-.8l-.2 2.2c0 .7.5 1.4 1.2 1.6l.4.1-.6 1.8z" fill="#e3a85e"/><path d="m38.5 209.4-.7.5c-.4.3-1.7 1-.3 2.1l.4.3.4-.1-.7-1.1c-.1018576-.11388-.1018576-.28612 0-.4l1-1.3z" fill="#ffc275"/><path d="m38.2 211.5c-.5.3-1 .4-1.5.4l-1-.1h-1.3c-1.5 0-2.8 1-3.3 2.4l-.9 4.7s.7 1.7 2.5.3c-.0122254.856915-.1817025 1.7043-.5 2.5-.6415667 1.504604-1.2089156 3.039783-1.7 4.6 0 .2 0 .4.2.5 1.5591784.675802 3.2108724 1.114007 4.9 1.3 2.4 0 6.2-.3 6-2.6-.3-2.3-1.4-4-1.4-5.5v-1.3l1.4.1s2.1-1 1-2c-1-.7-1.8-3.2-2.2-4.4-.1102974-.367484-.421127-.63946-.8-.7z" fill="#4285f4"/><path d="m41.6 225.5c-.2-2.2-1.2-4-1.3-5.3-.3.3-.5.7-.4 1.1l1.3 5.5c.3-.4.5-.8.4-1.3zm-7.2-13.7c-1 0-2 .4-2.6 1.2.9-.1 1.8-.4 2.6-.8.3 0 .5-.2.8-.4z" fill="#d2e3fc" opacity=".5"/><path d="m37.9 205c-1-.2-3.3-.9-4.9 1.2 0 0-1.5 1 2.8 2 4.4 1.1 3.6-.7 3.7-1.2.0194714-.965522-.6537536-1.807053-1.6-2z" fill="#185abc"/><path d="m54 206.7s-1.2-10.4-1.2-11.7v-.8l-1.3 1.4c-1.5 2 1.7 7.4 0 11.8-1.4 3.7-.2 19.9.2 24.8.9778003-.421027 1.861733-1.03298 2.6-1.8 1.3-1.7 1-2 3.2-2 1.3-.2 2.6-.5 3.8-1 0 0 0-8.5-3.5-14.9s-3.8-5.8-3.8-5.8z" fill="#ea4335"/><path d="m55.1 219c-.0828428-.441828-.5081722-.732843-.95-.65-.4418277.082843-.7328426.508172-.65.95l.8 11.1c1.3-1.7 1-2 3.2-2l.6-.2z" fill="#d93025"/><path d="m39.7 189.3-.5 5.2c0 .5.2 1 .7 1.1 0-2.1 0-6.8.4-7.2.4-.3 3.7-.3 4.5-3l-2.6.8c-1.3810564.436352-2.3661345 1.657849-2.5 3.1zm9.3-2.9c1 .5 3.6.7 4.6 0 .7-.5 2.1-.9 2.7-2-.1656854-.220914-.4790861-.265685-.7-.1l-2.6 1.2c-.4.3-1 .3-1.4.2l-1.3-.3h-.8c-.5.4-.8.8-.4 1z" fill="#ea4335"/><path d="m53 177.6c-.6-.1-.4 0-1.3-.5-1-.8-2.3-1.2-3.6-1l-.6.4c1 0 2 .3 2.8.7 1 .7 2.9 1 4.8 1.5 1.9198185.585042 3.7654414 1.390404 5.5 2.4-.2-1.1-3.8-2.6-7.6-3.5z" fill="#e3a85e"/><path d="m39.5 206.9c.0194714-.965522-.6537536-1.807053-1.6-2h-.1c-1-.2-3.3-.8-4.8 1.2 0 0-.8.5.4 1.2.6570938-.280682 1.1145312-.890599 1.2-1.6 0-.2.1-.3.3-.4 2.4-.5 2.7.1 3.6.7.5.5.9 1.1 1 1.8z" fill="#4285f4"/><path d="m40.4 212.4c-.1102974-.367484-.421127-.63946-.8-.7l-1.4-.2c-.3.2-.6.3-1 .3l.3.2c1.4 1.1 2-.1 2.5 1 0 0 .5-.2.4-.6z" fill="#d2e3fc" opacity=".5"/><path d="m96.6 229.2s-15 9-9.2 11.5c5.5 2.3 19.1 1.2 24.1-10.2-10.9-5.5-15-1.3-15-1.3z" fill="#e8eaed"/><path d="m136.4 226c0 1-.6 1.9-1.5 2.3-1.4.5-5.4 0-8.6 1.4s-3 6.9-15.3 5.3c-12.2-1.6 1.3-10.7 1.3-10.7l9.3.8s-.8 1.3 2.4 1.8c2.4.2 4.8 0 7-1z" fill="#e8eaed"/><path d="m125.8 219c-.2 1.4.5 2.8 1.8 3.4 3 1.6 3.3 3.6 3.3 3.6h5.5s-.2-1.3-.9-1.4l-2.2-.6c-.8-.2-1.4-.7-1.8-1.4l-3.1-6.5c-.276909-.571345-.77768-1.002809-1.383691-1.192187-.606012-.189379-1.263351-.119824-1.816309.192187-1.6.8-3.1 2-4.4 3.2-2.4 2.7-8 7.2-8 7.2s4.8 2.6 8 0c2-1.8 3.7-4 5-6.5zm-4.9-13.6c-1.22962-1.363041-3.272697-1.618426-4.8-.6-2.5 1.8.3 4.7.3 5.4 0 .4 2.2 1.2 2.2 1.2v-.3l2-.5s.9-1.4.3-5.2z" fill="#8d6e63"/><path d="m118.3 211.3.3.1v-.2zm2.3-5.1c.3 1.5.2 3-.3 4.5h.2s.8-1.3.5-4.5z" fill="#a48b82"/><path d="m121 205.2s-2.3-2.3-5-.5c-2.3 1.6-.2 4.2.3 5.3.4-.3.8-.6 1-1 .2-.2.2-.6.1-.8-.5-1 0-1.5.4-1.6.4 0 .6.8.6.8h.5v-.9c-.006152-.303809.12617-.593934.359611-.788467.23344-.194534.54267-.27237.840389-.211533l.9.2z" fill="#202124"/><path d="m121 205.2s-2.3-2.3-5-.5l-.1.1c2.6-1.7 4.9.6 4.9.6v.3h.2z" fill="#3c4043"/><path d="m117.5 218.1c1.7-1.7 1.7-5.5 1.7-5.5l-.5-.8.2-.2-.3-.1-2.2-1.2-.6-.4-.7 1.2c-1.907897 1.117874-3.22525 3.020717-3.6 5.2-.3 2.6.1 8.8 1.4 9.2 1.2.4 5-3.9 5-3.9s-.9-2.9-.4-3.5z" fill="#34a853"/><path d="m117.4 218.5c-.4.3-.6.7-.6 1.2 0 1 .3 2.2.6 2.3 0 0 .3-.1.5-.4-.4-1-.5-2-.5-3z" fill="#ceead6" opacity=".5"/><path d="m121.5 217.7 3.4 3.9s-4.4 8.5-12 3.9c0 0 1.5-1.9 8.5-7.8zm-30.2.6h7.6c.9 0 1.6.7 1.6 1.6v7h-10.9v-7c0-1 .8-1.6 1.7-1.6z" fill="#5f6368"/><path d="m100.5 226.9h-10.9l-5.2 3.9c-.7.5-.5 1 .4 1h7.6c1-.1 2-.4 2.9-1l5.2-4z" fill="#e8eaed"/><path d="m112 228.3h3.8c.5 0 .9.3 1 .8 0 .552285-.447715 1-1 1h-1.3l-2.6.5c-.552285 0-1-.447715-1-1v-.1c0-.3 0-.6.2-.8l.3-.2c.2-.2.4-.2.7-.2z" fill="#3c4043"/><path d="m104.6 225.6 4-.6c1 0 2.6-.4 3.8-.7.938884-.358985 1.991015.111116 2.35 1.05s-.111116 1.991015-1.05 2.35c-.6.5-1.3.8-2 1.1-2.7.8-10.8.7-10.8.7s-1.4-3.5 3.7-3.9z" fill="#174ea6"/><path d="m107.2 226c0-.7.9-.9.9-.9l-3.5.6-1 .1-.2.5s3.9.4 3.8-.3z" fill="#185abc"/><path d="m107 214.2c1 1.2 1.5 2.7 1.5 4.3 0 1.5.4 3 1.2 4.3l4-.2.6 1c-1.8.8-3.7 1.3-5.6 1.5 0 0-.8-.2-1-.8l-2.3-8z" fill="#f9ab00"/><path d="m95.1 226.4c0 2 1.7 3.7 3.7 3.7 3.7.2 6.8-1.4 4.9-4.6-2-3.1-8.9-2-8.6.9z" fill="#185abc"/><path d="m95.1 226.4c.3-.6 1-1 1.7-.9 1.3.1 4.4.7 6.9 0-1.046645-1.481461-1.124974-3.439674-.2-5 .8 0 1.5-.4 2-1 .6-1.8 1.1-3.5 1.5-5.3 0 0-2.3-2.5-4.6-2.6s-4.2-.2-5.4 4.3c-1.2 4.6-.4 4.3-1.2 6.3-.7 2-1 3-.7 4.2z" fill="#4285f4"/><path d="m101.7 213c0-.7-.4-1.2-1-1.4-1 0-1.8.6-2.4 1.4.1.8.9 1.4 1.7 1.3.9.1 1.6-.5 1.7-1.4z" fill="#d2e3fc" opacity=".5"/><path d="m112.2 219.2h-2.8c-.3 0-.6.2-.9.4l-1.7 1.6s-4.3 1.2-6.3.7l.3-2.4c-.2-1-.2-2 0-3 .3-.5 1-2.4.4-3.5-.6-1-2.3-.8-3 .5s-.6 2.2 0 2.7c0 0-1 5 .5 8.1.2.3.5.4.8.4l1.8-.3c2-.2 3.9-.8 5.6-1.7l1.1-.4c.2-.1.5-.2.6-.4l1.3-1.3 1.8-.6z" fill="#fbbc04"/><path d="m108.5 219.6-1.7 1.6s-4 1.1-6.1.7c0 .2 0 .5.7.6 1.8 0 3.5-.2 5.2-.7.9-.4 2.4-1.9 3.2-2h2l.4-.5h-2.8c-.3 0-.6 0-.8.3z" fill="#ffd047"/><path d="m112 218.6h4.3c.165685-.082843.367157-.015685.45.15s.015685.367157-.15.45l-2.6 3.7-.3.1-4.5.2c-.165685.082843-.367157.015685-.45-.15s-.015685-.367157.15-.45l2.7-3.8.3-.2z" fill="#202124"/><path d="m113.3 223.2 1 .5h.4l.2-.1c.4-.7.6-1.4.8-2.1v-.2l-.6-.5c-.0514-.034414-.115833-.043108-.174516-.023547s-.105012.065175-.125484.123547v.1c-.1.1-.1.2 0 .2l.2.4-.7-.4c-.037967-.04305-.0926-.067712-.15-.067712s-.112033.024662-.15.067712l-.1.3v.2l.3.4-.7-.2c-.110457-.055228-.244772-.010457-.3.1s-.010457.244772.1.3c.110457 0 .2.089543.2.2s-.089543.2-.2.2h-.1c-.138071 0-.25.111929-.25.25s.111929.25.25.25z" fill="#fbbc04"/><path d="m97.8 225.7 3.3-.5c1.2-.4 2.4-.2 3.5.4l4.7 2.9c.5.3 1.1.5 1.8.5 0 0 .8.2.4 1.5-3 .5-6.2.5-9.3.2-4-.5-7.1-2.6-4.4-5z" fill="#185abc"/><path d="m111.5 230.5c-1 .2-7-.8-7-.8l-2.6-.2c-.336212-.00884-.672196.024758-1 .1l-2.5.5h1.4c.7.3 1.6.5 2.4.6 3.1.3 6.2.2 9.3-.2z" fill="#174ea6"/><path d="m100 229.9 1.5-.2h2.8c.3 0 .5.3.6.5.134742.378968.070665.800238-.17066 1.122005s-.627803.501236-1.02934.477995l-3-.2c-.185652 0-.363699-.07375-.494975-.205025-.131275-.131276-.205025-.309323-.205025-.494975z" fill="#3c4043"/><path d="m109 208.8c-.2.7-.3 1.3-.2 2 0 2.5-.3 5-1 7.3 0 0-2 1.2-2.6-.3s-.6-9.6-.6-9.6 4.2-2.4 4.4.6z" fill="#202124"/><path d="m108.3 209.4v1.4c0 2.5-.2 5-.9 7.5.2 0 .3 0 .5-.2.791288-2.79378 1.095733-5.702927.9-8.6z" fill="#3c4043"/><path d="m104.9 212.8 1.5.2c.3 0 .6 0 .8-.2.8-.7 1.4-1.6 1.6-2.6l.5-.9c.2-.6.2-1.2 0-1.8-.271373-.787637-.84834-1.432903-1.600839-1.790339-.752499-.357437-1.617193-.396961-2.399161-.109661-2.3.8-2.4 6.8-.4 7.2z" fill="#fbbc04"/><path d="m109.8 207.9s-.7 1.3-4.5 1.1c0 0-.6 7 1.3 11.6 0 0-2 .8-3 .2s-1.6-4.5-1.3-8.5c.02501-.251817-.087838-.497526-.295149-.642644-.207312-.145118-.476805-.167047-.704851-.057356.8-.6 1.4-1.4 1.7-2.4.4-1.4.6-4.2 3.5-4.3 2.8-.2 3.3 3 3.3 3z" fill="#3c4043"/><path d="m124.8 215.4c.552958-.312011 1.210297-.381566 1.816309-.192187.606011.189378 1.106782.620842 1.383691 1.192187l3.2 6.5c.3.7 1 1.2 1.7 1.4l2.3.5c.4.1.7.8.8 1.1h.4s-.2-1.3-.9-1.4l-2.2-.5c-.8-.2-1.4-.7-1.7-1.4l-3.2-6.5c-.276909-.571345-.77768-1.002809-1.383691-1.192187-.606012-.189379-1.263351-.119824-1.816309.192187-.134617.098278-.267961.198286-.4.3z" fill="#a48b82"/><path d="m116.5 214.4 6.4 1.6c2.2.5 4.4.8 6.7 1 2-.1 2.6.7 2.6.7h.3c.6 0 1-.5 1-1 .030908-.353354-.096094-.702279-.346907-.953093-.250814-.250813-.599739-.377815-.953093-.346907h-2c-1-.2-2-1.4-4.5-1.4-2.5.1-6.5-2.6-8.2-2.4-1.6.3-2.3 1.4-1 2.8z" fill="#8d6e63"/><path d="m132.2 215.4h-2c-1-.2-2-1.4-4.5-1.4-2.5.1-6.5-2.6-8.1-2.4-.6 0-1 .3-1.5.7l1.1-.4c1.6-.2 5.6 2.5 8.1 2.5 2.5-.1 3.5 1.1 4.6 1.3h2c.71797 0 1.3.58203 1.3 1.3 0 .2 0 .4-.2.6.4-.2.6-.6.6-1-.025525-.345172-.187642-.665915-.450431-.891163-.26279-.225249-.604554-.336404-.949569-.308837z" fill="#a48b82"/><path d="m121.1 212.7c-1.4-.6-2.8-1.2-3.6-1-1.6.2-2.6 1.6-1.4 3l4.1 1 1-3z" fill="#34a853"/><path d="m117 211.8c-.338493.085271-.648774.257649-.9.5 1.6-1 3.5.2 5 .8v-.4c-1.4-.6-2.8-1.3-4.2-1z" fill="#ceead6" opacity=".5"/><path d="m106.5 204.9c-1.260902.011969-2.379737.811137-2.8 2 .8-.7 1.9-1.1 3-1.2 1.7.1 2.2 2 2.3 2.8.3-.1.6-.3.8-.6 0 0-.5-3.2-3.3-3zm-1.2 4.1c-.992908 3.904002-.783781 8.016847.6 11.8l.7-.3c-1.8-4.4-1.3-11-1.3-11.5z" fill="#5f6368"/><path d="m98.3 213.2c.2975849.686506.9534773 1.149489 1.7 1.2.5 0 1-.3 1.4-.7l-.2-.7c-.6-1-2-.8-2.9.2z" fill="#ffd047"/><path d="m109.2 228.4-4.6-2.8c-1-.6-2.3-.8-3.5-.4l-3.2.5c-.2.1 0 .4.6.3l2.1-.3c1.282797-.344705 2.650034-.164805 3.8.5l3.8 2c.3.2.7.2 1 .2z" fill="#1a73e8"/><path d="m802.5 267.7c.7 2.6-3.2 7.3-3.6 6.8.5.2 5.6 2.3 3.6 3.3-4 1.8-24.5-7.7-25-8.8 0-2.1 6.4.4 7.1.7-3.7-6.5-10.4-8.9-15.9-13.6-2.2-2-4-4.4-6.3-6.4-1.4-1.2-4.3-1-5.4-2 10.5-3.3 15.5 8.1 24.8 12-3.5-4.4-6.2-9.2-11.1-11.8 4.1-2.3 5 .4 7.5 2 4.7 3.2 7.2 8.2 11.8 11.5 2.3 1.7 12.5 4.2 12.5 6.3zm-10.3 7 3.5-9.2-3-1.5c1.3 2 3 3.4 5.1 4.4.4-1.6-.1-2-2-2.9z" fill="#e8eaed"/><path d="m770.5 246h-.3c-.377792-.012052-.739181.1546-.975305.449756-.236125.295155-.319383.684312-.224695 1.050244l.2.7.2.1c.9.4 1.6 1 2 1.9.3.5.9.8 1.4.8h1.5c.4 0 .7-.3.7-.7v-1.4c0-.5-.3-1-.8-1.2zm-11 0-1.3 1h-.5c-1 0-1.7.8-1.7 1.8 0 0 .7 1.2 3.7 1.5l2.4.7 1.9-.5v-2.2c0-.3-.2-.6-.5-.8z" fill="#3c4043"/><path d="m777 211.8s-.6.6-1.5-.3c-1-1-.1-1-.1-1l2.4-4.6 1-4.4s-2-2.6-2.3-4.1c-.2-1.5 1.8-7.4 1.8-7.4l4.4 10.7c.5 1.3.4 2.8-.4 4-1.591526 2.467332-3.327905 4.838156-5.2 7.1z" fill="#dadce0"/><path d="m779.6 201.6c-.2-.3-.4-.5-.8-.6l.1.1c-.2 1.5-.5 3-.9 4.4l-2.6 4.6s-1 0 0 .9c5.8-5.3 4.6-8.7 4.2-9.4z" fill="#f8f9fa"/><path d="m774.7 248-1.2-.2c-.4-.1-.8-.4-1.2-.7l-1.2-1.3v-2c0-.1 0-.3.2-.4.3-.3.4-.7.2-1.1-.2-1-.9-2 0-9.7 0 0-1-4.2-1.7-13.5-1.598965 2.730599-3.002478 5.571042-4.2 8.5 0 0 0 1.1-.3 1.5-.870244 5.958268-1.104894 11.992143-.7 18-.1.3-.3.5-1.6.6-1.4.2-2.7-.6-3-2 0 0 0-4.9.3-6.5.1-3.4.1-6.9-.1-10.3.671271-6.077703 1.944178-12.073766 3.8-17.9 1.6-3.6 12.7-1.3 12.7-1.3.6 2.4.3 5-.8 7.2.2 3.3.3 6.6.1 10 0 0 1.4 6.6.7 11-.8 4.3-1.5 5-1.2 5.5.4.5 1.3.8.2 2.4-.3.5-.4 1-.3 1.7 0 .1 0 .3-.2.4h-.5z" fill="#174ea6"/><path d="m767 184.5v.2c-.8.5-1.4 1.3-1.7 2.1-.3 1.4-2.3 2.2-2.3 2.2l-2-1c.7-1 1.3-2.3 1.7-3.6.1-.3.4-.5.6-.5h1.3l.8-.8h.3l.2.4-.6 1.5.9-.7c.2-.1.5 0 .7.2z" fill="#795548"/><path d="m768.1 176c-.7.8-1.2 1.6-1.5 2.6 0 .2 0 .5.2.7.2.4-.4.7-.5 1l-.3 2.7c0 .5.3 1 .8 1.1l.6.2c.4.1.8.5.9 1l.2.7 5.5-.6s-1.1-.2-1-2.2c0-2 1.7-4-.2-5.9-1.8-1.7-4.7-1.2-4.7-1.2z" fill="#795548"/><path d="m767 179.7v.3l.5-.3.5-.1-.4-.6z" fill="#8d6e63"/><path d="m769 176h-1c-.675979.736503-1.15722 1.630236-1.4 2.6 0 .3 0 .6.2.8.2.4-.4.8-.5 1l-.3 2.7c0 .4 0 .7.3.9.2-1 .3-1.8.3-2.8.2-.9.7-1.1 1.2-2.2z" fill="#8d6e63"/><path d="m767.1 177.8.6-1.1c.1-.2 0-.3 0-.4l-.1-.3v-.3c1.6-1 3.7-1 5.1.3 3 2.5-.3 8-.3 8h-1.1c-1.1 0-2-.9-2.2-2v-.4c-.112455-.657305-.38746-1.276066-.8-1.8l-.3-.2c-.2 0-.3 0-.4.2l-.2.6-.4-.8.2-.8c-.178633-.309401-.178633-.690599 0-1z" fill="#000"/><path d="m776.5 209.4s-4.8 2.5-12.7 1.3c-.3-.9-.4-1.8-.5-2.7 0-1 .8-4.9.6-6.4l-1.9-12.2 5-3.2c2.824444-1.845026 6.545272-1.514285 9 .8l2.6 2.5s1.7 4-1.7 9.7c0 0-1.3 1-.4 10.2z" fill="#dadce0"/><path d="m766 183.3-.2-.3h-.4l-.8.8h-1.3c-.3 0-.6.1-.7.4l-1.6 2.8.6-.1s1.2-2.4 1.7-2.5 1.5 0 1.8-.3z" fill="#93756b"/><path d="m763 188.5s0-1-2-1.5l-2.2 3.7c-1 1.6-3.8 4.4-2.4 6 1.1 1.4 4.9-2.6 4.9-2.6z" fill="#f8f9fa"/><path d="m767 186h-.3c-1.573787 0-3.055728.740971-4 2-1.158902 1.799025-2.499247 3.474456-4 5l-1.8 1.3c-.833401.587095-1.091858 1.707076-.6 2.6.2.5.7.9 1.2 1 .537769.160806 1.118361.088232 1.6-.2l5-3.4c1.792166-1.17053 2.880486-3.159529 2.9-5.3z" fill="#dadce0"/><path d="m770.9 185c-1.406862.008566-2.786585.38799-4 1.1h-.2c-1.573787 0-3.055728.740971-4 2-1.208376 1.636925-2.582307 3.144898-4.1 4.5l-1.8 1.2c-.7.5-1 1.4-.7 2.2 0-.6.4-1.1 1-1.4l1.7-1.3c1.5-1.3 2.8-2.9 4-4.5.944272-1.259029 2.426213-2 4-2 1.754529-.343652 3.490168-.777561 5.2-1.3zm11.8 15.6-4-10.8-1.7-1.8c1.881191 4.716695 3.881836 9.384865 6 14 0-.5-.1-1-.3-1.4zm-18.7-4.4c-.2-.5-.6-1-1-1.2l.8 6.8c.2 1.6-.4 5.6-.4 6.6l.1 1.6c.6-2 1-4 1.4-6 .3-2-.1-6.2-1-7.8z" fill="#f8f9fa"/><path d="m767.6 179s-.5-.5-.3-.7l1.1-1.7c0-.2-.5-.5.6-1l2-.6c-1.120459-.037527-2.22902.239614-3.2.8-.165685 0-.3.134315-.3.3s.134315.3.3.3c.1 0 .1.3 0 .4l-.7 1.2c-.2.4-.1.8.1 1.1l-.2.9z" fill="#3c4043"/><path d="m811 236.5s-.2 5.7 16.4 6.2c6.5.2 12.5 5.6 18.5 6.4 14.4 2.1 38.3-3.7 20.1-15.7l-55 3z" fill="#e8eaed"/><path d="m848.3 234.3-.1.9c0 .3-.3.5-.6.5h-4.6v-.2c0-.7.4-1.3 1.1-1.5l3.6-1 .7 1.3z" fill="#3c4043"/><path d="m848.3 235.3-2.4-2 3.1-7.3c.36293-.831225 1.132798-1.41324 2.031483-1.535788s1.796279.232086 2.368517.935788c1.1 1.4 2 3 2.6 4.7h9.6v4.2s.8 2.6-4.4 2.5c-5.3 0-8 0-9-2.6-.525927-1.08803-1.026067-2.188337-1.5-3.3l-2 4.3c-.085675.134193-.261255.178088-.4.1z" fill="#174ea6"/><path d="m856 230.2c-.6-1.8-1.5-3.4-2.6-4.8-.4-.5-1-.8-1.5-1 .4.7 1 1.3 1.4 1.8.7.7 1 4.7 2.3 5.6.6.4 1-.4 1.4-1.6z" fill="#185abc"/><path d="m847.7 226.4c.146812.355347.44339.62748.810023.743259.366634.115779.765713.063327 1.089977-.143259l6.3-3.9.9-1.8-.4-.9c-.26045-.553725-.784371-.937207-1.390923-1.018081-.606551-.080873-1.212645.15194-1.609077.618081-1.597666 1.77724-3.373652 3.38568-5.3 4.8-.5.4-.6 1-.4 1.6z" fill="#1a73e8"/><path d="m854.7 219.4 6.5-1.3c1-.2 2 .2 2.4 1 1.1 1.8 2.6 5.8 2.4 14.3 0 0 .5 1.6-4.6 1.6s-5.3-2-5.5-4c-.3-1.8 1.2-6.3-1.2-11.6z" fill="#1a73e8"/><path d="m857.4 226.2c-.089779-1.185897-.625796-2.293664-1.5-3.1.6 3.7-.2 6.6 0 8l.1.8c1-.2 1.5-4 1.4-5.7zm6.3-7c-.501842-.875338-1.515597-1.321391-2.5-1.1l-.9.2c0 .3.5 1.1 3.4 1zm-9 .2c-.527539.007514-1.030739.223171-1.4.6-1.4 1.6-2.9 3-4.5 4.3l1 .1s4-3.7 4.9-4c.8-.3 1.2 0 1.4-1.3z" fill="#d2e3fc" opacity=".5"/><path d="m854.3 217.2v-2.8c0-.6.4-1.2 1-1.4l2-.4 1.3 5.9-2.4.2c-.451451.056282-.906626-.070735-1.263705-.35264-.35708-.281905-.586267-.695173-.636295-1.14736z" fill="#ffe0b2"/><path d="m855.8 215-1.8.5.2 1.2s.1.1.2 0h.1l-.1-.8.7-.2.7-.6z" fill="#3c4043"/><path d="m854.3 214 1.8 5.4c.6-.3 1.2-.3 1.8-.1.8.3 1.7.8 1.6 3.2.1.4.5.5.8.4.013331.258585.150991.494727.369439.633739.218448.139013.490667.163703.730561.066261.944083-.472672 1.663002-1.299429 2-2.3-.111737-.914304-.535599-1.762028-1.2-2.4-1-1-1.7-2.2-1.8-3.6-.1-1.8-1-3.3-2.5-3.3-1.2-.1-2.5.3-3.4 1.2-.2.2-.3.5-.2.8z" fill="#fabb05"/><path d="m844.7 215.6h.3c.3 0 .5.3.5.5v1.2c0 .3-.3.5-.6.5h-.3v-2.2z" fill="#d9943a"/><path d="m842.4 212.5c-.7958.026084-1.548587.367457-2.092536.948918-.543948.581462-.834432 1.355312-.807464 2.151082l1 4.4h4l.8-4.4c.02711-.812831-.276952-1.601838-.842526-2.186265-.565575-.584426-1.344191-.914187-2.157474-.913735zm13 25.3v.7h-3.4c-.6 0-1.1-.4-1.3-1-.4-1.4-.6-2.8-.7-4.3 0-2.5 2 .4 2 .4l.2 3.7z" fill="#d9943a"/><path d="m811.8 235.2h4l.3-2.2-1.4-.6c-.37506-.167878-.689307-.447209-.9-.8l-.8-1.2v-.9c0-.4-.4-.7-.8-.7h-.3l-.1 2.4c0 .6 0 1.2.2 1.7l.4 1h-.8z" fill="#3c4043"/><path d="m811 236.5h4l.6-2.6-1.4-.7-.8-.8-.6-1.5v-1c.003179-.40555-.297617-.749317-.7-.8h-.2l-.4 2.8v1.9l.3 1h-.8z" fill="#202124"/><path d="m813.7 236.5.5-1.5c.2-.6.8-1 1.4-1l19.7-1.4-.8 5-9.7-1c-.8-.2-1.7-.2-2.6-.2h-8.5z" fill="#174ea6"/><path d="m832.5 231s-2.2.2-4 0c-1.243393-.081091-2.479682-.248157-3.7-.5h-1.3l-8 2c-.2 0-.4.3-.3.6l.5 2.2 6-.3c1.295106-.076222 2.591383.128453 3.8.6 3.1 1.3 6.4 2 9.8 1.9 5.6-.4-2.8-6.4-2.8-6.4z" fill="#185abc"/><path d="m851.7 233.8c.6-.2.9-.8.7-1.3l-1.3-5.6c-.5-1.8-1.2-3.6-2.1-5.2-.3-.6-.8-1-1.5-1.2l-1.7-.5v-.1c-.135747-.433309-.5464-.720766-1-.7l-5.7.5v.8l-1.3.8c1.2 1.7 1.1 4-.2 5.6-1.446518 1.867788-3.496525 3.175551-5.8 3.7l2.7 7s7.4-.5 8.8-2c1.1-1 3.6-6 4.6-8.2l1.4 6c.06466.322766.270471.599611.560923.754519s.635014.171595.939077.045481l1-.4z" fill="#5f6368"/><path d="m849.8 223.4-.9-1.7c-.3-.6-.8-1-1.4-1.2l-1.6-.5c.3.6.9 1 1.5 1.3.9.2 2.4 2 2.4 2.1z" fill="#80868b"/><path d="m833.3 239.6 2.4.5c.6 0 1.1 0 1.5-.3l1-.7c.601037-1.736498 1.101861-3.506078 1.5-5.3 0-.6-2.3 1-2.3 1l-.9 3.7-3.2.4z" fill="#d9943a"/><path d="m837.8 221.3c-.5.5-.8 1.1-.8 1.8l-.4 10.5c.011579.409275.215294.789179.549792 1.025295s.760686.30085 1.150208.174705l1-.3c.5-.2.9-.6.9-1.2 0-3.3 0-6.6-.5-10z" fill="#5f6368"/><path d="m839.6 215.6h.5v2.2h-.3c-.257604-.04032-.45968-.242396-.5-.5v-1.3c-.00592-.187107.11872-.353294.3-.4z" fill="#d9943a"/><path d="m845.3 215.2c-.2-1.6-.2-3-3-3-3 .1-2.8 1.5-3 3.2l.2.2c0 1.7 1.5 3 3.2 3 1 0 2-.6 2.4-1.7l.2-.9z" fill="#4e342e"/><path d="m839.5 214.6c.6-1 1.7-1.6 2.9-1.7 1-.2 2 .2 2.7 1-.2-1-.8-1.7-2.7-1.7-2.5.1-2.8 1.1-3 2.4z" fill="#83675d"/><path d="m842 220.6c-1 0-2 0-2.9-.2-1 .8-2 1.3-2.1 2.7v2l-.3 7.2c0 .9-.3 2 .7 2.5.9-1.7.8-4 .9-5.8s-.6-4.2.3-6c1.137688-.451822 2.240655-.986594 3.3-1.6.3-.2.8-.6.1-.8z" fill="#80868b"/><path d="m858 212c-1.3-.1-2.6.3-3.5 1.2-.2.2-.3.5-.2.8l.4-.3c1-.7 2-1 3.1-1 1.2-.2 2 1 2.5 2-.2-1.6-1-2.7-2.4-2.7zm3.1 5.6.7 1.8 1.6 2c-.089099-.949764-.514692-1.836417-1.2-2.5-.383123-.392651-.718759-.828978-1-1.3z" fill="#fde49d"/><path d="m899.7 222.3s30.8 14.7 35.3 12.6c4.5-2.2-.9-17.7-31.4-23.3l-2.6-.6z" fill="#e8eaed"/><path d="m898.7 217.4h-.2c-.6-.2-.7-.6-.2-3.5.776343-4.531049 1.845245-9.007079 3.2-13.4.8-2.8 1.1-3.2 1.8-3 .6.2.7.6.2 3.5-.776343 4.531049-1.845245 9.007079-3.2 13.4-.8 2.4-1.1 3-1.6 3z" fill="#202124"/><path d="m903.6 199.7h-.1c-.107916-.02342-.201348-.090411-.258163-.185102s-.071956-.208657-.041837-.314898l1.6-6c.082843-.220914.329086-.332843.55-.25s.332843.329086.25.55l-1.6 5.9c0 .2-.2.3-.4.3z" fill="#bdc1c6"/><path d="m903.1 192c.7.4 1.5.4 2.2 0 1-.5 1.5.4 1.4 1.1 0 .8-1.9 1.2-3.4.7-1.5-.6-.2-1.7-.2-1.7z" fill="#202124"/><path d="m904 192.6h1.6s.8 7.8.7 9.9c-.1.6 0 1.3.3 2v4.4c.1 1.8.7 5 .5 5.2-.4.2-.7.7-.7 1.1.2 1 .2 2 .1 3l-.2.5-.2 1.4v.1h2.6l.3-.8-.2-2.3-.2-.8.4-.3v-.8c0-.4 0-.9-.4-1 .4-2 .7-3.9.8-5.8.3-4-.7-6.2-.4-7.9.583525-2.808318 1.01747-5.645648 1.3-8.5 0-1.3 0-3.3-5-4-5-.6-6 1-5.8 3.3.3 2.3 1 4.3.6 5.5l-1.9 4.5c-.3 1-1.1 6.5-1.1 6.5l-.4.5v1.7l-1 1.3-.3 1v.4l2.8.4.7-3.2.2-.3c.2-.4.2-.8.1-1.2l-.2-.6 2.2-5.7c.4-1.2.2-2 .8-2.8s1.2-1.2 2-6.7z" fill="#3c4043"/><path d="m901.6 198c.719165-2.157877 1.287205-4.36321 1.7-6.6l-3.8-.3v.2c.2 2.2 1 4.3.6 5.5l-1.9 4.5c-.4 1-1.1 6.5-1.1 6.5l-.4.5v1.7l-1 1.3-.3 1 1.7-.1s.2 0 1.1-4.6c.7-3.3 1.9-6.6 3.4-9.6z" fill="#5f6368"/><path d="m914 183.7-3.1-9-4.8-2.2-2.7-.4-3.3 1.1s-.6.4-.8 2c-.2 1.5-1.2 6.9-1.4 7.2-.1.2-1 .8.4 4.1l1.6-.4c-.355494 1.880402-.556167 3.786792-.6 5.7h5.4c1.4.1 4.7 2.9 5.3 2.8.6 0 1.4-1.2.7-4l-1-4.2.6-5.2 1.9 3.6.5 2.1.6-.3h1l-.3-3z" fill="#4285f4"/><path d="m910.8 174.6-1.6-.7 1 1.4 1 .6zm-5.2-2.1-.3-.1-2-.3-3.2 1.1s-.6.4-.8 2c-.2 1.5-1.2 6.9-1.4 7.2-.1.2-1 .8.4 4.1l1.6-.8c0-.8-.1-1.6-.5-2.3l-.7-.6s1.4-8.1 1.8-8.5c.5.5 5.1-1.8 5.1-1.8z" fill="#d2e3fc" opacity=".5"/><path d="m898.5 187.8-.6.8c-.11747.213369-.153028.462275-.1.7l.2 1.5c-.00581.100384.039057.197004.119499.257335s.185759.07635.280501.042665c.558289-.202053.997947-.641711 1.2-1.2v-1.2l.6.7c.085675.134193.261255.178088.4.1l.3-.3-.8-1.3-.2-.6v-1.5c-.1025-.216524-.296638-.375719-.529045-.43382-.232407-.058102-.47862-.008996-.670955.13382-.7.6-.4 1-.4 1s.4 1 .2 1.3zm4.9-15.7-1.1.4c0 2 .5 5.6 3 5.8 2.4.2 2.7-2.8 2.7-5l-2-.8z" fill="#ffb74d"/><path d="m906.4 174.8v-2.4l-2.5.1-.9.7-.7-2.5s.7-3 1.8-3.1c1-.2 1.8-.2 2.7-.2l1.2 3s-.2 3.5-1.6 4.4z" fill="#202124"/><path d="m903.2 168.6v2.8c0 .5.2 1 .5 1.3l.7.9c.2.2.5.3.8.3s.6-.1.8-.4l.6-.8c.3-.4.5-.8.5-1.3v-3.6c-.307638-.618324-.912517-1.034178-1.6-1.1-.580145-.088056-1.169691.083103-1.612486.468141-.442794.385039-.694159.945107-.687514 1.531859z" fill="#ffcc80"/><path d="m903.2 174.6-1.5.3c-.185956.028504-.375559-.019041-.526061-.131918-.150503-.112877-.249236-.281583-.273939-.468082-.2-1-.3-3.5 2-6.5.8-1.1 1.3-1.9 2.6-1.8 2.2.1 2.2 2.4 2.6 3 .5.7 2 3.6 0 12.6 0 0-2.3.8-2.5-2.4s1.2-6.3 1.5-7.9 0-3.4-1.7-3.2c0 0-1-.3-1.2.1s.4 1.4-.1 2l-1 .7c-.1 1 0 2.1.5 3.1.029351.132875.003277.271973-.072206.385196-.075482.113224-.193852.190792-.327794.214804z" fill="#3c4043"/><path d="m904.3 201.4h-.1c-.107916-.02342-.201348-.090411-.258163-.185102s-.071956-.208657-.041837-.314898l2-8.4c.05359-.16077.188878-.280737.354904-.314712.166025-.033974.337564.023206.45.15.112435.126795.148686.303942.095096.464712l-2 8.3c-.1.2-.3.3-.5.3z" fill="#dadce0"/><path d="m908.1 193.3h-.9l-1.8-.4c-.7-.2-1.4-.5-2-1l-1.5-1.4c-.552556-.428096-1.207647-.703923-1.9-.8l-1-.2c-.220914-.027614-.377614-.229086-.35-.45s.229086-.377614.45-.35l1 .1c.9.1 1.7.5 2.4 1l1.5 1.4c.5.4 1 .7 1.6.8l1.8.4c.7.1 1.3 0 2-.2l.8-.3c.7-.2 1.3-.3 2-.2l2.2.2c.248528 0 .45.201472.45.45s-.201472.45-.45.45l-2.3-.3c-.5 0-1 0-1.6.2l-.9.4z" fill="#dadce0"/><path d="m913.4 191.1.3.6v.4l-.9 1s-.3 1.2.7 1.5l.7-.4c.3-.2.6-.5.7-.9l.3-.5v-.4c-.364543-.749636-.568886-1.567007-.6-2.4l-.3-3.4c-.330986-.055947-.669014-.055947-1 0-.228576.027934-.440507.1339-.6.3l.6 2.8v1.4z" fill="#ffb74d"/><path d="m899.3 214.2-4-.8c-.220914-.055228-.355228-.279086-.3-.5s.279086-.355228.5-.3l3.9.8c.220914 0 .4.179086.4.4s-.179086.4-.4.4zm5.2-5.2 1.6.4c.24045.041715.448709.190901.565569.405144s.129538.47011.034431.694856l-.1.3c-.2.4-.6.6-1 .5l-1.6-.4c-.24045-.041715-.448709-.190901-.565569-.405144s-.129538-.47011-.034431-.694856l.1-.3c.2-.4.6-.6 1-.5z" fill="#bdc1c6"/><path d="m900 222.3h-.3c-.7-.1-.8-.6-.3-3.9.900547-4.968522 2.102771-9.877604 3.6-14.7 1-3.1 1.3-3.5 2-3.3.7.1.8.6.2 3.8-.900547 4.968522-2.102771 9.877604-3.6 14.7-.8 2.8-1.2 3.4-1.7 3.4z" fill="#202124"/><path d="m911.4 183.2.8 1.6.5 2 .6-.2h.3l-.2-2c0-.4-1.3-1-2-1.4z" fill="#d2e3fc" opacity=".5"/><path d="m913.6 186.6h-.3c-.228576.027934-.440507.1339-.6.3.3.9.5 1.8.6 2.8v1.4l.4.6v.4l-1 1c0 .4 0 .8.2 1.2.5-.3 1-.7 1-.9v-2.3l-.3-4.6z" fill="#ffcc80"/><path d="m905.5 166c-1.3 0-1.8.7-2.6 1.8-2.2 2.9-2.2 5.3-2 6.4 0 .2.2.2.3.2 1-.4.2-2.7.4-3.7.799278-1.640286 1.962091-3.076701 3.4-4.2.2 0 .4-.3.5-.5z" fill="#80868b"/></g></svg>