<?xml version="1.0" encoding="UTF-8"?>
<svg width="88px" height="88px" viewBox="0 0 88 88" version="1.1" xmlns="http://www.w3.org/2000/svg" xmlns:xlink="http://www.w3.org/1999/xlink">
    <!-- Generator: sketchtool 54.1 (76490) - https://sketchapp.com -->
    <title>A7384D72-44F3-4ECC-BDDE-536AB88D643D</title>
    <desc>Created with sketchtool.</desc>
    <g id="LANDING" stroke="none" stroke-width="1" fill="none" fill-rule="evenodd">
        <g id="homepage" transform="translate(-979.000000, -1004.000000)">
            <g id="no-surprises" transform="translate(979.000000, 1004.000000)">
                <circle id="Oval-Copy-2" fill="#E5EDFC" cx="44" cy="44" r="44"></circle>
                <g id="Group-3" transform="translate(14.000000, 25.000000)" fill="#0744DD">
                    <path d="M0.322389659,21.1195942 C-0.000231593292,20.6398596 -0.0432270196,20.0486259 0.0317505328,19.4463095 C0.0996969952,18.9006306 0.259234293,18.4156303 0.625037638,18.0140249 C1.1063873,17.485674 1.69575442,17.1998538 2.43432998,17.4167293 C2.93783069,17.5645378 3.27476301,17.9346712 3.60310869,18.3152136 C4.06996062,18.856484 4.54869696,19.3878352 5.02481997,19.9212681 C5.21185941,20.1308573 5.46068533,20.3077499 5.58220496,20.5481376 C5.73651561,20.8533063 6.02976806,21.00785 6.22197193,21.2649534 C6.42462909,21.5360784 6.67245946,21.7741394 6.89583657,22.0306918 C7.48669701,22.7093615 8.06785082,23.3965422 8.66648902,24.0684767 C9.25535836,24.7293287 9.86805874,25.3696074 10.4572392,26.0301532 C11.0815751,26.7300084 11.6878666,27.445416 12.3069136,28.1499247 C12.9649739,28.8987636 13.628323,29.6430716 14.2899299,30.3889103 C14.8376083,31.0064116 15.3861577,31.6231782 15.9745915,32.2856833 C16.1284666,32.1293027 16.3020661,31.9696157 16.4558789,31.7932742 C16.8987754,31.2857414 17.3306585,30.7689017 17.7726217,30.2605729 C18.3305044,29.6190696 18.8985916,28.9860159 19.4480744,28.3376549 C19.501772,28.2743434 19.502892,28.0896134 19.4493188,28.0280776 C18.5887881,27.0406266 17.7112707,26.0675645 16.8460111,25.0840934 C15.8447963,23.9462011 14.8704615,22.7847965 13.8485268,21.6652731 C13.1640222,20.915332 12.982396,20.0627699 13.1957554,19.1235679 C13.3760749,18.3296026 13.8091402,17.6947733 14.6411733,17.4154435 C15.3034646,17.1931185 15.9990448,17.4807144 16.4676389,17.9913699 C16.9911751,18.5619692 17.4950492,19.1500803 18.0024698,19.734885 C18.5691881,20.388022 19.1229643,21.0521803 19.6957803,21.7000515 C20.3583828,22.449564 21.0367896,23.1855448 21.7060498,23.9294854 C21.967009,24.2194691 22.2216216,24.5149023 22.4950875,24.8259491 C22.9751927,24.283944 23.4516268,23.7543685 23.9184787,23.2167719 C24.578779,22.4564217 25.2499681,21.7040315 25.8831395,20.9220672 C26.4651644,20.2032308 27.0699626,19.506682 27.6998363,18.8285633 C28.3752564,18.1013996 29.0330056,17.3581325 29.686337,16.6116203 C30.4510458,15.7378728 31.1991413,14.8499812 31.9609879,13.9737233 C32.7546299,13.0609724 33.5598453,12.1580184 34.3527407,11.2446552 C34.921139,10.5899263 35.4751018,9.92307386 36.0397667,9.26516096 C36.8052222,8.37335069 37.5708021,7.48160164 38.3437243,6.5960368 C38.9340869,5.91975499 39.5400051,5.25663757 40.1313633,4.58115175 C40.655024,3.98293779 41.1612625,3.36984502 41.6875987,2.77389655 C42.3814366,1.98819731 43.0630167,1.18982353 43.795619,0.440249802 C44.4123016,-0.190599579 45.5184227,-0.126002268 46.1275764,0.522113883 C46.6802325,1.11004126 47.0070227,1.79544628 46.8008188,2.63282337 C46.7828367,2.70599284 46.7704545,2.80083761 46.8024366,2.86163868 C46.8903563,3.02885694 46.7772989,3.13974388 46.7404012,3.28442962 C46.5259841,4.12462327 45.850875,4.63870765 45.3410899,5.26649555 C44.8178026,5.91075423 44.2694398,6.5356031 43.7231303,7.16137042 C43.1349454,7.83520304 42.5314539,8.49605496 41.9437046,9.17025496 C41.4113328,9.78095977 40.895761,10.4059923 40.3642604,11.0174931 C39.7965466,11.6706914 39.2172594,12.3140316 38.6460611,12.9642908 C38.1028628,13.5825881 37.564331,14.2049265 37.0224393,14.8243872 C36.410859,15.5235689 35.794363,16.218587 35.1862671,16.9207077 C34.2994164,17.9445904 33.4209657,18.9755145 32.5336173,19.9990298 C31.957939,20.6630045 31.3697541,21.3163864 30.7930181,21.9794425 C30.3114817,22.5330201 29.8417676,23.096578 29.3606046,23.6504617 C28.8953704,24.1859153 28.4196208,24.7125517 27.9532044,25.2470256 C27.4847969,25.7838262 27.0239183,26.3269947 26.5566308,26.8647137 C26.1941252,27.2818715 25.8267663,27.6948657 25.4323408,28.1428833 C26.6517061,29.5210409 27.8833913,30.9130976 29.1123387,32.3021541 C29.8282654,31.4992493 30.5135167,30.7458794 31.1809725,29.9775081 C31.7715218,29.2977362 32.3353157,28.5954318 32.9238117,27.913823 C33.5038455,27.242011 34.104537,26.5875882 34.6876197,25.9183478 C35.227147,25.2992545 35.7498743,24.6659559 36.2900238,24.0474749 C36.8841198,23.367152 37.4949535,22.7010955 38.0884273,22.0204052 C38.6171901,21.413864 39.1259797,20.7904846 39.6548048,20.1840047 C40.4809267,19.2365979 41.3166931,18.2973346 42.1481662,17.3544588 C42.8542618,16.5538807 43.5653975,15.7575275 44.2643998,14.9510714 C44.9668866,14.1407578 45.6499601,13.3141572 46.3547491,12.5058642 C47.1449067,11.5996649 47.9531087,10.7087731 48.7474352,9.80606394 C49.498393,8.95264468 50.2478574,8.09781713 50.9862463,7.23392759 C51.6344132,6.47572048 52.2535847,5.69332764 52.9085338,4.94105981 C53.8080778,3.90787021 54.7295861,2.89317197 55.6412012,1.87020772 C56.0746399,1.38392161 56.4792697,0.868980014 56.9463083,0.416370227 C57.6604306,-0.275831292 58.8085516,-0.0450566325 59.4262298,0.709782849 C60.0582812,1.48237894 60.08485,2.35753474 59.900735,3.25130436 C59.787802,3.79943244 59.3939988,4.22767282 59.0285065,4.64856563 C58.4568105,5.3070296 57.8816922,5.96273823 57.3058895,6.61783456 C56.6602736,7.35234579 56.00968,8.08263217 55.366242,8.81904152 C54.8469369,9.41327555 54.3372762,10.0156531 53.8195889,10.6112342 C53.0756622,11.4670414 52.3302422,12.3214404 51.5821467,13.173635 C50.785518,14.0809977 49.9811115,14.9818699 49.1872828,15.8915593 C48.4952493,16.6846673 47.7982381,17.4742852 47.1306578,18.2871092 C46.3565535,19.2295564 45.5257027,20.1220402 44.7181851,21.0352809 C44.0566404,21.7834463 43.4374689,22.5676761 42.7878709,23.3261281 C42.3319078,23.8585814 41.8567181,24.3749313 41.3891818,24.8977103 C41.1799913,25.1316689 40.9684986,25.3636069 40.7426948,25.6136077 C40.6915483,25.5815846 40.6203663,25.5370093 40.5490599,25.4923117 C40.540411,25.5029044 40.5316377,25.5134359 40.5229266,25.5239674 C40.576002,25.5890546 40.6290774,25.654203 40.6823395,25.7194738 C40.6782328,25.7387611 40.6791039,25.7712741 40.6690239,25.7749479 C40.358536,25.8888351 40.2686251,26.2102909 40.0542702,26.4168186 C39.7327068,26.7265795 39.4697564,27.0948761 39.1781218,27.4351906 C38.5204348,28.2025822 37.8629346,28.9701574 37.2005188,29.7335691 C36.7504668,30.2521845 36.2907704,30.7625951 35.8379807,31.2788225 C34.9327745,32.31091 34.0276928,33.3430586 33.1256599,34.377779 C32.2470848,35.3856195 31.3798963,36.4032568 30.492859,37.403811 C30.0558114,37.8968936 29.4829331,38.0606217 28.8259306,37.9779004 C28.2360658,37.9035676 27.8590002,37.5224741 27.4963702,37.1171948 C26.8631988,36.4095022 26.231894,35.7002788 25.603327,34.9887287 C24.9389823,34.2367058 24.2794288,33.4805805 23.6165152,32.727333 C23.2574318,32.3192984 22.8956107,31.9135906 22.5220296,31.4921467 C21.8248939,32.2921124 21.1281316,33.0952009 20.4273248,33.894983 C19.8797709,34.5199543 19.3261192,35.1397823 18.7773209,35.7636515 C18.2669757,36.343864 17.7654661,36.9317914 17.2488366,37.5065544 C16.705576,38.1109525 15.5354284,38.1661205 14.9280791,37.6389329 C14.5710491,37.329172 14.2548989,36.9714682 13.9373176,36.6204997 C13.1508311,35.7515281 12.3701312,34.8773519 11.5944713,33.9990122 C10.6833541,32.9671696 9.78256567,31.9265713 8.87231951,30.893994 C8.27343243,30.2146507 7.6600476,29.5476758 7.06352495,28.8663731 C6.39389141,28.1015532 5.7455378,27.3184869 5.07055316,26.5583204 C4.18121362,25.5568478 3.27930522,24.5659679 2.37235683,23.5798639 C2.18705961,23.3784795 2.39705898,23.3719279 2.47751207,23.2939213 C2.66280929,23.2322018 2.77468451,23.0932104 2.68352923,22.9259922 C2.6447649,22.8551494 2.43949441,22.8594355 2.30876591,22.8531901 C2.13740643,22.8449853 1.96498917,22.8601702 1.79300746,22.8652523 C1.29666229,22.2873666 0.743943948,21.7462187 0.322389659,21.1195942 Z" id="Fill-1"></path>
                </g>
                <path d="M35.7522661,38.1290003 C37.0995777,36.7416289 38.4368492,35.3554795 39.7834915,33.9803274 C41.25954,32.4729632 42.7487522,30.9809137 44.2233133,29.4718389 C45.0073362,28.6692798 45.7759642,27.8485549 46.5454847,27.0292148 C47.6699798,25.8318117 49.399114,26.4431805 49.8658687,27.905578 C50.1903509,28.9226252 49.9007489,29.7005828 49.2700797,30.3653089 C47.7245684,31.9942952 46.1450693,33.5845058 44.5826013,35.1943486 C43.2082185,36.6104759 41.844917,38.0397185 40.4647332,39.4491659 C39.0774098,40.8657819 37.6742453,42.2638248 36.2809721,43.673598 C36.1085793,43.8481701 35.9407975,44.0326805 35.7957733,44.2340534 C35.6201826,44.4777048 35.5203762,44.4219037 35.3410668,44.2124661 C34.2759201,42.9683856 33.1951555,41.740353 32.1146883,40.5121574 C31.2769692,39.5599536 30.4135177,38.6342247 29.5953583,37.6625516 C28.6871352,36.5839194 28.8594537,35.1185079 29.8308924,34.2878447 C30.6045034,33.6262956 31.8492569,33.7211982 32.5934911,34.5830613 C33.575565,35.7201828 34.5696127,36.8450036 35.5602392,37.9732458 C35.6097706,38.0296987 35.6763329,38.06823 35.7522661,38.1290003" id="Fill-4" fill="#FC758E"></path>
            </g>
        </g>
    </g>
</svg>