<?xml version="1.0" encoding="UTF-8"?>
<svg width="235px" height="221px" viewBox="0 0 235 221" version="1.1" xmlns="http://www.w3.org/2000/svg" xmlns:xlink="http://www.w3.org/1999/xlink">
    <!-- Generator: sketchtool 54.1 (76490) - https://sketchapp.com -->
    <title>DF2E1802-24A1-40F4-872D-43044297E653</title>
    <desc>Created with sketchtool.</desc>
    <defs>
        <path d="M88.9192308,0.615384615 C54.4987179,0.691025641 28.7576923,19.6666667 14.3,59.7198718 L14.3,59.7198718 C-19.7224359,153.971795 7.56282051,228.728846 114.797436,219.228846 L114.797436,219.228846 C222.032051,209.729487 279.255128,94.5705128 192.472436,39.1269231 L192.472436,39.1269231 C153.042308,13.9371795 118.153205,0.675641026 89.3230769,0.615384615 L89.3230769,0.615384615 L88.9192308,0.615384615 Z" id="path-1"></path>
        <linearGradient x1="5.06244525e-05%" y1="49.9999655%" x2="100.000114%" y2="49.9999655%" id="linearGradient-3">
            <stop stop-color="#FFFFFF" offset="0%"></stop>
            <stop stop-color="#C1DBFF" offset="100%"></stop>
        </linearGradient>
        <path d="M88.9192308,0.615384615 C54.4987179,0.691025641 28.7576923,19.6666667 14.3,59.7198718 L14.3,59.7198718 C-19.7224359,153.971795 7.56282051,228.728846 114.797436,219.228846 L114.797436,219.228846 C222.032051,209.729487 279.255128,94.5705128 192.472436,39.1269231 L192.472436,39.1269231 C153.042308,13.9371795 118.153205,0.675641026 89.3230769,0.615384615 L89.3230769,0.615384615" id="path-4"></path>
        <path d="M10.7301282,6.76282051 C5.41346154,-4.21923077 -8.64102564,9.8724359 7.80833333,13.3583333 L7.80833333,13.3583333 C2.10961538,35.5480769 25.7653846,23.4826923 13.3179487,14.0884615 L13.3179487,14.0884615 C18.6903846,15.2596154 22.1358974,14.7717949 24.1365385,13.4416667 L24.1365385,13.4416667 C23.0288462,9.02435897 21.5070513,4.66153846 19.5544872,0.396153846 L19.5544872,0.396153846 C19.1788462,0.322435897 18.7974359,0.283974359 18.4108974,0.283974359 L18.4108974,0.283974359 C15.8096154,0.283974359 13.0089744,2.03653846 10.7301282,6.76282051" id="path-6"></path>
        <path d="M88.9192308,0.615384615 C54.4987179,0.691025641 28.7576923,19.6666667 14.3,59.7198718 L14.3,59.7198718 C-19.7224359,153.971795 7.56282051,228.728846 114.797436,219.228846 L114.797436,219.228846 C222.032051,209.729487 279.255128,94.5705128 192.472436,39.1269231 L192.472436,39.1269231 C153.042308,13.9371795 118.153205,0.675641026 89.3230769,0.615384615 L89.3230769,0.615384615" id="path-8"></path>
        <path d="M10.7576923,0.339102564 C3.51538462,3.25064103 -4.27051282,14.1621795 3.4224359,22.2910256 L3.4224359,22.2910256 C11.1147436,30.4198718 23.7019231,24.4032051 24.8333333,15.3820513 L24.8333333,15.3820513 C26.100641,5.28141026 14.5961538,0.253205128 11.3442308,0.253205128 L11.3442308,0.253205128 C11.0987179,0.253205128 10.9,0.281410256 10.7576923,0.339102564" id="path-10"></path>
        <path d="M0.956410256,8.10384615 C-2.9224359,18.7410256 7.23461538,31.7 16.600641,31.3653846 L16.600641,31.3653846 C25.9673077,31.0307692 29.9365385,21.0108974 27.7583333,12.1467949 L27.7583333,12.1467949 C25.5807692,3.28141026 22.775641,0.330769231 15.2974359,0.0724358974 L15.2974359,0.0724358974 C15.1384615,0.0673076923 14.9794872,0.0647435897 14.8217949,0.0647435897 L14.8217949,0.0647435897 C7.56730769,0.0647435897 1.81025641,5.76282051 0.956410256,8.10384615" id="path-12"></path>
        <path d="M0.425641026,2.56217949 C-1.1775641,7.28269231 8.69423077,14.2942308 16.6128205,16.1929487 L16.6128205,16.1929487 C24.5307692,18.0910256 27.8826923,14.325 28.1064103,11.5634615 L28.1064103,11.5634615 C28.3294872,8.80192308 19.1025641,2.55064103 10.3570513,0.575 L10.3570513,0.575 C8.61217949,0.180769231 7.16858974,0.0224358974 5.975,0.0224358974 L5.975,0.0224358974 C1.18589744,0.0224358974 0.425641026,2.56217949 0.425641026,2.56217949" id="path-14"></path>
        <path d="M88.9192308,0.615384615 C54.4987179,0.691025641 28.7576923,19.6666667 14.3,59.7198718 L14.3,59.7198718 C-19.7224359,153.971795 7.56282051,228.728846 114.797436,219.228846 L114.797436,219.228846 C222.032051,209.729487 279.255128,94.5705128 192.472436,39.1269231 L192.472436,39.1269231 C153.042308,13.9371795 118.153205,0.675641026 89.3230769,0.615384615 L89.3230769,0.615384615" id="path-16"></path>
        <path d="M2.03333333,4.53717949 C-4.1525641,14.2147436 9.53397436,32.3871795 23.1282051,18.474359 L23.1282051,18.474359 C32.8923077,8.48076923 21.0448718,0.491025641 11.225,0.48974359 L11.225,0.48974359 C7.37307692,0.489102564 3.83525641,1.71794872 2.03333333,4.53717949" id="path-18"></path>
        <path d="M88.9192308,0.615384615 C54.4987179,0.691025641 28.7576923,19.6666667 14.3,59.7198718 L14.3,59.7198718 C-19.7224359,153.971795 7.56282051,228.728846 114.797436,219.228846 L114.797436,219.228846 C222.032051,209.729487 279.255128,94.5705128 192.472436,39.1269231 L192.472436,39.1269231 C153.042308,13.9371795 118.153205,0.675641026 89.3230769,0.615384615 L89.3230769,0.615384615" id="path-20"></path>
        <path d="M88.9192308,0.615384615 C54.4987179,0.691025641 28.7576923,19.6666667 14.3,59.7198718 L14.3,59.7198718 C-19.7224359,153.971795 7.56282051,228.728846 114.797436,219.228846 L114.797436,219.228846 C222.032051,209.729487 279.255128,94.5705128 192.472436,39.1269231 L192.472436,39.1269231 C153.042308,13.9371795 118.153205,0.675641026 89.3230769,0.615384615 L89.3230769,0.615384615" id="path-22"></path>
        <path d="M0.315384615,8.74487179 C2.28846154,-2.0525641 21.6839744,0.268589744 23.2224359,1.59935897 C24.7596154,2.93076923 26.8512821,11.75 26.8512821,11.75" id="path-24"></path>
        <linearGradient x1="54.2492521%" y1="-6.17252639%" x2="47.0881315%" y2="95.9201929%" id="linearGradient-26">
            <stop stop-color="#FFFFFF" offset="0%"></stop>
            <stop stop-color="#C1DBFF" offset="100%"></stop>
        </linearGradient>
        <path d="M15.0115385,0.456410256 C8.06410256,0.973076923 2.4025641,5.80064103 1.01987179,8.87820513 L1.01987179,8.87820513 C-2.79487179,17.3647436 5.93269231,24.7262821 10.5326923,27.1878205 L10.5326923,27.1878205 C15.1333333,29.6487179 26.4314103,24.8391026 26.9532051,17.0141026 L26.9532051,17.0141026 C27.4608974,9.40064103 22.250641,0.436538462 15.5673077,0.435897436 L15.5673077,0.435897436 C15.3826923,0.435897436 15.1980769,0.442307692 15.0115385,0.456410256" id="path-27"></path>
        <path d="M88.9192308,0.615384615 C54.4987179,0.691025641 28.7576923,19.6666667 14.3,59.7198718 L14.3,59.7198718 C-19.7224359,153.971795 7.56282051,228.728846 114.797436,219.228846 L114.797436,219.228846 C222.032051,209.729487 279.255128,94.5705128 192.472436,39.1269231 L192.472436,39.1269231 C153.042308,13.9371795 118.153205,0.675641026 89.3230769,0.615384615 L89.3230769,0.615384615" id="path-29"></path>
        <path d="M88.9192308,0.615384615 C54.4987179,0.691025641 28.7576923,19.6666667 14.3,59.7198718 L14.3,59.7198718 C-19.7224359,153.971795 7.56282051,228.728846 114.797436,219.228846 L114.797436,219.228846 C222.032051,209.729487 279.255128,94.5705128 192.472436,39.1269231 L192.472436,39.1269231 C153.042308,13.9371795 118.153205,0.675641026 89.3230769,0.615384615 L89.3230769,0.615384615" id="path-31"></path>
        <path d="M1.43974359,9.75576923 C-0.707692308,18.8032051 -0.442948718,28.2461538 5.21730769,32.3564103 L5.21730769,32.3564103 C10.8788462,36.4660256 20.249359,32.1288462 22.8820513,26.9487179 L22.8820513,26.9487179 C25.5134615,21.7692308 23.6378205,10.6660256 18.7974359,3.24166667 L18.7974359,3.24166667 C17.425641,1.13782051 15.5448718,0.293589744 13.525,0.293589744 L13.525,0.293589744 C8.41410256,0.292307692 2.40512821,5.68974359 1.43974359,9.75576923" id="path-33"></path>
        <path d="M88.9192308,0.615384615 C54.4987179,0.691025641 28.7576923,19.6666667 14.3,59.7198718 L14.3,59.7198718 C-19.7224359,153.971795 7.56282051,228.728846 114.797436,219.228846 L114.797436,219.228846 C222.032051,209.729487 279.255128,94.5705128 192.472436,39.1269231 L192.472436,39.1269231 C153.042308,13.9371795 118.153205,0.675641026 89.3230769,0.615384615 L89.3230769,0.615384615" id="path-35"></path>
        <path d="M4.30448718,5.95384615 C-2.71089744,13.2442308 0.344871795,21.9794872 9.66923077,25.5846154 L9.66923077,25.5846154 C18.9942308,29.1891026 29.2192308,23.1397436 30.7224359,16.2762821 L30.7224359,16.2762821 C32.225641,9.41346154 25.4589744,1.09871795 20.5064103,0.240384615 L20.5064103,0.240384615 C19.8974359,0.13525641 19.2474359,0.0846153846 18.5705128,0.0846153846 L18.5705128,0.0846153846 C13.7403846,0.0846153846 7.49102564,2.64166667 4.30448718,5.95384615" id="path-37"></path>
        <path d="M0.511538462,4.36666667 C-1.82948718,13.8307692 6.13012821,27.9147436 9.34230769,27.4288462 L9.34230769,27.4288462 C12.5544872,26.9416667 10.6737179,5.47115385 7.18589744,1.91923077 L7.18589744,1.91923077 C6.13205128,0.846153846 5.15961538,0.423717949 4.30064103,0.423717949 L4.30064103,0.423717949 C2.31602564,0.423717949 0.930128205,2.67628205 0.511538462,4.36666667" id="path-39"></path>
        <path d="M88.9192308,0.615384615 C54.4987179,0.691025641 28.7576923,19.6666667 14.3,59.7198718 L14.3,59.7198718 C-19.7224359,153.971795 7.56282051,228.728846 114.797436,219.228846 L114.797436,219.228846 C222.032051,209.729487 279.255128,94.5705128 192.472436,39.1269231 L192.472436,39.1269231 C153.042308,13.9371795 118.153205,0.675641026 89.3230769,0.615384615 L89.3230769,0.615384615" id="path-41"></path>
        <path d="M88.9192308,0.615384615 C54.4987179,0.691025641 28.7576923,19.6666667 14.3,59.7198718 L14.3,59.7198718 C-19.7224359,153.971795 7.56282051,228.728846 114.797436,219.228846 L114.797436,219.228846 C222.032051,209.729487 279.255128,94.5705128 192.472436,39.1269231 L192.472436,39.1269231 C153.042308,13.9371795 118.153205,0.675641026 89.3230769,0.615384615 L89.3230769,0.615384615" id="path-43"></path>
        <path d="M78.0602564,2.18205128 C53.1884615,7.98269231 17.4403846,14.7173077 0.198717949,18.9576923 L0.198717949,18.9576923 C16.4211538,32.6737179 39.9564103,40.3333333 71.3782051,39.8980769 L71.3782051,39.8980769 C79.9769231,36.5076923 85.999359,35.2410256 86.5923077,39.100641 L86.5923077,39.100641 C97.0448718,38.175 107.014103,36.2474359 116.429487,33.4666667 L116.429487,33.4666667 C116.314103,23.5891026 116.008974,15.8217949 115.357692,13.1544872 L115.357692,13.1544872 C113.769872,6.65 107.766026,0.949358974 100.626282,0.512179487 L100.626282,0.512179487 C98.8141026,0.401282051 96.7801282,0.307692308 94.5378205,0.307692308 L94.5378205,0.307692308 C89.9070513,0.307692308 84.3826923,0.707051282 78.0602564,2.18205128 L78.0602564,2.18205128 Z" id="path-45"></path>
        <path d="M88.9192308,0.615384615 C54.4987179,0.691025641 28.7576923,19.6666667 14.3,59.7198718 L14.3,59.7198718 C-19.7224359,153.971795 7.56282051,228.728846 114.797436,219.228846 L114.797436,219.228846 C222.032051,209.729487 279.255128,94.5705128 192.472436,39.1269231 L192.472436,39.1269231 C153.042308,13.9371795 118.153205,0.675641026 89.3230769,0.615384615 L89.3230769,0.615384615" id="path-47"></path>
        <path d="M95.0269231,1.46858974 C69.174359,5.92371795 51.2480769,9.2224359 33.1153846,13.575641 L33.1153846,13.575641 C19.5564103,16.8307692 8.55897436,16.4935897 0.0294871795,14.7230769 L0.0294871795,14.7230769 C17.3711538,22.3724359 39.7019231,25.525641 67.3615385,23.075 L67.3615385,23.075 C87.3570513,21.3038462 105.620513,15.8557692 121.528205,7.80897436 L121.528205,7.80897436 C117.673077,3.12564103 113.045513,0.501282051 104.885256,0.501282051 L104.885256,0.501282051 C102.060256,0.501282051 98.8128205,0.816025641 95.0269231,1.46858974 L95.0269231,1.46858974 Z" id="path-49"></path>
        <path d="M95.0269231,1.46858974 C69.174359,5.92371795 51.2480769,9.2224359 33.1153846,13.575641 L33.1153846,13.575641 C19.5564103,16.8307692 8.55897436,16.4935897 0.0294871795,14.7230769 L0.0294871795,14.7230769 C17.3711538,22.3724359 39.7019231,25.525641 67.3615385,23.075 L67.3615385,23.075 C87.3570513,21.3038462 105.620513,15.8557692 121.528205,7.80897436 L121.528205,7.80897436 C117.673077,3.12564103 113.045513,0.501282051 104.885256,0.501282051 L104.885256,0.501282051 C102.060256,0.501282051 98.8128205,0.816025641 95.0269231,1.46858974" id="path-51"></path>
        <path d="M153.434382,92.4767259 L0.461538462,36.799359 L99.9673077,0.582051282 L210.016454,40.6365248 C198.380957,61.6962149 178.7416,80.3462807 153.434382,92.4767259 L153.434382,92.4767259 Z" id="path-53"></path>
        <linearGradient x1="53.3007774%" y1="54.64875%" x2="48.2662041%" y2="47.5580464%" id="linearGradient-55">
            <stop stop-color="#FFFFFF" offset="0%"></stop>
            <stop stop-color="#F6FBFF" offset="100%"></stop>
        </linearGradient>
        <path d="M146.949015,58.8502282 L0.461538462,5.53333333 L0.461538462,0.260897436 L153.434382,55.9382644 C151.311997,56.9555815 149.149749,57.9270442 146.949015,58.8502282 L146.949015,58.8502282 Z" id="path-56"></path>
        <path d="M14.5820513,3.03012821 L0.659615385,38.1294872 C0.0230769231,39.7076923 0.824358974,41.499359 2.425,42.0762821 L2.425,42.0762821 L57.0910256,61.7884615 C59.174359,62.5397436 61.4839744,61.5615385 62.3948718,59.5435897 L62.3948718,59.5435897 L77.4115385,25.9410256 C78.3820513,23.7910256 77.3198718,21.2698718 75.1032051,20.4634615 L75.1032051,20.4634615 L20.2570513,0.500641026 C19.7532051,0.317307692 19.2371795,0.230128205 18.7288462,0.230128205 L18.7288462,0.230128205 C16.9557692,0.230128205 15.2826923,1.29294872 14.5820513,3.03012821" id="path-58"></path>
        <path d="M14.5089744,2.83141026 L0.586538462,37.9314103 C-0.05,39.5089744 0.751282051,41.300641 2.3525641,41.8775641 L2.3525641,41.8775641 L57.0179487,61.5903846 C59.100641,62.3410256 61.4108974,61.3634615 62.3217949,59.3455128 L62.3217949,59.3455128 L77.3391026,25.7423077 C78.3096154,23.5929487 77.2474359,21.0717949 75.0307692,20.2653846 L75.0307692,20.2653846 L20.1846154,0.302564103 C19.6807692,0.119230769 19.1641026,0.0320512821 18.6564103,0.0320512821 L18.6564103,0.0320512821 C16.8826923,0.0320512821 15.2096154,1.09423077 14.5089744,2.83141026" id="path-60"></path>
        <path d="M88.9192308,0.615384615 C54.4987179,0.691025641 28.7576923,19.6666667 14.3,59.7198718 L14.3,59.7198718 C-19.7224359,153.971795 7.56282051,228.728846 114.797436,219.228846 L114.797436,219.228846 C222.032051,209.729487 279.255128,94.5705128 192.472436,39.1269231 L192.472436,39.1269231 C153.042308,13.9371795 118.153205,0.675641026 89.3230769,0.615384615 L89.3230769,0.615384615 L88.9192308,0.615384615 Z" id="path-62"></path>
        <path d="M88.9192308,0.615384615 C54.4987179,0.691025641 28.7576923,19.6666667 14.3,59.7198718 L14.3,59.7198718 C-19.7224359,153.971795 7.56282051,228.728846 114.797436,219.228846 L114.797436,219.228846 C222.032051,209.729487 279.255128,94.5705128 192.472436,39.1269231 L192.472436,39.1269231 C153.042308,13.9371795 118.153205,0.675641026 89.3230769,0.615384615 L89.3230769,0.615384615" id="path-64"></path>
        <path d="M88.9192308,0.615384615 C54.4987179,0.691025641 28.7576923,19.6666667 14.3,59.7198718 L14.3,59.7198718 C-19.7224359,153.971795 7.56282051,228.728846 114.797436,219.228846 L114.797436,219.228846 C222.032051,209.729487 279.255128,94.5705128 192.472436,39.1269231 L192.472436,39.1269231 C153.042308,13.9371795 118.153205,0.675641026 89.3230769,0.615384615 L89.3230769,0.615384615" id="path-66"></path>
        <path d="M88.9192308,0.615384615 C54.4987179,0.691025641 28.7576923,19.6666667 14.3,59.7198718 L14.3,59.7198718 C-19.7224359,153.971795 7.56282051,228.728846 114.797436,219.228846 L114.797436,219.228846 C222.032051,209.729487 279.255128,94.5705128 192.472436,39.1269231 L192.472436,39.1269231 C153.042308,13.9371795 118.153205,0.675641026 89.3230769,0.615384615 L89.3230769,0.615384615" id="path-68"></path>
        <path d="M88.9192308,0.615384615 C54.4987179,0.691025641 28.7576923,19.6666667 14.3,59.7198718 L14.3,59.7198718 C-19.7224359,153.971795 7.56282051,228.728846 114.797436,219.228846 L114.797436,219.228846 C222.032051,209.729487 279.255128,94.5705128 192.472436,39.1269231 L192.472436,39.1269231 C153.042308,13.9371795 118.153205,0.675641026 89.3230769,0.615384615 L89.3230769,0.615384615" id="path-70"></path>
        <path d="M88.9192308,0.615384615 C54.4987179,0.691025641 28.7576923,19.6666667 14.3,59.7198718 L14.3,59.7198718 C-19.7224359,153.971795 7.56282051,228.728846 114.797436,219.228846 L114.797436,219.228846 C222.032051,209.729487 279.255128,94.5705128 192.472436,39.1269231 L192.472436,39.1269231 C153.042308,13.9371795 118.153205,0.675641026 89.3230769,0.615384615 L89.3230769,0.615384615" id="path-72"></path>
        <path d="M88.9192308,0.615384615 C54.4987179,0.691025641 28.7576923,19.6666667 14.3,59.7198718 L14.3,59.7198718 C-19.7224359,153.971795 7.56282051,228.728846 114.797436,219.228846 L114.797436,219.228846 C222.032051,209.729487 279.255128,94.5705128 192.472436,39.1269231 L192.472436,39.1269231 C153.042308,13.9371795 118.153205,0.675641026 89.3230769,0.615384615 L89.3230769,0.615384615" id="path-74"></path>
        <path d="M88.9192308,0.615384615 C54.4987179,0.691025641 28.7576923,19.6666667 14.3,59.7198718 L14.3,59.7198718 C-19.7224359,153.971795 7.56282051,228.728846 114.797436,219.228846 L114.797436,219.228846 C222.032051,209.729487 279.255128,94.5705128 192.472436,39.1269231 L192.472436,39.1269231 C153.042308,13.9371795 118.153205,0.675641026 89.3230769,0.615384615 L89.3230769,0.615384615" id="path-76"></path>
        <path d="M88.9192308,0.615384615 C54.4987179,0.691025641 28.7576923,19.6666667 14.3,59.7198718 L14.3,59.7198718 C-19.7224359,153.971795 7.56282051,228.728846 114.797436,219.228846 L114.797436,219.228846 C222.032051,209.729487 279.255128,94.5705128 192.472436,39.1269231 L192.472436,39.1269231 C153.042308,13.9371795 118.153205,0.675641026 89.3230769,0.615384615 L89.3230769,0.615384615" id="path-78"></path>
        <path d="M35.3358974,0.911538462 L1.10769231,11.4692308 C0.125,12.1160256 0.371153846,12.7301282 0.371153846,14.2929487 L0.371153846,14.2929487 C0.371153846,14.7820513 0.558333333,15.2974359 1.10769231,15.4980769 L1.10769231,15.4980769 L57.7897436,36.1384615 C59.5878205,36.7929487 61.5589744,36.7929487 63.3576923,36.1384615 L63.3576923,36.1384615 L97.5852564,23.6801282 C98.1102564,23.4891026 98.3583333,23.0057692 98.3275641,22.5384615 L98.3275641,22.5384615 C98.3141026,22.3314103 98.3173077,20.8846154 98.3173077,20.5480769 L98.3173077,20.5480769 C98.3173077,20.4371795 98.1807692,20.7384615 98.0179487,21.0403846 L98.0179487,21.0403846 C97.8685897,21.3160256 97.6967949,21.5923077 97.5852564,21.5512821 L97.5852564,21.5512821 L40.9032051,0.911538462 C40.0038462,0.583974359 39.0615385,0.420512821 38.1192308,0.420512821 L38.1192308,0.420512821 C37.1769231,0.420512821 36.2346154,0.583974359 35.3358974,0.911538462" id="path-80"></path>
        <path d="M35.3358974,0.933974359 L1.10769231,13.3923077 C0.114102564,13.7538462 0.114102564,15.1596154 1.10769231,15.5211538 L1.10769231,15.5211538 L57.7897436,36.1608974 C59.5878205,36.8160256 61.5589744,36.8160256 63.3576923,36.1608974 L63.3576923,36.1608974 L97.5852564,23.7038462 C98.5782051,23.3416667 98.5782051,21.9365385 97.5852564,21.575 L97.5852564,21.575 L40.9032051,0.933974359 C40.0038462,0.607051282 39.0615385,0.443589744 38.1192308,0.443589744 L38.1192308,0.443589744 C37.1769231,0.443589744 36.2346154,0.607051282 35.3358974,0.933974359" id="path-82"></path>
        <linearGradient x1="56.817212%" y1="64.0048122%" x2="31.875574%" y2="12.7649428%" id="linearGradient-84">
            <stop stop-color="#FFFFFF" offset="0%"></stop>
            <stop stop-color="#C1DBFF" offset="100%"></stop>
        </linearGradient>
        <path d="M10.6621795,0.76474359 L0.730769231,4.37948718 C0.442948718,4.48397436 0.442948718,4.89166667 0.730769231,4.9974359 L0.730769231,4.9974359 L17.1788462,10.9865385 C17.700641,11.1762821 18.2724359,11.1762821 18.7948718,10.9865385 L18.7948718,10.9865385 L28.725641,7.37115385 C29.0141026,7.26602564 29.0141026,6.85897436 28.725641,6.75320513 L28.725641,6.75320513 L12.2782051,0.76474359 C12.0173077,0.669871795 11.7435897,0.621794872 11.4705128,0.621794872 L11.4705128,0.621794872 C11.1967949,0.621794872 10.9237179,0.669871795 10.6621795,0.76474359" id="path-85"></path>
        <path d="M14.6211538,0.537820513 L0.401923077,5.71282051 C-0.0108974359,5.86282051 -0.0108974359,6.44615385 0.401923077,6.59679487 L0.401923077,6.59679487 L55.4910256,26.6512821 C56.2384615,26.9230769 57.0570513,26.9230769 57.8038462,26.6512821 L57.8038462,26.6512821 L72.0230769,21.4762821 C72.4358974,21.3262821 72.4358974,20.7423077 72.0230769,20.5923077 L72.0230769,20.5923077 L16.9339744,0.537820513 C16.5602564,0.401282051 16.1685897,0.333333333 15.7775641,0.333333333 L15.7775641,0.333333333 C15.3858974,0.333333333 14.9942308,0.401282051 14.6211538,0.537820513" id="path-87"></path>
        <path d="M88.9192308,0.615384615 C54.4987179,0.691025641 28.7576923,19.6666667 14.3,59.7198718 L14.3,59.7198718 C-19.7224359,153.971795 7.56282051,228.728846 114.797436,219.228846 L114.797436,219.228846 C222.032051,209.729487 279.255128,94.5705128 192.472436,39.1269231 L192.472436,39.1269231 C153.042308,13.9371795 118.153205,0.675641026 89.3230769,0.615384615 L89.3230769,0.615384615 L88.9192308,0.615384615 Z" id="path-89"></path>
        <path d="M88.9192308,0.615384615 C54.4987179,0.691025641 28.7576923,19.6666667 14.3,59.7198718 L14.3,59.7198718 C-19.7224359,153.971795 7.56282051,228.728846 114.797436,219.228846 L114.797436,219.228846 C222.032051,209.729487 279.255128,94.5705128 192.472436,39.1269231 L192.472436,39.1269231 C153.042308,13.9371795 118.153205,0.675641026 89.3230769,0.615384615 L89.3230769,0.615384615" id="path-91"></path>
        <path d="M88.9192308,0.615384615 C54.4987179,0.691025641 28.7576923,19.6666667 14.3,59.7198718 L14.3,59.7198718 C-19.7224359,153.971795 7.56282051,228.728846 114.797436,219.228846 L114.797436,219.228846 C222.032051,209.729487 279.255128,94.5705128 192.472436,39.1269231 L192.472436,39.1269231 C153.042308,13.9371795 118.153205,0.675641026 89.3230769,0.615384615 L89.3230769,0.615384615 L88.9192308,0.615384615 Z" id="path-93"></path>
        <path d="M22.9115385,0.533333333 C17.5596154,0.908974359 12.2794872,2.85512821 7.73782051,13.9339744 L7.73782051,13.9339744 C5.31282051,19.8455128 1.52820513,33.7929487 1.53525641,53.4948718 L1.53525641,53.4948718 C1.53782051,60.875641 1.01538462,70.3653846 0.503205128,80.8602564 L0.503205128,80.8602564 C13.1032051,98.9288462 33.6346154,110.927564 62.8012821,114.467949 L62.8012821,114.467949 C62.9788462,113.657051 62.9692308,112.807051 62.7512821,111.917308 L62.7512821,111.917308 C58.8147436,95.8467949 59.5384615,75.9487179 61.6935897,63.9262821 L61.6935897,63.9262821 C63.1352564,55.8858974 65.9647436,45.2589744 64.1448718,37.8025641 L64.1448718,37.8025641 C62.1897436,29.7923077 66.3608974,20.7224359 65.3653846,18.1576923 L65.3653846,18.1576923 C64.9192308,17.0089744 64.0705128,15.9987179 62.9089744,15.2916667 L62.9089744,15.2916667 C51.7397436,8.49807692 34.9455128,0.487820513 24.2628205,0.487179487 L24.2628205,0.487179487 C23.800641,0.487179487 23.35,0.502564103 22.9115385,0.533333333" id="path-95"></path>
        <linearGradient x1="54.5615723%" y1="71.2487246%" x2="38.3068441%" y2="27.0806103%" id="linearGradient-97">
            <stop stop-color="#FFFFFF" offset="0%"></stop>
            <stop stop-color="#F6FBFF" offset="100%"></stop>
        </linearGradient>
        <path d="M22.9115385,0.533333333 C17.5596154,0.908974359 12.2794872,2.85512821 7.73782051,13.9339744 L7.73782051,13.9339744 C5.31282051,19.8455128 1.52820513,33.7929487 1.53525641,53.4948718 L1.53525641,53.4948718 C1.53782051,60.875641 1.01538462,70.3653846 0.503205128,80.8602564 L0.503205128,80.8602564 C13.1032051,98.9288462 33.6346154,110.927564 62.8012821,114.467949 L62.8012821,114.467949 C62.9788462,113.657051 62.9692308,112.807051 62.7512821,111.917308 L62.7512821,111.917308 C58.8147436,95.8467949 59.5384615,75.9487179 61.6935897,63.9262821 L61.6935897,63.9262821 C63.1352564,55.8858974 65.9647436,45.2589744 64.1448718,37.8025641 L64.1448718,37.8025641 C62.1897436,29.7923077 66.3608974,20.7224359 65.3653846,18.1576923 L65.3653846,18.1576923 C64.9192308,17.0089744 64.0705128,15.9987179 62.9089744,15.2916667 L62.9089744,15.2916667 C51.7397436,8.49807692 34.9455128,0.487820513 24.2628205,0.487179487 L24.2628205,0.487179487 C23.800641,0.487179487 23.35,0.502564103 22.9115385,0.533333333" id="path-98"></path>
        <path d="M27.2814103,0.786538462 L1.01538462,8.88846154 C0.260897436,9.38461538 0.45,9.85512821 0.45,11.0544872 L0.45,11.0544872 C0.45,11.4301282 0.593589744,11.8262821 1.01538462,11.9801282 L1.01538462,11.9801282 L19.2314103,18.6173077 C20.6115385,19.1192308 22.124359,19.1192308 23.5038462,18.6173077 L23.5038462,18.6173077 L41.2923077,12.1429487 C43.3339744,10.3070513 45.3044872,8.41730769 47.1923077,6.48525641 L47.1923077,6.48525641 L31.5538462,0.786538462 C30.8641026,0.53525641 30.1403846,0.409615385 29.4173077,0.409615385 L29.4173077,0.409615385 C28.6942308,0.409615385 27.9711538,0.53525641 27.2814103,0.786538462" id="path-100"></path>
        <path d="M27.2814103,0.61025641 L1.01538462,10.1705128 C0.253205128,10.4474359 0.253205128,11.5262821 1.01538462,11.8038462 L1.01538462,11.8038462 L19.2314103,18.4410256 C20.6115385,18.9429487 22.124359,18.9429487 23.5038462,18.4410256 L23.5038462,18.4410256 L43.8935897,11.0198718 C45.3878205,9.6 46.8288462,8.16153846 48.2339744,6.68782051 L48.2339744,6.68782051 L31.5538462,0.61025641 C30.8641026,0.358974359 30.1403846,0.233333333 29.4173077,0.233333333 L29.4173077,0.233333333 C28.6942308,0.233333333 27.9711538,0.358974359 27.2814103,0.61025641" id="path-102"></path>
        <linearGradient x1="50.099556%" y1="22.7539584%" x2="57.0716155%" y2="112.999552%" id="linearGradient-104">
            <stop stop-color="#FFFFFF" offset="0%"></stop>
            <stop stop-color="#C1DBFF" offset="100%"></stop>
        </linearGradient>
        <path d="M0.201282051,10.0089744 L20.6179487,17.5179487 L44.0512821,8.98910256 C44.6782051,8.37371795 45.3038462,7.74679487 45.9147436,7.12179487 L45.9147436,7.12179487 L27.1230769,0.209615385 L0.201282051,10.0089744 Z" id="path-105"></path>
        <path d="M88.9192308,0.615384615 C54.4987179,0.691025641 28.7576923,19.6666667 14.3,59.7198718 L14.3,59.7198718 C-19.7224359,153.971795 7.56282051,228.728846 114.797436,219.228846 L114.797436,219.228846 C222.032051,209.729487 279.255128,94.5705128 192.472436,39.1269231 L192.472436,39.1269231 C153.042308,13.9371795 118.153205,0.675641026 89.3230769,0.615384615 L89.3230769,0.615384615 L88.9192308,0.615384615 Z" id="path-107"></path>
        <path d="M88.9192308,0.615384615 C54.4987179,0.691025641 28.7576923,19.6666667 14.3,59.7198718 L14.3,59.7198718 C-19.7224359,153.971795 7.56282051,228.728846 114.797436,219.228846 L114.797436,219.228846 C222.032051,209.729487 279.255128,94.5705128 192.472436,39.1269231 L192.472436,39.1269231 C153.042308,13.9371795 118.153205,0.675641026 89.3230769,0.615384615 L89.3230769,0.615384615" id="path-109"></path>
        <path d="M88.9192308,0.615384615 C54.4987179,0.691025641 28.7576923,19.6666667 14.3,59.7198718 L14.3,59.7198718 C-19.7224359,153.971795 7.56282051,228.728846 114.797436,219.228846 L114.797436,219.228846 C222.032051,209.729487 279.255128,94.5705128 192.472436,39.1269231 L192.472436,39.1269231 C153.042308,13.9371795 118.153205,0.675641026 89.3230769,0.615384615 L89.3230769,0.615384615" id="path-111"></path>
        <path d="M65.6974359,77.8512821 C56.0942308,57.0301282 47.3057692,32.5128205 42.9282051,19.7717949 L42.9282051,19.7717949 C41.0596154,14.3326923 36.6070513,10.1820513 31.0519231,8.69294872 L31.0519231,8.69294872 L0.228846154,0.430128205 C3.13782051,39.8762821 24.0948718,68.6967949 65.6974359,77.8512821" id="path-113"></path>
        <path d="M88.9192308,0.615384615 C54.4987179,0.691025641 28.7576923,19.6666667 14.3,59.7198718 L14.3,59.7198718 C-19.7224359,153.971795 7.56282051,228.728846 114.797436,219.228846 L114.797436,219.228846 C222.032051,209.729487 279.255128,94.5705128 192.472436,39.1269231 L192.472436,39.1269231 C153.042308,13.9371795 118.153205,0.675641026 89.3230769,0.615384615 L89.3230769,0.615384615 L88.9192308,0.615384615 Z" id="path-115"></path>
        <path d="M88.9192308,0.615384615 C54.4987179,0.691025641 28.7576923,19.6666667 14.3,59.7198718 L14.3,59.7198718 C-19.7224359,153.971795 7.56282051,228.728846 114.797436,219.228846 L114.797436,219.228846 C222.032051,209.729487 279.255128,94.5705128 192.472436,39.1269231 L192.472436,39.1269231 C153.042308,13.9371795 118.153205,0.675641026 89.3230769,0.615384615 L89.3230769,0.615384615" id="path-117"></path>
        <path d="M88.9192308,0.615384615 C54.4987179,0.691025641 28.7576923,19.6666667 14.3,59.7198718 L14.3,59.7198718 C-19.7224359,153.971795 7.56282051,228.728846 114.797436,219.228846 L114.797436,219.228846 C222.032051,209.729487 279.255128,94.5705128 192.472436,39.1269231 L192.472436,39.1269231 C153.042308,13.9371795 118.153205,0.675641026 89.3230769,0.615384615 L89.3230769,0.615384615" id="path-119"></path>
        <path d="M7.62435897,9.90769231 C6.67564103,14.3070513 4.37884615,20.7724359 0.935897436,24.9705128 L0.935897436,24.9705128 C-2.42179487,29.0647436 23.1814103,32.1333333 22.7724359,26.8544872 L22.7724359,26.8544872 C22.3647436,21.5762821 26.9217949,12.8108974 27.9108974,9.12371795 L27.9108974,9.12371795 C28.3307692,7.55833333 21.7397436,0.375 15.7903846,0.375 L15.7903846,0.375 C12.3737179,0.375 9.16858974,2.74423077 7.62435897,9.90769231" id="path-121"></path>
        <path d="M88.9192308,0.615384615 C54.4987179,0.691025641 28.7576923,19.6666667 14.3,59.7198718 L14.3,59.7198718 C-19.7224359,153.971795 7.56282051,228.728846 114.797436,219.228846 L114.797436,219.228846 C222.032051,209.729487 279.255128,94.5705128 192.472436,39.1269231 L192.472436,39.1269231 C153.042308,13.9371795 118.153205,0.675641026 89.3230769,0.615384615 L89.3230769,0.615384615" id="path-123"></path>
        <path d="M25.6089744,1.84679487 C23.3192308,2.96987179 20.4602564,2.41153846 18.4051282,1.37179487 L18.4051282,1.37179487 C13.4852564,-1.11730769 -0.197435897,3.98076923 0.435897436,14.5358974 L0.435897436,14.5358974 C3.04871795,19.2121795 2.86666667,18.8826923 8.44679487,22.1717949 L8.44679487,22.1717949 C11.7737179,24.1326923 29.1570513,22.4134615 30.5833333,25.0326923 L30.5833333,25.0326923 L33.85,22.1442308 C41.5371795,24.8352564 54.4032051,9.64679487 40.3038462,2.05128205 L40.3038462,2.05128205 C38.1634615,0.898076923 35.5711538,0.148076923 32.7711538,0.148076923 L32.7711538,0.148076923 C30.4788462,0.148076923 28.0467949,0.650641026 25.6089744,1.84679487 L25.6089744,1.84679487 Z" id="path-125"></path>
        <path d="M88.9192308,0.615384615 C54.4987179,0.691025641 28.7576923,19.6666667 14.3,59.7198718 L14.3,59.7198718 C-19.7224359,153.971795 7.56282051,228.728846 114.797436,219.228846 L114.797436,219.228846 C222.032051,209.729487 279.255128,94.5705128 192.472436,39.1269231 L192.472436,39.1269231 C153.042308,13.9371795 118.153205,0.675641026 89.3230769,0.615384615 L89.3230769,0.615384615" id="path-127"></path>
        <path d="M5.37692308,28.3589744 L16.8621795,30.9147436 L30.5833333,10.9301282 C29.1737179,8.04935897 29.2025641,-0.362179487 25.5461538,1.12435897 L25.5461538,1.12435897 C16.0237179,4.99615385 3.09615385,5.26730769 0.435897436,0.433333333 L0.435897436,0.433333333 C1.525,12.1775641 3.50769231,19.4884615 5.37692308,28.3589744 L5.37692308,28.3589744 Z" id="path-129"></path>
        <path d="M88.9192308,0.615384615 C54.4987179,0.691025641 28.7576923,19.6666667 14.3,59.7198718 L14.3,59.7198718 C-19.7224359,153.971795 7.56282051,228.728846 114.797436,219.228846 L114.797436,219.228846 C222.032051,209.729487 279.255128,94.5705128 192.472436,39.1269231 L192.472436,39.1269231 C153.042308,13.9371795 118.153205,0.675641026 89.3230769,0.615384615 L89.3230769,0.615384615" id="path-131"></path>
        <path d="M13.7615385,8.31602564 C13.3910256,9.11666667 13.0089744,8.55576923 12.4801282,7.99551282 L12.4801282,7.99551282 C11.6685897,7.13525641 10.5134615,6.27564103 8.52948718,10.325 L8.52948718,10.325 C7.45641026,12.5160256 6.33653846,16.2397436 8.05769231,18.7961538 L8.05769231,18.7961538 C4.86410256,22.7525641 -0.238461538,24.8865385 0.115384615,25.0551282 L0.115384615,25.0551282 C5.25705128,27.5083333 10.924359,29.8403846 12.8769231,30.0128205 L12.8769231,30.0128205 C17.05,30.3801282 20.050641,17.7025641 20.4833333,15.3358974 L20.4833333,15.3358974 C21.1705128,11.5666667 19.5044872,10.9570513 19.2967949,7.19615385 L19.2967949,7.19615385 C19.1801282,5.06602564 21.1641026,1.22179487 21.1641026,1.22179487 L21.1641026,1.22179487 C20.3096154,0.75 19.6551282,0.442307692 19.0647436,0.442307692 L19.0647436,0.442307692 C17.599359,0.442307692 16.5262821,2.33589744 13.7615385,8.31602564" id="path-133"></path>
        <path d="M9.29230769,0.720512821 C4.53141026,2.17884615 2.56346154,3.92371795 1.09807692,5.84487179 L1.09807692,5.84487179 C0.317307692,6.86794872 -0.533333333,9.32435897 0.466025641,9.68974359 L0.466025641,9.68974359 L2.0025641,10.25 C4.60769231,11.2012821 7.46730769,11.1846154 10.0615385,10.2038462 L10.0615385,10.2038462 L20.2153846,6.36538462 C21.2108974,5.98910256 21.4512821,3.96730769 19.6717949,2.93205128 L19.6717949,2.93205128 C17.0025641,1.37820513 13.8230769,0.451923077 11.3410256,0.451282051 L11.3410256,0.451282051 C10.5807692,0.451282051 9.88653846,0.538461538 9.29230769,0.720512821" id="path-135"></path>
        <path d="M7.74679487,13.8602564 C1.51666667,12.9115385 -0.382692308,16.2576923 0.203205128,19.6044872 L0.203205128,19.6044872 C1.03653846,24.3602564 6.89038462,29.1153846 12.475,21.5423077 L12.475,21.5423077 C19.8070513,31.1532051 24.3282051,26.3371795 24.3525641,21.5205128 L24.3525641,21.5205128 C24.3692308,18.1301282 22.1576923,14.7391026 17.1288462,16.3814103 L17.1288462,16.3814103 C27.5621795,5.84102564 20.6525641,0.178205128 13.8076923,0.176923077 L13.8076923,0.176923077 C7.78461538,0.176282051 1.81282051,4.55897436 7.74679487,13.8602564" id="path-137"></path>
    </defs>
    <g id="LANDING" stroke="none" stroke-width="1" fill="none" fill-rule="evenodd">
        <g id="for-businesses" transform="translate(-891.000000, -626.000000)">
            <g id="online-flexibility" transform="translate(891.000000, 626.000000)">
                <g id="Group-7" transform="translate(0.000000, 0.026282)">
                    <g id="Group-3">
                        <mask id="mask-2" fill="white">
                            <use xlink:href="#path-1"></use>
                        </mask>
                        <g id="Clip-2"></g>
                        <path d="M88.9192308,0.615384615 C54.4987179,0.691025641 28.7576923,19.6666667 14.3,59.7198718 L14.3,59.7198718 C-19.7224359,153.971795 7.56282051,228.728846 114.797436,219.228846 L114.797436,219.228846 C222.032051,209.729487 279.255128,94.5705128 192.472436,39.1269231 L192.472436,39.1269231 C153.042308,13.9371795 118.153205,0.675641026 89.3230769,0.615384615 L89.3230769,0.615384615 L88.9192308,0.615384615 Z" id="Fill-1" fill="url(#linearGradient-3)" mask="url(#mask-2)"></path>
                    </g>
                    <g id="Group-6">
                        <mask id="mask-5" fill="white">
                            <use xlink:href="#path-4"></use>
                        </mask>
                        <g id="Clip-5"></g>
                        <path d="M166.934038,137.796923 C166.850064,137.796923 166.764808,137.780897 166.683397,137.745641 C166.357756,137.607179 166.205192,137.230897 166.344295,136.905256 C170.296859,127.600769 180.153269,116.845 195.639808,104.936667 C207.14109,96.0930769 217.627628,89.8847436 217.732115,89.8225641 C218.036603,89.6430769 218.430192,89.7437179 218.609679,90.0494872 C218.789808,90.3539744 218.687885,90.7475641 218.383397,90.9270513 C217.968013,91.1719231 176.759679,115.668077 167.523782,137.406538 C167.420577,137.650128 167.183397,137.796923 166.934038,137.796923" id="Fill-4" fill="#91BEFF" mask="url(#mask-5)"></path>
                    </g>
                </g>
                <g id="Group-10" transform="translate(208.333333, 77.590385)">
                    <mask id="mask-7" fill="white">
                        <use xlink:href="#path-6"></use>
                    </mask>
                    <g id="Clip-9"></g>
                    <path d="M10.7301282,6.76282051 C5.41346154,-4.21923077 -8.64102564,9.8724359 7.80833333,13.3583333 L7.80833333,13.3583333 C2.10961538,35.5480769 25.7653846,23.4826923 13.3179487,14.0884615 L13.3179487,14.0884615 C18.6903846,15.2596154 22.1358974,14.7717949 24.1365385,13.4416667 L24.1365385,13.4416667 C23.0288462,9.02435897 21.5070513,4.66153846 19.5544872,0.396153846 L19.5544872,0.396153846 C19.1788462,0.322435897 18.7974359,0.283974359 18.4108974,0.283974359 L18.4108974,0.283974359 C15.8096154,0.283974359 13.0089744,2.03653846 10.7301282,6.76282051" id="Fill-8" mask="url(#mask-7)"></path>
                </g>
                <g id="Group-13" transform="translate(0.000000, 0.026282)">
                    <mask id="mask-9" fill="white">
                        <use xlink:href="#path-8"></use>
                    </mask>
                    <g id="Clip-12"></g>
                    <path d="M167.208846,179.036603 C166.944103,179.036603 166.695385,178.871218 166.603718,178.606474 C158.142179,154.349423 166.293462,136.99109 173.484487,121.675705 C178.520385,110.951346 182.869744,101.689167 181.034487,91.7122436 C180.971026,91.3641667 181.201154,91.0301923 181.549231,90.9660897 C181.89859,90.9013462 182.231923,91.1327564 182.295385,91.4808333 C184.205,101.861603 179.562051,111.750705 174.645385,122.220577 C167.558205,137.314167 159.525513,154.421218 167.813974,178.184679 C167.930641,178.518654 167.754359,178.884679 167.419744,179.000705 C167.350513,179.025064 167.278718,179.036603 167.208846,179.036603" id="Fill-11" fill="#91BEFF" mask="url(#mask-9)"></path>
                </g>
                <g id="Group-16" transform="translate(102.564103, 5.154487)">
                    <mask id="mask-11" fill="white">
                        <use xlink:href="#path-10"></use>
                    </mask>
                    <g id="Clip-15"></g>
                    <path d="M10.7576923,0.339102564 C3.51538462,3.25064103 -4.27051282,14.1621795 3.4224359,22.2910256 L3.4224359,22.2910256 C11.1147436,30.4198718 23.7019231,24.4032051 24.8333333,15.3820513 L24.8333333,15.3820513 C26.100641,5.28141026 14.5961538,0.253205128 11.3442308,0.253205128 L11.3442308,0.253205128 C11.0987179,0.253205128 10.9,0.281410256 10.7576923,0.339102564" id="Fill-14" mask="url(#mask-11)"></path>
                </g>
                <g id="Group-19" transform="translate(104.487179, 80.795513)">
                    <mask id="mask-13" fill="white">
                        <use xlink:href="#path-12"></use>
                    </mask>
                    <g id="Clip-18"></g>
                    <path d="M0.956410256,8.10384615 C-2.9224359,18.7410256 7.23461538,31.7 16.600641,31.3653846 L16.600641,31.3653846 C25.9673077,31.0307692 29.9365385,21.0108974 27.7583333,12.1467949 L27.7583333,12.1467949 C25.5807692,3.28141026 22.775641,0.330769231 15.2974359,0.0724358974 L15.2974359,0.0724358974 C15.1384615,0.0673076923 14.9794872,0.0647435897 14.8217949,0.0647435897 L14.8217949,0.0647435897 C7.56730769,0.0647435897 1.81025641,5.76282051 0.956410256,8.10384615" id="Fill-17" mask="url(#mask-13)"></path>
                </g>
                <g id="Group-22" transform="translate(87.820513, 27.590385)">
                    <mask id="mask-15" fill="white">
                        <use xlink:href="#path-14"></use>
                    </mask>
                    <g id="Clip-21"></g>
                    <path d="M0.425641026,2.56217949 C-1.1775641,7.28269231 8.69423077,14.2942308 16.6128205,16.1929487 L16.6128205,16.1929487 C24.5307692,18.0910256 27.8826923,14.325 28.1064103,11.5634615 L28.1064103,11.5634615 C28.3294872,8.80192308 19.1025641,2.55064103 10.3570513,0.575 L10.3570513,0.575 C8.61217949,0.180769231 7.16858974,0.0224358974 5.975,0.0224358974 L5.975,0.0224358974 C1.18589744,0.0224358974 0.425641026,2.56217949 0.425641026,2.56217949" id="Fill-20" mask="url(#mask-15)"></path>
                </g>
                <g id="Group-25" transform="translate(0.000000, 0.026282)">
                    <mask id="mask-17" fill="white">
                        <use xlink:href="#path-16"></use>
                    </mask>
                    <g id="Clip-24"></g>
                    <path d="M154.413974,135.870705 C154.131282,135.870705 153.871667,135.681603 153.795385,135.395705 C153.752436,135.234808 149.390256,119.087372 141.467821,101.255962 C133.506923,83.3380128 119.105641,39.1437821 117.669744,26.1162179 C117.630641,25.7642949 117.885128,25.4476282 118.23641,25.4091667 C118.592821,25.3726282 118.905,25.6245513 118.944103,25.9758333 C120.33,38.5533974 134.828718,83.1572436 142.639615,100.734808 C150.605,118.663013 154.990256,134.901474 155.033846,135.063654 C155.124872,135.405321 154.922308,135.757244 154.580641,135.84891 C154.524872,135.863654 154.469103,135.870705 154.413974,135.870705" id="Fill-23" fill="#91BEFF" mask="url(#mask-17)"></path>
                </g>
                <g id="Group-28" transform="translate(89.743590, 39.769872)">
                    <mask id="mask-19" fill="white">
                        <use xlink:href="#path-18"></use>
                    </mask>
                    <g id="Clip-27"></g>
                    <path d="M2.03333333,4.53717949 C-4.1525641,14.2147436 9.53397436,32.3871795 23.1282051,18.474359 L23.1282051,18.474359 C32.8923077,8.48076923 21.0448718,0.491025641 11.225,0.48974359 L11.225,0.48974359 C7.37307692,0.489102564 3.83525641,1.71794872 2.03333333,4.53717949" id="Fill-26" mask="url(#mask-19)"></path>
                </g>
                <g id="Group-38" transform="translate(0.000000, 0.026282)">
                    <g id="Group-31">
                        <mask id="mask-21" fill="white">
                            <use xlink:href="#path-20"></use>
                        </mask>
                        <g id="Clip-30"></g>
                        <path d="M123.066346,46.9089744 C122.951603,46.9089744 122.836218,46.8782051 122.731731,46.8141026 C121.116346,45.8217949 108.161859,37.9064103 108.161859,37.9064103 L108.830449,36.8121795 C108.830449,36.8121795 121.7875,44.7288462 123.402244,45.7217949 C123.704167,45.9076923 123.799038,46.3019231 123.613141,46.6032051 C123.491987,46.800641 123.281731,46.9089744 123.066346,46.9089744" id="Fill-29" fill="#91BEFF" mask="url(#mask-21)"></path>
                    </g>
                    <g id="Group-34">
                        <mask id="mask-23" fill="white">
                            <use xlink:href="#path-22"></use>
                        </mask>
                        <g id="Clip-33"></g>
                        <path d="M127.058974,60.3542308 C126.946154,60.3542308 126.832051,60.3247436 126.727564,60.2612821 C123.488462,58.3042308 110.241026,52.8503846 110.107692,52.7952564 C109.780128,52.660641 109.623718,52.2862821 109.758333,51.9587179 C109.892949,51.6311538 110.270513,51.4766667 110.594231,51.609359 C111.14359,51.835 124.067308,57.1567949 127.391667,59.1651282 C127.694231,59.3478205 127.791667,59.7414103 127.607692,60.0452564 C127.487821,60.2439744 127.276282,60.3542308 127.058974,60.3542308" id="Fill-32" fill="#91BEFF" mask="url(#mask-23)"></path>
                    </g>
                    <g id="Group-37" transform="translate(105.128205, 80.128205)">
                        <mask id="mask-25" fill="white">
                            <use xlink:href="#path-24"></use>
                        </mask>
                        <g id="Clip-36"></g>
                        <path d="M0.315384615,8.74487179 C4.14038462,13.6916667 15.0198718,20.8519231 26.8512821,11.75 C26.8512821,11.75 24.7596154,2.93076923 23.2224359,1.59935897 C21.6839744,0.268589744 2.28846154,-2.0525641 0.315384615,8.74487179" id="Fill-35" fill="url(#linearGradient-26)" mask="url(#mask-25)"></path>
                    </g>
                </g>
                <g id="Group-41" transform="translate(103.846154, 64.128846)">
                    <mask id="mask-28" fill="white">
                        <use xlink:href="#path-27"></use>
                    </mask>
                    <g id="Clip-40"></g>
                    <path d="M15.0115385,0.456410256 C8.06410256,0.973076923 2.4025641,5.80064103 1.01987179,8.87820513 L1.01987179,8.87820513 C-2.79487179,17.3647436 5.93269231,24.7262821 10.5326923,27.1878205 L10.5326923,27.1878205 C15.1333333,29.6487179 26.4314103,24.8391026 26.9532051,17.0141026 L26.9532051,17.0141026 C27.4608974,9.40064103 22.250641,0.436538462 15.5673077,0.435897436 L15.5673077,0.435897436 C15.3826923,0.435897436 15.1980769,0.442307692 15.0115385,0.456410256" id="Fill-39" mask="url(#mask-28)"></path>
                </g>
                <g id="Group-48" transform="translate(0.000000, 0.026282)">
                    <g id="Group-44">
                        <mask id="mask-30" fill="white">
                            <use xlink:href="#path-29"></use>
                        </mask>
                        <g id="Clip-43"></g>
                        <path d="M137.557628,90.5694872 C137.411474,90.5694872 137.265321,90.5201282 137.144808,90.4188462 C137.082628,90.365641 130.828141,85.1008974 125.389679,81.5816667 C125.092244,81.39 125.006987,80.9932051 125.199295,80.6957692 C125.391603,80.3983333 125.789038,80.3130769 126.085833,80.5053846 C131.593526,84.0688462 137.90891,89.3848718 137.971731,89.4380769 C138.242244,89.6669231 138.276218,90.0714103 138.048654,90.3419231 C137.92109,90.4919231 137.740321,90.5694872 137.557628,90.5694872" id="Fill-42" fill="#91BEFF" mask="url(#mask-30)"></path>
                    </g>
                    <g id="Group-47">
                        <mask id="mask-32" fill="white">
                            <use xlink:href="#path-31"></use>
                        </mask>
                        <g id="Clip-46"></g>
                        <path d="M146.522628,112.395 C146.3675,112.395 146.212372,112.339231 146.089295,112.22641 C141.410449,107.933462 126.77391,99.8270513 126.627115,99.745641 C126.316859,99.5744872 126.204679,99.1847436 126.375833,98.8744872 C126.546346,98.5648718 126.93609,98.4514103 127.246987,98.6238462 C127.854038,98.9584615 142.164936,106.886026 146.955962,111.281538 C147.216859,111.521282 147.234167,111.927051 146.995064,112.187308 C146.868782,112.325128 146.696346,112.395 146.522628,112.395" id="Fill-45" fill="#91BEFF" mask="url(#mask-32)"></path>
                    </g>
                </g>
                <g id="Group-51" transform="translate(137.820513, 44.257051)">
                    <mask id="mask-34" fill="white">
                        <use xlink:href="#path-33"></use>
                    </mask>
                    <g id="Clip-50"></g>
                    <path d="M1.43974359,9.75576923 C-0.707692308,18.8032051 -0.442948718,28.2461538 5.21730769,32.3564103 L5.21730769,32.3564103 C10.8788462,36.4660256 20.249359,32.1288462 22.8820513,26.9487179 L22.8820513,26.9487179 C25.5134615,21.7692308 23.6378205,10.6660256 18.7974359,3.24166667 L18.7974359,3.24166667 C17.425641,1.13782051 15.5448718,0.293589744 13.525,0.293589744 L13.525,0.293589744 C8.41410256,0.292307692 2.40512821,5.68974359 1.43974359,9.75576923" id="Fill-49" mask="url(#mask-34)"></path>
                </g>
                <g id="Group-54" transform="translate(0.000000, 0.026282)">
                    <mask id="mask-36" fill="white">
                        <use xlink:href="#path-35"></use>
                    </mask>
                    <g id="Clip-53"></g>
                    <path d="M136.130321,86.7552564 C136.073269,86.7552564 136.014936,86.7475641 135.957885,86.7321795 C135.616859,86.6366667 135.4175,86.2841026 135.511731,85.9424359 C136.616218,81.9738462 139.668141,78.4732051 142.360449,75.3853846 C143.971346,73.5373077 145.493141,71.7917949 146.259808,70.2905128 C146.421346,69.9764103 146.805321,69.8520513 147.121987,70.0116667 C147.437372,70.1725641 147.562372,70.5584615 147.401474,70.8744872 C146.563013,72.5155128 144.991218,74.3187179 143.326474,76.2276923 C140.723269,79.2129487 137.773269,82.5975641 136.747628,86.2860256 C136.668782,86.569359 136.410449,86.7552564 136.130321,86.7552564" id="Fill-52" fill="#91BEFF" mask="url(#mask-36)"></path>
                </g>
                <g id="Group-57" transform="translate(119.230769, 30.795513)">
                    <mask id="mask-38" fill="white">
                        <use xlink:href="#path-37"></use>
                    </mask>
                    <g id="Clip-56"></g>
                    <path d="M4.30448718,5.95384615 C-2.71089744,13.2442308 0.344871795,21.9794872 9.66923077,25.5846154 L9.66923077,25.5846154 C18.9942308,29.1891026 29.2192308,23.1397436 30.7224359,16.2762821 L30.7224359,16.2762821 C32.225641,9.41346154 25.4589744,1.09871795 20.5064103,0.240384615 L20.5064103,0.240384615 C19.8974359,0.13525641 19.2474359,0.0846153846 18.5705128,0.0846153846 L18.5705128,0.0846153846 C13.7403846,0.0846153846 7.49102564,2.64166667 4.30448718,5.95384615" id="Fill-55" mask="url(#mask-38)"></path>
                </g>
                <g id="Group-60" transform="translate(141.025641, 82.718590)">
                    <mask id="mask-40" fill="white">
                        <use xlink:href="#path-39"></use>
                    </mask>
                    <g id="Clip-59"></g>
                    <path d="M0.511538462,4.36666667 C-1.82948718,13.8307692 6.13012821,27.9147436 9.34230769,27.4288462 L9.34230769,27.4288462 C12.5544872,26.9416667 10.6737179,5.47115385 7.18589744,1.91923077 L7.18589744,1.91923077 C6.13205128,0.846153846 5.15961538,0.423717949 4.30064103,0.423717949 L4.30064103,0.423717949 C2.31602564,0.423717949 0.930128205,2.67628205 0.511538462,4.36666667" id="Fill-58" mask="url(#mask-40)"></path>
                </g>
                <g id="Group-67" transform="translate(0.000000, 0.026282)">
                    <g id="Group-63">
                        <mask id="mask-42" fill="white">
                            <use xlink:href="#path-41"></use>
                        </mask>
                        <g id="Clip-62"></g>
                        <path d="M148.326731,117.488782 C148.247885,117.488782 148.167756,117.479167 148.088269,117.458654 C147.573526,117.327244 147.263269,116.804167 147.394679,116.289423 C148.562628,111.718269 148.510064,104.550962 148.509423,104.479167 C148.504295,103.948397 148.930577,103.513782 149.461987,103.508654 L149.470962,103.508654 C149.997885,103.508654 150.427372,103.933654 150.4325,104.461859 C150.435705,104.764423 150.488269,111.948397 149.2575,116.765064 C149.146603,117.200321 148.755577,117.488782 148.326731,117.488782" id="Fill-61" fill="#001A6B" mask="url(#mask-42)"></path>
                    </g>
                    <g id="Group-66">
                        <mask id="mask-44" fill="white">
                            <use xlink:href="#path-43"></use>
                        </mask>
                        <g id="Clip-65"></g>
                        <path d="M37.9075641,241.7125 C59.1460256,244.416346 112.963974,207.286859 114.797308,219.229167 C118.896026,245.927885 121.467821,232.046474 124.875513,274.932372 C125.496667,282.753526 144.292179,280.416987 144.290256,275.8375 C144.283846,258.438782 145.574872,201.522115 143.562692,193.282372 C141.974872,186.778526 135.971026,181.077885 128.831282,180.640705 C123.278077,180.300321 115.649872,180.121474 106.265897,182.309936 C79.5460256,188.541987 40.2735897,195.850962 24.88,199.988141 C7.08448718,204.770833 16.6691026,239.008654 37.9075641,241.7125" id="Fill-64" fill="#2848BD" mask="url(#mask-44)"></path>
                    </g>
                </g>
                <g id="Group-70" transform="translate(28.205128, 180.154487)">
                    <mask id="mask-46" fill="white">
                        <use xlink:href="#path-45"></use>
                    </mask>
                    <g id="Clip-69"></g>
                    <path d="M118.866474,72.145 C115.105577,37.4911538 108.588269,3.38858974 99.4344231,3.74628205 C87.0690385,4.22897436 69.7408333,9.22192308 58.1953205,13.2212821 C46.6498077,17.22 48.3459615,29.6033333 48.3459615,29.6033333 L-15.5617308,42.5975641 L103.156218,-28.5755128 L143.710705,-7.86205128 L118.866474,72.145 Z" id="Fill-68" fill="#C2DBFF" mask="url(#mask-46)"></path>
                </g>
                <g id="Group-73" transform="translate(0.000000, 0.026282)">
                    <mask id="mask-48" fill="white">
                        <use xlink:href="#path-47"></use>
                    </mask>
                    <g id="Clip-72"></g>
                    <path d="M24.8798718,199.988269 C24.5458974,205.640192 12.5241026,245.297885 40.6420513,248.495321 C44.6824359,248.954936 48.7151282,251.654295 53.7991026,252.849167 C68.4048718,256.2825 91.3779487,251.7075 116.399744,241.100449 C142.808077,229.904936 145.808077,228.539551 149.897179,231.385064 C153.469615,233.869679 155.149744,243.722244 166.733077,259.147885 C176.836923,272.603013 176.290769,270.834423 202.015769,297.287628 C206.412564,301.809423 221.854872,288.253654 217.240769,283.311987 C202.286282,267.295962 195.927308,250.010705 177.547821,217.814551 C168.602949,202.144038 165.427949,193.66391 142.463205,197.622244 C116.610641,202.078013 98.684359,205.37609 80.5510256,209.729295 C42.7837179,218.796603 24.8798718,199.988269 24.8798718,199.988269" id="Fill-71" fill="#2848BD" mask="url(#mask-48)"></path>
                </g>
                <g id="Group-80" transform="translate(47.435897, 196.180128)">
                    <g id="Group-76">
                        <mask id="mask-50" fill="white">
                            <use xlink:href="#path-49"></use>
                        </mask>
                        <g id="Clip-75"></g>
                        <path d="M175.161538,99.1769872 C158.817949,82.3692949 129.223718,27.3077564 120.501923,20.5942949 C109.480128,12.1096795 106.105128,5.01480769 97.0096154,8.42570513 C87.9141026,11.8359615 38.2852564,24.3769872 25.975,22.8872436 C1.77435897,19.9590385 22.3294872,15.9891667 22.3294872,15.9891667 L128.766667,-15.1851923 L193.025,54.9814744 L175.161538,99.1769872 Z" id="Fill-74" fill="#C2DBFF" mask="url(#mask-50)"></path>
                    </g>
                    <g id="Group-79">
                        <mask id="mask-52" fill="white">
                            <use xlink:href="#path-51"></use>
                        </mask>
                        <g id="Clip-78"></g>
                        <path d="M-13.2524359,45.3045513 C-0.835769231,47.8551923 14.4058974,46.5276282 9.43538462,33.923141 C4.46423077,21.3173718 -18.4575641,27.0013462 -22.7466667,12.4103205 C-28.7524359,-8.02237179 -34.3396154,-6.60378205 -34.3396154,-6.60378205 L-57.6120513,66.998141 C-57.6120513,66.998141 -25.2934615,42.8308333 -13.2524359,45.3045513" id="Fill-77" fill="#C2DBFF" mask="url(#mask-52)"></path>
                    </g>
                </g>
                <g id="Group-88" transform="translate(12.820513, 112.846795)">
                    <g id="Group-83">
                        <mask id="mask-54" fill="white">
                            <use xlink:href="#path-53"></use>
                        </mask>
                        <g id="Clip-82"></g>
                        <polygon id="Fill-81" fill="url(#linearGradient-55)" mask="url(#mask-54)" points="286.917949 68.6262821 99.9673077 0.582051282 0.461538462 36.799359 187.412179 104.84359"></polygon>
                    </g>
                    <g id="Group-86" transform="translate(0.000000, 36.538462)">
                        <mask id="mask-57" fill="white">
                            <use xlink:href="#path-56"></use>
                        </mask>
                        <g id="Clip-85"></g>
                        <polygon id="Fill-84" mask="url(#mask-57)" points="0.461538462 5.53333333 0.461538462 0.260897436 187.412179 68.3051282 187.412179 73.5775641"></polygon>
                    </g>
                    <polygon id="Fill-87" points="286.917949 73.899359 286.917949 68.6262821 187.412179 104.84359 187.412179 110.116026"></polygon>
                </g>
                <g id="Group-91" transform="translate(128.205128, 91.692949)">
                    <mask id="mask-59" fill="white">
                        <use xlink:href="#path-58"></use>
                    </mask>
                    <g id="Clip-90"></g>
                    <path d="M14.5820513,3.03012821 L0.659615385,38.1294872 C0.0230769231,39.7076923 0.824358974,41.499359 2.425,42.0762821 L2.425,42.0762821 L57.0910256,61.7884615 C59.174359,62.5397436 61.4839744,61.5615385 62.3948718,59.5435897 L62.3948718,59.5435897 L77.4115385,25.9410256 C78.3820513,23.7910256 77.3198718,21.2698718 75.1032051,20.4634615 L75.1032051,20.4634615 L20.2570513,0.500641026 C19.7532051,0.317307692 19.2371795,0.230128205 18.7288462,0.230128205 L18.7288462,0.230128205 C16.9557692,0.230128205 15.2826923,1.29294872 14.5820513,3.03012821" id="Fill-89" mask="url(#mask-59)"></path>
                </g>
                <g id="Group-94" transform="translate(127.564103, 91.692949)">
                    <mask id="mask-61" fill="white">
                        <use xlink:href="#path-60"></use>
                    </mask>
                    <g id="Clip-93"></g>
                    <path d="M14.5089744,2.83141026 L0.586538462,37.9314103 C-0.05,39.5089744 0.751282051,41.300641 2.3525641,41.8775641 L2.3525641,41.8775641 L57.0179487,61.5903846 C59.100641,62.3410256 61.4108974,61.3634615 62.3217949,59.3455128 L62.3217949,59.3455128 L77.3391026,25.7423077 C78.3096154,23.5929487 77.2474359,21.0717949 75.0307692,20.2653846 L75.0307692,20.2653846 L20.1846154,0.302564103 C19.6807692,0.119230769 19.1641026,0.0320512821 18.6564103,0.0320512821 L18.6564103,0.0320512821 C16.8826923,0.0320512821 15.2096154,1.09423077 14.5089744,2.83141026" id="Fill-92" mask="url(#mask-61)"></path>
                </g>
                <g id="Group-123" transform="translate(0.000000, 0.026282)">
                    <g id="Group-97">
                        <mask id="mask-63" fill="white">
                            <use xlink:href="#path-62"></use>
                        </mask>
                        <g id="Clip-96"></g>
                        <polygon id="Fill-95" fill="#2848BD" mask="url(#mask-63)" points="130.639038 131.504936 145.735833 93.4946795 203.012756 114.342115 186.348013 151.593397"></polygon>
                    </g>
                    <g id="Group-119">
                        <g id="Group-100">
                            <mask id="mask-65" fill="white">
                                <use xlink:href="#path-64"></use>
                            </mask>
                            <g id="Clip-99"></g>
                            <path d="M141.538397,107.972308 L141.54609,107.953077 C143.039038,104.192821 147.251859,102.302436 151.053141,103.685769 L193.303782,118.846667 C197.382628,120.331282 199.344808,124.965256 197.572372,128.926795 C195.974295,132.499872 191.891603,134.235769 188.210192,132.908205 L145.951218,117.767179 C141.978141,116.334487 139.978782,111.897949 141.538397,107.972308" id="Fill-98" fill="#FFFFFF" mask="url(#mask-65)"></path>
                        </g>
                        <g id="Group-103">
                            <mask id="mask-67" fill="white">
                                <use xlink:href="#path-66"></use>
                            </mask>
                            <g id="Clip-102"></g>
                            <path d="M142.368462,108.133846 L142.376154,108.115256 C143.824872,104.465897 147.912692,102.631923 151.601795,103.974872 L192.603718,118.687051 C196.56141,120.127436 198.465897,124.624231 196.745385,128.469744 C195.194744,131.93641 191.233205,133.621026 187.660128,132.332564 L146.651154,117.638974 C142.795385,116.24859 140.855641,111.942821 142.368462,108.133846" id="Fill-101" fill="#EDF4FF" mask="url(#mask-67)"></path>
                        </g>
                        <g id="Group-106">
                            <mask id="mask-69" fill="white">
                                <use xlink:href="#path-68"></use>
                            </mask>
                            <g id="Clip-105"></g>
                            <path d="M143.198526,108.295321 L143.206218,108.277372 C144.610705,104.739551 148.574167,102.961346 152.15109,104.262628 L191.903013,118.526731 C195.740833,119.923526 197.586987,124.283141 195.919038,128.011346 C194.415192,131.372244 190.574167,133.005577 187.110064,131.756859 L147.35109,117.510705 C143.612628,116.162628 141.731859,111.98891 143.198526,108.295321" id="Fill-104" fill="#DBE9FF" mask="url(#mask-69)"></path>
                        </g>
                        <g id="Group-109">
                            <mask id="mask-71" fill="white">
                                <use xlink:href="#path-70"></use>
                            </mask>
                            <g id="Clip-108"></g>
                            <path d="M144.02859,108.456859 L144.036282,108.439551 C145.396538,105.012628 149.235641,103.289551 152.699744,104.55109 L191.202949,118.367115 C194.919615,119.719679 196.708077,123.942115 195.092051,127.553013 C193.636282,130.808782 189.915769,132.390833 186.560641,131.180577 L148.050385,117.383141 C144.429872,116.077372 142.608077,112.033782 144.02859,108.456859" id="Fill-107" fill="#C8DEFF" mask="url(#mask-71)"></path>
                        </g>
                        <g id="Group-112">
                            <mask id="mask-73" fill="white">
                                <use xlink:href="#path-72"></use>
                            </mask>
                            <g id="Clip-111"></g>
                            <path d="M144.859295,108.618333 L144.866346,108.601667 C146.182372,105.286282 149.896474,103.618974 153.249038,104.838846 L190.502244,118.206795 C194.098397,119.515769 195.829167,123.601667 194.265705,127.094615 C192.856731,130.244615 189.257372,131.775385 186.010577,130.604872 L148.750321,117.254872 C145.246474,115.99141 143.484295,112.079231 144.859295,108.618333" id="Fill-110" fill="#B6D4FF" mask="url(#mask-73)"></path>
                        </g>
                        <g id="Group-115">
                            <mask id="mask-75" fill="white">
                                <use xlink:href="#path-74"></use>
                            </mask>
                            <g id="Clip-114"></g>
                            <path d="M145.689423,108.779872 L145.696474,108.763205 C146.968269,105.559359 150.558654,103.948462 153.797756,105.127308 L189.801603,118.046538 C193.277244,119.311923 194.949679,123.260641 193.439423,126.636282 L193.439423,126.636923 C192.077244,129.681154 188.598397,131.160641 185.461218,130.02859 L149.449679,117.126667 C146.064423,115.905513 144.361218,112.125385 145.689423,108.779872" id="Fill-113" fill="#A4C9FF" mask="url(#mask-75)"></path>
                        </g>
                        <g id="Group-118">
                            <mask id="mask-77" fill="white">
                                <use xlink:href="#path-76"></use>
                            </mask>
                            <g id="Clip-117"></g>
                            <path d="M146.519487,108.941346 L146.525897,108.925321 C147.754744,105.832372 151.219487,104.277885 154.34641,105.415705 L189.101538,117.886859 C192.456667,119.107372 194.070769,122.919551 192.612436,126.179167 C191.297692,129.117628 187.939359,130.545192 184.911795,129.453526 L150.149615,116.998397 C146.881026,115.819551 145.237436,112.170192 146.519487,108.941346" id="Fill-116" fill="#91BEFF" mask="url(#mask-77)"></path>
                        </g>
                    </g>
                    <g id="Group-122">
                        <mask id="mask-79" fill="white">
                            <use xlink:href="#path-78"></use>
                        </mask>
                        <g id="Clip-121"></g>
                        <path d="M145.710705,107.131603 L145.717756,107.115577 C146.945962,104.022628 150.410705,102.468141 153.538269,103.605962 L188.293397,116.077115 C191.647885,117.297628 193.262628,121.109808 191.803654,124.369423 C190.48891,127.307885 187.131218,128.735449 184.103013,127.643782 L149.340833,115.188654 C146.072885,114.009808 144.428654,110.360449 145.710705,107.131603" id="Fill-120" fill="#3486FE" mask="url(#mask-79)"></path>
                    </g>
                </g>
                <g id="Group-126" transform="translate(88.461538, 133.359615)">
                    <mask id="mask-81" fill="white">
                        <use xlink:href="#path-80"></use>
                    </mask>
                    <g id="Clip-125"></g>
                    <path d="M35.3358974,0.911538462 L1.10769231,11.4692308 C0.125,12.1160256 0.371153846,12.7301282 0.371153846,14.2929487 L0.371153846,14.2929487 C0.371153846,14.7820513 0.558333333,15.2974359 1.10769231,15.4980769 L1.10769231,15.4980769 L57.7897436,36.1384615 C59.5878205,36.7929487 61.5589744,36.7929487 63.3576923,36.1384615 L63.3576923,36.1384615 L97.5852564,23.6801282 C98.1102564,23.4891026 98.3583333,23.0057692 98.3275641,22.5384615 L98.3275641,22.5384615 C98.3141026,22.3314103 98.3173077,20.8846154 98.3173077,20.5480769 L98.3173077,20.5480769 C98.3173077,20.4371795 98.1807692,20.7384615 98.0179487,21.0403846 L98.0179487,21.0403846 C97.8685897,21.3160256 97.6967949,21.5923077 97.5852564,21.5512821 L97.5852564,21.5512821 L40.9032051,0.911538462 C40.0038462,0.583974359 39.0615385,0.420512821 38.1192308,0.420512821 L38.1192308,0.420512821 C37.1769231,0.420512821 36.2346154,0.583974359 35.3358974,0.911538462" id="Fill-124" mask="url(#mask-81)"></path>
                </g>
                <g id="Group-129" transform="translate(88.461538, 131.436538)">
                    <mask id="mask-83" fill="white">
                        <use xlink:href="#path-82"></use>
                    </mask>
                    <g id="Clip-128"></g>
                    <path d="M35.3358974,0.933974359 L1.10769231,13.3923077 C0.114102564,13.7538462 0.114102564,15.1596154 1.10769231,15.5211538 L1.10769231,15.5211538 L57.7897436,36.1608974 C59.5878205,36.8160256 61.5589744,36.8160256 63.3576923,36.1608974 L63.3576923,36.1608974 L97.5852564,23.7038462 C98.5782051,23.3416667 98.5782051,21.9365385 97.5852564,21.575 L97.5852564,21.575 L40.9032051,0.933974359 C40.0038462,0.607051282 39.0615385,0.443589744 38.1192308,0.443589744 L38.1192308,0.443589744 C37.1769231,0.443589744 36.2346154,0.607051282 35.3358974,0.933974359" id="Fill-127" fill="url(#linearGradient-84)" mask="url(#mask-83)"></path>
                </g>
                <g id="Group-132" transform="translate(110.256410, 146.821154)">
                    <mask id="mask-86" fill="white">
                        <use xlink:href="#path-85"></use>
                    </mask>
                    <g id="Clip-131"></g>
                    <path d="M10.6621795,0.76474359 L0.730769231,4.37948718 C0.442948718,4.48397436 0.442948718,4.89166667 0.730769231,4.9974359 L0.730769231,4.9974359 L17.1788462,10.9865385 C17.700641,11.1762821 18.2724359,11.1762821 18.7948718,10.9865385 L18.7948718,10.9865385 L28.725641,7.37115385 C29.0141026,7.26602564 29.0141026,6.85897436 28.725641,6.75320513 L28.725641,6.75320513 L12.2782051,0.76474359 C12.0173077,0.669871795 11.7435897,0.621794872 11.4705128,0.621794872 L11.4705128,0.621794872 C11.1967949,0.621794872 10.9237179,0.669871795 10.6621795,0.76474359" id="Fill-130" mask="url(#mask-86)"></path>
                </g>
                <g id="Group-135" transform="translate(108.333333, 134.641667)">
                    <mask id="mask-88" fill="white">
                        <use xlink:href="#path-87"></use>
                    </mask>
                    <g id="Clip-134"></g>
                    <path d="M14.6211538,0.537820513 L0.401923077,5.71282051 C-0.0108974359,5.86282051 -0.0108974359,6.44615385 0.401923077,6.59679487 L0.401923077,6.59679487 L55.4910256,26.6512821 C56.2384615,26.9230769 57.0570513,26.9230769 57.8038462,26.6512821 L57.8038462,26.6512821 L72.0230769,21.4762821 C72.4358974,21.3262821 72.4358974,20.7423077 72.0230769,20.5923077 L72.0230769,20.5923077 L16.9339744,0.537820513 C16.5602564,0.401282051 16.1685897,0.333333333 15.7775641,0.333333333 L15.7775641,0.333333333 C15.3858974,0.333333333 14.9942308,0.401282051 14.6211538,0.537820513" id="Fill-133" mask="url(#mask-88)"></path>
                </g>
                <g id="Group-145" transform="translate(0.000000, 0.026282)">
                    <g id="Group-138">
                        <mask id="mask-90" fill="white">
                            <use xlink:href="#path-89"></use>
                        </mask>
                        <g id="Clip-137"></g>
                        <polygon id="Fill-136" fill="#FFFFFF" mask="url(#mask-90)" points="150.264808 113.026667 149.685321 112.75359 153.289808 105.101026 153.869295 105.374103"></polygon>
                    </g>
                    <g id="Group-141">
                        <mask id="mask-92" fill="white">
                            <use xlink:href="#path-91"></use>
                        </mask>
                        <g id="Clip-140"></g>
                        <path d="M29.3607692,115.807372 C20.8594872,115.711218 21.1864103,126.740705 29.4838462,141.859936 C34.6697436,151.309295 39.0979487,154.665064 47.4216667,163.415705 C52.4158974,168.665705 54.6614103,173.622115 57.8819231,173.288782 C78.5684615,171.149679 80.7280769,169.707372 108.374231,156.902885 C108.374231,156.902885 110.022949,148.221474 105.653718,149.181731 C87.4453846,153.183654 93.5492308,151.2875 80.3934615,154.470833 C66.7748718,157.766346 62.5941026,156.816987 62.5941026,156.816987 C62.5941026,156.816987 56.5735897,151.958654 49.2530769,139.904167 C41.9325641,127.849038 37.9710256,115.905449 29.3607692,115.807372" id="Fill-139" fill="#884B00" mask="url(#mask-92)"></path>
                    </g>
                    <g id="Group-144">
                        <mask id="mask-94" fill="white">
                            <use xlink:href="#path-93"></use>
                        </mask>
                        <g id="Clip-143"></g>
                        <path d="M107.646026,156.903718 C113.551795,156.901154 123.557564,154.87359 125.033205,152.096026 C126.508846,149.318462 124.138333,150.182564 122.169744,150.899872 C120.201154,151.617179 117.487051,152.27359 116.830641,151.618462 C116.174872,150.962051 119.968462,144.235128 122.897308,143.167821 C125.826154,142.100513 127.674231,145.300513 129.213974,144.739615 C130.753077,144.178718 130.354359,141.406282 126.997308,140.18641 C123.640897,138.966538 121.422949,137.63641 119.985769,137.637051 C118.547949,137.637692 115.039615,138.085769 112.560769,138.988974 C110.082564,139.892179 108.483205,144.384487 107.068462,146.783205 C105.653718,149.181923 103.007564,149.758846 103.007564,149.758846 L107.646026,156.903718 Z" id="Fill-142" fill="#884B00" mask="url(#mask-94)"></path>
                    </g>
                </g>
                <g id="Group-152" transform="translate(15.384615, 104.513462)">
                    <g id="Group-148">
                        <mask id="mask-96" fill="white">
                            <use xlink:href="#path-95"></use>
                        </mask>
                        <g id="Clip-147"></g>
                        <path d="M22.9115385,0.533333333 C17.5596154,0.908974359 12.2794872,2.85512821 7.73782051,13.9339744 L7.73782051,13.9339744 C5.31282051,19.8455128 1.52820513,33.7929487 1.53525641,53.4948718 L1.53525641,53.4948718 C1.53782051,60.875641 1.01538462,70.3653846 0.503205128,80.8602564 L0.503205128,80.8602564 C13.1032051,98.9288462 33.6346154,110.927564 62.8012821,114.467949 L62.8012821,114.467949 C62.9788462,113.657051 62.9692308,112.807051 62.7512821,111.917308 L62.7512821,111.917308 C58.8147436,95.8467949 59.5384615,75.9487179 61.6935897,63.9262821 L61.6935897,63.9262821 C63.1352564,55.8858974 65.9647436,45.2589744 64.1448718,37.8025641 L64.1448718,37.8025641 C62.1897436,29.7923077 66.3608974,20.7224359 65.3653846,18.1576923 L65.3653846,18.1576923 C64.9192308,17.0089744 64.0705128,15.9987179 62.9089744,15.2916667 L62.9089744,15.2916667 C51.7397436,8.49807692 34.9455128,0.487820513 24.2628205,0.487179487 L24.2628205,0.487179487 C23.800641,0.487179487 23.35,0.502564103 22.9115385,0.533333333" id="Fill-146" fill="url(#linearGradient-97)" mask="url(#mask-96)"></path>
                    </g>
                    <g id="Group-151">
                        <mask id="mask-99" fill="white">
                            <use xlink:href="#path-98"></use>
                        </mask>
                        <g id="Clip-150"></g>
                        <path d="M50.8144872,131.374103 C50.8144872,131.374103 7.85358974,118.174744 12.1471795,101.170897 C16.3298718,84.6016667 -12.0867949,74.0542308 -2.10282051,50.4048718 C6.135,30.8946154 1.81576923,12.2638462 15.1439744,1.92346154 C16.6458974,0.757435897 42.6279487,7.60166667 55.6574359,18.5728205 C67.1260256,28.2305128 58.2580769,55.0561538 50.5619231,86.7491026 C45.4574359,107.773462 98.4792308,142.204872 98.4792308,142.204872 C98.5003846,142.667692 60.2491026,135.427308 50.8144872,131.374103" id="Fill-149" fill="#D4E6FC" mask="url(#mask-99)"></path>
                    </g>
                </g>
                <g id="Group-155" transform="translate(157.051282, 171.821154)">
                    <mask id="mask-101" fill="white">
                        <use xlink:href="#path-100"></use>
                    </mask>
                    <g id="Clip-154"></g>
                    <path d="M27.2814103,0.786538462 L1.01538462,8.88846154 C0.260897436,9.38461538 0.45,9.85512821 0.45,11.0544872 L0.45,11.0544872 C0.45,11.4301282 0.593589744,11.8262821 1.01538462,11.9801282 L1.01538462,11.9801282 L19.2314103,18.6173077 C20.6115385,19.1192308 22.124359,19.1192308 23.5038462,18.6173077 L23.5038462,18.6173077 L41.2923077,12.1429487 C43.3339744,10.3070513 45.3044872,8.41730769 47.1923077,6.48525641 L47.1923077,6.48525641 L31.5538462,0.786538462 C30.8641026,0.53525641 30.1403846,0.409615385 29.4173077,0.409615385 L29.4173077,0.409615385 C28.6942308,0.409615385 27.9711538,0.53525641 27.2814103,0.786538462" id="Fill-153" mask="url(#mask-101)"></path>
                </g>
                <g id="Group-158" transform="translate(157.051282, 170.539103)">
                    <mask id="mask-103" fill="white">
                        <use xlink:href="#path-102"></use>
                    </mask>
                    <g id="Clip-157"></g>
                    <path d="M27.2814103,0.61025641 L1.01538462,10.1705128 C0.253205128,10.4474359 0.253205128,11.5262821 1.01538462,11.8038462 L1.01538462,11.8038462 L19.2314103,18.4410256 C20.6115385,18.9429487 22.124359,18.9429487 23.5038462,18.4410256 L23.5038462,18.4410256 L43.8935897,11.0198718 C45.3878205,9.6 46.8288462,8.16153846 48.2339744,6.68782051 L48.2339744,6.68782051 L31.5538462,0.61025641 C30.8641026,0.358974359 30.1403846,0.233333333 29.4173077,0.233333333 L29.4173077,0.233333333 C28.6942308,0.233333333 27.9711538,0.358974359 27.2814103,0.61025641" id="Fill-156" fill="url(#linearGradient-104)" mask="url(#mask-103)"></path>
                </g>
                <g id="Group-161" transform="translate(158.333333, 171.180128)">
                    <mask id="mask-106" fill="white">
                        <use xlink:href="#path-105"></use>
                    </mask>
                    <g id="Clip-160"></g>
                    <path d="M0.201282051,10.0089744 L20.6179487,17.5179487 L44.0512821,8.98910256 C44.6782051,8.37371795 45.3038462,7.74679487 45.9147436,7.12179487 L45.9147436,7.12179487 L27.1230769,0.209615385 L0.201282051,10.0089744 Z" id="Fill-159" mask="url(#mask-106)"></path>
                </g>
                <g id="Group-171" transform="translate(0.000000, 0.026282)">
                    <g id="Group-164">
                        <mask id="mask-108" fill="white">
                            <use xlink:href="#path-107"></use>
                        </mask>
                        <g id="Clip-163"></g>
                        <polygon id="Fill-162" fill="#91BEFF" mask="url(#mask-108)" points="176.955641 183.177628 152.626795 164.3975 153.802436 162.875064 178.131282 181.655192"></polygon>
                    </g>
                    <g id="Group-167">
                        <mask id="mask-110" fill="white">
                            <use xlink:href="#path-109"></use>
                        </mask>
                        <g id="Clip-166"></g>
                        <path d="M76.9869872,118.6525 C76.9869872,118.6525 80.7626282,120.693526 81.7914744,123.118526 C82.8203205,125.544167 88.7171154,149.040321 85.7639103,150.435192 C82.8113462,151.829423 77.0203205,176.062115 68.5523718,159.532628 C62.2696795,147.270449 60.9575,125.798013 65.2222436,121.532628 C69.4882692,117.267885 75.2703205,117.59609 76.9869872,118.6525" id="Fill-165" fill="#172182" mask="url(#mask-110)"></path>
                    </g>
                    <g id="Group-170">
                        <mask id="mask-112" fill="white">
                            <use xlink:href="#path-111"></use>
                        </mask>
                        <g id="Clip-169"></g>
                        <path d="M180.552051,180.073269 C180.211026,179.077115 174.187308,175.609808 170.086026,173.266859 C168.975128,172.632244 164.002051,172.550833 161.677051,172.204679 C154.959744,171.204038 151.967436,176.46109 147.445641,176.934808 L147.445641,176.935449 C128.753974,176.279679 134.871923,177.959167 120.360385,175.572628 C106.56359,173.304679 104.592436,175.282885 100.794359,172.193782 C97.5719231,169.572628 98.0225641,163.101474 91.4437179,148.652756 C85.0026923,134.507244 85.4238462,122.656603 76.1302564,120.145705 C66.9533333,117.666859 64.4783333,127.664936 67.4020513,146.438654 C68.6411538,154.388013 71.8116667,161.247628 74.9026923,165.495705 C76.9873077,168.36109 78.2417949,174.725833 80.244359,179.439295 C83.3732051,186.807885 88.0687179,191.233526 91.6898718,191.360449 C113.103333,192.114295 116.287949,191.895064 148.486667,186.241859 C149.199487,186.424551 154.935385,187.880321 158.183462,188.293782 C161.652051,188.736731 166.928333,189.149551 170.029615,191.132885 C173.130897,193.116218 178.158462,187.364936 177.218077,185.247628 C176.277692,183.130962 174.246282,180.050192 174.246282,180.050192 C179.082179,182.923269 180.893077,181.070064 180.552051,180.073269" id="Fill-168" fill="#884B00" mask="url(#mask-112)"></path>
                    </g>
                </g>
                <g id="Group-177" transform="translate(0.641026, 139.128846)">
                    <mask id="mask-114" fill="white">
                        <use xlink:href="#path-113"></use>
                    </mask>
                    <g id="Clip-176"></g>
                    <path d="M65.6974359,77.8512821 C56.0942308,57.0301282 47.3057692,32.5128205 42.9282051,19.7717949 L42.9282051,19.7717949 C41.0596154,14.3326923 36.6070513,10.1820513 31.0519231,8.69294872 L31.0519231,8.69294872 L0.228846154,0.430128205 C3.13782051,39.8762821 24.0948718,68.6967949 65.6974359,77.8512821" id="Fill-175" mask="url(#mask-114)"></path>
                </g>
                <g id="Group-187" transform="translate(0.000000, 0.026282)">
                    <g id="Group-180">
                        <mask id="mask-116" fill="white">
                            <use xlink:href="#path-115"></use>
                        </mask>
                        <g id="Clip-179"></g>
                        <path d="M44.9876282,105.824487 C41.2850641,107.172564 38.8216026,107.23859 38.8216026,110.722564 C38.8216026,114.205256 45.5914744,117.37641 50.9510897,117.37641 C56.3094231,117.37641 65.4305769,116.611026 65.9004487,113.877692 C66.3709615,111.143077 63.1010897,109.175128 63.1010897,109.175128 L44.9876282,105.824487 Z" id="Fill-178" fill="#172182" mask="url(#mask-116)"></path>
                    </g>
                    <g id="Group-183">
                        <mask id="mask-118" fill="white">
                            <use xlink:href="#path-117"></use>
                        </mask>
                        <g id="Clip-182"></g>
                        <path d="M-5.74980769,136.067885 C-2.00173077,134.690962 0.204038462,134.949295 4.23096154,136.029423 L29.7867308,142.884551 C40.4617308,145.748654 48.4450641,148.714679 51.4944231,155.979423 C60.2142949,176.750577 67.5271154,226.347372 80.018141,241.453782 C86.7758333,249.626218 105.700192,249.206346 119.04891,245.618526 C132.313654,242.053141 137.209167,240.049936 142.768782,236.885192 C144.305962,236.010833 145.136731,234.314038 145.185449,232.867244 L145.262372,241.720449 C145.172628,242.837115 144.319423,243.831987 143.277115,244.796731 C143.277115,244.796731 139.226474,248.242244 119.033526,253.670449 C105.685449,257.25891 82.8328846,259.011474 72.5873718,248.188397 C60.2803205,235.188397 50.5675,177.235192 43.3848077,158.43391 C40.0053205,149.587115 32.2482692,147.948013 21.5739103,145.084551 L-3.98121795,138.230064 C-7.47480769,137.292885 -8.74275641,137.810192 -10.7985256,139.0775 C-10.7985256,139.0775 -7.98378205,136.888397 -5.74980769,136.067885" id="Fill-181" fill="#F7FBFF" mask="url(#mask-118)"></path>
                    </g>
                    <g id="Group-186">
                        <mask id="mask-120" fill="white">
                            <use xlink:href="#path-119"></use>
                        </mask>
                        <g id="Clip-185"></g>
                        <path d="M41.9615385,110.227179 C38.6044872,114.32141 64.2064103,117.389359 63.7980769,112.110513 C63.3903846,106.832308 67.9474359,98.0669231 68.9365385,94.3797436 C69.5974359,91.915641 52.8820513,75.5271795 48.65,95.164359 C47.7012821,99.5637179 45.4044872,106.028462 41.9615385,110.227179" id="Fill-184" fill="#6F3E02" mask="url(#mask-120)"></path>
                    </g>
                </g>
                <g id="Group-190" transform="translate(41.025641, 85.282692)">
                    <mask id="mask-122" fill="white">
                        <use xlink:href="#path-121"></use>
                    </mask>
                    <g id="Clip-189"></g>
                    <path d="M3.76166667,10.4375 C2.70076923,13.9073718 -19.1953846,31.0836538 17.5174359,30.5028846 C17.5174359,30.5028846 21.4834615,18.363141 27.8308974,19.3016026 C31.8982051,19.9028846 3.76166667,10.4375 3.76166667,10.4375" id="Fill-188" fill="#884B00" mask="url(#mask-122)"></path>
                </g>
                <g id="Group-193" transform="translate(0.000000, 0.026282)">
                    <mask id="mask-124" fill="white">
                        <use xlink:href="#path-123"></use>
                    </mask>
                    <g id="Clip-192"></g>
                    <path d="M82.6116026,57.8201923 C78.7186538,55.7233974 73.3321154,54.9586538 67.9160897,57.6163462 C65.6269872,58.7394231 62.7680128,58.1804487 60.7128846,57.1407051 C55.7930128,54.6522436 42.1096795,59.7496795 42.7436538,70.3054487 C45.3564744,74.9810897 45.1750641,74.6516026 50.7545513,77.9413462 C54.0808333,79.9016026 71.4648077,78.1830128 72.8910897,80.8022436 L76.1577564,77.9137821 C83.8449359,80.6041667 96.7109615,65.4163462 82.6116026,57.8201923" id="Fill-191" fill="#34355D" mask="url(#mask-124)"></path>
                </g>
                <g id="Group-196" transform="translate(42.307692, 55.795513)">
                    <mask id="mask-126" fill="white">
                        <use xlink:href="#path-125"></use>
                    </mask>
                    <g id="Clip-195"></g>
                    <path d="M11.6067308,28.7048718 C14.9733974,24.1491026 23.2701923,21.6805128 23.1246795,18.3362821 C22.9778846,14.9920513 29.1695513,13.7394872 31.8003205,14.7632051 C45.9926282,20.285641 42.3349359,14.8484615 47.1060897,22.8330769 C50.5535256,28.6029487 41.9464744,25.6285897 41.9464744,25.6285897 L31.4330128,28.3644872 L12.8272436,29.0644872 L11.6067308,28.7048718 Z" id="Fill-194" fill="#884B00" mask="url(#mask-126)"></path>
                </g>
                <g id="Group-199" transform="translate(0.000000, 0.026282)">
                    <mask id="mask-128" fill="white">
                        <use xlink:href="#path-127"></use>
                    </mask>
                    <g id="Clip-198"></g>
                    <path d="M67.8542308,70.9962821 C58.3317949,74.8680769 45.4042308,75.1392308 42.7433333,70.3052564 C43.8324359,82.0494872 45.8157692,89.3597436 47.685,98.2302564 L59.1702564,100.786667 L72.8907692,80.8020513 C71.4817949,77.9212821 71.510641,69.5097436 67.8542308,70.9962821" id="Fill-197" fill="#2F305C" mask="url(#mask-128)"></path>
                </g>
                <g id="Group-202" transform="translate(42.307692, 69.898077)">
                    <mask id="mask-130" fill="white">
                        <use xlink:href="#path-129"></use>
                    </mask>
                    <g id="Clip-201"></g>
                    <path d="M26.3409615,0.808974359 C25.3762179,1.1775641 24.6698077,1.99807692 24.4037821,2.99615385 C22.6826282,9.44935897 14.003141,23.5429487 9.20570513,27.6365385 C3.97173077,32.1012821 19.9666026,33.9903846 19.9666026,33.9903846 L32.6973718,3.98205128 L26.4076282,0.783333333 L26.3409615,0.808974359 Z" id="Fill-200" fill="#884B00" mask="url(#mask-130)"></path>
                </g>
                <g id="Group-205" transform="translate(0.000000, 0.026282)">
                    <mask id="mask-132" fill="white">
                        <use xlink:href="#path-131"></use>
                    </mask>
                    <g id="Clip-204"></g>
                    <path d="M64.2985256,85.3254487 C63.2254487,87.5158333 62.1055769,91.2401923 63.8273718,93.7966026 C60.633141,97.7530128 55.5305769,99.8863462 55.8844231,100.055577 C61.0267308,102.508782 66.6927564,104.840192 68.6459615,105.012628 C72.8190385,105.379936 75.8203205,92.7023718 76.2517308,90.3357051 C76.9401923,86.5671154 75.2735256,85.956859 75.0664744,82.1959615 C74.9491667,80.0658333 76.9337821,76.2222436 76.9337821,76.2222436 C73.9587821,74.5786538 73.4100641,74.9254487 69.5305769,83.3158333 C68.5927564,85.3433974 67.5760897,78.6350641 64.2985256,85.3254487" id="Fill-203" fill="#6F3E02" mask="url(#mask-132)"></path>
                </g>
                <g id="Group-208" transform="translate(55.769231, 75.026282)">
                    <mask id="mask-134" fill="white">
                        <use xlink:href="#path-133"></use>
                    </mask>
                    <g id="Clip-207"></g>
                    <path d="M5.18519231,35.9827564 C12.0646795,33.0827564 22.6428846,16.5058333 16.2691667,9.24814103 C14.8351923,7.61544872 15.3242949,6.61032051 16.2762179,1.38980769 C17.203141,-3.70121795 20.7050641,-9.18967949 22.2492949,-10.7319872 L11.4871154,-13.828141 C10.7973718,-13.8704487 -27.5430128,49.7782692 5.18519231,35.9827564" id="Fill-206" fill="#884B00" mask="url(#mask-134)"></path>
                </g>
                <g id="Group-218" transform="translate(191.025641, 155.795513)">
                    <mask id="mask-136" fill="white">
                        <use xlink:href="#path-135"></use>
                    </mask>
                    <g id="Clip-217"></g>
                    <path d="M9.29230769,0.720512821 C4.53141026,2.17884615 2.56346154,3.92371795 1.09807692,5.84487179 L1.09807692,5.84487179 C0.317307692,6.86794872 -0.533333333,9.32435897 0.466025641,9.68974359 L0.466025641,9.68974359 L2.0025641,10.25 C4.60769231,11.2012821 7.46730769,11.1846154 10.0615385,10.2038462 L10.0615385,10.2038462 L20.2153846,6.36538462 C21.2108974,5.98910256 21.4512821,3.96730769 19.6717949,2.93205128 L19.6717949,2.93205128 C17.0025641,1.37820513 13.8230769,0.451923077 11.3410256,0.451282051 L11.3410256,0.451282051 C10.5807692,0.451282051 9.88653846,0.538461538 9.29230769,0.720512821" id="Fill-216" mask="url(#mask-136)"></path>
                </g>
                <g id="Group-228" transform="translate(169.230769, 75.667308)">
                    <mask id="mask-138" fill="white">
                        <use xlink:href="#path-137"></use>
                    </mask>
                    <g id="Clip-227"></g>
                    <path d="M7.74679487,13.8602564 C1.51666667,12.9115385 -0.382692308,16.2576923 0.203205128,19.6044872 L0.203205128,19.6044872 C1.03653846,24.3602564 6.89038462,29.1153846 12.475,21.5423077 L12.475,21.5423077 C19.8070513,31.1532051 24.3282051,26.3371795 24.3525641,21.5205128 L24.3525641,21.5205128 C24.3692308,18.1301282 22.1576923,14.7391026 17.1288462,16.3814103 L17.1288462,16.3814103 C27.5621795,5.84102564 20.6525641,0.178205128 13.8076923,0.176923077 L13.8076923,0.176923077 C7.78461538,0.176282051 1.81282051,4.55897436 7.74679487,13.8602564" id="Fill-226" mask="url(#mask-138)"></path>
                </g>
            </g>
        </g>
    </g>
</svg>