<?xml version="1.0" encoding="UTF-8"?>
<svg width="125px" height="154px" viewBox="0 0 125 154" version="1.1" xmlns="http://www.w3.org/2000/svg" xmlns:xlink="http://www.w3.org/1999/xlink">
    <!-- Generator: sketchtool 54.1 (76490) - https://sketchapp.com -->
    <title>EE33681B-A221-49E2-BEC4-4BE18C157529</title>
    <desc>Created with sketchtool.</desc>
    <defs>
        <polygon id="path-1" points="4.93090379e-05 0.340842008 107.706207 0.340842008 107.706207 25.0930233 4.93090379e-05 25.0930233"></polygon>
        <path d="M6.262,0.2603 C0.24,1.4554 -0.588,8.265 0.886,13.2221 L0.886,13.2221 C1.556,15.4755 2.67,17.4496 4.234,18.9183 L4.234,18.9183 C3.18,17.6149 2.396,16.0379 1.878,14.2918 L1.878,14.2918 C0.404,9.3385 1.23,2.527 7.254,1.3338 L7.254,1.3338 C9.688,0.8512 11.294,1.5941 12.282,2.413 L12.282,2.413 C11.728,1.6169 10.344,0.1083 7.75,0.1083 L7.75,0.1083 C7.292,0.1083 6.798,0.1558 6.262,0.2603" id="path-3"></path>
        <linearGradient x1="0.00899182021%" y1="50.0016566%" x2="99.9926715%" y2="50.0016566%" id="linearGradient-5">
            <stop stop-color="#FFD100" offset="0%"></stop>
            <stop stop-color="#FF9300" offset="100%"></stop>
        </linearGradient>
        <path d="M3.40413333,3.66333333 C-0.644266667,6.02 -0.300133333,10.7313889 2.58633333,18.3458333 L2.58633333,18.3458333 C3.98026667,22.0266667 0.707133333,28.2975 0.1948,32.1727778 L0.1948,32.1727778 C4.191,33.4327778 13.2950667,35.3013889 24.259,31.0877778 L24.259,31.0877778 C24.2512667,31.0625 24.2416,31.0352778 24.2338667,31.0119444 L24.2338667,31.0119444 C23.2788,27.9611111 20.9974667,27.1522222 20.9974667,22.61 L20.9974667,22.61 C20.9974667,17.1383333 31.9266,8.45833333 25.9738667,4.3225 L25.9738667,4.3225 C22.374,1.82194444 18.3062667,0.865277778 14.4705333,0.865277778 L14.4705333,0.865277778 C10.1534,0.865277778 6.13206667,2.07666667 3.40413333,3.66333333" id="path-6"></path>
        <linearGradient x1="49.9987077%" y1="17.714239%" x2="49.9987077%" y2="86.2197455%" id="linearGradient-8">
            <stop stop-color="#F67EAC" offset="0%"></stop>
            <stop stop-color="#F44964" offset="100%"></stop>
        </linearGradient>
        <path d="M2.27884615,4.00271429 C-4.50384615,11.2483571 10.9576923,18.8662143 35.9153846,21.5874286 L35.9153846,21.5874286 C44.9192308,22.5671429 74.2115385,24.8042857 74.2115385,24.8042857 L74.2115385,24.8042857 L74.2115385,18.3223571 C74.2115385,18.3223571 39.9788462,8.0585 29.3903846,4.88214286 L29.3903846,4.88214286 C28.75,4.68928571 28.1192308,4.481 27.4942308,4.2515 L27.4942308,4.2515 C25.0461538,3.34892857 17.8788462,0.926642857 11.4711538,0.926642857 L11.4711538,0.926642857 C7.825,0.926642857 4.425,1.70964286 2.27884615,4.00271429" id="path-9"></path>
        <linearGradient x1="-0.00162543507%" y1="50.0042428%" x2="100.000944%" y2="50.0042428%" id="linearGradient-11">
            <stop stop-color="#0083D6" offset="0%"></stop>
            <stop stop-color="#48CCD1" offset="100%"></stop>
        </linearGradient>
        <path d="M47.508075,3.92307692 C46.8786,4.15384615 46.25105,4.36346154 45.610025,4.55576923 L45.610025,4.55576923 C35.00905,7.72307692 0.742125,17.9557692 0.742125,17.9557692 L0.742125,17.9557692 L0.742125,24.4211538 C0.742125,24.4211538 30.063725,22.1884615 39.076575,21.2115385 L39.076575,21.2115385 C64.06115,18.4980769 79.536225,10.9019231 72.748675,3.67884615 L72.748675,3.67884615 C70.600375,1.39230769 67.196975,0.609615385 63.547175,0.609615385 L63.547175,0.609615385 C57.13115,0.609615385 49.956675,3.025 47.508075,3.92307692" id="path-12"></path>
        <linearGradient x1="0.000420791923%" y1="50.0016282%" x2="100.001271%" y2="50.0016282%" id="linearGradient-14">
            <stop stop-color="#0083D6" offset="0%"></stop>
            <stop stop-color="#48CCD1" offset="100%"></stop>
        </linearGradient>
        <path d="M47.1925789,0.681290323 C34.7287895,0.712258065 23.0430263,5.58193548 17.9407105,8.55677419 L17.9407105,8.55677419 C9.73781579,13.3374194 3.58660526,21.5632258 1.29094737,30.8264516 L1.29094737,30.8264516 C-1.00471053,40.0896774 0.585921053,50.2645161 5.59602632,58.3664516 L5.59602632,58.3664516 C5.13497368,51.8632258 10.7425263,46.2 16.9494474,44.3516129 L16.9494474,44.3516129 C23.1563684,42.5051613 29.7993684,43.5445161 36.1945526,44.5567742 L36.1945526,44.5567742 C42.5878158,45.5690323 49.2615526,46.5232258 55.4223684,44.5180645 L55.4223684,44.5180645 C58.2674474,43.5929032 60.8954474,42.0580645 63.2468158,40.196129 L63.2468158,40.196129 C70.1472368,34.736129 75.9680263,22.5735484 70.4469211,12.5516129 L70.4469211,12.5516129 C68.6814737,9.34451613 63.0105263,3.05225806 56.2580263,1.59677419 L56.2580263,1.59677419 C53.3245789,0.965806452 50.3565526,0.689032258 47.4288684,0.681290323 L47.4288684,0.681290323 L47.1925789,0.681290323 Z" id="path-15"></path>
        <linearGradient x1="0.00112699285%" y1="50.0002741%" x2="100.000753%" y2="50.0002741%" id="linearGradient-17">
            <stop stop-color="#0180FF" offset="0%"></stop>
            <stop stop-color="#0744DD" offset="100%"></stop>
        </linearGradient>
        <linearGradient x1="0%" y1="50%" x2="97.4613165%" y2="50%" id="linearGradient-18">
            <stop stop-color="#8CE6FF" offset="0%"></stop>
            <stop stop-color="#32B7DF" offset="100%"></stop>
        </linearGradient>
    </defs>
    <g id="LANDING" stroke="none" stroke-width="1" fill="none" fill-rule="evenodd">
        <g id="homepage" transform="translate(-196.000000, -1643.000000)">
            <g id="select-repayment-plan" transform="translate(196.000000, 1644.000000)">
                <g id="Group-61" transform="translate(0.000000, 12.000000)">
                    <g id="Group-6" transform="translate(0.000000, 58.000000)">
                        <g id="Group-3" transform="translate(0.000000, 57.906977)">
                            <mask id="mask-2" fill="white">
                                <use xlink:href="#path-1"></use>
                            </mask>
                            <g id="Clip-2"></g>
                            <path d="M88.4726357,4.40961628 C71.7384214,-0.516337209 54.2790643,-0.861848837 37.5217071,2.79015116 C26.9010643,2.79787209 10.43685,3.3557093 2.57792143,10.6442674 C-1.32743571,14.2634535 -0.764292857,19.3264535 4.05520714,21.6446628 C7.79856429,23.4455698 12.9787071,22.2642674 16.9091357,22.144593 C24.89535,21.9013837 32.8912071,21.8261047 40.8812786,21.9187558 C56.2500643,22.094407 71.6130643,22.8819419 86.9162786,24.3006628 C93.3345643,24.8951744 107.125779,27.6708488 107.694707,17.4811512 C108.161421,9.12903488 94.29885,6.12559302 88.4726357,4.40961628" id="Fill-1" fill="#ECECEC" mask="url(#mask-2)"></path>
                        </g>
                        <path d="M57.4459714,2.94032326 C57.4459714,2.94032326 55.8452571,-0.673072093 51.3594,0.26502093 C45.5544,1.47913721 44.7559714,8.3970907 46.1754,13.4311372 C47.4829714,18.0598349 50.5204714,21.5400442 55.4132571,21.9222302 C60.3041143,22.3082767 63.9761143,19.3164163 65.6424,13.1242302 C67.9084714,4.70841628 59.8836857,0.633695349 57.4459714,2.94032326" id="Fill-4" fill="#33213D"></path>
                    </g>
                    <g id="Group-9" transform="translate(45.000000, 58.000000)">
                        <mask id="mask-4" fill="white">
                            <use xlink:href="#path-3"></use>
                        </mask>
                        <g id="Clip-8"></g>
                        <path d="M6.262,0.2603 C0.24,1.4554 -0.588,8.265 0.886,13.2221 L0.886,13.2221 C1.556,15.4755 2.67,17.4496 4.234,18.9183 L4.234,18.9183 C3.18,17.6149 2.396,16.0379 1.878,14.2918 L1.878,14.2918 C0.404,9.3385 1.23,2.527 7.254,1.3338 L7.254,1.3338 C9.688,0.8512 11.294,1.5941 12.282,2.413 L12.282,2.413 C11.728,1.6169 10.344,0.1083 7.75,0.1083 L7.75,0.1083 C7.292,0.1083 6.798,0.1558 6.262,0.2603" id="Fill-7" fill="url(#linearGradient-5)" mask="url(#mask-4)"></path>
                    </g>
                    <g id="Group-12" transform="translate(41.000000, 79.000000)">
                        <mask id="mask-7" fill="white">
                            <use xlink:href="#path-6"></use>
                        </mask>
                        <g id="Clip-11"></g>
                        <path d="M3.40413333,3.66333333 C-0.644266667,6.02 -0.300133333,10.7313889 2.58633333,18.3458333 L2.58633333,18.3458333 C3.98026667,22.0266667 0.707133333,28.2975 0.1948,32.1727778 L0.1948,32.1727778 C4.191,33.4327778 13.2950667,35.3013889 24.259,31.0877778 L24.259,31.0877778 C24.2512667,31.0625 24.2416,31.0352778 24.2338667,31.0119444 L24.2338667,31.0119444 C23.2788,27.9611111 20.9974667,27.1522222 20.9974667,22.61 L20.9974667,22.61 C20.9974667,17.1383333 31.9266,8.45833333 25.9738667,4.3225 L25.9738667,4.3225 C22.374,1.82194444 18.3062667,0.865277778 14.4705333,0.865277778 L14.4705333,0.865277778 C10.1534,0.865277778 6.13206667,2.07666667 3.40413333,3.66333333" id="Fill-10" fill="url(#linearGradient-8)" mask="url(#mask-7)"></path>
                    </g>
                    <g id="Group-35" transform="translate(18.000000, 70.000000)">
                        <path d="M38.5426923,7.49244167 L38.8426923,10.4613583 C38.9657692,11.6726917 37.9253846,12.6808583 36.7138462,12.5236917 C35.6503846,12.3876083 34.9119231,11.400525 35.085,10.3463583 L35.9080769,5.30360833 L38.5426923,7.49244167 Z" id="Fill-13" fill="#884B00"></path>
                        <path d="M38.7511538,9.55228333 L38.5434615,7.49186667 L35.9069231,5.30495 L35.3434615,8.76453333 C35.8934615,9.11911667 37.1973077,9.80336667 38.7511538,9.55228333" id="Fill-15" fill="#33213D"></path>
                        <path d="M40.4469231,2.735275 C40.4046154,2.741025 40.3661538,2.75635833 40.3276923,2.76594167 C40.195,1.06969167 39.6046154,0.109441667 37.9853846,0.00594166667 C37.7892308,-0.007475 36.1084615,2.17369167 33.9353846,3.264275 C33.7738462,3.16844167 33.5892308,3.10710833 33.3853846,3.09369167 C32.7103846,3.051525 32.7546154,4.50244167 32.9257692,5.28635833 C33.07,5.94760833 33.6065385,6.14885833 33.7565385,6.05685833 C33.6719231,7.40810833 35.1084615,8.606025 36.4623077,8.72485833 C39.8757692,9.025775 40.1392308,7.427275 40.2603846,5.777025 C40.2853846,5.75785833 40.9507692,5.49144167 41.0430769,4.89535833 C41.1642308,4.103775 41.12,2.65094167 40.4469231,2.735275" id="Fill-17" fill="#884B00"></path>
                        <path d="M33.1303846,5.881675 C33.1034615,6.00050833 33.1803846,6.12125833 33.3015385,6.146175 C33.4226923,6.17300833 33.5419231,6.09634167 33.5688462,5.97559167 C33.5938462,5.85484167 33.5169231,5.737925 33.3976923,5.71109167 C33.2765385,5.68425833 33.1573077,5.760925 33.1303846,5.881675" id="Fill-19" fill="#FFFFFF"></path>
                        <path d="M40.4225,5.37356667 C40.3955769,5.49431667 40.4725,5.61315 40.5936538,5.63998333 C40.7148077,5.6649 40.8340385,5.58823333 40.8609615,5.4694 C40.8859615,5.34865 40.8090385,5.22981667 40.6898077,5.2049 C40.5686538,5.17615 40.4494231,5.25473333 40.4225,5.37356667" id="Fill-21" fill="#FFFFFF"></path>
                        <path d="M45.5551923,18.6967 C45.5551923,18.6967 45.4359615,22.6948667 47.2167308,24.6632833 C48.0301923,23.3887 48.8475,22.10645 49.4859615,20.8663667 C48.3167308,19.63395 46.8032692,18.6296167 45.5551923,18.6967" id="Fill-23" fill="#33213D"></path>
                        <path d="M27.6934615,12.5396 C27.6934615,12.5396 5.705,15.5794333 0.476153846,30.6655167 C-2.38346154,38.9110167 10.8588462,45.0501 25.78,41.7285167 L25.5088462,36.4155167 C25.5088462,36.4155167 12.4953846,33.2990167 11.5992308,31.07185 C10.5876923,28.5571833 18.2473077,25.04585 20.8992308,24.0319333 C28.9703846,20.9422667 27.6934615,12.5396 27.6934615,12.5396" id="Fill-25" fill="#884B00"></path>
                        <path d="M1.56096154,31.5563833 C5.46288462,20.2959667 18.7455769,14.9791333 25.2301923,13.0068833 C19.3417308,14.3044667 4.62826923,18.6878833 0.476346154,30.6651333 C-0.640961538,33.8813 0.703269231,36.77355 3.63019231,38.91255 C1.4725,36.8904667 0.593653846,34.3451333 1.56096154,31.5563833" id="Fill-27" fill="#643904"></path>
                        <path d="M46.6707692,12.5396 C46.6707692,12.5396 70.1919231,18.50235 72.3726923,30.3147667 C74.2726923,40.6015167 57.2534615,41.0730167 45.5322787,41.7285167 L46.6015385,36.4155167 C46.6015385,36.4155167 61.3034615,34.32635 59.5534615,30.45085 C58.19,27.4282667 52.2073077,25.7914333 49.4861538,24.5724333 C42.74,21.54985 46.6707692,12.5396 46.6707692,12.5396" id="Fill-29" fill="#884B00"></path>
                        <path d="M46.8248077,26.0927333 L23.2863462,26.0927333 C21.8498077,26.0927333 20.7959615,27.4363167 21.1421154,28.8239833 L24.3151923,41.58515 L24.3151923,42.2349 C24.3151923,43.2775667 25.1632692,44.1228167 26.2113462,44.1228167 L44.0478846,44.1228167 C45.0959615,44.1228167 45.9421154,43.2775667 45.9421154,42.2349 L45.9421154,41.58515 L48.9748077,28.7990667 C49.2998077,27.4152333 48.2478846,26.0927333 46.8248077,26.0927333" id="Fill-31" fill="#E0E0E0"></path>
                        <path d="M36.5407692,34.1310417 C36.5407692,34.6715417 35.8753846,35.1085417 35.0561538,35.1085417 C34.235,35.1085417 33.5676923,34.6715417 33.5676923,34.1310417 C33.5676923,33.5905417 34.235,33.1535417 35.0561538,33.1535417 C35.8753846,33.1535417 36.5407692,33.5905417 36.5407692,34.1310417" id="Fill-33" fill="#FFFFFF"></path>
                    </g>
                    <g id="Group-38" transform="translate(14.000000, 106.000000)">
                        <mask id="mask-10" fill="white">
                            <use xlink:href="#path-9"></use>
                        </mask>
                        <g id="Clip-37"></g>
                        <path d="M2.27884615,4.00271429 C-4.50384615,11.2483571 10.9576923,18.8662143 35.9153846,21.5874286 L35.9153846,21.5874286 C44.9192308,22.5671429 74.2115385,24.8042857 74.2115385,24.8042857 L74.2115385,24.8042857 L74.2115385,18.3223571 C74.2115385,18.3223571 39.9788462,8.0585 29.3903846,4.88214286 L29.3903846,4.88214286 C28.75,4.68928571 28.1192308,4.481 27.4942308,4.2515 L27.4942308,4.2515 C25.0461538,3.34892857 17.8788462,0.926642857 11.4711538,0.926642857 L11.4711538,0.926642857 C7.825,0.926642857 4.425,1.70964286 2.27884615,4.00271429" id="Fill-36" fill="url(#linearGradient-11)" mask="url(#mask-10)"></path>
                    </g>
                    <g id="Group-43" transform="translate(88.000000, 124.000000)">
                        <path d="M7.681,3.6698 C6.411,2.1898 2.217,0.3338 2.217,0.3338 C1.033,0.1598 0.181,0.0378 0.181,0.0378 L0.181,6.7618 C0.181,6.7618 1.153,7.0218 2.529,7.3158 C7.815,7.3298 8.951,5.1518 7.681,3.6698" id="Fill-39" fill="#884B00"></path>
                        <path d="M8.8334,1.3542 C7.5754,1.1242 4.3534,0.6462 2.2134,0.3322 C2.2134,0.3322 6.4114,2.1882 7.6814,3.6702 C8.9514,5.1502 7.8154,7.3302 2.5294,7.3162 C4.2914,7.6922 6.7174,8.1242 8.5974,8.1262 C12.6894,8.1302 13.2074,2.1542 8.8334,1.3542" id="Fill-41" fill="#F4564A"></path>
                    </g>
                    <g id="Group-46" transform="translate(18.000000, 105.000000)">
                        <mask id="mask-13" fill="white">
                            <use xlink:href="#path-12"></use>
                        </mask>
                        <g id="Clip-45"></g>
                        <path d="M47.508075,3.92307692 C46.8786,4.15384615 46.25105,4.36346154 45.610025,4.55576923 L45.610025,4.55576923 C35.00905,7.72307692 0.742125,17.9557692 0.742125,17.9557692 L0.742125,17.9557692 L0.742125,24.4211538 C0.742125,24.4211538 30.063725,22.1884615 39.076575,21.2115385 L39.076575,21.2115385 C64.06115,18.4980769 79.536225,10.9019231 72.748675,3.67884615 L72.748675,3.67884615 C70.600375,1.39230769 67.196975,0.609615385 63.547175,0.609615385 L63.547175,0.609615385 C57.13115,0.609615385 49.956675,3.025 47.508075,3.92307692" id="Fill-44" fill="url(#linearGradient-14)" mask="url(#mask-13)"></path>
                    </g>
                    <g id="Group-57" transform="translate(8.000000, 113.000000)">
                        <path d="M4.13527027,12.59108 C5.35378378,11.18318 9.37775676,9.42188 9.37967568,9.41998 C10.5137568,9.25658 11.3312162,9.14068 11.3312162,9.14068 L11.3312162,15.52848 C11.3312162,15.52848 10.3986216,15.77548 9.07840541,16.05478 L9.07840541,16.05478 C4.0067027,16.06808 2.91675676,13.99898 4.13527027,12.59108" id="Fill-47" fill="#884B00"></path>
                        <path d="M1.80397568,14.95867 C1.9383,14.18727 1.49886757,13.58497 1.12467838,12.81547 C0.898245946,12.34237 1.20527297,11.55577 1.47392162,11.01807 C-0.794240541,12.60647 -0.176348649,16.33617 2.6790027,16.77697 C1.93638108,16.30767 1.70227297,15.52677 1.80397568,14.95867" id="Fill-49" fill="#E0E0E0"></path>
                        <path d="M9.07878919,16.05535 L9.07878919,16.05535 C4.00516757,16.06675 2.91714054,13.99765 4.13565405,12.59165 C5.35416757,11.18375 9.37814054,9.42055 9.38005946,9.42055 C7.32873514,9.71695 4.23735676,10.17295 3.03035676,10.39145 C2.40862703,10.50355 1.89435676,10.72585 1.47411351,11.01845 C1.20354595,11.55615 0.898437838,12.34275 1.12487027,12.81395 C1.49905946,13.58535 1.93849189,14.18765 1.80416757,14.95905 C1.70246486,15.52715 1.93657297,16.30805 2.67919459,16.77735 C2.86341081,16.80585 3.05338378,16.82485 3.25678919,16.82295 C5.05865405,16.82105 7.3863027,16.41255 9.07878919,16.05535" id="Fill-51" fill="#F4564A"></path>
                        <path d="M69.4909622,7.70751 C69.4583405,7.70751 69.4276378,7.70371 69.3950162,7.69421 L45.6810162,0.67371 C45.5063946,0.62241 45.4066108,0.44001 45.4603405,0.26711 C45.5121514,0.09421 45.6944486,-0.00459 45.8690703,0.04861 L69.5849892,7.06911 C69.7596108,7.12041 69.8574757,7.30281 69.8056649,7.47381 C69.7634486,7.61631 69.6310432,7.70751 69.4909622,7.70751" id="Fill-53" fill="#FFFFFF"></path>
                        <path d="M35.0534676,13.13201 C35.0400351,13.13201 35.0266027,13.13201 35.0131703,13.13011 C25.0463054,11.94451 17.9156027,9.10781 17.8446027,9.07931 C17.6757378,9.01091 17.5951432,8.82091 17.6642243,8.65561 C17.7333054,8.48651 17.9251973,8.40671 18.0940622,8.47511 C18.1631432,8.50361 25.2190081,11.30991 35.0937649,12.48221 C35.2722243,12.50311 35.4027108,12.66651 35.3816027,12.84511 C35.3604946,13.01041 35.2184946,13.13201 35.0534676,13.13201" id="Fill-55" fill="#FFFFFF"></path>
                    </g>
                    <g id="Group-60" transform="translate(33.000000, 0.000000)">
                        <mask id="mask-16" fill="white">
                            <use xlink:href="#path-15"></use>
                        </mask>
                        <g id="Clip-59"></g>
                        <path d="M47.1925789,0.681290323 C34.7287895,0.712258065 23.0430263,5.58193548 17.9407105,8.55677419 L17.9407105,8.55677419 C9.73781579,13.3374194 3.58660526,21.5632258 1.29094737,30.8264516 L1.29094737,30.8264516 C-1.00471053,40.0896774 0.585921053,50.2645161 5.59602632,58.3664516 L5.59602632,58.3664516 C5.13497368,51.8632258 10.7425263,46.2 16.9494474,44.3516129 L16.9494474,44.3516129 C23.1563684,42.5051613 29.7993684,43.5445161 36.1945526,44.5567742 L36.1945526,44.5567742 C42.5878158,45.5690323 49.2615526,46.5232258 55.4223684,44.5180645 L55.4223684,44.5180645 C58.2674474,43.5929032 60.8954474,42.0580645 63.2468158,40.196129 L63.2468158,40.196129 C70.1472368,34.736129 75.9680263,22.5735484 70.4469211,12.5516129 L70.4469211,12.5516129 C68.6814737,9.34451613 63.0105263,3.05225806 56.2580263,1.59677419 L56.2580263,1.59677419 C53.3245789,0.965806452 50.3565526,0.689032258 47.4288684,0.681290323 L47.4288684,0.681290323 L47.1925789,0.681290323 Z" id="Fill-58" fill="url(#linearGradient-17)" mask="url(#mask-16)"></path>
                    </g>
                </g>
                <path d="M91,46.5 L92.5,25.5" id="Line" stroke="#FFFFFF" stroke-linecap="round"></path>
                <path d="M84.5,46.5 L78.5,34.5" id="Line-2" stroke="#FFFFFF" stroke-linecap="round"></path>
                <path d="M78.5,49.5 L73.5,45.5" id="Line-3" stroke="#FFFFFF" stroke-linecap="round"></path>
                <polygon id="Star" fill="#F56E96" points="119.5 16.25 116.267181 17.9495935 116.884595 14.3497967 114.269189 11.8004065 117.883591 11.2752033 119.5 8 121.116409 11.2752033 124.730811 11.8004065 122.115405 14.3497967 122.732819 17.9495935"></polygon>
                <polygon id="Triangle" fill="#697788" points="9.5 78 19 92 0 92"></polygon>
                <rect id="Rectangle" fill="url(#linearGradient-18)" x="90" y="66" width="15" height="15"></rect>
                <rect id="Rectangle" fill="url(#linearGradient-18)" opacity="0.597214472" x="93" y="63" width="15" height="15"></rect>
                <circle id="Oval" fill="#D7293E" cx="16" cy="40" r="6"></circle>
                <circle id="Oval-Copy-3" stroke="#14314D" cx="95" cy="4" r="4"></circle>
            </g>
        </g>
    </g>
</svg>